<svg xmlns="http://www.w3.org/2000/svg" xmlns:xlink="http://www.w3.org/1999/xlink" viewBox="0 0 449.09 500"><defs><style>.cls-1,.cls-13{fill:#d6d8e5;}.cls-1{opacity:0.4;}.cls-2{fill:#3a2c6d;}.cls-3{fill:#ffcea9;}.cls-4{fill:#f4f4f4;}.cls-5{fill:#38226d;}.cls-6{fill:#9c73ff;}.cls-7{fill:#8c50ff;}.cls-8{fill:#ededed;}.cls-9{fill:#c1c4d3;}.cls-10{fill:#62c8e8;}.cls-11{fill:#6cd4ff;}.cls-12{fill:#5cbfd6;}.cls-14{fill:#d6d6d6;}.cls-15{opacity:0.2;}.cls-16{fill:#a6ce28;}.cls-17{fill:#bcd64d;}.cls-18{fill:#28221c;}.cls-19{fill:#fff;opacity:0.07;}.cls-20{fill:#8da01f;}.cls-21{fill:#99b524;}.cls-22{fill:#f7b03e;}.cls-23{fill:#fcc068;}.cls-24{fill:#c9883a;}.cls-25{fill:#e09c3b;}.cls-26{fill:#2b303f;}.cls-27{fill:#bfbfbf;}.cls-28{fill:#e5e5e5;}.cls-29{fill:#3d348b;}.cls-30{fill:#b7c0ee;}.cls-31,.cls-33{fill:#ffdf57;}.cls-32{fill:#d8aa44;}.cls-33{opacity:0.69;}.cls-34{opacity:0.1;}.cls-35,.cls-37{opacity:0.3;}.cls-35{fill:url(#Безымянный_градиент_22);}.cls-36{fill:#1f232d;}.cls-37{fill:url(#Безымянный_градиент_22-2);}</style><linearGradient id="Безымянный_градиент_22" x1="200.86" y1="327" x2="200.86" y2="333.56" gradientUnits="userSpaceOnUse"><stop offset="0.01" stop-color="#fff"/><stop offset="0.88" stop-color="#fff" stop-opacity="0"/></linearGradient><linearGradient id="Безымянный_градиент_22-2" x1="191.95" y1="322" x2="191.95" y2="328.49" xlink:href="#Безымянный_градиент_22"/></defs><title>Creative_process_SVG</title><g id="Слой_2" data-name="Слой 2"><g id="Слой_1-2" data-name="Слой 1"><ellipse class="cls-1" cx="409.28" cy="220" rx="39.81" ry="22.99"/><g id="Girl_8"><path id="_Контур_" data-name="&lt;Контур&gt;" class="cls-2" d="M415.57,14c1.55-2.5,13.42-4.14,17.32,5.91,1.48,3.82,1.26,13.56,2.5,19.69s4.15,9.59,5.2,14.56S439.93,67.48,428,69s-21.18-2.73-24-6.54-2.89-11.93.05-16.29,5.17-7.9,5.1-13.57Z"/><path class="cls-3" d="M401.35,56.11s-2.81,19.84,2.5,34,3.85-3.64,3.85-3.64l-1.28-4.21S405.35,66,405.79,62s.34-7.4.63-7.72-1.06-.95-1.62-1S401.35,56.11,401.35,56.11Z"/><path id="_Контур_2" data-name="&lt;Контур&gt;" class="cls-2" d="M423.41,12.29s-8.94-2.57-14.36,2.26a13.27,13.27,0,0,0-3.82,13.24c.72,2.82,2.17,6.67,4.41,6.88S423.41,12.29,423.41,12.29Z"/><path id="_Контур_3" data-name="&lt;Контур&gt;" class="cls-3" d="M426.82,36.66s-.58,10-.4,10.69,3.91,1.44,4.95,2.31-5.41,11-8.7,12.47-13.46-2.33-14.16-7.39c-.66-4.66,2.91-8.28,4.28-9.54a18.83,18.83,0,0,1,2.81-.07l.3-4.83C420.35,38.88,426.82,36.66,426.82,36.66Z"/><path id="_Контур_4" data-name="&lt;Контур&gt;" class="cls-4" d="M428.19,48.32c2.8.43,6,1.93,6.43,3.46.52,1.79,1.62,10.21-.8,16.62s-4.05,10.49-5.45,13.25c0,0-12.1,5.2-21.86-.86,0,0-.68-6.87-.72-10.55-9-7.86-1.31-17.55,6.33-25.08a15.81,15.81,0,0,1,2.75,0s-6.81,8-2.08,12.63C422.93,54.69,424.94,50.14,428.19,48.32Z"/><path id="_Контур_5" data-name="&lt;Контур&gt;" class="cls-3" d="M408.22,24.32h0c1-6.4,5.62-11.23,12.22-10.84a12.73,12.73,0,0,1,12,13.45,12.6,12.6,0,0,1-5.59,9.73,13.2,13.2,0,0,1-1,2.8c-2.35,2.72-8.55,4.45-10.6,4.47-1.77,0-3.3-1.63-5-4.38C406.79,33.83,407.67,27.48,408.22,24.32Z"/><path class="cls-2" d="M422.49,13.59c4.63.91,8.43,2.21,9.69,6.76.86,3.13,2,9.09.91,11.61l-.66,1.81-5.61,2.89s-2.61-2.18-1.8-8.57a4.62,4.62,0,0,0-.79-2.42,7.28,7.28,0,0,1-.77-1.93,7.26,7.26,0,0,0-3.63-3.93c-4.18-2.34-10.29-.32-11.14.53A12.18,12.18,0,0,1,422.49,13.59Z"/><path id="_Контур_6" data-name="&lt;Контур&gt;" class="cls-3" d="M435,94.85c1-6.48,3-10.69,2.08-14.25a129.51,129.51,0,0,0-7.88-21c-2-4-1.43-6.84.69-8.43,2.39-1.79,4.67-1,6.82,3.46,2.7,5.62,5.75,11.39,7.23,19.76.73,4.06,1.11,8-.2,16.34-.92,5.83-2.77,9.1-5,14.57C438.13,106.79,434.06,100.35,435,94.85Z"/><path class="cls-5" d="M430.9,215.78c-2.34,1.91-6,.59-6.16.77-2.39,2.39-5.94,4.47-8.59,6.55-1.46,1.15-3.73,2.69-3.32,4.89.74,3.95,7.06,2.74,9.44,1.53s4.33-3.21,6.59-4.61c1.6-1,3.19-1.52,3.44-3.55C432.45,220.13,431.31,215.74,430.9,215.78Z"/><path class="cls-6" d="M432.27,220.54c-.31,2-1.87,2.48-3.47,3.47-2.29,1.43-4.31,3.48-6.69,4.69-2.21,1.11-7.7,2.22-9.25-.6.84,3.81,7.05,2.61,9.41,1.42s4.33-3.21,6.59-4.61c1.6-1,3.19-1.52,3.44-3.55A4,4,0,0,0,432.27,220.54Z"/><path class="cls-5" d="M414.46,212.5c-2.14,1.75-5.38.77-5.54.93-2.18,2.19-5.42,4.07-7.84,6-1.34,1.06-3.43,2.46-3.05,4.49.68,3.61,6.46,2.5,8.65,1.39s4-2.94,6-4.22c1.47-.91,2.92-1.39,3.15-3.25C416,216.69,414.84,212.46,414.46,212.5Z"/><path class="cls-6" d="M415.84,217.06c-.29,1.78-1.72,2.27-3.18,3.18-2.1,1.31-4,3.19-6.13,4.29-2,1-7,2-8.47-.54.77,3.48,6.46,2.39,8.62,1.29s4-2.94,6-4.22c1.47-.91,2.92-1.39,3.15-3.25A3.27,3.27,0,0,0,415.84,217.06Z"/><path class="cls-3" d="M401.83,103.53c1-8.07,4-19.81,4-19.81a23.94,23.94,0,0,0,9,2.23c5.21.27,13.55-1.32,13.55-1.32A79.38,79.38,0,0,0,433.14,92c2.33,3.23,6.85,10.32,5.76,22.69-.72,8.09-5.25,42.43-5.25,42.43A64.54,64.54,0,0,1,436.44,175c-.05,5-1.36,13.48-2.84,21.33l-2.7,19.49s-3.6,2.6-6.16.77l.32-19.08c-.31-4.67-.78-11.56-1.07-16-.49-7.16-1.77-18.54-2.14-21.38s-1.28-7.8-1.72-13.37-2.53-33.83-2.53-33.83l-.29,5.3s-.27,8.59-1.51,19.2-1.67,15.31-1.67,15.31,2.15,3.94,2.42,6.85c.22,2.29,2.84,20.42,1.27,29.64l-3.21,23.45a6.16,6.16,0,0,1-5.55.73l-1.89-23.63c-1.27-9-4-28.06-4.37-30.54-.54-3.26-1-4.87-1.6-15.12S400.8,111.61,401.83,103.53Z"/><path class="cls-7" d="M428.37,81.65l7,14s10.61,15.54-.38,55.47L437,163.41s-20.82,13.36-34.75,0c0,0-4.83-36.9-2.26-53.92a194.82,194.82,0,0,1,6.49-28.91s3.41,3.77,21,1.28"/><path class="cls-8" d="M440.85,62.46s-4.83,4.81-10.56,4.21l-2.75-9.36s-1.79-4.9,2.39-7S438.45,52.87,440.85,62.46Z"/><path class="cls-8" d="M412.12,45.16s-5.53-1.68-11.4,10.56l2.19,1.33S408.69,48.31,412.12,45.16Z"/></g><ellipse class="cls-1" cx="39.81" cy="313.5" rx="39.81" ry="22.99"/><g id="Men_13"><path class="cls-5" d="M19.39,306.44c2.85,2.32,7.05.2,7.26.41a127.82,127.82,0,0,0,10.52,8.76c1.77,1.4,4.54,3.26,4,5.95-.9,4.8-8.58,3.32-11.48,1.85s-5.27-3.9-8-5.6c-2-1.22-3.89-1.85-4.19-4.32C17.34,312,18.88,306.38,19.39,306.44Z"/><path class="cls-6" d="M17.57,312.49c.37,2.37,2.27,3,4.22,4.23,2.78,1.73,5.24,4.23,8.14,5.7,2.68,1.35,9.36,2.7,11.24-.73-1,4.63-8.57,3.18-11.44,1.72s-5.27-3.9-8-5.6c-2-1.22-3.89-1.85-4.19-4.32A4.5,4.5,0,0,1,17.57,312.49Z"/><path class="cls-5" d="M44.12,297.25c2.84,2.32,7.83-.22,8,0a112.44,112.44,0,0,0,9.39,8.48c1.78,1.4,4.55,3.26,4,5.95-.9,4.8-8.58,3.32-11.48,1.85s-5.27-3.9-8-5.6c-2-1.22-3.88-1.85-4.18-4.32C41.73,302.12,43.61,297.19,44.12,297.25Z"/><path class="cls-6" d="M42,303c.38,2.37,2.28,3,4.22,4.23,2.79,1.73,5.25,4.23,8.14,5.7,2.68,1.35,9.37,2.7,11.25-.73-1,4.63-8.58,3.18-11.45,1.72s-5.26-3.9-8-5.6c-1.95-1.22-3.88-1.85-4.18-4.32A4.4,4.4,0,0,1,42,303Z"/><path id="_Контур_7" data-name="&lt;Контур&gt;" class="cls-7" d="M19.22,201.26c.14,4.31,1.48,23,2.08,32.93s.74,22,.74,22-1.71,7.22-2.82,15.7,0,35.25,0,35.25a6.76,6.76,0,0,0,7.3,0s4.56-21.42,6.67-31.07,2.48-15.22,3.58-21.2c1.32-7.24,4.18-41,4.18-41l1.14.07,3,38.13a42.8,42.8,0,0,0-1.92,8.65c-.83,6.21.87,37.46.87,37.46a7.58,7.58,0,0,0,7.89-.32s7.62-41.39,7.62-47.69c0-4.16-.71-59.09-.71-59.09Z"/><path id="_Контур_8" data-name="&lt;Контур&gt;" class="cls-3" d="M29.55,118s.49,9.39.28,10.22-4.32,3.59-5.51,4.58,6.5,8.57,10.23,10.28,15.59-2.8,15.8-8.62-2-10.71-3.85-11S29.55,118,29.55,118Z"/><path class="cls-3" d="M55.28,135.42c.55-4.14-2.18-8.08.47-11.38,9.27,9.09,8.09,33.15,10.2,48.54,6.88,7.2,20.72,14.29,24.62,16,.71.32,1.32.66,1.18,1.43-.56,3-1.43,4.14-3.22,7-9.16-3.95-15.76-6.22-27.2-17.09a25.13,25.13,0,0,1-2.9-3.8C55.16,166.4,54.34,142.57,55.28,135.42Z"/><path id="_Контур_9" data-name="&lt;Контур&gt;" class="cls-4" d="M28.5,129.84S35.32,140,44.83,141c3-3,3.27-13.48-.88-16.84,0,0,3.82-3.08,6.43-2.48a13.47,13.47,0,0,1,5.87,7.49,61.3,61.3,0,0,1,3.35,21.75c-.16,10,0,40.42,0,40.42s-1.33,6.44-9.93,11.23-15,5.26-20.83,3.9c-4.82-1.12-8.8-2.82-10.45-6.31.43-7,3.55-25.22,2.38-34s-3-15.35-3.5-22.45.94-7,4.5-9.49A56.41,56.41,0,0,1,28.5,129.84Z"/><path id="_Контур_10" data-name="&lt;Контур&gt;" class="cls-3" d="M50.81,104h0c-1.12-7.29-6.37-12.82-13.89-12.4a14.51,14.51,0,0,0-13.68,15.29A14.36,14.36,0,0,0,29.55,118a14.45,14.45,0,0,0,1.17,3.19c2.65,3.11,10.7,5,13,4.7,3-.42,4.58-1.66,6-4.9C52.21,115.24,51.43,107.59,50.81,104Z"/><path class="cls-2" d="M29.55,118h0l.69-6.36S25,98.16,37.33,100.75c8.1,1.7,10.14,2.44,12.61-3s-6.24-10.33-16.57-9a14.28,14.28,0,0,0-12.78,14.49C20.86,107.27,21.93,115.37,29.55,118Z"/><path class="cls-3" d="M15.17,139.47c3.56-1,.85-.17,3.56-1,9.27,9.1,8.12,24.68,10.22,40.08,5.12,8.46,24.12,19.93,24.12,19.93.24,1.64-.34,2.12-2.39,5.43-9.15-3.95-16.82-7.36-28.26-18.22-.45-.43-1.11-.54-1.3-1.13C17.85,174.73,14.22,146.63,15.17,139.47Z"/><polygon class="cls-4" points="99.71 158.44 85.9 205.66 55.6 217.77 66.65 171.77 99.71 158.44"/><path class="cls-3" d="M48.29,198.8c.45-1.61,1.62-1.21,2.93-.81a7.66,7.66,0,0,0,4.48.39c1.25-.39,2.15-1.46,3.21-2.17a4.13,4.13,0,0,1,2-.58c-.06.41-.69,2.81-.69,2.81s6.64.07,7.32-.07a1.12,1.12,0,0,1,1,1.84l.45-.07c1.36-.3,1.94,1.78.57,2.09-.36.08-.73.12-1.11.17.89.34,1.11,1.81,0,2l-.34.06a1.13,1.13,0,0,1-.49.07l-.21,0a1.19,1.19,0,0,1-1,1.41c-3.24.43-8,1.72-10.94-.95a18.46,18.46,0,0,1-5.88-1.59C47.8,202.55,47.75,200.73,48.29,198.8Z"/><path class="cls-3" d="M81.44,194.94l.45,0a1.12,1.12,0,0,1,.63-2c.7,0,7.53-1.43,7.53-1.43l.82-2.81c0-.16,1.19.56,1.23.59a4.6,4.6,0,0,1,2.06,3.42,7.29,7.29,0,0,1-2,5.27,6.76,6.76,0,0,1-4.63,2c-.83.05-1.63.09-2.34.15A1.19,1.19,0,0,1,84,198.93l-.21,0a1.07,1.07,0,0,1-.49,0l-.35,0c-1.16,0-1.25-1.44-.46-2-.37,0-.75.07-1.12.07C79.92,197.09,80,194.93,81.44,194.94Z"/><path class="cls-8" d="M59.15,141.58s3.5-.18,4.95-2.22c-.27-3.49-4.74-16.74-13.72-17.73A16.65,16.65,0,0,1,56,128.41C57.63,132.4,59.15,141.58,59.15,141.58Z"/><path class="cls-8" d="M13.55,159.09s8.94,3.08,15.24-2.1c.69-1.19-3.65-16.4-3.65-16.4s-3.75-7.78-9.62-4.69S13.55,159.09,13.55,159.09Z"/></g><ellipse class="cls-1" cx="104.7" cy="401.23" rx="5.16" ry="2.98"/><ellipse class="cls-1" cx="201.34" cy="456.34" rx="5.16" ry="2.98"/><ellipse class="cls-1" cx="368.85" cy="354.18" rx="5.16" ry="2.98"/><path class="cls-9" d="M101.34,300.31V400.63a1.76,1.76,0,0,0,1,1.46,5.59,5.59,0,0,0,5.07,0,1.77,1.77,0,0,0,1-1.46h0V300.31Z"/><path class="cls-9" d="M198.21,339.35V455.78a1.81,1.81,0,0,0,.91,1.47,4.36,4.36,0,0,0,4.44,0,1.82,1.82,0,0,0,.92-1.47h0V339.35Z"/><path class="cls-9" d="M365.71,258.48v94.94a1.79,1.79,0,0,0,.92,1.46,4.34,4.34,0,0,0,4.43,0,1.79,1.79,0,0,0,.92-1.46h0V258.48Z"/><polygon class="cls-10" points="201.34 369.23 95.08 307.88 95.08 300.71 201.34 362.07 201.34 369.23"/><polygon class="cls-11" points="380.5 258.84 201.32 362.29 95.05 300.94 274.23 197.49 380.5 258.84"/><polygon class="cls-12" points="380.52 265.78 201.34 369.23 201.34 362.07 380.52 258.62 380.52 265.78"/><polygon class="cls-4" points="329.38 238.2 300.81 262.13 274.71 251.74 303.28 227.81 329.38 238.2"/><polygon class="cls-4" points="322.75 239.31 287.16 259.86 264.75 246.92 300.34 226.37 322.75 239.31"/><polygon class="cls-13" points="289.54 254.31 287.36 255.57 272.58 247.04 274.76 245.78 289.54 254.31"/><polygon class="cls-13" points="294.44 251.48 292.26 252.74 277.49 244.21 279.67 242.95 294.44 251.48"/><polygon class="cls-13" points="299.16 248.76 296.98 250.01 282.21 241.49 284.39 240.23 299.16 248.76"/><polygon class="cls-13" points="310.24 242.36 308.06 243.62 299.46 238.66 301.64 237.4 310.24 242.36"/><polygon class="cls-13" points="314.96 239.64 312.78 240.89 304.18 235.93 306.36 234.67 314.96 239.64"/><path class="cls-14" d="M291.19,258.3c.59-.25,31.56-19,31.56-19L290.4,258Z"/><ellipse class="cls-15" cx="296.25" cy="282.77" rx="7.76" ry="4.48"/><path class="cls-16" d="M304.77,282.13V270.18l-15.49.39,0,11c-.29,1.32.44,2.71,2.21,3.73a12.12,12.12,0,0,0,11,0A3.85,3.85,0,0,0,304.77,282.13Z"/><ellipse class="cls-17" cx="297.01" cy="270.18" rx="7.76" ry="4.48"/><path class="cls-18" d="M303.54,270.18c0,.73-.6,1.5-1.66,2.1a9.69,9.69,0,0,1-4.37,1.14H297a10,10,0,0,1-4.87-1.15c-1.05-.6-1.66-1.37-1.66-2.1s.61-1.49,1.66-2.1a10,10,0,0,1,4.87-1.15h.5a9.69,9.69,0,0,1,4.37,1.14C302.94,268.69,303.54,269.45,303.54,270.18Z"/><path class="cls-19" d="M303.54,270.18c0,.73-.6,1.5-1.66,2.1a9,9,0,0,1-8.75,0c-1.05-.6-1.66-1.37-1.66-2.1s.61-1.49,1.66-2.1a9,9,0,0,1,8.75,0C302.94,268.69,303.54,269.45,303.54,270.18Z"/><path class="cls-20" d="M303.64,275.71l-1.65-.95-.8.47.8.46v.3l1.54.89,0,.29a14.24,14.24,0,0,1,1,1.66l.06-.05v3.85c0,1-.59.67-.85.52l-1.73-1-.8.47.8.46v.3l1.73,1a2.68,2.68,0,0,0,.57.25l-.11.49.9-.51h0a1.51,1.51,0,0,0,.52-1.34v-4A4.65,4.65,0,0,0,303.64,275.71Z"/><path class="cls-21" d="M302.92,284.85l-1.73-1v-1.23l1.73,1c.25.14.85.48.85-.53v-4a2.29,2.29,0,0,0-1-1.7l-1.57-.91v-1.23l1.65.95a4.65,4.65,0,0,1,2,3.51v4C304.83,284.79,304.33,285.66,302.92,284.85Z"/><ellipse class="cls-15" cx="143.16" cy="298.89" rx="7.76" ry="4.48"/><path class="cls-22" d="M151.68,298.25V286.3l-15.49.39,0,11c-.29,1.33.45,2.72,2.21,3.73a12.12,12.12,0,0,0,11,0A3.84,3.84,0,0,0,151.68,298.25Z"/><ellipse class="cls-23" cx="143.92" cy="286.3" rx="7.76" ry="4.48"/><path class="cls-18" d="M150.45,286.3c0,.73-.61,1.49-1.66,2.1a9.85,9.85,0,0,1-4.37,1.14h-.5a10,10,0,0,1-4.87-1.15c-1.06-.61-1.66-1.37-1.66-2.1s.6-1.5,1.66-2.11a10,10,0,0,1,4.87-1.14h.5a9.72,9.72,0,0,1,4.37,1.13C149.84,284.8,150.45,285.57,150.45,286.3Z"/><path class="cls-19" d="M150.45,286.3c0,.73-.61,1.49-1.66,2.1a9,9,0,0,1-8.75,0c-1-.61-1.66-1.37-1.66-2.1s.61-1.5,1.66-2.11a9,9,0,0,1,8.75,0C149.84,284.8,150.45,285.57,150.45,286.3Z"/><path class="cls-24" d="M150.54,291.83l-1.64-.95-.81.46.81.47v.3l1.54.89-.05.29a13.22,13.22,0,0,1,1,1.66l.05-.05v3.85c0,1-.59.67-.84.52l-1.73-1-.81.46.81.47v.3l1.73,1a2.63,2.63,0,0,0,.56.25l-.1.49.9-.51h0a1.5,1.5,0,0,0,.53-1.35v-4A4.65,4.65,0,0,0,150.54,291.83Z"/><path class="cls-25" d="M149.83,301l-1.74-1v-1.24l1.74,1c.25.15.84.49.84-.52v-4a2.37,2.37,0,0,0-1-1.71l-1.58-.9v-1.24l1.65,1a4.64,4.64,0,0,1,2,3.51v4C151.74,300.91,151.24,301.78,149.83,301Z"/><g id="_Группа_" data-name="&lt;Группа&gt;"><g id="_Группа_2" data-name="&lt;Группа&gt;"><path id="_Контур_11" data-name="&lt;Контур&gt;" class="cls-15" d="M242.22,269.29l-23-13.29a1.3,1.3,0,0,0-1.32,0l-40.38,23.32L201.17,293Z"/><path id="_Контур_12" data-name="&lt;Контур&gt;" class="cls-4" d="M243.31,266.68l-23-13.29a1.3,1.3,0,0,0-1.32,0l-40.38,23.32,23.68,13.67Z"/><path class="cls-26" d="M201.2,285.49l-1.76,1c-.14.09-.12.23,0,.33l1.68,1a.62.62,0,0,0,.56,0l1.75-1c.14-.08.13-.22,0-.32l-1.67-1A.65.65,0,0,0,201.2,285.49Z"/><path class="cls-26" d="M203.68,284.06l-1.75,1c-.15.08-.13.23,0,.32l1.67,1a.65.65,0,0,0,.56,0l1.75-1c.15-.08.13-.23,0-.32l-1.67-1A.59.59,0,0,0,203.68,284.06Z"/><path class="cls-26" d="M206.19,282.61l-1.75,1c-.14.08-.13.23,0,.32l1.67,1a.65.65,0,0,0,.56,0l1.76-1c.14-.08.12-.23,0-.32l-1.68-1A.59.59,0,0,0,206.19,282.61Z"/><path class="cls-26" d="M208.65,281.19l-1.76,1c-.14.08-.12.23,0,.32l1.68,1a.59.59,0,0,0,.56,0l1.75-1c.15-.08.13-.23,0-.32l-1.67-1A.65.65,0,0,0,208.65,281.19Z"/><path class="cls-26" d="M211.13,279.75l-1.75,1c-.14.08-.13.22,0,.32l1.67,1a.65.65,0,0,0,.56,0l1.76-1c.14-.09.12-.23,0-.33l-1.68-1A.62.62,0,0,0,211.13,279.75Z"/><path class="cls-26" d="M213.62,278.32l-1.76,1c-.14.09-.12.23,0,.33l1.68,1a.59.59,0,0,0,.56,0l1.75-1c.14-.08.13-.23,0-.32l-1.67-1A.65.65,0,0,0,213.62,278.32Z"/><path class="cls-26" d="M216.1,276.89l-1.75,1c-.15.08-.13.23,0,.32l1.67,1a.65.65,0,0,0,.56,0l1.75-1c.15-.08.13-.23,0-.32l-1.67-1A.59.59,0,0,0,216.1,276.89Z"/><path class="cls-26" d="M218.58,275.45l-1.75,1c-.14.09-.13.23,0,.33l1.67,1a.62.62,0,0,0,.56,0l1.76-1c.14-.08.12-.22,0-.32l-1.68-1A.65.65,0,0,0,218.58,275.45Z"/><path class="cls-26" d="M221.07,274l-1.76,1c-.14.08-.12.23,0,.32l1.68,1a.62.62,0,0,0,.56,0l1.75-1c.15-.08.13-.23,0-.32l-1.67-1A.59.59,0,0,0,221.07,274Z"/><path class="cls-26" d="M223.55,272.58l-1.75,1c-.14.08-.13.22,0,.32l1.67,1a.65.65,0,0,0,.56,0l1.76-1c.14-.09.12-.23,0-.33l-1.68-1A.62.62,0,0,0,223.55,272.58Z"/><path class="cls-26" d="M226,271.15l-1.76,1c-.14.08-.12.23,0,.32l1.68,1a.59.59,0,0,0,.56,0l1.75-1c.14-.08.13-.23,0-.32l-1.67-1A.65.65,0,0,0,226,271.15Z"/><path class="cls-26" d="M228.52,269.71l-1.75,1c-.15.08-.13.22,0,.32l1.67,1a.65.65,0,0,0,.56,0l1.75-1c.15-.09.13-.23,0-.33l-1.67-1A.62.62,0,0,0,228.52,269.71Z"/><path class="cls-26" d="M231,268.28l-1.75,1c-.14.09-.13.23,0,.33l1.67,1a.62.62,0,0,0,.56,0l1.76-1c.14-.08.12-.22,0-.32l-1.68-1A.65.65,0,0,0,231,268.28Z"/><path class="cls-26" d="M234.69,266.16l-3,1.7c-.14.08-.12.23,0,.32l1.68,1a.65.65,0,0,0,.56,0l3-1.7c.14-.08.12-.23,0-.32l-1.68-1A.57.57,0,0,0,234.69,266.16Z"/><path class="cls-26" d="M202.47,282l-1.75,1c-.14.08-.13.22,0,.32l1.67,1a.65.65,0,0,0,.56,0l1.76-1c.14-.09.12-.23,0-.33L203,282A.62.62,0,0,0,202.47,282Z"/><path class="cls-26" d="M205,280.54l-1.75,1c-.15.08-.13.23,0,.32l1.67,1a.65.65,0,0,0,.56,0l1.76-1c.14-.08.12-.23,0-.32l-1.68-1A.59.59,0,0,0,205,280.54Z"/><path class="cls-26" d="M207.45,279.1l-1.75,1c-.15.09-.13.23,0,.33l1.67,1a.62.62,0,0,0,.56,0l1.75-1c.15-.08.13-.23,0-.32l-1.67-1A.65.65,0,0,0,207.45,279.1Z"/><path class="cls-26" d="M209.94,277.66l-1.76,1c-.14.08-.12.22,0,.32l1.68,1a.65.65,0,0,0,.56,0l1.75-1c.14-.09.13-.23,0-.33l-1.67-1A.62.62,0,0,0,209.94,277.66Z"/><path class="cls-26" d="M212.41,276.24l-1.76,1c-.14.08-.12.23,0,.32l1.68,1a.59.59,0,0,0,.56,0l1.75-1c.14-.08.13-.23,0-.32l-1.67-1A.65.65,0,0,0,212.41,276.24Z"/><path class="cls-26" d="M214.9,274.8l-1.76,1c-.14.09-.12.23,0,.33l1.68,1a.6.6,0,0,0,.55,0l1.76-1c.14-.08.12-.22,0-.32l-1.68-1A.63.63,0,0,0,214.9,274.8Z"/><path class="cls-26" d="M217.38,273.36l-1.75,1c-.14.08-.13.22,0,.32l1.67,1a.65.65,0,0,0,.56,0l1.76-1c.14-.09.12-.23,0-.33l-1.68-1A.62.62,0,0,0,217.38,273.36Z"/><path class="cls-26" d="M219.87,271.93l-1.75,1c-.15.08-.13.23,0,.32l1.67,1a.59.59,0,0,0,.56,0l1.75-1c.15-.08.13-.23,0-.32l-1.67-1A.65.65,0,0,0,219.87,271.93Z"/><path class="cls-26" d="M222.36,270.49l-1.75,1c-.15.09-.13.23,0,.33l1.67,1a.62.62,0,0,0,.56,0l1.75-1c.15-.08.13-.22,0-.32l-1.67-1A.65.65,0,0,0,222.36,270.49Z"/><path class="cls-26" d="M224.85,269.05l-1.76,1c-.14.08-.12.22,0,.32l1.68,1a.65.65,0,0,0,.56,0l1.75-1c.14-.09.13-.23,0-.33l-1.67-1A.62.62,0,0,0,224.85,269.05Z"/><path class="cls-26" d="M227.34,267.62l-1.76,1c-.14.08-.12.23,0,.32l1.68,1a.59.59,0,0,0,.56,0l1.75-1c.14-.08.13-.23,0-.32l-1.67-1A.65.65,0,0,0,227.34,267.62Z"/><path class="cls-26" d="M229.83,266.18l-1.76,1c-.14.09-.12.23,0,.33l1.67,1a.62.62,0,0,0,.56,0l1.76-1c.14-.08.12-.22,0-.32l-1.68-1A.63.63,0,0,0,229.83,266.18Z"/><path class="cls-26" d="M200,283.41l-3,1.7c-.14.09-.12.23,0,.33l1.68,1a.62.62,0,0,0,.56,0l2.95-1.71c.14-.08.12-.23,0-.32l-1.68-1A.63.63,0,0,0,200,283.41Z"/><path class="cls-26" d="M234.57,266.06l-1.76,1a.59.59,0,0,1-.52,0l-1.77-1c-.14-.08-.14-.21,0-.3l.14-.08c.13-.07.13-.2,0-.28l-1.87-1.07c-.15-.09-.15-.22,0-.31l1.12-.64a.59.59,0,0,1,.52,0l1.75,1,.36.21.26.15.27.15,1.5.87C234.71,265.85,234.71,266,234.57,266.06Z"/><path class="cls-26" d="M191.58,279.92l-1.76,1c-.14.08-.12.22,0,.32l1.68,1a.63.63,0,0,0,.55,0l1.76-1c.14-.09.12-.23,0-.33l-1.68-1A.6.6,0,0,0,191.58,279.92Z"/><path class="cls-26" d="M194.05,278.49l-1.75,1c-.14.08-.13.22,0,.32l1.67,1a.65.65,0,0,0,.56,0l1.76-1c.14-.09.12-.23,0-.33l-1.68-1A.62.62,0,0,0,194.05,278.49Z"/><path class="cls-26" d="M196.53,277.06l-1.75,1c-.15.08-.13.22,0,.32l1.67,1a.65.65,0,0,0,.56,0l1.75-1c.15-.09.13-.23,0-.33l-1.67-1A.62.62,0,0,0,196.53,277.06Z"/><path class="cls-26" d="M217.62,264.89l-1.75,1c-.14.08-.13.23,0,.32l1.67,1a.65.65,0,0,0,.56,0l1.76-1c.14-.08.12-.23,0-.32l-1.68-1A.59.59,0,0,0,217.62,264.89Z"/><path class="cls-26" d="M220.1,263.46l-1.75,1c-.15.08-.13.23,0,.32l1.67,1a.65.65,0,0,0,.56,0l1.75-1c.15-.08.13-.23,0-.32l-1.67-1A.59.59,0,0,0,220.1,263.46Z"/><path class="cls-26" d="M222.58,262l-1.76,1c-.14.08-.12.23,0,.32l1.68,1a.65.65,0,0,0,.56,0l1.75-1c.14-.08.13-.23,0-.32l-1.67-1A.59.59,0,0,0,222.58,262Z"/><path class="cls-26" d="M225.05,260.6l-1.75,1c-.14.08-.13.23,0,.32l1.67,1a.65.65,0,0,0,.56,0l1.76-1c.14-.08.12-.23,0-.32l-1.68-1A.59.59,0,0,0,225.05,260.6Z"/><path class="cls-26" d="M199.65,275.27l-2.4,1.38c-.14.08-.12.22,0,.32l1.68,1a.65.65,0,0,0,.56,0l2.39-1.38c.14-.08.12-.23,0-.32l-1.68-1A.57.57,0,0,0,199.65,275.27Z"/><path class="cls-26" d="M215.15,266.32l-2.4,1.38c-.14.08-.12.22,0,.32l1.68,1a.65.65,0,0,0,.56,0l2.39-1.38c.14-.08.13-.23,0-.32l-1.67-1A.59.59,0,0,0,215.15,266.32Z"/><path class="cls-26" d="M212,268.11l-11.66,6.74c-.15.08-.13.23,0,.32l1.67,1a.65.65,0,0,0,.56,0l11.67-6.73c.14-.09.12-.23-.05-.33l-1.67-1A.62.62,0,0,0,212,268.11Z"/><path class="cls-26" d="M200.74,280.19l-1.75,1c-.15.08-.13.22,0,.32l1.67,1a.62.62,0,0,0,.56,0l1.76-1c.14-.08.12-.22,0-.32l-1.68-1A.62.62,0,0,0,200.74,280.19Z"/><path class="cls-26" d="M203.22,278.76l-1.75,1c-.14.09-.13.23,0,.33l1.67,1a.62.62,0,0,0,.56,0l1.76-1c.14-.08.12-.22,0-.32l-1.68-1A.65.65,0,0,0,203.22,278.76Z"/><path class="cls-26" d="M205.7,277.33l-1.75,1c-.14.08-.13.23,0,.32l1.67,1a.59.59,0,0,0,.56,0l1.76-1c.14-.08.12-.23,0-.32l-1.68-1A.62.62,0,0,0,205.7,277.33Z"/><path class="cls-26" d="M208.19,275.9l-1.76,1c-.14.08-.12.23,0,.32l1.68,1a.63.63,0,0,0,.55,0l1.76-1c.14-.09.12-.23,0-.33l-1.68-1A.57.57,0,0,0,208.19,275.9Z"/><path class="cls-26" d="M210.67,274.46l-1.76,1c-.14.08-.12.22,0,.32l1.68,1a.62.62,0,0,0,.56,0l1.75-1c.14-.08.13-.22,0-.32l-1.67-1A.62.62,0,0,0,210.67,274.46Z"/><path class="cls-26" d="M213.15,273l-1.76,1c-.14.09-.12.23,0,.33l1.68,1a.62.62,0,0,0,.56,0l1.75-1c.14-.08.13-.22,0-.32l-1.67-1A.65.65,0,0,0,213.15,273Z"/><path class="cls-26" d="M215.63,271.6l-1.76,1c-.14.08-.12.23,0,.32l1.68,1a.59.59,0,0,0,.56,0l1.75-1c.15-.08.13-.23,0-.32l-1.67-1A.62.62,0,0,0,215.63,271.6Z"/><path class="cls-26" d="M218.11,270.16l-1.75,1c-.15.08-.13.22,0,.32l1.67,1a.65.65,0,0,0,.56,0l1.75-1c.15-.09.13-.23,0-.33l-1.67-1A.62.62,0,0,0,218.11,270.16Z"/><path class="cls-26" d="M220.59,268.73l-1.75,1c-.15.08-.13.22,0,.32l1.67,1a.62.62,0,0,0,.56,0l1.75-1c.15-.08.13-.22,0-.32l-1.67-1A.62.62,0,0,0,220.59,268.73Z"/><path class="cls-26" d="M223.07,267.3l-1.75,1c-.14.09-.13.23,0,.33l1.67,1a.62.62,0,0,0,.56,0l1.76-1c.14-.08.12-.22,0-.32l-1.68-1A.65.65,0,0,0,223.07,267.3Z"/><path class="cls-26" d="M225.55,265.87l-1.75,1c-.14.08-.13.23,0,.32l1.67,1a.62.62,0,0,0,.56,0l1.76-1c.14-.08.12-.23,0-.32l-1.68-1A.59.59,0,0,0,225.55,265.87Z"/><path class="cls-26" d="M228,264.43l-1.76,1c-.14.08-.12.22,0,.32l1.68,1a.63.63,0,0,0,.55,0l1.76-1c.14-.09.12-.23,0-.33l-1.68-1A.6.6,0,0,0,228,264.43Z"/><path class="cls-26" d="M198.26,281.63l-3.63,2.09c-.14.08-.12.23,0,.32l1.68,1a.6.6,0,0,0,.55,0l3.63-2.09c.15-.09.13-.23,0-.32l-1.67-1A.59.59,0,0,0,198.26,281.63Z"/><path class="cls-26" d="M197.1,279.51l-1.75,1c-.15.08-.13.22,0,.32l1.67,1a.65.65,0,0,0,.56,0l1.76-1c.14-.09.12-.23,0-.33l-1.68-1A.62.62,0,0,0,197.1,279.51Z"/><path class="cls-26" d="M199.58,278.08l-1.75,1c-.14.09-.13.23,0,.33l1.67,1a.62.62,0,0,0,.56,0l1.76-1c.14-.08.12-.22,0-.32l-1.68-1A.65.65,0,0,0,199.58,278.08Z"/><path class="cls-26" d="M202.06,276.65l-1.75,1c-.14.08-.13.23,0,.32l1.67,1a.59.59,0,0,0,.56,0l1.76-1c.14-.08.12-.23,0-.32l-1.68-1A.65.65,0,0,0,202.06,276.65Z"/><path class="cls-26" d="M204.55,275.22l-1.76,1c-.14.08-.12.23,0,.32l1.68,1a.63.63,0,0,0,.55,0l1.76-1c.14-.08.12-.23,0-.32l-1.68-1A.57.57,0,0,0,204.55,275.22Z"/><path class="cls-26" d="M207,273.78l-1.76,1c-.14.08-.12.22,0,.32l1.68,1a.63.63,0,0,0,.55,0l1.76-1c.14-.09.12-.23,0-.33l-1.68-1A.6.6,0,0,0,207,273.78Z"/><path class="cls-26" d="M209.51,272.35l-1.76,1c-.14.08-.12.22,0,.32l1.68,1a.62.62,0,0,0,.56,0l1.75-1c.14-.08.13-.22,0-.32l-1.67-1A.62.62,0,0,0,209.51,272.35Z"/><path class="cls-26" d="M212,270.92l-1.76,1c-.14.09-.12.23,0,.33l1.68,1a.62.62,0,0,0,.56,0l1.75-1c.14-.08.13-.22,0-.32l-1.67-1A.65.65,0,0,0,212,270.92Z"/><path class="cls-26" d="M214.47,269.49l-1.76,1c-.14.08-.12.23,0,.32l1.68,1a.59.59,0,0,0,.56,0l1.75-1c.14-.08.13-.23,0-.32l-1.67-1A.62.62,0,0,0,214.47,269.49Z"/><path class="cls-26" d="M217,268.06l-1.76,1c-.14.08-.12.23,0,.32l1.68,1a.65.65,0,0,0,.56,0l1.75-1c.15-.08.13-.23,0-.32l-1.67-1A.59.59,0,0,0,217,268.06Z"/><path class="cls-26" d="M219.43,266.62l-1.75,1c-.15.08-.13.22,0,.32l1.67,1a.65.65,0,0,0,.56,0l1.75-1c.15-.09.13-.23,0-.33l-1.67-1A.62.62,0,0,0,219.43,266.62Z"/><path class="cls-26" d="M221.91,265.19l-1.75,1c-.15.09-.13.23,0,.33l1.67,1a.62.62,0,0,0,.56,0l1.75-1c.15-.08.13-.22,0-.32l-1.67-1A.65.65,0,0,0,221.91,265.19Z"/><path class="cls-26" d="M227.46,262l-4.82,2.78c-.15.08-.13.23,0,.32l1.67,1a.59.59,0,0,0,.56,0l4.83-2.78c.14-.08.12-.23,0-.32L228,262A.59.59,0,0,0,227.46,262Z"/><path class="cls-26" d="M194.62,281l-2.39,1.38c-.14.08-.13.22,0,.32l1.67,1a.65.65,0,0,0,.56,0l2.4-1.38c.14-.08.12-.23-.05-.32l-1.67-1A.59.59,0,0,0,194.62,281Z"/><path class="cls-26" d="M237.18,267.59l-35.24,20.35c-.14.08-.12.22,0,.32l.84.48a.62.62,0,0,0,.56,0l35.23-20.35c.15-.08.13-.22,0-.32l-.83-.48A.62.62,0,0,0,237.18,267.59Z"/><polygon id="_Контур_13" data-name="&lt;Контур&gt;" class="cls-27" points="195.95 268.5 196.18 268.63 202.27 272.15 213.09 265.9 213.32 265.77 207 262.13 195.95 268.5"/><polygon id="_Контур_14" data-name="&lt;Контур&gt;" class="cls-28" points="196.18 268.63 202.27 272.15 213.09 265.9 207 262.39 196.18 268.63"/><path id="_Контур_15" data-name="&lt;Контур&gt;" class="cls-28" d="M178.59,276.71v.54a2.22,2.22,0,0,0,1.11,1.92l21.46,12.39a2.18,2.18,0,0,0,1.11.3,2.23,2.23,0,0,0,1.11-.3l38.82-22.42a2.21,2.21,0,0,0,1.11-1.92v-.54l-41,23.7Z"/><path id="_Контур_16" data-name="&lt;Контур&gt;" class="cls-4" d="M202.89,290.71a2.63,2.63,0,0,0,2.27-.18l38.66-22.32a2.64,2.64,0,0,0,1.28-1.84l4.23-25.23a3.22,3.22,0,0,0,0-.43,2.64,2.64,0,0,0-.77-1.87L208.41,262a2,2,0,0,0-.94,1.36Z"/><path id="_Контур_17" data-name="&lt;Контур&gt;" class="cls-28" d="M202.27,290.38l.26.15a3,3,0,0,0,.36.18l4.58-27.32a2,2,0,0,1,.94-1.36l40.18-23.19a2.74,2.74,0,0,0-.54-.41l-40.26,23.24a2,2,0,0,0-.94,1.36Z"/></g></g><ellipse class="cls-1" cx="404.47" cy="477.01" rx="39.81" ry="22.99"/><g id="Men_1"><path id="_Контур_18" data-name="&lt;Контур&gt;" class="cls-3" d="M436.74,302.29c.45,4,5.19,21.09,4.17,26.95s-17.19,15.68-17.19,15.68l-2.24-10,9-8.78L428,309.47Z"/><path id="_Контур_19" data-name="&lt;Контур&gt;" class="cls-8" d="M424.23,285.42a7.06,7.06,0,0,1,9,2.72c2.38,3.94,4.85,17.46,5.08,19.77,0,0-3.34,4.61-8.35,3.84Z"/><path class="cls-5" d="M405.75,476.32a13.83,13.83,0,0,1-10.47-1.27c-2.52.08-16.21-5.78-18.07-.86-1.63,4.31,4.3,8.3,7.47,9.07,6.91,1.67,12,5.12,14.8,5.7,2.07.44,4.75.73,6.4-.9C407.86,486.11,407.69,478.89,405.75,476.32Z"/><path class="cls-6" d="M399.48,487.77c-2.77-.58-7.89-4-14.8-5.71-2.66-.64-7.23-3.55-7.69-7-.62,4,4.73,7.49,7.69,8.21,6.91,1.67,12,5.12,14.8,5.7,2.07.44,4.75.73,6.4-.9a4.17,4.17,0,0,0,.91-1.65A8.28,8.28,0,0,1,399.48,487.77Z"/><path class="cls-5" d="M428,466.35a13.88,13.88,0,0,1-10.47-1.26c-2.52.07-16.21-5.79-18.07-.87-1.63,4.31,4.3,8.3,7.47,9.07,6.91,1.67,12,5.12,14.8,5.71,2.08.43,4.75.72,6.4-.91C430.06,476.14,429.89,468.92,428,466.35Z"/><path class="cls-6" d="M421.68,477.8c-2.77-.58-7.89-4-14.8-5.71-2.66-.64-7.23-3.54-7.69-7-.62,4,4.73,7.48,7.69,8.2,6.91,1.67,12,5.12,14.8,5.71,2.08.43,4.75.72,6.4-.91a4.17,4.17,0,0,0,.91-1.65A8.28,8.28,0,0,1,421.68,477.8Z"/><path id="_Контур_20" data-name="&lt;Контур&gt;" class="cls-7" d="M428.22,429.16a82.45,82.45,0,0,0-3.16-15s.95-12.94,1.42-25.21c.54-13.92,5.36-26.17,1.55-37.28l-42.95,9.55s2.6,55.5,3.18,62.22A125.52,125.52,0,0,0,390.18,439c2,10.77,5.15,36.4,5.15,36.4,4.54,2.64,10.5,1.18,10.5,1.18s-.32-32.41-.62-40.17c-.35-9.48-.64-8.76-.64-8.76L406,404.07l.93-11.74s1.19,8.62,2,16.32c.67,6.71,2.29,12.78,4.1,25.28,1.57,10.84,4.12,32.62,4.12,32.62,4.54,2.65,10.71.45,10.71.45S429.45,438.56,428.22,429.16Z"/><path id="_Контур_21" data-name="&lt;Контур&gt;" class="cls-3" d="M422,285.65c-3.27.16-5.7,1-6.11,0a42.29,42.29,0,0,1-.75-5.11c.38-.95.7-2,.7-2,4.11-2.53,5.41-7,5.95-12.14.92-8.84-3.86-16.57-12.69-17.5-8.31-.86-14.42,5-16.05,13-.88,4-2.63,11.44-.26,18,1.32,3.64,3,6.53,4.72,7.09a40.15,40.15,0,0,0,4.92-.43h0s.44,2.46.75,4,.18,2.41-2.95,4.34,4.74,5.91,9.89,5.51S421,297,422.58,293.63C424.35,289.92,424.2,285.54,422,285.65Z"/><path id="_Контур_22" data-name="&lt;Контур&gt;" class="cls-4" d="M417.22,286.14c.9,2.25-1.4,5-7.54,6.95s-6.7-.55-6.7-.55-9,4.1-11.94,6.15c-3.68,2.58-5.32,10-5.82,22.63-.57,14.57-.62,36.18-.14,39.91,0,0,6.89,6.87,15.71,6.15s23.66-8.53,27.26-14.56c-.1-12.77-1.6-14.85.47-22.21,4.74-16.85,7.23-23.75,4.93-34.95-1.9-9.23-4.56-10.37-8.2-10.28A75.55,75.55,0,0,0,417.22,286.14Z"/><path id="_Контур_23" data-name="&lt;Контур&gt;" class="cls-3" d="M371.36,333.36c7.24,1.83,8.94-2.74,9.89-6.51,2.3-9.15,3.54-17.41,5.26-22.61,2-6.12,4.14-7.09,7.11-8.29,3.5-1.4,6.5,1.55,5.34,9.35-1.38,9.22-3.18,15.69-6.63,26.6-.9,2.85-2.92,7.91-5.94,10.36-3.74,3-9.36,2.89-17.87.77-3.63-.9-7.61-3.07-14.47-6.27-1.84-.86-3.28-1.43-6.81-3.08s-7.22-4.4-9.07-7.08-2.1-4-1.72-4.56c.47-.77,1.31-.6,2.3.53a19.52,19.52,0,0,0,5.21,4.82s-2.29-2.36-3.53-3.89a19.72,19.72,0,0,1-2.74-4.48c-.65-1.56.7-3.68,1.72-2.57s1.52,2.25,3.39,4.49a19,19,0,0,0,3.35,3.2,37,37,0,0,1-3.09-5,8.19,8.19,0,0,1-1.13-4.49c.05-.82,1.21-1.79,2.29-.24,1,1.39,1.62,3.57,3.89,5.94,1.65,1.71,3.06,2.7,3.1,2.22s-1-1.41-1.59-3.41,0-4.11,1.11-4.34.89-.17,1.77,1.7,2.25,3.25,3.29,6a12.3,12.3,0,0,0,3,5.12C360.55,329.54,364.48,331.63,371.36,333.36Z"/><path id="_Контур_24" data-name="&lt;Контур&gt;" class="cls-8" d="M396.3,294.7c-4.83-.71-8.24,1.46-10.38,8.79s-3.62,13.33-3.62,13.33a13.1,13.1,0,0,0,8.09,5.37c5.78,1.4,7.86-1.36,7.86-1.36s1.61-7.67,2.61-12.89S402.28,295.58,396.3,294.7Z"/><path class="cls-2" d="M393.28,260.79s-7.64-11.6,8.91-14c11.93-1.7,19.6,6,20.48,14.28.85,7.95-4.05,16.2-7.58,19.48-1.72.61-5.44,1-10.31-1.25a58.29,58.29,0,0,1-.23-6.51S410.37,260.58,393.28,260.79Z"/></g><circle class="cls-29" cx="238.84" cy="202.93" r="17.58"/><path class="cls-30" d="M238.84,211.25c-6.67,0-13.13-1.52-17.72-4.18-3.83-2.21-6-5-6-7.64s2.2-5.43,6-7.64c4.59-2.66,11-4.18,17.72-4.18s13.12,1.53,17.72,4.18c3.83,2.21,6,5,6,7.64s-2.19,5.43-6,7.64C252,209.73,245.5,211.25,238.84,211.25Z"/><path class="cls-29" d="M238.84,208.22c-6.67,0-13.13-1.52-17.72-4.17-3.83-2.21-6-5-6-7.64s2.2-5.43,6-7.65c4.59-2.65,11-4.17,17.72-4.17s13.12,1.52,17.72,4.17c3.83,2.22,6,5,6,7.65s-2.19,5.43-6,7.64C252,206.7,245.5,208.22,238.84,208.22Z"/><path class="cls-30" d="M238.84,205.49c-8.64,0-17-2-23-5.41-5-2.87-7.81-6.48-7.81-9.91s2.84-7,7.81-9.9c5.95-3.44,14.32-5.41,23-5.41s17,2,23,5.41c5,2.86,7.82,6.47,7.82,9.9s-2.85,7-7.82,9.91C255.85,203.52,247.48,205.49,238.84,205.49Z"/><path class="cls-29" d="M238.84,201.57c-8.64,0-17-2-23-5.41-5-2.86-7.81-6.48-7.81-9.9s2.84-7,7.81-9.91c5.95-3.44,14.32-5.41,23-5.41s17,2,23,5.41c5,2.87,7.82,6.48,7.82,9.91s-2.85,7-7.82,9.9C255.85,199.6,247.48,201.57,238.84,201.57Z"/><path class="cls-30" d="M238.84,197.92c-10.54,0-20.74-2.4-28-6.59-6.05-3.5-9.52-7.9-9.52-12.08s3.47-8.58,9.52-12.07c7.26-4.19,17.46-6.6,28-6.6s20.73,2.41,28,6.6c6.05,3.49,9.52,7.89,9.52,12.07s-3.47,8.58-9.52,12.08C259.58,195.52,249.37,197.92,238.84,197.92Z"/><path class="cls-29" d="M238.84,193.14c-10.54,0-20.74-2.4-28-6.59-6.05-3.49-9.52-7.9-9.52-12.08s3.47-8.58,9.52-12.07c7.26-4.19,17.46-6.59,28-6.59s20.73,2.4,28,6.59c6.05,3.49,9.52,7.9,9.52,12.08s-3.47,8.58-9.52,12.07C259.58,190.74,249.37,193.14,238.84,193.14Z"/><path class="cls-30" d="M238.84,188.21c-12.1,0-23.81-2.75-32.15-7.57-6.95-4-10.93-9.06-10.93-13.86s4-9.85,10.93-13.87c8.33-4.81,20.05-7.56,32.14-7.56s23.82,2.75,32.15,7.57c6.95,4,10.93,9.06,10.93,13.86s-4,9.85-10.93,13.86C262.65,185.46,250.93,188.21,238.84,188.21Z"/><path class="cls-29" d="M238.84,182.73c-12.1,0-23.81-2.76-32.15-7.57-6.95-4-10.93-9.06-10.93-13.86s4-9.86,10.93-13.87c8.33-4.81,20.05-7.57,32.14-7.57s23.82,2.76,32.15,7.57c6.95,4,10.93,9.07,10.93,13.87s-4,9.85-10.93,13.86C262.65,180,250.93,182.73,238.84,182.73Z"/><ellipse class="cls-31" cx="238.84" cy="150.68" rx="48.44" ry="27.97"/><rect class="cls-32" x="222.19" y="81.76" width="4.29" height="66.69"/><rect class="cls-32" x="251.56" y="81.76" width="4.29" height="66.69"/><polygon class="cls-32" points="238.72 86.1 232.43 80.34 224.71 85.51 222.19 81.77 232.85 74.77 238.96 80.36 246.28 74.68 255.85 81.77 252.86 85.2 246.27 80.25 238.72 86.1"/><path class="cls-33" d="M287.21,152.14c.08-6.28,1.16-24.82,15.91-50.37C320.57,71.54,302.38,0,238.71,0S156.85,71.54,174.3,101.77c12.75,22.09,15.53,41.69,16.11,50.65"/><g id="Glasses"><path class="cls-15" d="M205.13,334.14l-2.78-2.6a6.49,6.49,0,0,0-1.26-1.36,5.42,5.42,0,0,0-.67-.48l-3.6-2.4-3.93-1.74a6.67,6.67,0,0,0-.74-.29,6.83,6.83,0,0,0-1.79-.34l-3.74-1.22c-.21,0-.09.38,0,.54l.36.15c.45.17.07.11.54.44l2.15.55a7.07,7.07,0,0,1,3.9,1l2.85,1.43,2.74,1.65a6.43,6.43,0,0,1,2.74,2.94l1.45,1.17c.45.42.19.24.86.34l.37.32C204.85,334.31,205.25,334.32,205.13,334.14Z"/><path class="cls-34" d="M197.31,328.64a2.69,2.69,0,0,1,.87-.84,2.73,2.73,0,0,1,1.7-.39,5.31,5.31,0,0,1,2,.62l.07,0,1,.54c.26.14.5.3.74.46l.46.34c.69.55.49,1.63-.12,2.49a8.17,8.17,0,0,1-1.16,1.32,3,3,0,0,1-2.82.61,6.71,6.71,0,0,1-1.29-.56,7.39,7.39,0,0,1-1.07-.76,2.75,2.75,0,0,1-.66-3.07A3.7,3.7,0,0,1,197.31,328.64Zm-8.25-5c.54-.83,1.46-1.46,2.24-1.2l.5.19a7,7,0,0,1,.74.34l.91.47.06,0a4.27,4.27,0,0,1,1.45,1.25,2,2,0,0,1,.37,1.49,2.46,2.46,0,0,1-.44,1.07,4,4,0,0,1-.63.61,3.35,3.35,0,0,1-3.23.83,6.34,6.34,0,0,1-1.16-.5,6.45,6.45,0,0,1-1-.76,2.16,2.16,0,0,1-.53-2.39A7,7,0,0,1,189.06,323.65Z"/><path class="cls-26" d="M188,324.86l2.14-.2a6.87,6.87,0,0,1,3.92.78l11.81,5.93.69-1-13.22-5.83a6.78,6.78,0,0,0-2.53-.63l-4.2-.24a.23.23,0,0,0-.22.37l.11.15A1.7,1.7,0,0,0,188,324.86Z"/><path class="cls-26" d="M203.28,333.42l-.89-2a6.48,6.48,0,0,0-2.73-2.95l-10.79-6.46.61-.93,11.41,7.59a6.65,6.65,0,0,1,1.92,1.85l2.45,3.58c.12.18-.06.41-.3.37l-.21,0A1.88,1.88,0,0,1,203.28,333.42Z"/><path class="cls-35" d="M200.08,327a5.3,5.3,0,0,1,2,.61l.06,0,1,.53c.26.15.5.3.74.46s.31.23.46.35c.68.54.48,1.63-.12,2.48a7.34,7.34,0,0,1-1.17,1.32,2.94,2.94,0,0,1-2.81.62,7.44,7.44,0,0,1-1.29-.57,6.11,6.11,0,0,1-1.07-.76,2.72,2.72,0,0,1-.66-3.06,3.31,3.31,0,0,1,.33-.8,2.8,2.8,0,0,1,.87-.84A2.69,2.69,0,0,1,200.08,327Z"/><path class="cls-26" d="M189.16,320.87l-.52.82a.26.26,0,0,0,0,.35.54.54,0,0,1,.12.65l-.86,1.8a2.63,2.63,0,0,0,.58,3.1h0A6.68,6.68,0,0,0,191,329h0a4,4,0,0,0,4-1l.8-.81a1,1,0,0,0,.3-.65.7.7,0,0,1,1-.53l.2.1.2.12a.59.59,0,0,1-.07,1,1.16,1.16,0,0,0-.51.54l-.45,1a3.23,3.23,0,0,0,.85,3.77h0a7.35,7.35,0,0,0,2.63,1.49h0a3.51,3.51,0,0,0,3.59-.89l1.5-1.58a.79.79,0,0,1,.78-.2.37.37,0,0,0,.41-.12l.61-.84a.42.42,0,0,0,0-.54,12.6,12.6,0,0,0-3.26-2.34l-1-.54a6.35,6.35,0,0,0-2.39-.74l-.74-.08A.63.63,0,0,1,199,326a.84.84,0,0,0-.28-.25l-.82-.44-.82-.45a.93.93,0,0,0-.38-.1.64.64,0,0,1-.49-.25l-.4-.54a5,5,0,0,0-1.75-1.47l-.91-.48a11,11,0,0,0-3.48-1.33A.52.52,0,0,0,189.16,320.87Zm8.35,7.37a2.8,2.8,0,0,1,.87-.84,2.69,2.69,0,0,1,1.7-.38,5.3,5.3,0,0,1,2,.61l.06,0,1,.53c.26.15.5.3.74.46s.31.23.46.35c.68.54.48,1.63-.12,2.48a7.34,7.34,0,0,1-1.17,1.32,2.94,2.94,0,0,1-2.81.62,7.44,7.44,0,0,1-1.29-.57,6.11,6.11,0,0,1-1.07-.76,2.72,2.72,0,0,1-.66-3.06A3.31,3.31,0,0,1,197.51,328.24Zm-8.26-5c.55-.82,1.46-1.45,2.25-1.19a5,5,0,0,1,.5.18c.25.1.5.22.74.34l.91.48.06,0a4.49,4.49,0,0,1,1.45,1.25,2,2,0,0,1,.36,1.5,2.36,2.36,0,0,1-.44,1.06,3.67,3.67,0,0,1-.63.62,3.36,3.36,0,0,1-3.23.83,5.92,5.92,0,0,1-1.15-.51,5.63,5.63,0,0,1-1-.75,2.18,2.18,0,0,1-.53-2.4A7.75,7.75,0,0,1,189.25,323.25Z"/><path class="cls-36" d="M194.37,327.64a3.33,3.33,0,0,1-3.23.83A5.92,5.92,0,0,1,190,328a5.2,5.2,0,0,1-1-.75,2.16,2.16,0,0,1-.53-2.39,7.46,7.46,0,0,1,.75-1.44l0,0a7.16,7.16,0,0,0-.69,1.34,2.18,2.18,0,0,0,.53,2.4,5.63,5.63,0,0,0,1,.75,5.92,5.92,0,0,0,1.15.51,3.36,3.36,0,0,0,3.23-.83,4,4,0,0,0,.63-.61L195,327A3.6,3.6,0,0,1,194.37,327.64Z"/><path class="cls-36" d="M202.92,332.94a2.94,2.94,0,0,1-2.81.61,6.71,6.71,0,0,1-1.29-.56,7.39,7.39,0,0,1-1.07-.76,2.75,2.75,0,0,1-.66-3.07,3.7,3.7,0,0,1,.33-.79l.08-.11a3.57,3.57,0,0,0-.32.78,2.72,2.72,0,0,0,.66,3.06,6.11,6.11,0,0,0,1.07.76,7.44,7.44,0,0,0,1.29.57,2.94,2.94,0,0,0,2.81-.62,7.52,7.52,0,0,0,1.09-1.21l0,0A7.35,7.35,0,0,1,202.92,332.94Z"/><path class="cls-37" d="M195.16,324.34a4.49,4.49,0,0,0-1.45-1.25l-.06,0-.91-.48c-.24-.12-.49-.24-.74-.34a5,5,0,0,0-.5-.18c-.79-.26-1.7.37-2.25,1.19a7.75,7.75,0,0,0-.75,1.44,2.18,2.18,0,0,0,.53,2.4,5.63,5.63,0,0,0,1,.75,5.92,5.92,0,0,0,1.15.51,3.36,3.36,0,0,0,3.23-.83,3.67,3.67,0,0,0,.63-.62,2.36,2.36,0,0,0,.44-1.06A2,2,0,0,0,195.16,324.34Z"/></g></g></g></svg>