<svg xmlns="http://www.w3.org/2000/svg" xmlns:xlink="http://www.w3.org/1999/xlink" viewBox="0 0 500 409.42"><defs><style>.cls-1,.cls-10,.cls-18{fill:#d6d8e5;}.cls-1{opacity:0.4;}.cls-1,.cls-10{isolation:isolate;}.cls-2{fill:#d5d6e0;}.cls-3{fill:#e9eaf4;}.cls-4{opacity:0.05;}.cls-5{fill:#dd990e;}.cls-6{fill:#f9cb07;}.cls-7{fill:#cc8b09;}.cls-8{fill:#e8a30a;}.cls-9{fill:#f9ca06;}.cls-10{opacity:0.3;}.cls-11{fill:url(#Безымянный_градиент_27);}.cls-12{fill:#fff;}.cls-13{fill:#dfe0ea;}.cls-14{fill:#6740e2;}.cls-15{fill:#8c50ff;}.cls-16{fill:url(#Безымянный_градиент_27-2);}.cls-17{fill:url(#Безымянный_градиент_27-3);}.cls-19{fill:#edf0f9;}.cls-20{fill:#e2e5f2;}.cls-21{fill:#e5e5e5;}.cls-22{fill:#f4f4f4;}.cls-23{fill:#bfbfbf;}.cls-24{fill:#2b303f;}.cls-25{fill:#dceeff;}.cls-26{fill:#dbdbdb;}.cls-27{fill:#1e212d;}.cls-28{fill:#ffcea9;}.cls-29{fill:#ededed;}.cls-30{fill:#38226d;}.cls-31{fill:#9c73ff;}.cls-32{fill:#3a2c6d;}</style><linearGradient id="Безымянный_градиент_27" x1="212.91" y1="124.83" x2="262.63" y2="210.94" gradientUnits="userSpaceOnUse"><stop offset="0" stop-color="#e9eaf4"/><stop offset="0.04" stop-color="#dedfe9"/><stop offset="0.1" stop-color="#d7d8e2"/><stop offset="0.27" stop-color="#d5d6e0"/></linearGradient><linearGradient id="Безымянный_градиент_27-2" x1="252.15" y1="147.75" x2="301.86" y2="233.86" xlink:href="#Безымянный_градиент_27"/><linearGradient id="Безымянный_градиент_27-3" x1="293.37" y1="171.6" x2="343.09" y2="257.7" xlink:href="#Безымянный_градиент_27"/></defs><title>Cryptocurrency_SVG</title><g id="Слой_2" data-name="Слой 2"><g id="Слой_1-2" data-name="Слой 1"><polygon class="cls-1" points="229.55 259.8 229.55 259.8 116.38 325.13 51.11 362.82 52.56 363.65 117.83 325.96 230.98 260.63 230.99 260.63 229.55 259.8"/><polygon class="cls-1" points="439.72 340.15 418.94 328.14 374.44 302.45 305.78 262.81 307.21 261.98 375.88 301.62 420.39 327.31 441.17 339.31 439.72 340.15"/><polygon class="cls-1" points="223.99 210.33 222.54 211.16 157.26 173.48 132.09 158.94 66.81 121.25 68.25 120.41 133.54 158.1 158.72 172.64 223.99 210.33"/><path class="cls-1" d="M97.25,177.38,41.39,145.13c-2.6-1.5-2.28-4.13.73-5.86l54.4-31.41c3-1.73,7.54-1.92,10.15-.42l55.86,32.25c2.6,1.5,2.27,4.13-.73,5.86L107.4,177C104.39,178.69,99.85,178.88,97.25,177.38Z"/><path class="cls-2" d="M168.28,136l-2.74.84-54.86-31.67c-2.6-1.5-7.15-1.32-10.15.42L46.13,137l-.13.09-2.32-.73v3.6a1.78,1.78,0,0,0,0,.4v.3h0a3.13,3.13,0,0,0,1.71,2.21l55.86,32.25c2.6,1.5,7.15,1.31,10.15-.42l54.4-31.41a4.28,4.28,0,0,0,2.46-3.14h0Z"/><path class="cls-3" d="M165.82,139.47l-32.28,18.64-1.45.83-20.68,11.94c-3,1.73-7.54,1.92-10.15.42L45.4,139.05c-2.6-1.51-2.27-4.12.73-5.86l20.68-11.94,1.44-.84,32.28-18.62c3-1.75,7.55-1.93,10.15-.43l55.86,32.25C169.14,135.11,168.82,137.74,165.82,139.47Z"/><ellipse class="cls-4" cx="102.47" cy="136.83" rx="36.39" ry="21.01"/><path class="cls-5" d="M141.38,134.51v-9.39l-1.5,3.36c-1.67-3.24-4.72-6.29-9.15-8.85-14.22-8.21-37.26-8.21-51.47,0A23,23,0,0,0,70.39,128l-1.79-2.36v8.91h0c0,5.36,3.57,10.72,10.66,14.81,14.21,8.2,37.25,8.2,51.47,0,7.08-4.08,10.63-9.44,10.65-14.8h0Z"/><ellipse class="cls-6" cx="104.99" cy="125.49" rx="36.39" ry="21.01"/><path class="cls-7" d="M131,126.39c-.35,3.55-2.88,7-7.57,9.74-10.18,5.87-26.68,5.87-36.85,0-4.69-2.7-7.23-6.19-7.58-9.74-.43-4.14,2.1-8.37,7.58-11.54,10.17-5.87,26.67-5.87,36.85,0C128.89,118,131.42,122.25,131,126.39Z"/><path class="cls-8" d="M131,126.39c-.35,3.55-2.88,7-7.57,9.74-10.18,5.87-26.68,5.87-36.85,0-4.69-2.7-7.23-6.19-7.58-9.74.35-3.54,2.89-7,7.58-9.73,10.17-5.88,26.67-5.88,36.85,0C128.1,119.36,130.63,122.85,131,126.39Z"/><path class="cls-7" d="M115.17,129.51a19.18,19.18,0,0,0,1.86-1.32,7.34,7.34,0,0,0,1.23-1.28,2.61,2.61,0,0,0,.55-1.28,2,2,0,0,0-.35-1.26,4.87,4.87,0,0,0-1.31-1.29,7.48,7.48,0,0,0-3.69-1.39,9.83,9.83,0,0,0-3.95.59q1-1.84-1.8-3.19a7.11,7.11,0,0,0-2.15-.64,7.59,7.59,0,0,0-2.28,0,13.22,13.22,0,0,0-2.25.56,22.92,22.92,0,0,0-2.31,1l-3.16-1.82.27-.11h-.45l-.24-.14-.24.14H93v1.13l3.48,2-1.7,1-3.51-2-.56.32L89,120.35v1.12l3.58,2.07c-.3.19-.76.45-1.36.8l-1.26.72L88.22,125v1.13l2.33,1.34,1.58-.91a2.48,2.48,0,0,1,2.23-.17l4.08,2.35.24-.12-.23.13,5.72,3.3c.39.32.37.61-.08.88l-1.6-.2v1.13l2.16,1.75,2.84-1.64.79-.45.78-.43,3.62,2.09,2.19-1.27v-1.12l-1,.56-2.61-1.5,1.75-1,3.57,2.06,2.19-1.26v-1.13h-2Zm-12.32-4-.66.38-.5.28-4.36-2.52.55-.33.76-.45c.2-.12.48-.27.86-.46s.7-.33,1-.44a8.85,8.85,0,0,1,1-.31,5,5,0,0,1,1.08-.17,4.66,4.66,0,0,1,1,.1,3.22,3.22,0,0,1,1,.37,1.94,1.94,0,0,1,.6.5.68.68,0,0,1,.16.53,1.88,1.88,0,0,1-.14.53,1.62,1.62,0,0,1-.43.55q-.32.3-.57.51a5.9,5.9,0,0,1-.71.5Zm10.22,1.38a3.62,3.62,0,0,1-.37.56,5.47,5.47,0,0,1-.59.57q-.37.31-.69.54l-.78.51-.73.45-.69.39c-.28.15-.46.25-.53.3l-4.81-2.78.66-.4.91-.53c.23-.14.57-.32,1-.55s.84-.4,1.18-.53.74-.26,1.19-.39a6.43,6.43,0,0,1,1.26-.22,5.24,5.24,0,0,1,1.17.08,3.31,3.31,0,0,1,1.13.4,1.87,1.87,0,0,1,.59.5,1.06,1.06,0,0,1,.22.52A1,1,0,0,1,113.07,126.93Z"/><path class="cls-9" d="M113.46,120.57a9.49,9.49,0,0,0-3.95.59q1-1.84-1.8-3.2a7.09,7.09,0,0,0-2.15-.63,7.93,7.93,0,0,0-2.28,0,14.23,14.23,0,0,0-2.25.56,22.92,22.92,0,0,0-2.31,1l-3.58-2.06L93,118.08l3.48,2-1.7,1-3.51-2L89,120.35l3.58,2.06c-.3.19-.76.46-1.36.81l-3,1.73,2.33,1.35,1.58-.91a2.45,2.45,0,0,1,2.23-.18l4.08,2.36a.89.89,0,0,1,.24-.12l-.23.13,5.72,3.3c.4.32.37.62-.1.89l-1.58.91,2.16,1.76,2.84-1.64.79-.45.78-.44,3.62,2.09,2.19-1.26-3.58-2.07c.41-.22,1-.55,1.75-1l3.57,2.06,2.19-1.27-3.63-2.09a19.18,19.18,0,0,0,1.86-1.32,6.7,6.7,0,0,0,1.23-1.28,2.58,2.58,0,0,0,.55-1.27,2,2,0,0,0-.35-1.26,4.74,4.74,0,0,0-1.31-1.3A7.37,7.37,0,0,0,113.46,120.57Zm-16.13,2,.55-.33.76-.45c.2-.12.48-.27.86-.45a9.59,9.59,0,0,1,1-.44,8.71,8.71,0,0,1,1-.32,5,5,0,0,1,1.08-.16,4.63,4.63,0,0,1,1,.09,3.24,3.24,0,0,1,1,.38,1.93,1.93,0,0,1,.6.49.72.72,0,0,1,.16.54,1.82,1.82,0,0,1-.14.52,1.62,1.62,0,0,1-.43.55l-.57.52a7.49,7.49,0,0,1-.71.49l-.68.43c-.15.1-.37.22-.66.38l-.5.28-4.36-2.52ZM113,124.7a1.1,1.1,0,0,1,.22.53,1,1,0,0,1-.14.57,3.62,3.62,0,0,1-.37.56,5.47,5.47,0,0,1-.59.57q-.37.31-.69.54t-.78.51c-.31.2-.55.35-.73.45l-.69.39-.53.3-4.81-2.77.66-.4.91-.54q.35-.21,1-.54c.45-.23.84-.4,1.18-.54a12.06,12.06,0,0,1,1.19-.38,5.76,5.76,0,0,1,1.26-.22,4.69,4.69,0,0,1,1.17.07,3.53,3.53,0,0,1,1.13.4A2,2,0,0,1,113,124.7Z"/><path class="cls-5" d="M141.78,121.34V112l-1.5,3.36c-1.67-3.24-4.72-6.3-9.15-8.85-14.22-8.21-37.26-8.21-51.47,0a23,23,0,0,0-8.87,8.35L69,112.45v8.92h0c0,5.36,3.57,10.71,10.66,14.8,14.21,8.21,37.25,8.21,51.47,0,7.08-4.09,10.63-9.44,10.65-14.8h0Z"/><ellipse class="cls-6" cx="105.39" cy="112.32" rx="36.39" ry="21.01"/><path class="cls-7" d="M131.38,113.22c-.35,3.54-2.88,7-7.57,9.74-10.18,5.87-26.68,5.87-36.85,0-4.69-2.71-7.23-6.2-7.58-9.74-.43-4.14,2.1-8.38,7.58-11.54,10.17-5.88,26.67-5.88,36.85,0C129.29,104.84,131.82,109.08,131.38,113.22Z"/><path class="cls-8" d="M131.38,113.22c-.35,3.54-2.88,7-7.57,9.74-10.18,5.87-26.68,5.87-36.85,0-4.69-2.71-7.23-6.2-7.58-9.74.35-3.54,2.89-7,7.58-9.73,10.17-5.88,26.67-5.88,36.85,0C128.5,106.19,131,109.68,131.38,113.22Z"/><path class="cls-7" d="M115.57,116.33a21.19,21.19,0,0,0,1.86-1.31,7.34,7.34,0,0,0,1.23-1.28,2.65,2.65,0,0,0,.55-1.28,2,2,0,0,0-.35-1.26,4.59,4.59,0,0,0-1.31-1.29,7.35,7.35,0,0,0-3.69-1.39,9.65,9.65,0,0,0-4,.59q1-1.85-1.8-3.19a7.11,7.11,0,0,0-2.15-.64,7.59,7.59,0,0,0-2.28,0,13.2,13.2,0,0,0-2.25.55,21,21,0,0,0-2.31,1L96,105l.27-.1h-.45l-.24-.14-.24.14h-2V106l3.48,2-1.7,1-3.51-2-.56.33-1.63-.19v1.13L93,110.37l-1.36.8-1.26.72-1.77-.11v1.12L91,114.25l1.58-.91a2.42,2.42,0,0,1,2.23-.17l4.08,2.35.24-.12-.23.13,5.72,3.3c.39.31.37.61-.08.87l-1.6-.19v1.12l2.16,1.76,2.84-1.64.79-.45.78-.44,3.62,2.1,2.19-1.27v-1.12l-1,.56-2.61-1.51c.41-.22,1-.55,1.75-1l3.57,2.06,2.19-1.26V117.3h-2Zm-12.32-4q-.23.15-.66.39l-.5.27-4.36-2.52c.07,0,.25-.14.55-.32l.76-.46c.2-.12.48-.27.86-.45s.7-.33,1-.44.62-.21,1-.32a5.13,5.13,0,0,1,1.08-.16,4.63,4.63,0,0,1,1,.09,3.51,3.51,0,0,1,1,.38,1.93,1.93,0,0,1,.6.49.72.72,0,0,1,.16.54,2,2,0,0,1-.14.53,1.72,1.72,0,0,1-.43.55q-.31.3-.57.51a7.31,7.31,0,0,1-.71.5C103.64,112.14,103.41,112.28,103.25,112.37Zm10.22,1.38a3.2,3.2,0,0,1-.37.56,5.47,5.47,0,0,1-.59.57,8.37,8.37,0,0,1-.69.54l-.78.52-.73.44-.69.39-.53.3-4.81-2.77.66-.4.91-.54,1-.54c.45-.22.84-.4,1.18-.53s.74-.26,1.19-.39a6.43,6.43,0,0,1,1.26-.22,5.34,5.34,0,0,1,1.18.07,3.35,3.35,0,0,1,1.12.41,1.86,1.86,0,0,1,.59.49,1.14,1.14,0,0,1,.22.53A1,1,0,0,1,113.47,113.75Z"/><path class="cls-9" d="M113.86,107.39a9.83,9.83,0,0,0-4,.59q1-1.85-1.8-3.19a7.11,7.11,0,0,0-2.15-.64,7.93,7.93,0,0,0-2.28,0,13.22,13.22,0,0,0-2.25.56,22.92,22.92,0,0,0-2.31,1l-3.58-2.07-2.19,1.27,3.48,2-1.7,1-3.51-2-2.19,1.26L93,109.24c-.3.19-.76.46-1.36.81l-3,1.73L91,113.12l1.58-.91a2.48,2.48,0,0,1,2.23-.17l4.08,2.36a1.47,1.47,0,0,1,.24-.13l-.23.13,5.72,3.3c.4.33.37.62-.1.9l-1.58.91,2.16,1.76,2.84-1.65.79-.44.78-.44,3.62,2.09,2.19-1.26-3.58-2.07,1.75-1,3.57,2.06,2.19-1.26-3.63-2.09a19.18,19.18,0,0,0,1.86-1.32,7,7,0,0,0,1.23-1.28,2.61,2.61,0,0,0,.55-1.28,2,2,0,0,0-.35-1.26,4.87,4.87,0,0,0-1.31-1.29A7.45,7.45,0,0,0,113.86,107.39Zm-16.13,2,.55-.33.76-.45c.2-.12.48-.27.86-.46s.7-.33,1-.44a8.85,8.85,0,0,1,1-.31,5.2,5.2,0,0,1,1.08-.17,5.35,5.35,0,0,1,1,.1,3.24,3.24,0,0,1,1,.38,1.8,1.8,0,0,1,.6.49.69.69,0,0,1,.16.54,1.91,1.91,0,0,1-.14.52,1.62,1.62,0,0,1-.43.55q-.31.3-.57.51a5.9,5.9,0,0,1-.71.5l-.68.43-.66.38-.5.28-4.36-2.52Zm15.66,2.14a1.06,1.06,0,0,1,.22.53,1,1,0,0,1-.14.57,3.62,3.62,0,0,1-.37.56,5.47,5.47,0,0,1-.59.57q-.37.31-.69.54c-.21.14-.47.32-.78.51l-.73.45-.69.39c-.28.15-.46.25-.53.3l-4.81-2.78c.08,0,.3-.17.66-.4l.91-.53c.23-.14.57-.32,1-.55s.84-.4,1.18-.53a12.06,12.06,0,0,1,1.19-.38,6.5,6.5,0,0,1,1.26-.23,5.37,5.37,0,0,1,1.18.08,3.33,3.33,0,0,1,1.12.4A1.87,1.87,0,0,1,113.39,111.53Z"/><path class="cls-10" d="M259.85,304.42,154.25,242a2.25,2.25,0,0,1,0-3.88L211.79,205a2.27,2.27,0,0,1,2.27,0l105.59,62.4a2.25,2.25,0,0,1,0,3.89l-57.51,33.18A2.25,2.25,0,0,1,259.85,304.42Z"/><path class="cls-3" d="M281.89,93V196.15c0,2.74-1,4.56-2.59,5.1l-83.84,48.21-1.72,1-2.42-12.27L183,195.86l-14.89-75.49,85.63-49.23c1.1-.86,2.63-.91,4.32.06l17.85,10.31a12.17,12.17,0,0,1,4.5,5.32A14.53,14.53,0,0,1,281.89,93Z"/><path class="cls-11" d="M281.89,93V196.15c0,2.74-1,4.56-2.59,5.1l-83.84,48.21c-.22-.58-1.94-5.24-4.14-11.28-4.5-12.35-11-30.47-10.79-31,.09-.18,1.05-4.69,2.44-11.36,4.24-20.36,12.51-61,12.51-61l84.9-48.07A14.53,14.53,0,0,1,281.89,93Z"/><path class="cls-12" d="M191.27,130.18l-17.85-10.3a3.81,3.81,0,0,0-3.9-.33h0l-1.7.93.38.44a7.13,7.13,0,0,0-.8,3.52V227.56c0,4.44,2.7,9.59,6,11.51l17.85,10.3c3.33,1.92,6-.12,6-4.55V141.69C197.3,137.25,194.6,132.1,191.27,130.18Z"/><path class="cls-13" d="M189.46,250.37l-17.85-10.31c-3.33-1.92-6-7.07-6-11.5V125.42c0-4.43,2.69-6.47,6-4.55l17.85,10.3c3.32,1.92,6,7.08,6,11.51V245.81C195.48,250.25,192.78,252.29,189.46,250.37Z"/><path class="cls-14" d="M187.49,147.69v83.89c0,2.44-1.14,3.86-2.76,3.75a3.74,3.74,0,0,1-1.54-.5l-5.31-3.07c-2.38-1.37-4.3-5-4.3-8.22V139.66c0-3.17,1.92-4.62,4.3-3.25l.25.15,5.06,2.92C185.56,140.85,187.49,144.52,187.49,147.69Z"/><path class="cls-15" d="M187.49,147.69v83.89c0,2.44-1.14,3.86-2.76,3.75l-5-2.91c-2.37-1.37-4.3-5-4.3-8.21V140.32c0-2.43,1.15-3.86,2.74-3.76l5.06,2.92C185.56,140.85,187.49,144.52,187.49,147.69Z"/><path class="cls-3" d="M321.13,115.93V219.07c0,2.75-1,4.56-2.6,5.11l-83.84,48.2-1.71,1-2.44-12.26-8.33-42.33L207.32,143.3l23.3-13.4.92-.53,3.54-2,28.22-16.22.52-.3,1.72-1L293,94.06c1.09-.86,2.62-.91,4.31.06l17.85,10.31a12.28,12.28,0,0,1,4.51,5.33A14.64,14.64,0,0,1,321.13,115.93Z"/><path class="cls-16" d="M321.13,115.93V219.07c0,2.74-1,4.56-2.6,5.1l-83.84,48.21c-.22-.58-1.94-5.24-4.14-11.28-4.5-12.35-11-30.47-10.79-31,.09-.17,1.05-4.68,2.44-11.36,4.24-20.36,12.51-61,12.51-61l84.91-48.06A14.6,14.6,0,0,1,321.13,115.93Z"/><path class="cls-12" d="M230.51,153.1l-17.85-10.3a3.87,3.87,0,0,0-3.91-.33h0l-1.69.93.37.44a7.13,7.13,0,0,0-.8,3.52V250.48c0,4.44,2.7,9.59,6,11.51l17.85,10.31c3.32,1.92,6-.12,6-4.56V164.61C236.53,160.17,233.83,155,230.51,153.1Z"/><path class="cls-13" d="M234.7,165.6V268.74c0,4.43-2.68,6.47-6,4.54l-10.18-5.87-1.84-1.06L210.83,263c-3.31-1.91-6-7.06-6-11.51V148.35c0-4.45,2.71-6.47,6-4.56l17.85,10.3C232,156,234.7,161.16,234.7,165.6Z"/><path class="cls-14" d="M226.72,170.62V254.5c0,2.44-1.14,3.86-2.76,3.75a3.6,3.6,0,0,1-1.54-.5l-5.31-3.07c-2.38-1.37-4.3-5.05-4.3-8.22V162.58c0-3.17,1.92-4.62,4.3-3.25l.26.15,5,2.92C224.8,163.77,226.72,167.45,226.72,170.62Z"/><path class="cls-15" d="M226.72,170.62V254.5c0,2.44-1.14,3.86-2.76,3.75l-5-2.91c-2.38-1.37-4.31-5-4.31-8.21V163.25c0-2.44,1.15-3.87,2.75-3.77l5,2.92C224.8,163.77,226.72,167.45,226.72,170.62Z"/><path class="cls-3" d="M362.35,139.78V242.91c0,2.74-1,4.56-2.59,5.11l-83.84,48.2-1.72,1L271.77,285l-8.34-42.33-14.89-75.49,85.63-49.23c1.09-.86,2.62-.91,4.31.06l17.85,10.31a12.15,12.15,0,0,1,4.51,5.33A14.46,14.46,0,0,1,362.35,139.78Z"/><path class="cls-17" d="M362.35,139.78V242.91c0,2.74-1,4.56-2.59,5.11l-83.84,48.2c-.22-.58-1.94-5.23-4.15-11.27-4.5-12.36-11-30.48-10.78-31,.09-.17,1.05-4.68,2.44-11.36,4.24-20.36,12.5-61,12.5-61l84.91-48.06A14.46,14.46,0,0,1,362.35,139.78Z"/><path class="cls-12" d="M271.73,176.94l-17.85-10.3a3.87,3.87,0,0,0-3.91-.33h0l-1.69.93.38.44a7,7,0,0,0-.8,3.52V274.33c0,4.43,2.7,9.58,6,11.5l17.85,10.31c3.33,1.92,6-.12,6-4.56V188.45C277.75,184,275.06,178.86,271.73,176.94Z"/><path class="cls-13" d="M269.92,297.13l-17.85-10.31c-3.33-1.92-6-7.07-6-11.5V172.18c0-4.43,2.7-6.47,6-4.55l17.85,10.31c3.32,1.92,6,7.07,6,11.5V292.58C275.94,297,273.24,299.05,269.92,297.13Z"/><path class="cls-14" d="M268,194.46v83.88c0,2.44-1.14,3.86-2.76,3.76a3.58,3.58,0,0,1-1.54-.51l-5.32-3.07c-2.37-1.37-4.3-5-4.3-8.22V186.42c0-3.17,1.93-4.62,4.3-3.25l.26.15,5.06,2.92C266,187.61,268,191.29,268,194.46Z"/><path class="cls-15" d="M268,194.46v83.88c0,2.44-1.14,3.86-2.76,3.76l-5-2.92c-2.37-1.37-4.3-5-4.3-8.21V187.09c0-2.44,1.14-3.87,2.74-3.77l5.06,2.92C266,187.61,268,191.29,268,194.46Z"/><path class="cls-5" d="M299.28,61.35c0-20.93-14.7-46.4-32.84-56.87-9-5.2-17.17-5.72-23.1-2.36h0l-.07,0-.12.07c-.94.55-8.12,4.77-8.24,4.83l2.7.56c-3.25,4-4,8.32-4,15.82,0,20.94,14.7,46.4,32.83,56.87,5.72,3.3,11.1,4.72,15.78,4.45l-1.92,3.3,9.1-5.31.48-.27.24-.14h0C295.78,78.79,299.28,71.56,299.28,61.35Z"/><ellipse class="cls-6" cx="257.56" cy="47.58" rx="26.81" ry="46.44" transform="matrix(0.87, -0.5, 0.5, 0.87, 10.72, 135.16)"/><path class="cls-7" d="M281.07,61.15c0,15-10.52,21.06-23.51,13.57-.8-.47-1.61-1-2.4-1.53a.16.16,0,0,1-.08-.06c-11.82-8.25-21-25.1-21-39.12,0-15,10.53-21.07,23.51-13.58a34.52,34.52,0,0,1,4,2.74C272.66,31.75,281.07,47.75,281.07,61.15Z"/><path class="cls-8" d="M281.07,61.15c0,15-10.52,21.06-23.51,13.57-.8-.47-1.61-1-2.4-1.53a.16.16,0,0,1-.08-.06c-11.11-8.57-19.56-24.6-19.56-38,0-15,10.52-21.07,23.5-13.57.87.5,1.73,1.05,2.57,1.65C272.66,31.75,281.07,47.75,281.07,61.15Z"/><path class="cls-7" d="M268.63,53.45a12.39,12.39,0,0,0-3.17-4c1.8,0,2.59-1.37,2.37-4a8.83,8.83,0,0,0-.66-2.78,10,10,0,0,0-1.5-2.5A16.55,16.55,0,0,0,263.62,38a24.36,24.36,0,0,0-2.54-1.93V30.81l-2.79-1.62-1,.59,1,1.47v3.08c-.48-.28-1.22-.7-2.21-1.24V27.92l-2.8-1.62-1,.59,1,1v3.71l-1.76-1-3.84-2.24-1,.58,1,1.2v1.65l2,1.16a3.16,3.16,0,0,1,1.62,2.36v6l.29.19-.29-.17v8.42c-.1.66-.45.81-1.05.46l-2-1.16-1,.58.77,1-.31,1.91,3.63,2.09,1,.59,1,.57v5.35l1.64.94.13,1.25,1-.58V57.49c.51.31,1.24.74,2.21,1.3v5.26l1.59.91.18,1.28,1-.58V60.32a25.62,25.62,0,0,0,2.64,1.21,9.27,9.27,0,0,0,2.21.55,3.48,3.48,0,0,0,1.76-.21,2.64,2.64,0,0,0,1.17-1.19,6.3,6.3,0,0,0,.59-2.28A9.44,9.44,0,0,0,268.63,53.45Zm-10.8-15.61q.39.21,1.05.66c.44.3.81.57,1.12.81a11.14,11.14,0,0,1,1,.92,5.46,5.46,0,0,1,.87,1.09,6,6,0,0,1,.56,1.2,4.21,4.21,0,0,1,.22,1.36,2.49,2.49,0,0,1-.16,1,.9.9,0,0,1-.49.52,2.3,2.3,0,0,1-.67.18,2.16,2.16,0,0,1-.88-.12c-.36-.11-.67-.21-.93-.31a8.75,8.75,0,0,1-1-.46l-.91-.48c-.2-.11-.49-.27-.84-.49l-.63-.37V36.89l.72.4Zm5.93,17.72a1.49,1.49,0,0,1-.44.58,1.33,1.33,0,0,1-.72.21,4.06,4.06,0,0,1-.86-.05,6.51,6.51,0,0,1-1-.29,10.89,10.89,0,0,1-1-.42c-.3-.14-.65-.31-1.06-.53l-1-.52L256.8,54l-.67-.39V46.55L257,47q.72.39,1.17.66c.31.17.72.43,1.26.78s1,.67,1.34,1,.76.65,1.19,1.07a8.55,8.55,0,0,1,1,1.24,7.08,7.08,0,0,1,.67,1.35,4.4,4.4,0,0,1,.27,1.5A2.48,2.48,0,0,1,263.76,55.56Z"/><path class="cls-9" d="M267.6,54a12.26,12.26,0,0,0-3.17-4q2.7,0,2.38-4a9.19,9.19,0,0,0-.67-2.78,9.85,9.85,0,0,0-1.49-2.5,17.14,17.14,0,0,0-2-2.12,26.7,26.7,0,0,0-2.54-1.94V31.39l-2.79-1.61v5.13l-2.22-1.24V28.5l-2.79-1.61v5.28c-.4-.22-1-.55-1.76-1l-3.85-2.24v3.43l2,1.17a3.13,3.13,0,0,1,1.61,2.35v6l.29.19-.29-.16v8.41c-.09.66-.45.81-1.05.47l-2-1.17-.57,3.51,3.63,2.1,1,.58,1,.58v5.34l2.79,1.61V58.07c.51.31,1.25.74,2.22,1.3v5.26l2.79,1.61V60.9a23.82,23.82,0,0,0,2.64,1.21,9.2,9.2,0,0,0,2.2.55,3.26,3.26,0,0,0,1.76-.21,2.59,2.59,0,0,0,1.17-1.19,5.82,5.82,0,0,0,.59-2.28A9.25,9.25,0,0,0,267.6,54ZM255.11,37.47l.71.41,1,.54c.26.15.61.37,1.06.66s.81.57,1.11.81a13.17,13.17,0,0,1,1,.93,6.64,6.64,0,0,1,.87,1.08,6,6,0,0,1,.55,1.2,4.27,4.27,0,0,1,.23,1.36,2.65,2.65,0,0,1-.16,1A1,1,0,0,1,261,46a2.73,2.73,0,0,1-.68.18,2.34,2.34,0,0,1-.87-.13c-.36-.1-.67-.21-.94-.3s-.6-.26-1-.46-.7-.37-.9-.49l-.85-.48-.62-.38V37.47Zm7.62,18.67a1.34,1.34,0,0,1-.44.58,1.21,1.21,0,0,1-.72.22,4.1,4.1,0,0,1-.86-.06,6.43,6.43,0,0,1-1-.29,11.16,11.16,0,0,1-1-.42c-.29-.13-.65-.31-1.06-.53s-.73-.39-1-.52l-.87-.51-.67-.4V47.13l.86.48,1.17.65c.3.18.72.44,1.25.79s1,.67,1.34,1a15,15,0,0,1,1.19,1.07,7.86,7.86,0,0,1,1,1.24,6.54,6.54,0,0,1,.67,1.35,4.19,4.19,0,0,1,.28,1.5A2.27,2.27,0,0,1,262.73,56.14Z"/><polygon class="cls-1" points="474.49 116.34 409.22 154.03 378.21 171.93 312.94 209.62 311.49 208.79 376.75 171.09 407.76 153.2 473.05 115.51 474.49 116.34"/><path class="cls-1" d="M429,173.82l-55.86-32.25c-2.6-1.5-2.28-4.13.73-5.86l54.4-31.41c3-1.73,7.55-1.92,10.15-.42l55.86,32.25c2.6,1.5,2.28,4.13-.73,5.86L439.1,173.4C436.1,175.13,431.55,175.32,429,173.82Z"/><path class="cls-2" d="M500,132.41l-2.75.84-54.86-31.67c-2.6-1.5-7.14-1.32-10.15.42l-54.4,31.41a1,1,0,0,0-.13.09l-2.32-.73v3.6a2.67,2.67,0,0,0,0,.4v.3h0a3.19,3.19,0,0,0,1.71,2.21L433,171.52c2.61,1.5,7.15,1.31,10.15-.42l54.4-31.41a4.28,4.28,0,0,0,2.47-3.14h0Z"/><path class="cls-3" d="M433,167.74,377.1,135.49c-2.6-1.5-2.27-4.13.73-5.86l54.4-31.41c3-1.73,7.55-1.92,10.15-.42l55.86,32.25c2.61,1.5,2.28,4.13-.73,5.86l-54.4,31.41C440.11,169.05,435.57,169.24,433,167.74Z"/><ellipse class="cls-4" cx="434.17" cy="133.27" rx="36.39" ry="21.01"/><path class="cls-5" d="M473.09,131v-9.39l-1.51,3.36c-1.67-3.24-4.72-6.29-9.15-8.85-14.21-8.21-37.26-8.21-51.47,0a23.18,23.18,0,0,0-8.87,8.36l-1.79-2.36V131h0c0,5.36,3.58,10.72,10.66,14.81,14.21,8.2,37.26,8.2,51.47,0,7.08-4.08,10.63-9.44,10.66-14.8h0Z"/><ellipse class="cls-6" cx="436.69" cy="121.93" rx="36.39" ry="21.01"/><path class="cls-7" d="M462.69,122.83c-.36,3.55-2.88,7-7.58,9.74-10.17,5.87-26.67,5.87-36.85,0-4.69-2.7-7.22-6.19-7.58-9.74-.43-4.14,2.1-8.37,7.58-11.54,10.18-5.87,26.68-5.87,36.85,0C460.59,114.46,463.13,118.69,462.69,122.83Z"/><path class="cls-8" d="M462.69,122.83c-.36,3.55-2.88,7-7.58,9.74-10.17,5.87-26.67,5.87-36.85,0-4.69-2.7-7.22-6.19-7.58-9.74.36-3.54,2.89-7,7.58-9.73,10.18-5.88,26.68-5.88,36.85,0C459.81,115.8,462.33,119.29,462.69,122.83Z"/><path class="cls-7" d="M446.87,126a19.18,19.18,0,0,0,1.86-1.32,7.42,7.42,0,0,0,1.24-1.28,2.68,2.68,0,0,0,.54-1.28,2,2,0,0,0-.35-1.26,4.72,4.72,0,0,0-1.31-1.29,7.41,7.41,0,0,0-3.68-1.39,9.8,9.8,0,0,0-3.95.59q1-1.84-1.81-3.19a7,7,0,0,0-2.15-.64,7.6,7.6,0,0,0-2.28,0,12.88,12.88,0,0,0-2.24.56,19.34,19.34,0,0,0-2.31,1l-3.16-1.82.27-.11h-.46l-.24-.14-.24.14h-2v1.13l3.49,2c-.38.22-.95.55-1.71,1l-3.51-2-.56.32-1.63-.18v1.12l3.58,2.07c-.3.19-.75.45-1.36.8l-1.26.72-1.77-.11v1.13l2.33,1.34,1.58-.91a2.48,2.48,0,0,1,2.23-.17l4.08,2.35.24-.12-.22.13,5.71,3.3c.4.32.37.61-.07.88l-1.61-.2v1.13l2.16,1.75,2.85-1.64.79-.45.77-.43,3.63,2.09,2.19-1.27v-1.12l-1,.56-2.61-1.5,1.75-1,3.57,2.06L450.5,128v-1.13h-1.95Zm-12.31-4-.67.38-.49.28L429,120.13l.56-.33.75-.45c.2-.12.49-.27.86-.46s.7-.33,1-.44a8.85,8.85,0,0,1,1-.31,5.19,5.19,0,0,1,1.09-.17,4.72,4.72,0,0,1,1,.1,3.32,3.32,0,0,1,1,.37,2,2,0,0,1,.59.5.69.69,0,0,1,.17.53,1.9,1.9,0,0,1-.15.53,1.71,1.71,0,0,1-.42.55l-.58.51a7,7,0,0,1-.7.5Zm10.22,1.37a3.33,3.33,0,0,1-.38.57,4.67,4.67,0,0,1-.59.57q-.37.31-.69.54l-.77.51-.74.45-.69.39-.53.3-4.8-2.78.66-.4c.36-.22.66-.4.9-.53s.58-.32,1-.55.84-.4,1.18-.53.74-.26,1.2-.39a6.22,6.22,0,0,1,1.25-.22,4.79,4.79,0,0,1,1.18.08,3.26,3.26,0,0,1,1.12.4,1.87,1.87,0,0,1,.59.49,1.14,1.14,0,0,1,.22.53A1,1,0,0,1,444.78,123.36Z"/><path class="cls-9" d="M445.17,117a9.47,9.47,0,0,0-3.95.59q1-1.84-1.81-3.2a7.31,7.31,0,0,0-2.15-.64,8.32,8.32,0,0,0-2.28,0,12.88,12.88,0,0,0-2.24.56,21.15,21.15,0,0,0-2.31,1l-3.59-2.06-2.19,1.26,3.49,2-1.71,1-3.51-2-2.19,1.27,3.58,2.06c-.3.19-.75.46-1.36.81l-3,1.73,2.33,1.35,1.58-.91a2.45,2.45,0,0,1,2.23-.18l4.08,2.36a1.31,1.31,0,0,1,.24-.12l-.22.13,5.71,3.3c.41.32.38.62-.1.89l-1.58.91,2.16,1.76,2.85-1.64.79-.45.77-.44,3.63,2.09,2.19-1.26L443,127.11c.41-.22,1-.56,1.75-1l3.57,2.06,2.19-1.27-3.63-2.09a19.18,19.18,0,0,0,1.86-1.32,6.77,6.77,0,0,0,1.24-1.28,2.65,2.65,0,0,0,.54-1.27,2,2,0,0,0-.35-1.26,4.61,4.61,0,0,0-1.31-1.3A7.3,7.3,0,0,0,445.17,117ZM429,119l.56-.33.75-.45c.2-.12.49-.27.86-.45a9.59,9.59,0,0,1,1-.44,8.71,8.71,0,0,1,1-.32,4.56,4.56,0,0,1,1.09-.16,4.68,4.68,0,0,1,1,.09,3.34,3.34,0,0,1,1,.38,2,2,0,0,1,.59.49.73.73,0,0,1,.17.54,1.83,1.83,0,0,1-.15.52,1.71,1.71,0,0,1-.42.55l-.58.52a7.15,7.15,0,0,1-.7.49l-.68.43-.67.38-.49.28L429,119Zm15.66,2.14a1.1,1.1,0,0,1,.22.53,1,1,0,0,1-.13.57,3.67,3.67,0,0,1-.38.56,4.67,4.67,0,0,1-.59.57q-.37.31-.69.54c-.21.15-.47.32-.77.51s-.56.35-.74.45l-.69.39-.53.3-4.8-2.78.66-.39.9-.54q.36-.21,1-.54c.45-.23.84-.4,1.18-.54a11.5,11.5,0,0,1,1.2-.38,5.58,5.58,0,0,1,1.25-.22,4.77,4.77,0,0,1,1.18.07,3.48,3.48,0,0,1,1.12.4A1.89,1.89,0,0,1,444.69,121.14Z"/><path class="cls-5" d="M473.49,117.78v-9.4L472,111.75c-1.67-3.24-4.72-6.3-9.15-8.85-14.21-8.21-37.26-8.21-51.47,0a23.16,23.16,0,0,0-8.87,8.35l-1.79-2.36v8.92h0c0,5.36,3.58,10.71,10.66,14.8,14.21,8.21,37.26,8.21,51.47,0,7.08-4.09,10.63-9.44,10.66-14.8h0Z"/><ellipse class="cls-6" cx="437.09" cy="108.76" rx="36.39" ry="21.01"/><path class="cls-7" d="M463.09,109.66c-.36,3.54-2.88,7-7.58,9.74-10.17,5.87-26.67,5.87-36.85,0-4.69-2.71-7.22-6.2-7.58-9.74-.43-4.14,2.1-8.38,7.58-11.54,10.18-5.88,26.68-5.88,36.85,0C461,101.28,463.53,105.52,463.09,109.66Z"/><path class="cls-8" d="M463.09,109.66c-.36,3.54-2.88,7-7.58,9.74-10.17,5.87-26.67,5.87-36.85,0-4.69-2.71-7.22-6.2-7.58-9.74.36-3.54,2.89-7,7.58-9.73,10.18-5.88,26.68-5.88,36.85,0C460.21,102.63,462.73,106.12,463.09,109.66Z"/><path class="cls-7" d="M447.27,112.77a21.19,21.19,0,0,0,1.86-1.31,7.42,7.42,0,0,0,1.24-1.28,2.72,2.72,0,0,0,.54-1.28,2,2,0,0,0-.35-1.26,4.47,4.47,0,0,0-1.31-1.29,7.23,7.23,0,0,0-3.68-1.39,9.63,9.63,0,0,0-3.95.59q1-1.85-1.81-3.19a7,7,0,0,0-2.15-.64,7.94,7.94,0,0,0-2.28,0,13.85,13.85,0,0,0-2.24.56,19.48,19.48,0,0,0-2.31,1l-3.16-1.83.27-.1h-.46l-.24-.14-.24.14h-1.95v1.12l3.49,2-1.71,1-3.51-2-.56.33-1.63-.19v1.13l3.58,2.07-1.36.8-1.26.72-1.77-.11v1.12l2.33,1.35,1.58-.91a2.42,2.42,0,0,1,2.23-.17l4.08,2.35.24-.12-.22.13,5.71,3.3c.4.31.37.6-.07.87l-1.61-.19v1.12l2.16,1.76,2.85-1.64.79-.45.77-.44,3.63,2.1,2.19-1.27V116l-1,.56-2.61-1.51c.41-.22,1-.55,1.75-1l3.57,2.06,2.19-1.26v-1.13H449Zm-12.31-4c-.16.1-.38.23-.67.38l-.49.28L429.43,107l.56-.32.75-.46c.2-.12.49-.27.86-.45s.7-.33,1-.44a8.71,8.71,0,0,1,1-.32,5.13,5.13,0,0,1,1.09-.16,4.68,4.68,0,0,1,1,.09,3.62,3.62,0,0,1,1,.38,2,2,0,0,1,.59.49.73.73,0,0,1,.17.54,2,2,0,0,1-.15.53,1.82,1.82,0,0,1-.42.55l-.58.51a7,7,0,0,1-.7.5Zm10.22,1.38a3.24,3.24,0,0,1-.38.56,4.67,4.67,0,0,1-.59.57,8.37,8.37,0,0,1-.69.54l-.77.52-.74.44-.69.39-.53.3-4.8-2.77.66-.4.9-.54c.24-.13.58-.32,1-.54s.84-.4,1.18-.53.74-.26,1.2-.39a6.22,6.22,0,0,1,1.25-.22,5.3,5.3,0,0,1,1.18.07,3.27,3.27,0,0,1,1.12.41,1.75,1.75,0,0,1,.59.49,1.14,1.14,0,0,1,.22.53A1,1,0,0,1,445.18,110.19Z"/><path class="cls-9" d="M445.57,103.83a9.8,9.8,0,0,0-3.95.59q1-1.85-1.81-3.19a7,7,0,0,0-2.15-.64,7.94,7.94,0,0,0-2.28,0,12.88,12.88,0,0,0-2.24.56,21.15,21.15,0,0,0-2.31,1l-3.59-2.07-2.19,1.27,3.49,2-1.71,1-3.51-2-2.19,1.26,3.58,2.07c-.3.19-.75.46-1.36.81l-3,1.73,2.33,1.34,1.58-.91a2.48,2.48,0,0,1,2.23-.17l4.08,2.36.24-.13-.22.13,5.71,3.3c.41.33.38.62-.1.9l-1.58.91,2.16,1.75,2.85-1.64.79-.44.77-.44,3.63,2.09L447,116l-3.59-2.07,1.75-1,3.57,2.06,2.19-1.26-3.63-2.09a19.18,19.18,0,0,0,1.86-1.32,7.08,7.08,0,0,0,1.24-1.28,2.68,2.68,0,0,0,.54-1.28,2,2,0,0,0-.35-1.26,4.72,4.72,0,0,0-1.31-1.29A7.41,7.41,0,0,0,445.57,103.83Zm-16.14,2,.56-.33.75-.45c.2-.12.49-.27.86-.46s.7-.33,1-.44a8.85,8.85,0,0,1,1-.31,5.19,5.19,0,0,1,1.09-.17,5.43,5.43,0,0,1,1,.1,3.34,3.34,0,0,1,1,.38,1.86,1.86,0,0,1,.59.49.7.7,0,0,1,.17.54,1.93,1.93,0,0,1-.15.52,1.71,1.71,0,0,1-.42.55l-.58.51a5.67,5.67,0,0,1-.7.5l-.68.43-.67.38-.49.28-4.37-2.52ZM445.09,108a1.06,1.06,0,0,1,.22.53,1,1,0,0,1-.13.57,3.67,3.67,0,0,1-.38.56,4.67,4.67,0,0,1-.59.57q-.37.31-.69.54l-.77.51-.74.45-.69.39-.53.3-4.8-2.78.66-.4c.36-.22.66-.4.9-.53s.58-.32,1-.55.84-.4,1.18-.53a11.5,11.5,0,0,1,1.2-.38,6.28,6.28,0,0,1,1.25-.23,5.33,5.33,0,0,1,1.18.08,3.26,3.26,0,0,1,1.12.4A1.77,1.77,0,0,1,445.09,108Z"/><path class="cls-5" d="M471.62,104.6V95.21l-1.51,3.37c-1.67-3.24-4.72-6.3-9.15-8.86-14.21-8.2-37.26-8.2-51.47,0a23.11,23.11,0,0,0-8.87,8.36l-1.79-2.36v8.92h0c0,5.36,3.58,10.72,10.66,14.81,14.21,8.2,37.25,8.2,51.47,0,7.08-4.09,10.63-9.45,10.66-14.81h0Z"/><ellipse class="cls-6" cx="435.22" cy="95.59" rx="36.39" ry="21.01"/><path class="cls-7" d="M461.21,96.49c-.35,3.54-2.88,7-7.57,9.73-10.18,5.88-26.67,5.88-36.85,0-4.69-2.7-7.22-6.19-7.58-9.73-.43-4.15,2.1-8.38,7.58-11.54,10.18-5.88,26.67-5.88,36.85,0C459.12,88.11,461.65,92.34,461.21,96.49Z"/><path class="cls-8" d="M461.21,96.49c-.35,3.54-2.88,7-7.57,9.73-10.18,5.88-26.67,5.88-36.85,0-4.69-2.7-7.22-6.19-7.58-9.73.36-3.55,2.89-7,7.58-9.74,10.18-5.87,26.67-5.87,36.85,0C458.33,89.45,460.86,92.94,461.21,96.49Z"/><path class="cls-7" d="M445.4,99.6a19.18,19.18,0,0,0,1.86-1.32A6.41,6.41,0,0,0,448.49,97a2.58,2.58,0,0,0,.55-1.27,2,2,0,0,0-.35-1.26,4.74,4.74,0,0,0-1.31-1.3,7.34,7.34,0,0,0-3.68-1.38,9.53,9.53,0,0,0-4,.59c.7-1.23.09-2.3-1.8-3.2a7.31,7.31,0,0,0-2.15-.64,8.31,8.31,0,0,0-2.28,0,13.22,13.22,0,0,0-2.25.56,22.92,22.92,0,0,0-2.31,1l-3.16-1.82.28-.11h-.46l-.24-.13-.24.13h-1.95V89.3l3.49,2-1.71,1-3.51-2-.56.32-1.63-.18v1.13l3.58,2.06c-.3.19-.76.46-1.36.81l-1.26.72L418.45,95v1.13l2.33,1.35,1.58-.91a2.45,2.45,0,0,1,2.23-.18l4.08,2.36a1.31,1.31,0,0,1,.24-.12l-.23.13,5.72,3.3c.4.31.37.6-.07.87l-1.61-.19v1.12l2.16,1.76,2.85-1.64.78-.45.78-.44,3.62,2.09L445.1,104v-1.13l-1,.57-2.61-1.51c.41-.22,1-.56,1.75-1l3.57,2.06,2.19-1.27v-1.12h-1.95Zm-12.32-4c-.15.1-.37.22-.66.38l-.49.28-4.37-2.52.56-.33.75-.45c.2-.12.48-.27.86-.45a9.59,9.59,0,0,1,1-.44,8.71,8.71,0,0,1,1-.32,4.55,4.55,0,0,1,1.08-.16,4.63,4.63,0,0,1,1,.09,3.24,3.24,0,0,1,1,.38,1.93,1.93,0,0,1,.6.49.72.72,0,0,1,.16.54,1.82,1.82,0,0,1-.14.52,1.71,1.71,0,0,1-.42.55l-.58.52a7.15,7.15,0,0,1-.7.49ZM443.31,97a3.67,3.67,0,0,1-.38.56,4.67,4.67,0,0,1-.59.57q-.37.31-.69.54t-.78.51c-.3.2-.55.35-.73.45l-.69.39-.53.3-4.81-2.78.67-.39.9-.54q.36-.21,1-.54c.45-.23.84-.4,1.18-.54a11.5,11.5,0,0,1,1.2-.38,5.58,5.58,0,0,1,1.25-.22,4.77,4.77,0,0,1,1.18.07,3.56,3.56,0,0,1,1.12.4,1.89,1.89,0,0,1,.59.5,1.1,1.1,0,0,1,.22.53A1.07,1.07,0,0,1,443.31,97Z"/><path class="cls-9" d="M443.7,90.66a9.7,9.7,0,0,0-4,.59c.7-1.23.09-2.29-1.8-3.19a7,7,0,0,0-2.15-.64,7.59,7.59,0,0,0-2.28,0,14.21,14.21,0,0,0-2.25.55A21,21,0,0,0,429,89l-3.58-2.07-2.19,1.26,3.49,2c-.38.21-.95.55-1.71,1l-3.51-2-2.19,1.26,3.58,2.07-1.36.8-3,1.73,2.33,1.35,1.58-.91a2.45,2.45,0,0,1,2.23-.17l4.08,2.35.24-.12-.23.13,5.72,3.3c.41.32.37.62-.1.89l-1.58.92,2.16,1.75,2.85-1.64.78-.45.78-.44,3.62,2.1,2.19-1.27-3.58-2.07c.41-.22,1-.55,1.75-1l3.57,2.06,2.19-1.26-3.63-2.1a21.19,21.19,0,0,0,1.86-1.31,7,7,0,0,0,1.23-1.28A2.61,2.61,0,0,0,449,94.6a2,2,0,0,0-.35-1.26,4.73,4.73,0,0,0-1.31-1.29A7.35,7.35,0,0,0,443.7,90.66Zm-16.14,2,.56-.33.75-.45a9.71,9.71,0,0,1,.86-.46c.37-.18.7-.33,1-.44s.62-.21,1-.32a5.13,5.13,0,0,1,1.08-.16,4.13,4.13,0,0,1,1,.1,3.22,3.22,0,0,1,1,.37,1.94,1.94,0,0,1,.6.5.68.68,0,0,1,.16.53,1.88,1.88,0,0,1-.14.53,1.82,1.82,0,0,1-.42.55l-.58.51a7,7,0,0,1-.7.5l-.69.42q-.22.15-.66.39l-.49.27-4.37-2.51Zm15.66,2.13a1.14,1.14,0,0,1,.22.53,1,1,0,0,1-.13.57,3.33,3.33,0,0,1-.38.57,4.67,4.67,0,0,1-.59.57,8.07,8.07,0,0,1-.69.53c-.21.15-.47.32-.78.52l-.73.44-.69.39-.53.3-4.81-2.77.67-.4.9-.54,1-.54c.45-.22.84-.4,1.18-.53s.74-.26,1.2-.39a6.22,6.22,0,0,1,1.25-.22,5.3,5.3,0,0,1,1.18.07,3.58,3.58,0,0,1,1.12.41A1.87,1.87,0,0,1,443.22,94.79Z"/><path class="cls-1" d="M415.42,359.56l-55.86-32.25c-2.6-1.5-2.27-4.12.73-5.86L414.69,290c3-1.73,7.55-1.92,10.15-.42l55.86,32.25c2.61,1.51,2.28,4.13-.73,5.86l-54.4,31.41C422.57,360.88,418,361.06,415.42,359.56Z"/><path class="cls-2" d="M486.46,318.15l-2.74.84-54.86-31.67c-2.6-1.5-7.15-1.31-10.15.42l-54.4,31.41-.13.09-2.32-.73v3.61a1.7,1.7,0,0,0,0,.39v.3h0a3.13,3.13,0,0,0,1.71,2.21l55.86,32.25c2.6,1.5,7.14,1.31,10.15-.42L484,325.43a4.28,4.28,0,0,0,2.46-3.14h0Z"/><path class="cls-3" d="M419.44,353.48l-55.86-32.25c-2.6-1.5-2.28-4.12.73-5.86L418.71,284c3-1.73,7.55-1.92,10.15-.42l55.86,32.25c2.6,1.51,2.27,4.13-.73,5.86l-54.4,31.41C426.58,354.8,422,355,419.44,353.48Z"/><ellipse class="cls-4" cx="420.64" cy="319.01" rx="36.39" ry="21.01"/><path class="cls-5" d="M459.56,316.69V307.3l-1.51,3.37c-1.67-3.25-4.71-6.3-9.15-8.86-14.21-8.2-37.25-8.2-51.47,0a23.18,23.18,0,0,0-8.87,8.36l-1.78-2.36v8.91h0c0,5.36,3.57,10.72,10.65,14.81,14.22,8.2,37.26,8.2,51.47,0,7.09-4.09,10.64-9.45,10.66-14.81h0Z"/><ellipse class="cls-6" cx="423.16" cy="307.67" rx="36.39" ry="21.01"/><path class="cls-7" d="M449.16,308.58c-.36,3.54-2.88,7-7.57,9.73-10.18,5.88-26.68,5.88-36.85,0-4.7-2.7-7.23-6.19-7.58-9.73-.44-4.15,2.1-8.38,7.58-11.55,10.17-5.87,26.67-5.87,36.85,0C447.07,300.2,449.6,304.43,449.16,308.58Z"/><path class="cls-8" d="M449.16,308.58c-.36,3.54-2.88,7-7.57,9.73-10.18,5.88-26.68,5.88-36.85,0-4.7-2.7-7.23-6.19-7.58-9.73.35-3.55,2.88-7,7.58-9.74,10.17-5.87,26.67-5.87,36.85,0C446.28,301.54,448.8,305,449.16,308.58Z"/><path class="cls-7" d="M433.35,311.69a17.77,17.77,0,0,0,1.85-1.32,7.08,7.08,0,0,0,1.24-1.28,2.61,2.61,0,0,0,.55-1.28,2,2,0,0,0-.35-1.26,4.78,4.78,0,0,0-1.32-1.29,7.41,7.41,0,0,0-3.68-1.39,9.65,9.65,0,0,0-3.95.6c.69-1.24.09-2.3-1.81-3.2a7,7,0,0,0-2.14-.64,7.93,7.93,0,0,0-2.28,0,12.77,12.77,0,0,0-2.25.56,22,22,0,0,0-2.31,1l-3.16-1.82.27-.11h-.45l-.24-.14-.24.14h-1.95v1.13l3.48,2-1.7,1-3.52-2-.55.32-1.64-.18v1.12l3.59,2.07c-.31.19-.76.46-1.37.81l-1.25.71-1.78-.11v1.13l2.34,1.34,1.57-.91a2.5,2.5,0,0,1,2.24-.17l4.08,2.36a1.47,1.47,0,0,1,.24-.13l-.23.13,5.71,3.3c.4.32.37.61-.07.88l-1.6-.2V316l2.16,1.76,2.84-1.65.79-.44.77-.44,3.63,2.09,2.19-1.26v-1.13l-1,.56-2.6-1.5,1.75-1,3.56,2.06,2.19-1.27v-1.12h-2Zm-12.32-4-.66.38-.5.28-4.36-2.52.55-.33.75-.45c.2-.12.49-.27.86-.46s.71-.33,1-.44.63-.21,1-.31a5,5,0,0,1,1.08-.17,5.35,5.35,0,0,1,1,.1,3.24,3.24,0,0,1,1,.38,2,2,0,0,1,.6.49.73.73,0,0,1,.16.54,1.82,1.82,0,0,1-.14.52,1.76,1.76,0,0,1-.43.55q-.32.3-.57.51a5.9,5.9,0,0,1-.71.5Zm10.22,1.38a3.07,3.07,0,0,1-.38.56,4.07,4.07,0,0,1-.59.57q-.37.31-.69.54c-.2.15-.46.32-.77.51l-.73.45-.69.39c-.28.15-.46.25-.53.3l-4.81-2.78.66-.39.9-.54c.24-.14.58-.32,1-.54a11.32,11.32,0,0,1,1.18-.54,12.06,12.06,0,0,1,1.19-.38,6.41,6.41,0,0,1,1.25-.23,5.33,5.33,0,0,1,1.18.08,3.39,3.39,0,0,1,1.13.4,1.87,1.87,0,0,1,.59.5,1.2,1.2,0,0,1,.22.53A1.09,1.09,0,0,1,431.25,309.11Z"/><path class="cls-9" d="M431.64,302.75a9.63,9.63,0,0,0-3.95.59c.69-1.23.09-2.3-1.81-3.19a7,7,0,0,0-2.14-.64,7.93,7.93,0,0,0-2.28,0,13.71,13.71,0,0,0-2.25.56,20.21,20.21,0,0,0-2.31,1L413.32,299l-2.19,1.26,3.48,2-1.7,1-3.52-2-2.19,1.27,3.59,2.07-1.37.8-3,1.73,2.34,1.35,1.57-.91a2.47,2.47,0,0,1,2.24-.18l4.08,2.36a1.33,1.33,0,0,1,.24-.12l-.23.13,5.71,3.3c.41.32.38.62-.09.89l-1.58.91,2.16,1.76,2.84-1.64.79-.45.77-.44,3.63,2.09,2.19-1.26-3.58-2.07c.4-.22,1-.55,1.75-1l3.56,2.06,2.19-1.26-3.62-2.1a19.5,19.5,0,0,0,1.85-1.31,7.12,7.12,0,0,0,1.24-1.29,2.58,2.58,0,0,0,.55-1.27,2,2,0,0,0-.35-1.26,4.52,4.52,0,0,0-1.32-1.29A7.23,7.23,0,0,0,431.64,302.75Zm-16.13,2,.55-.32.75-.46c.2-.12.49-.27.86-.45s.71-.33,1-.44a9.62,9.62,0,0,1,1-.32,5,5,0,0,1,1.08-.16,4.63,4.63,0,0,1,1,.09,3.24,3.24,0,0,1,1,.38,2.19,2.19,0,0,1,.6.49.76.76,0,0,1,.16.54,2,2,0,0,1-.14.53,1.88,1.88,0,0,1-.43.55q-.32.3-.57.51a7.31,7.31,0,0,1-.71.5l-.68.42c-.16.1-.38.23-.66.38l-.5.28-4.36-2.52Zm15.66,2.14a1.25,1.25,0,0,1,.22.53,1,1,0,0,1-.14.57,2.76,2.76,0,0,1-.38.56,4.07,4.07,0,0,1-.59.57q-.37.31-.69.54c-.2.15-.46.32-.77.51s-.55.35-.73.45l-.69.39-.53.3-4.81-2.77.66-.4.9-.54c.24-.14.58-.32,1-.54s.84-.4,1.18-.53a11.91,11.91,0,0,1,1.19-.39,5.68,5.68,0,0,1,1.25-.22,5.3,5.3,0,0,1,1.18.07,3.62,3.62,0,0,1,1.13.4A2,2,0,0,1,431.17,306.88Z"/><path class="cls-5" d="M460,303.52v-9.39l-1.51,3.36c-1.67-3.24-4.71-6.29-9.15-8.85-14.21-8.21-37.25-8.21-51.47,0A23.18,23.18,0,0,0,389,297l-1.78-2.36v8.91h0c0,5.36,3.57,10.72,10.65,14.8,14.22,8.21,37.26,8.21,51.47,0,7.09-4.09,10.64-9.44,10.66-14.8h0Z"/><ellipse class="cls-6" cx="423.56" cy="294.5" rx="36.39" ry="21.01"/><path class="cls-7" d="M449.56,295.4c-.36,3.55-2.88,7-7.57,9.74-10.18,5.87-26.68,5.87-36.85,0-4.7-2.7-7.23-6.19-7.58-9.74-.44-4.14,2.1-8.37,7.58-11.54,10.17-5.87,26.67-5.87,36.85,0C447.47,287,450,291.26,449.56,295.4Z"/><path class="cls-8" d="M449.56,295.4c-.36,3.55-2.88,7-7.57,9.74-10.18,5.87-26.68,5.87-36.85,0-4.7-2.7-7.23-6.19-7.58-9.74.35-3.54,2.88-7,7.58-9.73,10.17-5.88,26.67-5.88,36.85,0C446.68,288.37,449.2,291.86,449.56,295.4Z"/><path class="cls-7" d="M433.75,298.52a19.4,19.4,0,0,0,1.85-1.32,7.42,7.42,0,0,0,1.24-1.28,2.61,2.61,0,0,0,.55-1.28,2,2,0,0,0-.35-1.26,4.78,4.78,0,0,0-1.32-1.29A7.32,7.32,0,0,0,432,290.7a9.8,9.8,0,0,0-4,.59q1-1.85-1.81-3.19a7,7,0,0,0-2.14-.64,7.59,7.59,0,0,0-2.28,0,12.77,12.77,0,0,0-2.25.56,20.81,20.81,0,0,0-2.31,1l-3.16-1.82.27-.11H414l-.24-.14-.24.14h-2v1.13l3.48,2c-.38.22-.95.55-1.7,1l-3.52-2-.55.32-1.64-.19v1.13l3.59,2.07-1.37.8-1.25.72-1.78-.11v1.13l2.34,1.34,1.57-.91a2.47,2.47,0,0,1,2.24-.17L417,297.7l.24-.12-.23.13,5.71,3.3c.4.32.37.61-.07.88l-1.6-.2v1.13l2.16,1.75,2.84-1.64.79-.45.77-.44,3.63,2.1,2.19-1.27v-1.12l-1,.56-2.6-1.5,1.75-1,3.56,2.06,2.19-1.26v-1.13h-1.95Zm-12.32-4-.66.38-.5.28-4.36-2.52.55-.33.75-.45c.2-.12.49-.28.86-.46s.71-.33,1-.44a9.77,9.77,0,0,1,1-.31,4.46,4.46,0,0,1,1.08-.17,4.66,4.66,0,0,1,1,.1,3.22,3.22,0,0,1,1,.37,2.21,2.21,0,0,1,.6.5.72.72,0,0,1,.16.53,1.88,1.88,0,0,1-.14.53,1.76,1.76,0,0,1-.43.55q-.31.3-.57.51a7.31,7.31,0,0,1-.71.5Zm10.22,1.37a2.83,2.83,0,0,1-.38.57,4.07,4.07,0,0,1-.59.57,8.07,8.07,0,0,1-.69.53c-.2.15-.46.32-.77.52l-.73.44-.69.39-.53.3-4.81-2.77.66-.4.9-.54,1-.54c.44-.22.84-.4,1.18-.53s.74-.26,1.19-.39a6.34,6.34,0,0,1,1.25-.22,4.79,4.79,0,0,1,1.18.08,3.39,3.39,0,0,1,1.13.4,2,2,0,0,1,.59.49,1.25,1.25,0,0,1,.22.53A1,1,0,0,1,431.65,295.93Z"/><path class="cls-9" d="M432,289.58a9.47,9.47,0,0,0-4,.59q1-1.85-1.81-3.2a7.25,7.25,0,0,0-2.14-.64,8.31,8.31,0,0,0-2.28,0,12.77,12.77,0,0,0-2.25.56,22.92,22.92,0,0,0-2.31,1l-3.58-2.06-2.19,1.26,3.48,2-1.7,1-3.52-2-2.19,1.26,3.59,2.07c-.31.19-.76.46-1.37.81l-3,1.73,2.34,1.35,1.57-.92a2.5,2.5,0,0,1,2.24-.17l4.08,2.36a1.47,1.47,0,0,1,.24-.13l-.23.14,5.71,3.3c.41.32.38.62-.09.89l-1.58.91,2.16,1.76,2.84-1.64.79-.45.77-.44,3.63,2.09,2.19-1.26-3.58-2.07,1.75-1,3.56,2.06,2.19-1.27-3.62-2.09a17.77,17.77,0,0,0,1.85-1.32,7.08,7.08,0,0,0,1.24-1.28,2.58,2.58,0,0,0,.55-1.27,2,2,0,0,0-.35-1.26,4.66,4.66,0,0,0-1.32-1.3A7.3,7.3,0,0,0,432,289.58Zm-16.13,2,.55-.33.75-.45c.2-.12.49-.27.86-.45s.71-.33,1-.44a9.62,9.62,0,0,1,1-.32,4.41,4.41,0,0,1,1.08-.16,4.63,4.63,0,0,1,1,.09,3.24,3.24,0,0,1,1,.38,2.19,2.19,0,0,1,.6.49.75.75,0,0,1,.16.54,1.82,1.82,0,0,1-.14.52,1.76,1.76,0,0,1-.43.55l-.57.52a7.49,7.49,0,0,1-.71.49l-.68.43-.66.38-.5.28-4.36-2.52Zm15.66,2.14a1.2,1.2,0,0,1,.22.53,1.09,1.09,0,0,1-.14.57,3.07,3.07,0,0,1-.38.56,4.07,4.07,0,0,1-.59.57q-.37.31-.69.54c-.2.15-.46.32-.77.51s-.55.35-.73.45l-.69.39c-.28.16-.46.25-.53.3l-4.81-2.78.66-.39.9-.54c.24-.14.58-.32,1-.54a11.32,11.32,0,0,1,1.18-.54,12.06,12.06,0,0,1,1.19-.38,5.68,5.68,0,0,1,1.25-.22,4.77,4.77,0,0,1,1.18.07,3.39,3.39,0,0,1,1.13.4A2,2,0,0,1,431.57,293.71Z"/><path class="cls-5" d="M458.09,290.35V281l-1.51,3.37c-1.67-3.24-4.72-6.3-9.15-8.85-14.21-8.21-37.25-8.21-51.47,0a23.16,23.16,0,0,0-8.87,8.35l-1.79-2.36v8.92h0c0,5.36,3.57,10.71,10.65,14.8,14.22,8.21,37.26,8.21,51.47,0,7.08-4.09,10.64-9.44,10.66-14.8h0Z"/><ellipse class="cls-6" cx="421.69" cy="281.33" rx="36.39" ry="21.01"/><path class="cls-7" d="M447.69,282.23c-.36,3.54-2.88,7-7.58,9.74-10.17,5.87-26.67,5.87-36.84,0-4.7-2.71-7.23-6.2-7.59-9.74-.43-4.15,2.1-8.38,7.59-11.54,10.17-5.88,26.67-5.88,36.84,0C445.6,273.85,448.13,278.08,447.69,282.23Z"/><path class="cls-8" d="M447.69,282.23c-.36,3.54-2.88,7-7.58,9.74-10.17,5.87-26.67,5.87-36.84,0-4.7-2.71-7.23-6.2-7.59-9.74.36-3.54,2.89-7,7.59-9.73,10.17-5.88,26.67-5.88,36.84,0C444.81,275.2,447.33,278.69,447.69,282.23Z"/><path class="cls-7" d="M431.88,285.34a20.89,20.89,0,0,0,1.85-1.31,7.12,7.12,0,0,0,1.24-1.29,2.58,2.58,0,0,0,.55-1.27,2.06,2.06,0,0,0-.35-1.26,4.52,4.52,0,0,0-1.32-1.29,7.23,7.23,0,0,0-3.68-1.39,9.63,9.63,0,0,0-3.95.59c.69-1.23.09-2.3-1.81-3.19a7,7,0,0,0-2.14-.64,7.93,7.93,0,0,0-2.28,0,13.71,13.71,0,0,0-2.25.56,19.48,19.48,0,0,0-2.31,1L412.27,274l.27-.1h-.45l-.24-.14-.24.14h-1.95V275l3.48,2-1.71,1-3.51-2-.56.33-1.63-.19v1.13l3.59,2.07-1.37.8-1.25.72-1.78-.11v1.12l2.33,1.35,1.58-.91a2.45,2.45,0,0,1,2.23-.18l4.08,2.36a1.8,1.8,0,0,1,.25-.12l-.23.13,5.71,3.3c.4.31.37.6-.07.87l-1.6-.19v1.12l2.16,1.76,2.84-1.64.79-.45.77-.44,3.63,2.09,2.19-1.26v-1.13l-1,.57-2.6-1.51c.4-.22,1-.55,1.74-1l3.57,2.06,2.19-1.26v-1.13h-1.95Zm-12.32-4c-.16.1-.38.23-.66.38l-.5.28L414,279.52l.55-.32.75-.46c.2-.12.49-.27.86-.45s.71-.33,1-.44a8.93,8.93,0,0,1,1-.32,5,5,0,0,1,1.08-.16,4.68,4.68,0,0,1,1,.09,3.24,3.24,0,0,1,1,.38,2.19,2.19,0,0,1,.6.49.76.76,0,0,1,.16.54,2,2,0,0,1-.14.53,1.88,1.88,0,0,1-.43.55c-.21.2-.4.37-.58.51a7,7,0,0,1-.7.5Zm10.22,1.38a3.24,3.24,0,0,1-.38.56,4.67,4.67,0,0,1-.59.57q-.37.32-.69.54c-.21.15-.46.32-.77.51s-.55.35-.73.45l-.69.39-.54.3-4.8-2.77.66-.4.9-.54c.24-.14.58-.32,1-.54a12.28,12.28,0,0,1,1.18-.53,11.11,11.11,0,0,1,1.19-.39,5.58,5.58,0,0,1,1.25-.22,5.3,5.3,0,0,1,1.18.07,3.48,3.48,0,0,1,1.12.4,1.78,1.78,0,0,1,.59.5,1.16,1.16,0,0,1,.23.53A1,1,0,0,1,429.78,282.76Z"/><path class="cls-9" d="M430.17,276.4a9.8,9.8,0,0,0-3.95.59q1-1.85-1.81-3.19a7,7,0,0,0-2.14-.64,7.93,7.93,0,0,0-2.28,0,12.77,12.77,0,0,0-2.25.56,21.15,21.15,0,0,0-2.31,1l-3.58-2.07-2.19,1.27,3.48,2-1.71,1-3.51-2-2.19,1.26,3.59,2.07-1.37.8-3,1.74,2.33,1.34,1.58-.91a2.48,2.48,0,0,1,2.23-.17l4.08,2.35.25-.12-.23.13,5.71,3.3c.41.32.38.62-.1.9l-1.57.91,2.16,1.75,2.84-1.64.79-.44.77-.44,3.63,2.09,2.19-1.27L428,286.51l1.74-1,3.57,2.06,2.19-1.26-3.62-2.09a18.92,18.92,0,0,0,1.85-1.32,7.42,7.42,0,0,0,1.24-1.28,2.61,2.61,0,0,0,.55-1.28,2.09,2.09,0,0,0-.35-1.26,4.78,4.78,0,0,0-1.32-1.29A7.41,7.41,0,0,0,430.17,276.4Zm-16.13,2,.55-.33.75-.45c.2-.12.49-.27.86-.46s.71-.33,1-.44a9.08,9.08,0,0,1,1-.31,5,5,0,0,1,1.08-.17,4.72,4.72,0,0,1,1,.1,3.22,3.22,0,0,1,1,.37,2.21,2.21,0,0,1,.6.5.72.72,0,0,1,.16.53,1.88,1.88,0,0,1-.14.53,1.76,1.76,0,0,1-.43.55c-.21.2-.4.37-.58.51a5.67,5.67,0,0,1-.7.5l-.68.43-.66.38-.5.28L414,278.4Zm15.65,2.14a.91.91,0,0,1,.09,1.1,3.67,3.67,0,0,1-.38.56,4.67,4.67,0,0,1-.59.57q-.37.32-.69.54l-.77.51-.73.45-.69.39-.54.3-4.8-2.78.66-.4.9-.53c.24-.14.58-.32,1-.55a12.28,12.28,0,0,1,1.18-.53c.34-.13.73-.26,1.19-.39a6.22,6.22,0,0,1,1.25-.22,5.33,5.33,0,0,1,1.18.08,3.26,3.26,0,0,1,1.12.4A1.67,1.67,0,0,1,429.69,280.54Z"/><path class="cls-5" d="M461.63,277.44V268l-1.51,3.37c-1.67-3.24-4.72-6.3-9.15-8.86-14.21-8.2-37.25-8.2-51.47,0a23.25,23.25,0,0,0-8.87,8.36l-1.79-2.36v8.92h0c0,5.36,3.57,10.71,10.65,14.8,14.21,8.21,37.26,8.21,51.47,0,7.08-4.09,10.64-9.44,10.66-14.8h0Z"/><ellipse class="cls-6" cx="425.23" cy="268.42" rx="36.39" ry="21.01"/><path class="cls-7" d="M451.23,269.32c-.36,3.54-2.88,7-7.58,9.73-10.17,5.88-26.67,5.88-36.84,0-4.7-2.7-7.23-6.19-7.59-9.73-.43-4.15,2.1-8.38,7.59-11.54,10.17-5.88,26.67-5.88,36.84,0C449.14,260.94,451.67,265.17,451.23,269.32Z"/><path class="cls-8" d="M451.23,269.32c-.36,3.54-2.88,7-7.58,9.73-10.17,5.88-26.67,5.88-36.84,0-4.7-2.7-7.23-6.19-7.59-9.73.36-3.54,2.89-7,7.59-9.74,10.17-5.87,26.67-5.87,36.84,0C448.35,262.29,450.87,265.78,451.23,269.32Z"/><path class="cls-7" d="M435.42,272.43a18.92,18.92,0,0,0,1.85-1.32,6.77,6.77,0,0,0,1.24-1.28,2.58,2.58,0,0,0,.55-1.27,2.06,2.06,0,0,0-.35-1.26,4.66,4.66,0,0,0-1.32-1.3,7.3,7.3,0,0,0-3.68-1.38,9.47,9.47,0,0,0-3.95.59c.69-1.23.09-2.3-1.81-3.19a6.7,6.7,0,0,0-2.14-.64,7.93,7.93,0,0,0-2.28,0,13.71,13.71,0,0,0-2.25.56,19.48,19.48,0,0,0-2.31,1l-3.16-1.83.27-.1h-.45l-.24-.14-.24.14H413.2v1.12l3.48,2-1.71,1-3.51-2-.56.32-1.63-.18v1.13l3.59,2.06c-.31.19-.76.46-1.37.81l-1.25.72-1.78-.11V269l2.33,1.35,1.58-.91a2.45,2.45,0,0,1,2.23-.18l4.08,2.36a1.1,1.1,0,0,1,.25-.12l-.23.13,5.71,3.3c.4.31.37.6-.07.87l-1.6-.19v1.12l2.16,1.76,2.84-1.64.79-.45.77-.44,3.63,2.09,2.19-1.26v-1.13l-1,.57-2.6-1.51c.4-.22,1-.55,1.74-1l3.57,2.06,2.19-1.27V273.4h-2Zm-12.32-4-.66.38-.5.28-4.36-2.52.55-.33.75-.45c.2-.12.49-.27.86-.45s.71-.33,1-.44a8.93,8.93,0,0,1,1-.32,5,5,0,0,1,1.08-.16,4.68,4.68,0,0,1,1,.09,3.24,3.24,0,0,1,1,.38,2.19,2.19,0,0,1,.6.49.76.76,0,0,1,.16.54,2,2,0,0,1-.14.53,1.74,1.74,0,0,1-.43.54c-.21.2-.41.38-.58.52a5.76,5.76,0,0,1-.7.49Zm10.22,1.38a3.24,3.24,0,0,1-.38.56,4.67,4.67,0,0,1-.59.57q-.37.31-.69.54c-.21.15-.46.32-.77.51s-.55.35-.73.45l-.69.39-.54.3-4.8-2.77.66-.4.9-.54c.24-.14.58-.32,1-.54a12.59,12.59,0,0,1,1.18-.54c.34-.13.73-.25,1.19-.38a5.58,5.58,0,0,1,1.25-.22,5.3,5.3,0,0,1,1.18.07,3.48,3.48,0,0,1,1.12.4,1.78,1.78,0,0,1,.59.5,1,1,0,0,1,.22.53A1,1,0,0,1,433.32,269.85Z"/><path class="cls-9" d="M433.71,263.49a9.8,9.8,0,0,0-3.95.59q1-1.84-1.81-3.19a7,7,0,0,0-2.14-.64,7.59,7.59,0,0,0-2.28,0,12.77,12.77,0,0,0-2.25.56,19.34,19.34,0,0,0-2.31,1l-3.58-2.07L413.2,261l3.48,2c-.38.22-.95.55-1.71,1l-3.51-2-2.19,1.26,3.59,2.07-1.37.8-3,1.74,2.33,1.34,1.58-.91a2.45,2.45,0,0,1,2.23-.17l4.08,2.35.25-.12-.23.13,5.71,3.3c.41.32.38.62-.1.9l-1.57.91,2.16,1.75,2.84-1.64.79-.45.77-.44,3.63,2.1,2.19-1.27-3.58-2.06,1.74-1,3.57,2.06L439,273.4l-3.62-2.09a20.78,20.78,0,0,0,1.85-1.32,7.42,7.42,0,0,0,1.24-1.28,2.61,2.61,0,0,0,.55-1.28,2.09,2.09,0,0,0-.35-1.26,4.78,4.78,0,0,0-1.32-1.29A7.32,7.32,0,0,0,433.71,263.49Zm-16.13,2,.55-.33.75-.45c.2-.12.49-.28.86-.46s.71-.33,1-.44a9.08,9.08,0,0,1,1-.31,4.46,4.46,0,0,1,1.08-.17,4.72,4.72,0,0,1,1,.1,3.22,3.22,0,0,1,1,.37,2.21,2.21,0,0,1,.6.5.72.72,0,0,1,.16.53,1.88,1.88,0,0,1-.14.53,1.76,1.76,0,0,1-.43.55c-.21.2-.41.37-.58.51a7,7,0,0,1-.7.5l-.68.43-.66.38-.5.28-4.36-2.52Zm15.65,2.13a1,1,0,0,1,.22.53,1,1,0,0,1-.13.57,3.33,3.33,0,0,1-.38.57,4.67,4.67,0,0,1-.59.57,8.07,8.07,0,0,1-.69.53l-.77.52-.73.44-.69.39-.54.3-4.8-2.77.66-.4.9-.54,1-.54a12.28,12.28,0,0,1,1.18-.53c.34-.13.73-.26,1.19-.39a6.22,6.22,0,0,1,1.25-.22,4.79,4.79,0,0,1,1.18.08,3.26,3.26,0,0,1,1.12.4A1.77,1.77,0,0,1,433.23,267.62Z"/><path class="cls-1" d="M50.19,407.36,3.57,380.43c-5.29-3.05-4.63-8.37,1.48-11.9l23.67-13.67c6.1-3.52,15.34-3.91,20.62-.85L96,380.93c5.29,3.05,4.62,8.38-1.48,11.9L70.82,406.5C64.71,410,55.48,410.41,50.19,407.36Z"/><path class="cls-18" d="M120.22,373.77V308.68l-99.5-11.2V363h0c-.08,2,1.08,3.9,3.54,5.33l46.62,26.91c5.28,3.06,14.52,2.67,20.62-.85l23.67-13.66c3.44-2,5.15-4.54,5.09-6.94Z"/><path class="cls-19" d="M120.2,315.79v-7.13h-7.66L70,284.13c-5.28-3.05-14.51-2.67-20.62.85L25.74,298.64c-.42.25-.82.51-1.22.8l-3.8-2v7.76h0c0,2,1.1,3.9,3.55,5.31l46.62,26.92c5.28,3,14.52,2.67,20.62-.86L115.18,323c3.54-2,5.24-4.69,5-7.12Z"/><path class="cls-20" d="M70.88,329.71,24.26,302.8c-5.28-3.06-4.62-8.38,1.48-11.91l23.67-13.66c6.11-3.52,15.34-3.91,20.62-.86l46.62,26.92c5.29,3,4.62,8.38-1.48,11.91L91.5,328.88C85.4,332.41,76.16,332.76,70.88,329.71Z"/><g id="_Группа_" data-name=" Группа "><path id="_Контур_" data-name=" Контур " class="cls-21" d="M94.83,305.28h0a2.29,2.29,0,0,1-1.18,2L72.17,319.71a2.29,2.29,0,0,1-2.29,0l-30-17.41a2.3,2.3,0,0,1-1.15-2v-.12Z"/><path id="_Контур_2" data-name=" Контур 2" class="cls-21" d="M93.65,307.32,72.17,319.71A2.3,2.3,0,0,1,71,320V305.28h23.8A2.29,2.29,0,0,1,93.65,307.32Z"/><g id="_Группа_2" data-name=" Группа 2"><path id="_Контур_3" data-name=" Контур 3" class="cls-22" d="M71.88,318.51a1.61,1.61,0,0,1-1.64,0L39,300.49a.45.45,0,0,1-.29-.55.42.42,0,0,1,.29-.29l23-13.3,32.81,18.93Z"/></g><g id="_Группа_3" data-name=" Группа 3"><polygon id="_Контур_4" data-name=" Контур 4" class="cls-23" points="51.83 305.29 52 305.38 62.02 311.18 67.52 308 67.67 307.91 57.49 302.02 51.83 305.29"/><polygon id="_Контур_5" data-name=" Контур 5" class="cls-21" points="52 305.38 62.02 311.18 67.52 308 57.49 302.21 52 305.38"/></g><path class="cls-24" d="M86.13,306.43l1.41.89a.53.53,0,0,0,.46,0l1.37-.8c.15-.08.16-.19,0-.26l-1.44-.84a.53.53,0,0,0-.46,0l-1.37.8C86,306.3,86,306.36,86.13,306.43Z"/><path class="cls-24" d="M84.08,305.28l1.45.84a.53.53,0,0,0,.46,0l1.38-.8c.14-.08.15-.2,0-.26l-1.45-.84a.53.53,0,0,0-.46,0l-1.37.8C84,305.07,84,305.18,84.08,305.28Z"/><path class="cls-24" d="M82,304.07l1.45.83a.49.49,0,0,0,.47,0l1.37-.79c.13-.08.15-.2,0-.26L83.88,303a.47.47,0,0,0-.46,0L82,303.8C81.93,303.89,81.92,304,82,304.07Z"/><path class="cls-24" d="M80,302.89l1.44.83a.49.49,0,0,0,.47,0l1.38-.79c.13-.08.15-.2,0-.27l-1.45-.83a.47.47,0,0,0-.46,0l-1.37.79C79.89,302.7,79.88,302.82,80,302.89Z"/><path class="cls-24" d="M77.94,301.71l1.45.83a.53.53,0,0,0,.46,0l1.38-.79c.13-.08.15-.2,0-.27l-1.45-.83a.51.51,0,0,0-.45,0l-1.39.8A.15.15,0,0,0,77.94,301.71Z"/><path class="cls-24" d="M75.9,300.53l1.44.83a.53.53,0,0,0,.46,0l1.38-.79c.14-.08.16-.21,0-.28l-1.44-.83a.53.53,0,0,0-.46,0l-1.38.8A.15.15,0,0,0,75.9,300.53Z"/><path class="cls-24" d="M73.85,299.35l1.48.84a.51.51,0,0,0,.45,0l1.39-.8c.13-.07.15-.2,0-.27l-1.45-.83a.51.51,0,0,0-.45,0l-1.39.79C73.75,299.17,73.73,299.28,73.85,299.35Z"/><path class="cls-24" d="M71.8,298.16l1.45.83a.53.53,0,0,0,.46,0l1.38-.8c.13-.08.15-.2,0-.27l-1.44-.83a.53.53,0,0,0-.46,0l-1.39.79C71.7,298,71.68,298.09,71.8,298.16Z"/><path class="cls-24" d="M69.76,297l1.44.84a.53.53,0,0,0,.46,0l1.39-.8c.13-.08.15-.2,0-.27l-1.45-.83a.53.53,0,0,0-.46,0l-1.38.79C69.66,296.79,69.64,296.91,69.76,297Z"/><path class="cls-24" d="M67.71,295.79l1.45.84a.53.53,0,0,0,.46,0l1.38-.8c.13-.08.14-.19,0-.26l-1.45-.83a.45.45,0,0,0-.45,0l-1.39.79C67.61,295.61,67.59,295.73,67.71,295.79Z"/><path class="cls-24" d="M65.67,294.61l1.44.84a.53.53,0,0,0,.46,0l1.38-.8c.14-.08.15-.19,0-.26l-1.44-.84a.53.53,0,0,0-.46,0l-1.38.8C65.56,294.43,65.54,294.55,65.67,294.61Z"/><path class="cls-24" d="M63.62,293.43l1.45.84a.51.51,0,0,0,.45,0l1.38-.8c.14-.08.15-.19,0-.26l-1.45-.84a.55.55,0,0,0-.47,0l-1.37.8C63.52,293.25,63.5,293.36,63.62,293.43Z"/><path class="cls-24" d="M61.57,292.25l1.45.84a.53.53,0,0,0,.46,0l1.37-.8c.14-.08.15-.19,0-.26l-1.44-.84a.55.55,0,0,0-.47,0l-1.38.8A.15.15,0,0,0,61.57,292.25Z"/><path class="cls-24" d="M58.54,290.5,61,291.91a.53.53,0,0,0,.46,0l1.38-.8c.14-.08.15-.2,0-.26l-2.44-1.41a.51.51,0,0,0-.45,0l-1.39.8C58.44,290.32,58.42,290.43,58.54,290.5Z"/><path class="cls-24" d="M81.11,305.82l1.44.84a.55.55,0,0,0,.47,0l1.38-.81c.13-.07.15-.19,0-.26L83,304.75a.53.53,0,0,0-.46,0l-1.37.8C81,305.64,81,305.76,81.11,305.82Z"/><path class="cls-24" d="M79.06,304.64l1.45.83a.47.47,0,0,0,.46,0l1.38-.79c.13-.08.15-.19,0-.26l-1.45-.84a.51.51,0,0,0-.45,0l-1.39.79C79,304.46,78.94,304.57,79.06,304.64Z"/><path class="cls-24" d="M77,303.46l1.45.83a.47.47,0,0,0,.46,0l1.37-.79c.15-.08.16-.2,0-.27l-1.45-.83a.47.47,0,0,0-.46,0l-1.37.79A.15.15,0,0,0,77,303.46Z"/><path class="cls-24" d="M75,302.28l1.45.83a.51.51,0,0,0,.45,0l1.39-.8c.13-.07.15-.19,0-.27l-1.42-.83a.53.53,0,0,0-.46,0L75,302C74.86,302.08,74.84,302.23,75,302.28Z"/><path class="cls-24" d="M72.92,301.1l1.45.83a.49.49,0,0,0,.47,0l1.37-.79c.13-.08.15-.2,0-.27L74.77,300a.47.47,0,0,0-.46,0l-1.38.79C72.82,300.91,72.81,301,72.92,301.1Z"/><path class="cls-24" d="M70.88,299.92l1.44.83a.47.47,0,0,0,.46,0l1.39-.79c.13-.08.14-.21,0-.27l-1.45-.83a.47.47,0,0,0-.46,0l-1.38.79C70.78,299.73,70.76,299.85,70.88,299.92Z"/><path class="cls-24" d="M68.82,298.74l1.45.83a.55.55,0,0,0,.47,0l1.37-.79c.14-.08.15-.21,0-.28l-1.45-.83a.51.51,0,0,0-.45,0l-1.38.8A.15.15,0,0,0,68.82,298.74Z"/><path class="cls-24" d="M66.78,297.54l1.44.84a.47.47,0,0,0,.46,0l1.38-.79c.14-.08.16-.2,0-.27l-1.44-.83a.47.47,0,0,0-.46,0l-1.38.79C66.67,297.36,66.65,297.48,66.78,297.54Z"/><path class="cls-24" d="M64.73,296.36l1.45.84a.51.51,0,0,0,.45,0l1.38-.8c.14-.08.15-.19,0-.26l-1.45-.83a.49.49,0,0,0-.47,0l-1.37.79C64.62,296.18,64.61,296.29,64.73,296.36Z"/><path class="cls-24" d="M62.67,295.18l1.45.84a.53.53,0,0,0,.46,0l1.38-.8c.13-.08.15-.2,0-.26l-1.41-.88a.53.53,0,0,0-.46,0l-1.39.81C62.57,295,62.56,295.1,62.67,295.18Z"/><path class="cls-24" d="M60.63,294l1.44.84a.53.53,0,0,0,.46,0l1.39-.81c.13-.07.14-.19,0-.26l-1.45-.84a.53.53,0,0,0-.46,0l-1.38.8C60.53,293.81,60.51,293.93,60.63,294Z"/><path class="cls-24" d="M58.57,292.81l1.45.84a.55.55,0,0,0,.47,0l1.37-.8c.14-.08.15-.19,0-.26l-1.45-.84a.51.51,0,0,0-.45,0l-1.38.8C58.47,292.63,58.46,292.75,58.57,292.81Z"/><path class="cls-24" d="M83.16,307l2.44,1.41a.61.61,0,0,0,.46,0l1.37-.8c.14-.08.15-.2,0-.27L85,305.94a.61.61,0,0,0-.46,0l-1.39.81A.15.15,0,0,0,83.16,307Z"/><path class="cls-24" d="M58.41,290.56l1.44.84c.12.06.12.17,0,.24l-1.46.85a.54.54,0,0,1-.43,0l-.11-.08a.47.47,0,0,0-.4,0l-1.53.9a.47.47,0,0,1-.43,0l-.93-.53a.14.14,0,0,1-.06-.19.09.09,0,0,1,.06-.06L56,291.7l.29-.17.22-.13.22-.13,1.24-.71A.47.47,0,0,1,58.41,290.56Z"/><path class="cls-24" d="M78.19,311l1.44.84a.53.53,0,0,0,.46,0l1.38-.8c.14-.08.16-.2,0-.27L80,309.94a.61.61,0,0,0-.46,0l-1.38.81A.14.14,0,0,0,78.19,311Z"/><path class="cls-24" d="M76.15,309.83l1.45.84a.51.51,0,0,0,.45,0l1.38-.8c.14-.08.15-.2,0-.26L78,308.77a.55.55,0,0,0-.47,0l-1.37.8C76,309.65,76,309.76,76.15,309.83Z"/><path class="cls-24" d="M74.1,308.65l1.45.83a.47.47,0,0,0,.46,0l1.38-.79c.14-.08.16-.19,0-.26L76,307.59a.53.53,0,0,0-.46,0l-1.39.8C74,308.47,74,308.59,74.1,308.65Z"/><path class="cls-24" d="M56.73,298.61l1.44.84a.53.53,0,0,0,.46,0l1.38-.81c.14-.07.15-.19,0-.26l-1.45-.84a.55.55,0,0,0-.47,0l-1.37.8C56.63,298.43,56.61,298.55,56.73,298.61Z"/><path class="cls-24" d="M54.68,297.44l1.45.84a.53.53,0,0,0,.46,0l1.38-.8c.13-.08.15-.2,0-.27l-1.44-.84a.61.61,0,0,0-.46,0l-1.39.81A.15.15,0,0,0,54.68,297.44Z"/><path class="cls-24" d="M52.65,296.26l1.44.84a.53.53,0,0,0,.46,0l1.38-.8c.14-.08.15-.2,0-.26l-1.45-.84a.55.55,0,0,0-.47,0l-1.37.8C52.55,296.12,52.53,296.19,52.65,296.26Z"/><path class="cls-24" d="M50.6,295.1l1.45.84a.53.53,0,0,0,.46,0l1.38-.8c.13-.08.15-.19,0-.26L52.44,294a.51.51,0,0,0-.45,0l-1.39.8C50.5,294.9,50.49,295,50.6,295.1Z"/><path class="cls-24" d="M71.54,307.17l2,1.16a.47.47,0,0,0,.46,0l1.38-.8c.14-.07.15-.19,0-.26l-2-1.14a.53.53,0,0,0-.46,0l-1.38.8A.13.13,0,0,0,71.54,307.17Z"/><path class="cls-24" d="M58.77,299.79l2,1.14a.47.47,0,0,0,.46,0l1.38-.79c.13-.08.14-.2,0-.26l-2-1.14a.47.47,0,0,0-.46,0l-1.38.79C58.66,299.61,58.65,299.72,58.77,299.79Z"/><path class="cls-24" d="M61.33,301.28,71,306.83a.53.53,0,0,0,.46,0l1.37-.8c.14-.08.15-.2,0-.26l-9.58-5.58a.51.51,0,0,0-.45,0l-1.38.81C61.23,301.09,61.22,301.21,61.33,301.28Z"/><path class="cls-24" d="M78.57,306.64l1.45.84a.47.47,0,0,0,.46,0l1.38-.79c.13-.08.14-.2,0-.27l-1.44-.85a.47.47,0,0,0-.46,0l-1.39.79C78.47,306.46,78.45,306.58,78.57,306.64Z"/><path class="cls-24" d="M76.53,305.46l1.44.84a.53.53,0,0,0,.46,0l1.39-.81c.13-.07.15-.19,0-.26l-1.44-.84a.47.47,0,0,0-.46,0l-1.38.79C76.43,305.28,76.41,305.4,76.53,305.46Z"/><path class="cls-24" d="M74.48,304.26l1.45.84a.51.51,0,0,0,.45,0l1.39-.84c.13-.07.15-.19,0-.26l-1.43-.75a.45.45,0,0,0-.45,0L74.5,304C74.38,304.1,74.36,304.26,74.48,304.26Z"/><path class="cls-24" d="M72.44,303.1l1.44.84a.53.53,0,0,0,.46,0l1.38-.81c.14-.07.16-.19,0-.26L74.31,302a.53.53,0,0,0-.46,0l-1.38.8C72.33,302.92,72.32,303,72.44,303.1Z"/><path class="cls-24" d="M70.39,301.93l1.44.84a.64.64,0,0,0,.47,0l1.38-.81c.14-.07.15-.19,0-.26l-1.41-.86a.53.53,0,0,0-.46,0l-1.37.8C70.29,301.74,70.24,301.86,70.39,301.93Z"/><path class="cls-24" d="M68.35,300.75l1.45.84a.61.61,0,0,0,.46,0l1.37-.81c.14-.07.15-.19,0-.26l-1.39-.86a.64.64,0,0,0-.47,0l-1.38.8C68.2,300.56,68.2,300.68,68.35,300.75Z"/><path class="cls-24" d="M66.31,299.57l1.44.84a.61.61,0,0,0,.46,0l1.38-.8c.14-.08.15-.2,0-.27l-1.39-.86a.64.64,0,0,0-.47,0l-1.37.81C66.17,299.38,66.17,299.5,66.31,299.57Z"/><path class="cls-24" d="M64.26,298.39l1.45.83a.47.47,0,0,0,.46,0l1.38-.79c.13-.08.14-.2,0-.27l-1.38-.86a.61.61,0,0,0-.46,0l-1.39.8C64.13,298.16,64.13,298.32,64.26,298.39Z"/><path class="cls-24" d="M62.22,297.21l1.44.83a.53.53,0,0,0,.46,0l1.38-.79c.14-.08.16-.2,0-.28l-1.37-.85a.53.53,0,0,0-.46,0l-1.38.8C62.09,297,62.09,297.14,62.22,297.21Z"/><path class="cls-24" d="M60.17,296l1.45.83a.51.51,0,0,0,.45,0l1.39-.79c.13-.08.15-.2,0-.27L62.09,295a.51.51,0,0,0-.45,0l-1.39.8C60.06,295.83,60.06,296,60.17,296Z"/><path class="cls-24" d="M58.12,294.85l1.45.83a.55.55,0,0,0,.47,0l1.37-.79c.13-.08.15-.21,0-.27L60,293.79a.53.53,0,0,0-.46,0l-1.38.8A.15.15,0,0,0,58.12,294.85Z"/><path class="cls-24" d="M56.08,293.67l1.44.83a.49.49,0,0,0,.47,0l1.38-.79c.14-.08.15-.21,0-.27l-1.45-.83a.53.53,0,0,0-.46,0l-1.37.8A.15.15,0,0,0,56.08,293.67Z"/><path class="cls-24" d="M80.62,307.83l3,1.73a.55.55,0,0,0,.47,0l1.37-.8c.14-.08.16-.2,0-.26l-3-1.75a.49.49,0,0,0-.47,0l-1.37.79C80.51,307.64,80.5,307.76,80.62,307.83Z"/><path class="cls-24" d="M77.61,308.33l1.44.84a.53.53,0,0,0,.46,0l1.37-.8c.15-.08.16-.2,0-.27l-1.4-.78a.55.55,0,0,0-.47,0l-1.37.79C77.49,308.19,77.48,308.33,77.61,308.33Z"/><path class="cls-24" d="M75.56,307.2,77,308a.58.58,0,0,0,.45,0l1.39-.8c.13-.08.14-.2,0-.27l-1.45-.83a.47.47,0,0,0-.46,0l-1.38.79C75.46,307,75.44,307.13,75.56,307.2Z"/><path class="cls-24" d="M73.51,306l1.45.84a.61.61,0,0,0,.46,0l1.38-.81c.13-.07.16-.19,0-.26L75.36,305a.47.47,0,0,0-.46,0l-1.39.79C73.41,305.83,73.39,306,73.51,306Z"/><path class="cls-24" d="M71.47,304.84l1.44.84a.61.61,0,0,0,.46,0l1.39-.8c.13-.08.15-.2,0-.27l-1.45-.84a.61.61,0,0,0-.46,0l-1.38.81A.15.15,0,0,0,71.47,304.84Z"/><path class="cls-24" d="M69.42,303.66l1.45.84a.55.55,0,0,0,.47,0l1.37-.8c.13-.08.15-.2,0-.27l-1.46-.86a.58.58,0,0,0-.45,0l-1.38.81C69.32,303.47,69.31,303.59,69.42,303.66Z"/><path class="cls-24" d="M67.38,302.48l1.45.84a.53.53,0,0,0,.46,0l1.37-.8c.15-.08.16-.2,0-.26l-1.44-.86a.53.53,0,0,0-.46,0l-1.37.81C67.27,302.29,67.26,302.41,67.38,302.48Z"/><path class="cls-24" d="M65.34,301.3l1.45.84a.51.51,0,0,0,.45,0l1.38-.8c.14-.08.15-.2,0-.26l-1.44-.89a.55.55,0,0,0-.47,0l-1.37.81C65.24,301.11,65.22,301.21,65.34,301.3Z"/><path class="cls-24" d="M63.29,300.12l1.45.83a.47.47,0,0,0,.46,0l1.38-.79c.13-.08.15-.2,0-.26L65.15,299a.53.53,0,0,0-.46,0l-1.38.8C63.19,299.94,63.17,300.05,63.29,300.12Z"/><path class="cls-24" d="M61.25,298.94l1.44.83a.47.47,0,0,0,.46,0l1.39-.79c.13-.08.15-.2,0-.26l-1.43-.86a.47.47,0,0,0-.46,0l-1.38.79C61.15,298.76,61.13,298.87,61.25,298.94Z"/><path class="cls-24" d="M59.2,297.76l1.45.83a.47.47,0,0,0,.46,0l1.38-.79c.13-.08.15-.2,0-.27l-1.41-.85a.47.47,0,0,0-.46,0l-1.38.79C59.1,297.58,59.09,297.69,59.2,297.76Z"/><path class="cls-24" d="M57.16,296.58l1.44.83a.49.49,0,0,0,.47,0l1.37-.79c.15-.08.16-.19,0-.27L59,295.5a.47.47,0,0,0-.46,0l-1.37.79C57.06,296.39,57,296.51,57.16,296.58Z"/><path class="cls-24" d="M52.59,293.94l4,2.29a.45.45,0,0,0,.45,0l1.38-.79c.14-.08.15-.2,0-.27l-4-2.3a.61.61,0,0,0-.46,0l-1.38.81A.14.14,0,0,0,52.59,293.94Z"/><path class="cls-24" d="M79.64,309.56l2,1.14a.53.53,0,0,0,.46,0l1.38-.8c.13-.08.15-.19,0-.26l-2-1.14a.45.45,0,0,0-.45,0l-1.38.79A.15.15,0,0,0,79.64,309.56Z"/></g><g id="_Группа_4" data-name=" Группа 4"><g id="_Группа_5" data-name=" Группа 5"><path id="_Контур_6" data-name=" Контур 6" class="cls-21" d="M94.83,305.28h0L62,286.35V260.54l.26-.57.26-.14h0a2.3,2.3,0,0,1,2.27,0l30,17.31a2.26,2.26,0,0,1,1.13,2v24.21C95.76,304.59,95.53,304.88,94.83,305.28Z"/><path id="_Контур_7" data-name=" Контур 7" class="cls-21" d="M91.82,280.29,62,261.41v-.87l.26-.57.26-.14a2.3,2.3,0,0,1,2.27,0l30,17.31a2.3,2.3,0,0,1,.86.89Z"/><path id="_Контур_8" data-name=" Контур 8" class="cls-25" d="M62.78,260l31.55,18.19a1.12,1.12,0,0,1,.55,1v26.17L62,286.35v-26a.52.52,0,0,1,.49-.51A.64.64,0,0,1,62.78,260Z"/><path id="_Контур_9" data-name=" Контур 9" class="cls-22" d="M62.78,260l31.55,18.19a1.12,1.12,0,0,1,.55,1v26.17L62,286.35v-26a.52.52,0,0,1,.49-.51A.64.64,0,0,1,62.78,260Z"/><polygon id="_Контур_10" data-name=" Контур 10" class="cls-26" points="94.83 305.29 94.83 304.36 62.02 285.41 62.02 286.35 94.83 305.29"/></g><polygon id="_Контур_11" data-name=" Контур 11" class="cls-27" points="63.27 261.55 63.27 284.78 93.77 302.34 93.77 279.16 63.27 261.55"/></g><g id="Men_2" data-name="Men 2"><path id="_Контур_12" data-name=" Контур 12" class="cls-28" d="M8.82,282.52c-.28,2.44-3.19,13-2.56,16.54s10.55,9.62,10.55,9.62l1.37-6.11-5.5-5.43L14.17,287Z"/><path id="_Контур_13" data-name=" Контур 13" class="cls-29" d="M16.5,272.17A4.34,4.34,0,0,0,11,273.84c-1.46,2.42-3,10.72-3.11,12.1,0,0,2,2.83,5.09,2.36Z"/><path class="cls-30" d="M27.83,389.32a8.51,8.51,0,0,0,6.42-.79c1.55,0,10-3.54,11.1-.52,1,2.64-2.64,5.09-4.58,5.56-4.25,1-7.38,3.15-9.09,3.51-1.27.26-2.91.43-3.92-.56C26.54,395.32,26.65,390.9,27.83,389.32Z"/><path class="cls-31" d="M31.68,396.34c1.71-.35,4.84-2.47,9.09-3.5,1.63-.4,4.43-2.18,4.71-4.31.38,2.45-2.9,4.61-4.71,5-4.25,1-7.38,3.15-9.09,3.5-1.27.27-2.91.44-3.92-.55a2.38,2.38,0,0,1-.56-1A5.1,5.1,0,0,0,31.68,396.34Z"/><path class="cls-30" d="M14.25,383.2a8.58,8.58,0,0,0,6.43-.78c1.54.05,9.94-3.55,11.08-.53,1,2.64-2.64,5.09-4.58,5.57-4.23,1-7.38,3.14-9.08,3.5-1.27.26-2.91.44-3.93-.56C12.92,389.21,13,384.78,14.25,383.2Z"/><path class="cls-31" d="M18.06,390.22c1.7-.35,4.84-2.47,9.08-3.5,1.63-.39,4.44-2.18,4.72-4.3.38,2.44-2.9,4.6-4.72,5.09-4.24,1-7.38,3.14-9.08,3.5-1.27.26-2.91.44-3.93-.56a2.47,2.47,0,0,1-.55-1A5.09,5.09,0,0,0,18.06,390.22Z"/><path id="_Контур_14" data-name=" Контур 14" class="cls-15" d="M14.05,360.38A50.26,50.26,0,0,1,16,351.22s-.58-7.94-.86-15.47c-.34-8.54-3.3-16.06-1-22.88l26.35,5.87s-1.58,34.05-1.94,38.17a79.14,79.14,0,0,1-1.18,9.57c-1.2,6.6-3.16,22.33-3.16,22.33-2.79,1.62-6.45.72-6.45.72s.2-19.89.39-24.65c.21-5.81.39-5.37.39-5.37L27.69,345l-.57-7.21s-.73,5.3-1.2,10c-.42,4.12-1.42,7.85-2.53,15.51-.95,6.66-2.52,20-2.52,20-2.79,1.62-6.58.28-6.58.28S13.3,366.15,14.05,360.38Z"/><path id="_Контур_15" data-name=" Контур 15" class="cls-28" d="M17.9,272.31c2,.1,3.5.62,3.74,0a23.62,23.62,0,0,0,.46-3.13c-.22-.58-.43-1.21-.43-1.21-2.52-1.55-3.32-4.27-3.64-7.45-.57-5.42,2.36-10.18,7.79-10.73,5.09-.53,8.84,3.05,9.84,8,.54,2.43,1.61,7,.16,11-.81,2.24-1.85,4-2.9,4.36a26,26,0,0,1-3.05-.27h0l-.46,2.47c-.18,1-.11,1.48,1.81,2.66s-2.91,3.62-6.11,3.39-6.71-2.15-7.68-4.19C16.42,274.93,16.51,272.25,17.9,272.31Z"/><path id="_Контур_16" data-name=" Контур 16" class="cls-22" d="M20.8,272.61c-.56,1.39.85,3.05,4.63,4.27s4.07-.34,4.07-.34a74.52,74.52,0,0,1,7.33,3.77c2.26,1.59,3.27,6.11,3.57,13.89.35,8.94.38,22.21.08,24.5,0,0-4.22,4.21-9.64,3.76s-14.51-5.23-16.72-8.92c.06-7.84,1-9.16-.28-13.64-2.92-10.34-4.44-14.57-3.06-21.44,1.16-5.67,2.79-6.37,5-6.31A44.06,44.06,0,0,1,20.8,272.61Z"/><path id="_Контур_17" data-name=" Контур 17" class="cls-28" d="M48.93,301.6c-4.44,1.12-5.47-1.69-6.11-4-1.4-5.62-2.16-10.69-3.22-13.88-1.23-3.75-2.54-4.35-4.37-5.09-2.14-.85-4,1-3.27,5.74A97.08,97.08,0,0,0,36,300.66c.56,1.75,1.8,4.86,3.65,6.36,2.29,1.85,5.74,1.77,11,.47,2.22-.55,4.66-1.88,8.88-3.85,1.13-.53,2-.87,4.18-1.88a14.82,14.82,0,0,0,5.57-4.35c1.13-1.65,1.28-2.42,1-2.8s-.81-.36-1.41.33a12.32,12.32,0,0,1-3.19,3s1.39-1.45,2.16-2.39a12.25,12.25,0,0,0,1.67-2.75c.4-1-.42-2.26-1-1.58s-.94,1.39-2,2.76a11.82,11.82,0,0,1-2,2,23,23,0,0,0,1.9-3.06,5,5,0,0,0,.69-2.76c0-.49-.74-1.1-1.41-.14a18.37,18.37,0,0,1-2.39,3.65c-1,1-1.87,1.65-1.9,1.36s.62-.88,1-2.1,0-2.52-.67-2.65-.55-.12-1.1,1a36.48,36.48,0,0,0-2,3.67A7.53,7.53,0,0,1,56.73,298C55.57,299.24,53.16,300.53,48.93,301.6Z"/><path id="_Контур_18" data-name=" Контур 18" class="cls-29" d="M33.59,277.87c3-.44,5.09.89,6.37,5.38s2.22,8.15,2.22,8.15a8,8,0,0,1-5,3.29c-3.55.87-4.83-.83-4.83-.83s-1-4.7-1.6-7.91S30,278.41,33.59,277.87Z"/><path class="cls-32" d="M35.49,257.06s4.68-7.12-5.47-8.58c-7.32-1-12,3.67-12.57,8.77-.52,4.87,2.48,9.94,4.65,11.95,1,.37,3.34.6,6.33-.77a35.39,35.39,0,0,0,.14-4S25,256.93,35.49,257.06Z"/></g></g></g></svg>