<svg xmlns="http://www.w3.org/2000/svg" viewBox="0 0 500 470.65"><defs><style>.cls-1{fill:#e8a30a;}.cls-2{fill:#e55353;}.cls-3{fill:#f9cb07;}.cls-4{fill:#a5ad00;}.cls-5{fill:#b8c102;}.cls-6{fill:#b9cc00;}.cls-7{fill:#3a2c6d;}.cls-8{fill:#ffcea9;}.cls-9{fill:#f4f4f4;}.cls-10{fill:#38226d;}.cls-11{fill:#9c73ff;}.cls-12{fill:#8c50ff;}.cls-13{fill:#ededed;}.cls-14{fill:#bfbfbf;}.cls-15{fill:#e5e5e5;}</style></defs><title>Data_chart_SVG</title><g id="Слой_2" data-name="Слой 2"><g id="Слой_1-2" data-name="Слой 1"><path class="cls-1" d="M426.72,201.59c-97.62-56.36-255.89-56.36-353.51,0s-97.61,147.74,0,204.1,255.89,56.36,353.51,0S524.35,258,426.72,201.59ZM351.19,362.08c-55.9,32.27-146.53,32.27-202.44,0s-55.9-84.61,0-116.88,146.54-32.27,202.44,0S407.09,329.8,351.19,362.08Z"/><polygon class="cls-1" points="0.32 310.93 0 220.99 71.36 294.83 0.32 310.93"/><path class="cls-1" d="M100.44,320.42c2.32,4.65,23.26,58.15,26.75,59.31S260.93,399.5,260.93,399.5L340,393.68s32.56-13.95,39.54-17.44,18.61-60.48,18.61-60.48Z"/><polygon class="cls-2" points="499.54 217.67 499.94 303.64 464.45 328.56 434.21 250.64 499.54 217.67"/><polygon class="cls-1" points="85.32 211.1 226.04 183.18 414.44 201.79 358.62 120.38 181.85 108.75 85.32 211.1"/><path class="cls-3" d="M426.72,123.67c-97.62-56.36-255.89-56.36-353.51,0s-97.61,147.74,0,204.1,255.89,56.36,353.51,0S524.35,180,426.72,123.67ZM351.19,284.16c-55.9,32.27-146.53,32.27-202.44,0s-55.9-84.61,0-116.88,146.54-32.27,202.44,0S407.09,251.89,351.19,284.16Z"/><path class="cls-4" d="M204.61,54.47V225.23s62.32-14.49,126.65,10.52c65.41,25.43,91.61-16.36,91.61-16.36s-12.5-100-15.7-104.38S340,69.65,335.07,68.49s-83.45-11.34-83.45-11.34Z"/><path class="cls-4" d="M386.14,424.7l.7-171.22,113-110.25.07,162.07S506.28,379.44,386.14,424.7Z"/><polygon class="cls-5" points="386.53 346.66 309 301.01 307.77 219.92 387.23 264.98 386.53 346.66"/><polygon class="cls-5" points="204.61 147.31 125.9 100.39 125.23 19.22 204.61 65.95 204.61 147.31"/><path class="cls-6" d="M426.72,42.26C345-4.92,220.8-12.59,125.23,19.22L204.61,66c49.81-9.59,106.92-3,146.58,19.92,55.9,32.28,55.9,84.61,0,116.88a171.82,171.82,0,0,1-43.42,17.17l79.07,45.18a272.05,272.05,0,0,0,39.89-18.74C524.35,190,524.35,98.62,426.72,42.26Z"/><g id="Girl_12"><path id="_Контур_" data-name="&lt;Контур&gt;" class="cls-7" d="M70.94,233.62c1.17-1.88,10.11-3.12,13,4.46,1.11,2.87.94,10.21,1.88,14.83s3.13,7.23,3.92,11-.5,10-9.52,11.12-16-2.05-18.09-4.93-2.17-9,0-12.27,3.89-6,3.84-10.22Z"/><path id="_Контур_2" data-name="&lt;Контур&gt;" class="cls-7" d="M76.84,232.31S70.1,230.37,66,234a10,10,0,0,0-2.87,10c.54,2.12,1.63,5,3.32,5.19S76.84,232.31,76.84,232.31Z"/><path id="_Контур_3" data-name="&lt;Контур&gt;" class="cls-8" d="M79.41,250.67s-.44,7.51-.3,8.06,2.94,1.08,3.73,1.74-4.08,8.27-6.55,9.39-10.14-1.75-10.68-5.56c-.49-3.51,2.2-6.24,3.23-7.19a16.48,16.48,0,0,1,2.12-.06l.22-3.64C74.54,252.35,79.41,250.67,79.41,250.67Z"/><path id="_Контур_4" data-name="&lt;Контур&gt;" class="cls-8" d="M57.34,290.71a39.43,39.43,0,0,1-7.48,7.79,37.94,37.94,0,0,0-2.55,2.94,11.39,11.39,0,0,1-5,3.34c-1.7.44-2.41.32-2.7,0s-.15-.81.59-1.1a9.42,9.42,0,0,0,3.29-1.77s-1.58.73-2.57,1.07a9.65,9.65,0,0,1-2.78.55c-.93,0-1.91-1.08-1.17-1.4s1.42-.35,2.88-.88A9.59,9.59,0,0,0,42,300.14a18.88,18.88,0,0,1-3.1.63,4.86,4.86,0,0,1-2.58-.29c-.44-.19-.81-1,.17-1.24a15,15,0,0,0,3.72-.87c1.15-.52,1.86-1.06,1.61-1.17s-.9.24-2.06.16-2.22-.82-2.2-1.44.24-.27,1.37-.37,2-.61,3.63-.61a11.71,11.71,0,0,0,3.57-.42c1.23-.37,4-3.66,6.07-6.68A44,44,0,0,0,57.59,277c1.26-4.16,2.77-11.93,3.83-14.63s2.93-3.94,4.69-4c2.07-.07,3,2.65,2.41,5C67.55,267.47,63,283.34,57.34,290.71Z"/><path id="_Контур_5" data-name="&lt;Контур&gt;" class="cls-9" d="M80.44,259.46c2.11.32,4.52,1.45,4.85,2.6.39,1.35,1.22,7.7-.6,12.53s-3.89,13.54-4.94,15.62c0,0-8.35,1.49-15.71-3.07,0,0-.44-8.39-.47-11.16-6.79-5.93-1-13.23,4.76-18.9a13.06,13.06,0,0,1,2.07,0s-5.13,6.07-1.56,9.52C76.48,264.26,78,260.83,80.44,259.46Z"/><path id="_Контур_6" data-name="&lt;Контур&gt;" class="cls-8" d="M65.4,241.38h0c.75-4.82,4.24-8.47,9.21-8.17a9.59,9.59,0,0,1,9,10.13,9.48,9.48,0,0,1-4.21,7.33,9.7,9.7,0,0,1-.76,2.11c-1.77,2.05-6.44,3.35-8,3.37-1.33,0-2.48-1.23-3.73-3.3C64.32,248.54,65,243.76,65.4,241.38Z"/><path class="cls-7" d="M76.15,233.29c3.48.69,6.35,1.67,7.3,5.09.65,2.36,1.5,6.86.69,8.75l-.5,1.37-4.23,2.17s-2-1.64-1.35-6.45a3.51,3.51,0,0,0-.6-1.82,5.3,5.3,0,0,1-.58-1.46,5.43,5.43,0,0,0-2.74-3c-3.14-1.77-7.74-.24-8.39.4A9.18,9.18,0,0,1,76.15,233.29Z"/><path class="cls-10" d="M57,348.68c-1.77,1.44-4.51.45-4.65.58-1.79,1.8-4.47,3.37-6.46,4.94-1.1.86-2.82,2-2.51,3.68.56,3,5.32,2.06,7.12,1.15s3.26-2.41,5-3.47c1.21-.75,2.4-1.14,2.59-2.67C58.12,352,57.26,348.65,57,348.68Z"/><path class="cls-11" d="M58,352.27c-.23,1.46-1.41,1.87-2.61,2.62-1.73,1.07-3.25,2.62-5,3.53s-5.8,1.67-7-.45c.63,2.86,5.31,2,7.09,1.06s3.26-2.41,5-3.47c1.21-.75,2.4-1.14,2.59-2.67A2.71,2.71,0,0,0,58,352.27Z"/><path class="cls-10" d="M48.35,343.86c-1.62,1.32-4.06.58-4.18.7-1.64,1.65-4.08,3.06-5.91,4.5-1,.8-2.58,1.86-2.29,3.38.51,2.72,4.87,1.88,6.51,1.05s3-2.21,4.55-3.18c1.11-.69,2.2-1.05,2.37-2.45C49.51,347,48.63,343.83,48.35,343.86Z"/><path class="cls-11" d="M49.38,347.3c-.21,1.34-1.29,1.71-2.39,2.39-1.58,1-3,2.4-4.62,3.24s-5.31,1.53-6.38-.42c.58,2.63,4.86,1.81,6.49,1s3-2.21,4.55-3.18c1.11-.69,2.2-1.05,2.37-2.45A2.22,2.22,0,0,0,49.38,347.3Z"/><path class="cls-8" d="M72.79,292.07a26.24,26.24,0,0,1-14.06-2c.07,1.49.15,2.82.15,2.82-5.72,4-17.21,10.86-18,15.55.75,14.85,3,36.05,3.65,36.36,1.8.85,3,.71,3.9-.14,0,0,3.61-12.58,2.56-31,0,0,20-8.86,21.33-13.71.75-2.79.6-3.14.54-6C72.89,293.25,72.85,292.65,72.79,292.07Z"/><path class="cls-8" d="M79.43,290.14c-4,1.85-7.61,2.08-12.09,1.62.06,2,.29,5.71.29,5.71-5.72,4-17.21,10.86-18,15.56.75,14.84,2.13,36.34,2.79,36.61a4.81,4.81,0,0,0,4.75-.56s3.61-12.41,2.56-30.86c0-.35,17.16-8.8,19.34-11,2.33-2.4,2.6-5.56,2.54-8.72A21.29,21.29,0,0,0,79.43,290.14Z"/><path class="cls-12" d="M83.64,293.28s6.34,11.24-4.23,17c-11.16,6.1-18,7.53-18,7.53l-1.68.39s.8,4.07,0,11.68c0,0-8,2.77-18.11-6.16L38.26,312.9,37.87,310a6,6,0,0,1,1.69-5.46c2.44-2.2,10.16-7.86,15-11.09s8.64-6.34,8.64-6.34l.84-.78s5.69,4.53,16.1,3A16.45,16.45,0,0,1,83.64,293.28Z"/><path id="_Контур_7" data-name="&lt;Контур&gt;" class="cls-8" d="M77.35,310a30.34,30.34,0,0,1,3.06-2.42,12,12,0,0,0,3.09-2.21c1-1,2.42-5.05,3.17-9a39.33,39.33,0,0,0-.23-13.41,93.31,93.31,0,0,0-5.31-15.44c-1.41-3-.62-4.8.67-6.12,1.51-1.55,3.09-1.51,4.89,2.65s4.66,12,5.58,18.17a40.18,40.18,0,0,1-.19,13.67,50,50,0,0,1-3.64,11.48c-.46,1.07-.54,2-1.18,4.13A13.94,13.94,0,0,1,84,317.19c-1.37,1.28-2.07,1.53-2.45,1.36s-.45-.7.11-1.35A11.76,11.76,0,0,0,84,313.83s-1.16,1.5-1.93,2.33a11.35,11.35,0,0,1-2.32,1.93c-.84.5-2.16-.09-1.61-.76s1.16-1.05,2.28-2.31a11.25,11.25,0,0,0,1.54-2.17A21.7,21.7,0,0,1,79.34,315a4.77,4.77,0,0,1-2.47,1c-.47,0-1.12-.54-.33-1.29A16.52,16.52,0,0,0,79.6,312c.84-1.08,1.29-2,1-2s-.72.69-1.81,1.19-2.34.34-2.56-.27S76.36,310.62,77.35,310Z"/><path class="cls-13" d="M89.46,269.6s-3.84,3.41-8.13,2.71l-1.66-7.15s-1.14-3.77,2.1-5.2S88.07,262.28,89.46,269.6Z"/><path class="cls-13" d="M68.33,257.08s-4.16-1.27-8.59,8l1.66,1S65.75,259.45,68.33,257.08Z"/><g id="_Группа_" data-name="&lt;Группа&gt;"><g id="_Группа_2" data-name="&lt;Группа&gt;"><path id="_Контур_8" data-name="&lt;Контур&gt;" class="cls-9" d="M39.58,296.88l14.84-8.56a.81.81,0,0,1,.85,0l26,15L66,312.16Z"/><path class="cls-7" d="M66.42,308.77l1.13.65c.09.05.08.15,0,.21l-1.09.63a.41.41,0,0,1-.36,0L65,309.62c-.1-.06-.08-.15,0-.21l1.09-.63A.38.38,0,0,1,66.42,308.77Z"/><path class="cls-7" d="M64.81,307.84l1.14.65c.09.06.08.15,0,.21l-1.08.63a.38.38,0,0,1-.36,0l-1.14-.65c-.09-.06-.08-.15,0-.21l1.08-.63A.41.41,0,0,1,64.81,307.84Z"/><path class="cls-7" d="M63.19,306.9l1.13.66c.09.05.08.14,0,.2l-1.08.63a.38.38,0,0,1-.36,0l-1.13-.65c-.1-.05-.09-.15,0-.21l1.08-.62A.41.41,0,0,1,63.19,306.9Z"/><path class="cls-7" d="M61.6,306l1.13.66c.09.05.08.15,0,.21l-1.09.62a.42.42,0,0,1-.36,0l-1.13-.66c-.09-.05-.08-.14,0-.21l1.09-.62A.42.42,0,0,1,61.6,306Z"/><path class="cls-7" d="M60,305.06l1.14.65c.09.06.08.15,0,.21l-1.08.63a.41.41,0,0,1-.36,0l-1.14-.65c-.09-.06-.08-.15,0-.21l1.08-.63A.38.38,0,0,1,60,305.06Z"/><path class="cls-7" d="M58.38,304.13l1.14.65c.09.06.08.15,0,.21l-1.08.63a.38.38,0,0,1-.36,0L56.91,305c-.09-.06-.08-.15,0-.21l1.08-.63A.41.41,0,0,1,58.38,304.13Z"/><path class="cls-7" d="M56.78,303.2l1.13.66c.1.05.08.14,0,.21l-1.09.62a.42.42,0,0,1-.36,0l-1.13-.66c-.09-.05-.08-.15,0-.21l1.09-.62A.39.39,0,0,1,56.78,303.2Z"/><path class="cls-7" d="M55.17,302.27l1.14.66c.09.05.08.15,0,.21l-1.08.62a.42.42,0,0,1-.36,0l-1.14-.66c-.09-.05-.08-.14,0-.21l1.08-.62A.42.42,0,0,1,55.17,302.27Z"/><path class="cls-7" d="M53.57,301.35l1.13.65c.09.06.08.15,0,.21l-1.08.63a.41.41,0,0,1-.36,0l-1.13-.65c-.1-.06-.09-.15,0-.21l1.08-.63A.4.4,0,0,1,53.57,301.35Z"/><path class="cls-7" d="M52,300.42l1.13.65c.1.06.08.15,0,.21l-1.08.63a.4.4,0,0,1-.37,0l-1.13-.65c-.09-.06-.08-.15,0-.21l1.09-.63A.41.41,0,0,1,52,300.42Z"/><path class="cls-7" d="M50.35,299.49l1.14.66c.09.05.08.14,0,.21l-1.08.62a.42.42,0,0,1-.36,0l-1.14-.66c-.09,0-.08-.15,0-.21l1.08-.62A.39.39,0,0,1,50.35,299.49Z"/><path class="cls-7" d="M48.75,298.56l1.13.66c.09,0,.08.15,0,.21l-1.09.62a.42.42,0,0,1-.36,0l-1.13-.66c-.1-.05-.08-.14,0-.21l1.08-.62A.44.44,0,0,1,48.75,298.56Z"/><path class="cls-7" d="M47.14,297.64l1.13.65c.1.06.09.15,0,.21l-1.08.63a.44.44,0,0,1-.37,0l-1.13-.65c-.09-.06-.08-.15,0-.21l1.08-.63A.38.38,0,0,1,47.14,297.64Z"/><path class="cls-7" d="M44.76,296.26l1.91,1.1c.09.06.08.15,0,.21l-1.08.63a.38.38,0,0,1-.36,0l-1.91-1.1c-.09-.05-.08-.15,0-.21l1.08-.62A.42.42,0,0,1,44.76,296.26Z"/><path class="cls-7" d="M65.59,306.49l1.14.66c.09.05.08.14,0,.21l-1.08.62a.42.42,0,0,1-.36,0l-1.14-.66c-.09,0-.08-.15,0-.21l1.08-.62A.39.39,0,0,1,65.59,306.49Z"/><path class="cls-7" d="M64,305.56l1.14.66c.09,0,.08.14,0,.21l-1.08.62a.42.42,0,0,1-.36,0l-1.14-.66c-.09-.05-.08-.15,0-.21l1.08-.62A.42.42,0,0,1,64,305.56Z"/><path class="cls-7" d="M62.37,304.63l1.14.66c.09,0,.08.15,0,.21l-1.08.62a.42.42,0,0,1-.36,0l-1.14-.66c-.09-.05-.08-.14,0-.21l1.08-.62A.42.42,0,0,1,62.37,304.63Z"/><path class="cls-7" d="M60.76,303.7l1.14.66c.09.05.08.15,0,.21l-1.08.62a.39.39,0,0,1-.36,0l-1.14-.66c-.09-.05-.08-.14,0-.21l1.08-.62A.42.42,0,0,1,60.76,303.7Z"/><path class="cls-7" d="M59.17,302.78l1.13.66c.09.05.08.14,0,.21l-1.09.62a.42.42,0,0,1-.36,0l-1.13-.66c-.1-.05-.08-.15,0-.21l1.09-.62A.42.42,0,0,1,59.17,302.78Z"/><path class="cls-7" d="M57.56,301.85l1.13.66c.1.05.08.15,0,.21l-1.09.62a.42.42,0,0,1-.36,0l-1.13-.66c-.09-.05-.08-.14,0-.21l1.09-.62A.42.42,0,0,1,57.56,301.85Z"/><path class="cls-7" d="M56,300.92l1.13.66c.1.05.08.15,0,.21l-1.09.62a.38.38,0,0,1-.36,0l-1.13-.66c-.09,0-.08-.14,0-.21l1.09-.62A.42.42,0,0,1,56,300.92Z"/><path class="cls-7" d="M54.34,300l1.13.65c.1.05.09.15,0,.21l-1.08.62a.41.41,0,0,1-.37,0l-1.13-.66c-.09,0-.08-.14,0-.2L54,300A.38.38,0,0,1,54.34,300Z"/><path class="cls-7" d="M52.73,299.07l1.14.65c.09.06.08.15,0,.21l-1.08.63a.41.41,0,0,1-.36,0l-1.14-.65c-.09-.06-.08-.15,0-.21l1.08-.63A.38.38,0,0,1,52.73,299.07Z"/><path class="cls-7" d="M51.12,298.14l1.14.65c.09.06.08.15,0,.21l-1.08.63a.41.41,0,0,1-.36,0L49.65,299c-.09-.06-.08-.15,0-.21l1.08-.63A.38.38,0,0,1,51.12,298.14Z"/><path class="cls-7" d="M49.51,297.21l1.14.65c.09.06.08.15,0,.21l-1.08.63a.38.38,0,0,1-.36,0L48,298.06c-.09-.06-.08-.15,0-.21l1.08-.63A.38.38,0,0,1,49.51,297.21Z"/><path class="cls-7" d="M47.9,296.28l1.14.65c.09.06.08.15,0,.21l-1.08.63a.38.38,0,0,1-.36,0l-1.14-.65c-.09-.06-.08-.15,0-.21l1.08-.63A.41.41,0,0,1,47.9,296.28Z"/><path class="cls-7" d="M67.2,307.42l1.91,1.1c.09.06.08.15,0,.21l-1.08.63a.41.41,0,0,1-.36,0l-1.91-1.1c-.09,0-.08-.15,0-.21l1.08-.62A.39.39,0,0,1,67.2,307.42Z"/><path class="cls-7" d="M44.84,296.2l1.13.66a.4.4,0,0,0,.34,0l1.14-.66c.1-.06.1-.14,0-.2l-.09-.05c-.08-.05-.08-.13,0-.18l1.21-.7a.1.1,0,0,0,0-.19l-.73-.42a.38.38,0,0,0-.33,0l-1.13.65-.24.14-.17.1-.17.1-1,.56C44.75,296.06,44.74,296.15,44.84,296.2Z"/><path class="cls-7" d="M72.64,305.17l1.13.65c.1.06.08.15,0,.21l-1.09.63a.41.41,0,0,1-.36,0L71.17,306c-.09-.06-.08-.15,0-.21l1.09-.63A.38.38,0,0,1,72.64,305.17Z"/><path class="cls-7" d="M71,304.24l1.13.66c.09.05.08.14,0,.21l-1.09.62a.42.42,0,0,1-.36,0l-1.13-.66c-.1,0-.08-.15,0-.21l1.09-.62A.42.42,0,0,1,71,304.24Z"/><path class="cls-7" d="M69.43,303.32l1.14.65c.09.06.08.15,0,.21l-1.08.63a.41.41,0,0,1-.36,0L68,304.17c-.09-.06-.08-.15,0-.21l1.08-.63A.38.38,0,0,1,69.43,303.32Z"/><path class="cls-7" d="M55.79,295.44l1.14.66c.09,0,.08.14,0,.2l-1.08.63a.42.42,0,0,1-.36,0l-1.14-.66c-.09-.05-.08-.15,0-.21l1.08-.62A.39.39,0,0,1,55.79,295.44Z"/><path class="cls-7" d="M54.19,294.52l1.14.65c.09.05.08.15,0,.21l-1.08.63a.41.41,0,0,1-.36,0l-1.14-.65c-.09-.06-.08-.15,0-.21l1.08-.63A.38.38,0,0,1,54.19,294.52Z"/><path class="cls-7" d="M52.59,293.59l1.13.66c.1.05.09.14,0,.21l-1.08.62a.44.44,0,0,1-.37,0l-1.13-.66c-.09-.05-.08-.15,0-.21l1.08-.62A.39.39,0,0,1,52.59,293.59Z"/><path class="cls-7" d="M51,292.67l1.13.65c.1.06.08.15,0,.21l-1.09.63a.41.41,0,0,1-.36,0l-1.13-.65c-.09-.06-.08-.15,0-.21l1.09-.63A.38.38,0,0,1,51,292.67Z"/><path class="cls-7" d="M67.42,302.15l1.55.9c.09.05.08.14,0,.21l-1.08.62a.42.42,0,0,1-.36,0L66,303c-.09-.05-.08-.14,0-.21l1.08-.62A.42.42,0,0,1,67.42,302.15Z"/><path class="cls-7" d="M57.4,296.37l1.54.89c.1.05.08.15,0,.21l-1.09.62a.42.42,0,0,1-.36,0l-1.54-.9c-.1,0-.09-.14,0-.2l1.08-.63A.4.4,0,0,1,57.4,296.37Z"/><path class="cls-7" d="M59.41,297.53,67,301.88c.1.06.08.15,0,.21l-1.09.63a.38.38,0,0,1-.36,0l-7.54-4.35c-.09-.06-.08-.15,0-.21l1.08-.63A.41.41,0,0,1,59.41,297.53Z"/><path class="cls-7" d="M66.71,305.34l1.14.66c.09.05.08.14,0,.2l-1.08.63a.38.38,0,0,1-.36,0l-1.14-.65c-.09-.05-.08-.15,0-.21l1.08-.62A.39.39,0,0,1,66.71,305.34Z"/><path class="cls-7" d="M65.11,304.41l1.13.66c.09.05.08.15,0,.21l-1.09.62a.42.42,0,0,1-.36,0l-1.13-.66c-.1-.05-.08-.14,0-.21l1.09-.62A.42.42,0,0,1,65.11,304.41Z"/><path class="cls-7" d="M63.5,303.49l1.14.65c.09.06.08.15,0,.21l-1.08.63a.41.41,0,0,1-.36,0L62,304.34c-.09-.06-.08-.15,0-.21l1.08-.63A.38.38,0,0,1,63.5,303.49Z"/><path class="cls-7" d="M61.9,302.56l1.13.66c.09,0,.08.14,0,.2l-1.09.63a.38.38,0,0,1-.36,0l-1.13-.65c-.1-.05-.08-.15,0-.21l1.09-.62A.38.38,0,0,1,61.9,302.56Z"/><path class="cls-7" d="M60.29,301.63l1.14.66c.09,0,.08.15,0,.21l-1.08.62a.39.39,0,0,1-.36,0l-1.14-.66c-.09-.05-.08-.14,0-.21l1.08-.62A.42.42,0,0,1,60.29,301.63Z"/><path class="cls-7" d="M58.69,300.71l1.13.65c.1.06.08.15,0,.21l-1.09.63a.38.38,0,0,1-.36,0l-1.13-.65c-.09-.06-.08-.15,0-.21l1.09-.63A.38.38,0,0,1,58.69,300.71Z"/><path class="cls-7" d="M57.08,299.78l1.14.66c.09.05.08.14,0,.21l-1.08.62a.42.42,0,0,1-.36,0l-1.14-.66c-.09-.05-.08-.15,0-.21l1.08-.62A.39.39,0,0,1,57.08,299.78Z"/><path class="cls-7" d="M55.48,298.86l1.13.65c.1.05.08.15,0,.21l-1.09.62a.38.38,0,0,1-.36,0L54,299.7c-.09-.05-.08-.14,0-.2l1.09-.63A.38.38,0,0,1,55.48,298.86Z"/><path class="cls-7" d="M53.87,297.93l1.14.65c.09.06.08.15,0,.21l-1.08.63a.38.38,0,0,1-.36,0l-1.14-.65c-.09-.06-.08-.15,0-.21l1.08-.63A.41.41,0,0,1,53.87,297.93Z"/><path class="cls-7" d="M52.27,297l1.13.66c.1,0,.09.14,0,.21l-1.08.62a.44.44,0,0,1-.37,0l-1.13-.66c-.09-.05-.08-.15,0-.21l1.08-.62A.42.42,0,0,1,52.27,297Z"/><path class="cls-7" d="M50.66,296.08l1.14.65c.09,0,.08.15,0,.21l-1.08.62a.39.39,0,0,1-.36,0l-1.14-.66c-.09-.05-.08-.14,0-.2l1.08-.63A.38.38,0,0,1,50.66,296.08Z"/><path class="cls-7" d="M49.06,295.15l1.13.65c.1.06.09.15,0,.21l-1.08.63a.4.4,0,0,1-.37,0L47.59,296c-.09-.06-.08-.15,0-.21l1.08-.63A.41.41,0,0,1,49.06,295.15Z"/><path class="cls-7" d="M68.32,306.27l2.34,1.35c.1.06.08.15,0,.21l-1.09.63a.41.41,0,0,1-.36,0l-2.34-1.35c-.1-.06-.09-.15,0-.21l1.08-.63A.4.4,0,0,1,68.32,306.27Z"/><path class="cls-7" d="M69.06,304.9l1.14.66c.09.05.08.14,0,.2l-1.08.63a.42.42,0,0,1-.36,0l-1.14-.66c-.09-.05-.08-.15,0-.21l1.08-.62A.39.39,0,0,1,69.06,304.9Z"/><path class="cls-7" d="M67.46,304l1.13.66c.1.05.09.15,0,.21l-1.08.62a.41.41,0,0,1-.37,0L66,304.82c-.09-.05-.08-.14,0-.2L67.1,304A.42.42,0,0,1,67.46,304Z"/><path class="cls-7" d="M65.86,303.05l1.13.65c.09.06.08.15,0,.21l-1.08.63a.38.38,0,0,1-.36,0l-1.13-.65c-.1-.06-.09-.15,0-.21l1.08-.63A.44.44,0,0,1,65.86,303.05Z"/><path class="cls-7" d="M64.25,302.12l1.14.66c.09.05.08.14,0,.21l-1.08.62a.42.42,0,0,1-.36,0L62.78,303c-.09-.05-.08-.15,0-.21l1.08-.62A.42.42,0,0,1,64.25,302.12Z"/><path class="cls-7" d="M62.65,301.2l1.13.65c.09,0,.08.15,0,.21l-1.09.63a.41.41,0,0,1-.36,0L61.18,302c-.1-.05-.08-.14,0-.2l1.09-.63A.38.38,0,0,1,62.65,301.2Z"/><path class="cls-7" d="M61,300.27l1.14.65c.09.06.08.15,0,.21l-1.08.63a.38.38,0,0,1-.36,0l-1.14-.65c-.09-.05-.08-.15,0-.21l1.08-.63A.41.41,0,0,1,61,300.27Z"/><path class="cls-7" d="M59.44,299.34l1.13.66c.1.05.08.15,0,.21l-1.09.62a.42.42,0,0,1-.36,0L58,300.19c-.09-.05-.08-.14,0-.21l1.09-.62A.42.42,0,0,1,59.44,299.34Z"/><path class="cls-7" d="M57.83,298.42l1.14.65c.09.06.08.15,0,.21l-1.08.63a.41.41,0,0,1-.36,0l-1.14-.65c-.09-.06-.08-.15,0-.21l1.08-.63A.38.38,0,0,1,57.83,298.42Z"/><path class="cls-7" d="M56.23,297.49l1.13.66c.1.05.09.14,0,.2l-1.08.63a.4.4,0,0,1-.37,0l-1.13-.65c-.09,0-.08-.15,0-.21l1.08-.62A.39.39,0,0,1,56.23,297.49Z"/><path class="cls-7" d="M54.63,296.56l1.13.66c.09,0,.08.15,0,.21l-1.08.62a.39.39,0,0,1-.36,0l-1.13-.66c-.1-.05-.09-.14,0-.21l1.08-.62A.44.44,0,0,1,54.63,296.56Z"/><path class="cls-7" d="M53,295.64l1.14.65c.09.06.08.15,0,.21l-1.08.63a.38.38,0,0,1-.36,0l-1.14-.65c-.09-.06-.08-.15,0-.21l1.08-.63A.38.38,0,0,1,53,295.64Z"/><path class="cls-7" d="M49.43,293.57l3.12,1.8c.09.05.08.14,0,.21l-1.09.62a.42.42,0,0,1-.36,0L48,294.41c-.09-.05-.08-.14,0-.2l1.08-.63A.38.38,0,0,1,49.43,293.57Z"/><path class="cls-7" d="M70.67,305.83l1.55.89c.09,0,.08.15,0,.21l-1.08.62a.39.39,0,0,1-.36,0l-1.55-.89c-.09-.06-.08-.15,0-.21l1.09-.63A.38.38,0,0,1,70.67,305.83Z"/><path class="cls-7" d="M43.15,297.19l22.78,13.16c.1,0,.08.15,0,.21l-.54.31a.4.4,0,0,1-.37,0L42.22,297.73c-.09-.05-.08-.15,0-.21l.54-.31A.42.42,0,0,1,43.15,297.19Z"/><polygon id="_Контур_9" data-name="&lt;Контур&gt;" class="cls-14" points="70.1 298.06 69.95 298.14 66.03 300.4 59.06 296.38 58.91 296.3 62.98 293.95 70.1 298.06"/><polygon id="_Контур_10" data-name="&lt;Контур&gt;" class="cls-15" points="69.95 298.14 66.03 300.4 59.06 296.38 62.98 294.12 69.95 298.14"/><path id="_Контур_11" data-name="&lt;Контур&gt;" class="cls-15" d="M81.29,303.34v.35a1.43,1.43,0,0,1-.71,1.24l-13.83,8a1.44,1.44,0,0,1-1.43,0l-25-14.45a1.44,1.44,0,0,1-.71-1.24v-.35L66,312.15Z"/><path id="_Контур_12" data-name="&lt;Контур&gt;" class="cls-15" d="M66,312.15v1a1.51,1.51,0,0,1-.71-.19l-25-14.45a1.44,1.44,0,0,1-.71-1.24v-.35Z"/><path id="_Контур_13" data-name="&lt;Контур&gt;" class="cls-9" d="M65.63,312.37a1.71,1.71,0,0,1-1.46-.12L39.25,297.87a1.73,1.73,0,0,1-.82-1.19L35.7,280.42a2.64,2.64,0,0,1,0-.28,1.68,1.68,0,0,1,.5-1.2l25.89,14.95a1.24,1.24,0,0,1,.61.87Z"/><path id="_Контур_14" data-name="&lt;Контур&gt;" class="cls-15" d="M66,312.16l-.17.09a1.67,1.67,0,0,1-.23.12l-2.95-17.61a1.24,1.24,0,0,0-.61-.87L36.18,278.94a1.91,1.91,0,0,1,.35-.27l25.94,15a1.27,1.27,0,0,1,.61.88Z"/></g></g></g><g id="Men_11"><path id="_Контур_15" data-name="&lt;Контур&gt;" class="cls-8" d="M445.18,206.06a46.09,46.09,0,0,0,6.58,9c.72.82,6.19-1.27,5-1.86s-4.73-5.59-6.52-8.92a111.1,111.1,0,0,1-3.84-12.18c-1.13-4.08-2.09-10.06-2.92-12.89a5.51,5.51,0,0,0-4.19-4.27c-2-.45-3.25.09-2.89,2.47C437.07,181.57,440.34,197.84,445.18,206.06Z"/><path class="cls-10" d="M442,269.78c1.69,1.38,4.2.11,4.33.24a74.61,74.61,0,0,0,6.26,5.22c1.06.83,2.71,1.95,2.41,3.55-.53,2.86-5.11,2-6.84,1.1s-3.14-2.32-4.78-3.34c-1.16-.72-2.31-1.1-2.49-2.57C440.82,273.09,441.73,269.74,442,269.78Z"/><path class="cls-11" d="M441,273.38c.22,1.42,1.36,1.8,2.51,2.52,1.67,1,3.13,2.53,4.86,3.4s5.58,1.61,6.7-.43c-.61,2.76-5.11,1.89-6.82,1s-3.14-2.32-4.78-3.34c-1.16-.72-2.31-1.1-2.49-2.57A2.55,2.55,0,0,1,441,273.38Z"/><path class="cls-10" d="M459.26,259.85c1.7,1.39,4.67-.12,4.8,0a63.77,63.77,0,0,0,5.6,5.06c1.06.83,2.71,1.95,2.41,3.55-.54,2.86-5.12,2-6.85,1.1s-3.14-2.32-4.77-3.34c-1.17-.72-2.32-1.1-2.5-2.57C457.84,262.76,459,259.82,459.26,259.85Z"/><path class="cls-11" d="M458,263.25c.23,1.42,1.36,1.8,2.52,2.52,1.66,1,3.12,2.53,4.85,3.4s5.58,1.61,6.7-.43c-.6,2.76-5.11,1.89-6.82,1s-3.14-2.32-4.77-3.34c-1.17-.72-2.32-1.1-2.5-2.57A2.55,2.55,0,0,1,458,263.25Z"/><path id="_Контур_16" data-name="&lt;Контур&gt;" class="cls-12" d="M419.32,215.34c-1.88,11.75,3.35,16.14,10.14,18.65,4.87,1.79,11.86,4.56,11.86,4.56s-.1,2.58-.15,8.37c-.05,5.1.62,23.72.62,23.72s2.82,1.46,5.2-.06c0,0,2.74-14.26,3.32-20.69.79-8.73,2.13-14.44,1.68-16.32-.39-1.65-9.93-6.34-12.95-8.85l20,6.69a35.59,35.59,0,0,0-.58,6.57c.18,6.93.56,21.91.56,21.91s2.74,2,5.08,0c0,0,5-29.67,4.42-33.6-.58-3.72-18.19-11.34-21.29-14a5,5,0,0,0-3.91-1.06Z"/><g id="_Группа_3" data-name="&lt;Группа&gt;"><g id="_Группа_4" data-name="&lt;Группа&gt;"><path id="_Контур_17" data-name="&lt;Контур&gt;" class="cls-9" d="M467.24,220.23l-13.43-7.75a.81.81,0,0,0-.77,0l-23.55,13.6,13.81,8Z"/><path class="cls-7" d="M442.67,231.2l-1,.59c-.08.05-.07.14,0,.19l1,.57a.38.38,0,0,0,.33,0l1-.59c.08-.05.07-.13,0-.19l-1-.56A.39.39,0,0,0,442.67,231.2Z"/><path class="cls-7" d="M444.12,230.37l-1,.59c-.08,0-.07.13,0,.19l1,.56a.33.33,0,0,0,.32,0l1-.59c.08,0,.07-.13,0-.19l-1-.56A.38.38,0,0,0,444.12,230.37Z"/><path class="cls-7" d="M445.59,229.52l-1,.59c-.08,0-.07.13,0,.19l1,.56a.35.35,0,0,0,.33,0l1-.59c.09,0,.08-.14,0-.19l-1-.56A.33.33,0,0,0,445.59,229.52Z"/><path class="cls-7" d="M447,228.69l-1,.6c-.09,0-.08.13,0,.18l1,.57a.36.36,0,0,0,.32,0l1-.59c.08-.05.07-.13,0-.19l-1-.56A.39.39,0,0,0,447,228.69Z"/><path class="cls-7" d="M448.47,227.86l-1,.59c-.09.05-.08.13,0,.19l1,.56a.33.33,0,0,0,.32,0l1-.59c.09,0,.08-.13,0-.18l-1-.57A.36.36,0,0,0,448.47,227.86Z"/><path class="cls-7" d="M449.92,227l-1,.59c-.08,0-.07.14,0,.19l1,.56a.35.35,0,0,0,.33,0l1-.59c.09,0,.08-.14,0-.19l-1-.56A.33.33,0,0,0,449.92,227Z"/><path class="cls-7" d="M451.37,226.19l-1,.59c-.08,0-.07.13,0,.18l1,.57a.38.38,0,0,0,.33,0l1-.59c.08,0,.07-.13,0-.19l-1-.56A.33.33,0,0,0,451.37,226.19Z"/><path class="cls-7" d="M452.81,225.35l-1,.59c-.08.05-.07.13,0,.19l1,.56a.39.39,0,0,0,.33,0l1-.6c.08,0,.07-.13,0-.18l-1-.57A.38.38,0,0,0,452.81,225.35Z"/><path class="cls-7" d="M454.26,224.51l-1,.59c-.08.05-.07.14,0,.19l1,.57a.38.38,0,0,0,.33,0l1-.59c.08-.05.07-.13,0-.19l-1-.56A.35.35,0,0,0,454.26,224.51Z"/><path class="cls-7" d="M455.71,223.68l-1,.59c-.08,0-.07.13,0,.19l1,.56a.36.36,0,0,0,.32,0l1-.59c.08-.05.07-.13,0-.19l-1-.56A.35.35,0,0,0,455.71,223.68Z"/><path class="cls-7" d="M457.16,222.84l-1,.59c-.09,0-.08.13,0,.19l1,.56a.36.36,0,0,0,.32,0l1-.59c.08-.05.07-.14,0-.19l-1-.57A.38.38,0,0,0,457.16,222.84Z"/><path class="cls-7" d="M458.61,222l-1,.59c-.09,0-.08.14,0,.19l1,.57a.36.36,0,0,0,.32,0l1-.59c.09-.05.08-.13,0-.19l-1-.56A.39.39,0,0,0,458.61,222Z"/><path class="cls-7" d="M460.06,221.17l-1,.59c-.08.05-.07.13,0,.19l1,.56a.35.35,0,0,0,.33,0l1-.59c.09-.05.08-.13,0-.19l-1-.56A.36.36,0,0,0,460.06,221.17Z"/><path class="cls-7" d="M462.2,219.93l-1.72,1c-.08.05-.07.13,0,.19l1,.56a.35.35,0,0,0,.33,0l1.72-1c.08,0,.07-.13,0-.18l-1-.57A.38.38,0,0,0,462.2,219.93Z"/><path class="cls-7" d="M443.42,229.15l-1,.59c-.09,0-.08.14,0,.19l1,.57a.36.36,0,0,0,.32,0l1-.59c.09,0,.08-.13,0-.19l-1-.56A.33.33,0,0,0,443.42,229.15Z"/><path class="cls-7" d="M444.87,228.31l-1,.6c-.09,0-.08.13,0,.18l1,.57a.36.36,0,0,0,.32,0l1-.59c.08-.05.07-.13,0-.19l-1-.56A.39.39,0,0,0,444.87,228.31Z"/><path class="cls-7" d="M446.32,227.48l-1,.59c-.09.05-.08.13,0,.19l1,.56a.33.33,0,0,0,.32,0l1-.59c.08-.05.07-.13,0-.19l-1-.56A.35.35,0,0,0,446.32,227.48Z"/><path class="cls-7" d="M447.77,226.64l-1,.59c-.08.05-.07.13,0,.19l1,.56a.36.36,0,0,0,.32,0l1-.6c.08,0,.07-.13,0-.18l-1-.57A.38.38,0,0,0,447.77,226.64Z"/><path class="cls-7" d="M449.21,225.81l-1,.59c-.09,0-.07.13,0,.19l1,.56a.33.33,0,0,0,.32,0l1-.59c.08,0,.07-.13,0-.18l-1-.57A.38.38,0,0,0,449.21,225.81Z"/><path class="cls-7" d="M450.66,225l-1,.59c-.08.05-.07.13,0,.19l1,.56a.39.39,0,0,0,.33,0l1-.59c.08-.05.07-.14,0-.19l-1-.57A.38.38,0,0,0,450.66,225Z"/><path class="cls-7" d="M452.11,224.13l-1,.59c-.08.05-.07.14,0,.19l1,.57a.38.38,0,0,0,.33,0l1-.59c.08-.05.07-.13,0-.19l-1-.56A.35.35,0,0,0,452.11,224.13Z"/><path class="cls-7" d="M453.57,223.29l-1,.6c-.08,0-.07.13,0,.18l1,.57a.38.38,0,0,0,.33,0l1-.59c.08-.05.07-.13,0-.19l-1-.56A.36.36,0,0,0,453.57,223.29Z"/><path class="cls-7" d="M455,222.46l-1,.59c-.08,0-.07.13,0,.19l1,.56a.35.35,0,0,0,.33,0l1-.59c.09-.05.08-.13,0-.19l-1-.56A.33.33,0,0,0,455,222.46Z"/><path class="cls-7" d="M456.47,221.62l-1,.59c-.08,0-.07.13,0,.19l1,.56a.39.39,0,0,0,.33,0l1-.6c.09,0,.08-.13,0-.18l-1-.57A.36.36,0,0,0,456.47,221.62Z"/><path class="cls-7" d="M457.92,220.78l-1,.59c-.09,0-.08.13,0,.19l1,.56a.33.33,0,0,0,.32,0l1-.59c.09-.05.08-.14,0-.19l-1-.57A.36.36,0,0,0,457.92,220.78Z"/><path class="cls-7" d="M459.37,219.94l-1,.59c-.09.05-.08.14,0,.19l1,.57a.36.36,0,0,0,.32,0l1-.59c.08-.05.07-.13,0-.19l-1-.56A.35.35,0,0,0,459.37,219.94Z"/><path class="cls-7" d="M442,230l-1.72,1c-.09.05-.08.14,0,.19l1,.57a.36.36,0,0,0,.32,0l1.72-1c.09,0,.08-.14,0-.19l-1-.57A.36.36,0,0,0,442,230Z"/><path class="cls-7" d="M462.13,219.87l-1,.6a.35.35,0,0,1-.3,0l-1-.59c-.09-.05-.09-.13,0-.18l.09,0c.07-.05.07-.12,0-.17l-1.09-.63c-.08,0-.08-.12,0-.17l.65-.38a.42.42,0,0,1,.31,0l1,.59.21.13.15.08.15.09.88.51C462.22,219.75,462.22,219.83,462.13,219.87Z"/><path class="cls-7" d="M437.06,228l-1,.59c-.08,0-.07.13,0,.19l1,.56a.35.35,0,0,0,.33,0l1-.59c.08,0,.07-.13,0-.18l-1-.57A.38.38,0,0,0,437.06,228Z"/><path class="cls-7" d="M438.51,227.12l-1,.59c-.08,0-.07.14,0,.19l1,.57a.38.38,0,0,0,.33,0l1-.59c.09,0,.08-.13,0-.19l-1-.56A.36.36,0,0,0,438.51,227.12Z"/><path class="cls-7" d="M440,226.29l-1,.59c-.08.05-.07.13,0,.19l1,.56a.36.36,0,0,0,.32,0l1-.59c.08-.05.07-.14,0-.19l-1-.57A.38.38,0,0,0,440,226.29Z"/><path class="cls-7" d="M452.25,219.19l-1,.59c-.08.05-.07.13,0,.19l1,.56a.35.35,0,0,0,.33,0l1-.59c.08,0,.07-.13,0-.19l-1-.56A.38.38,0,0,0,452.25,219.19Z"/><path class="cls-7" d="M453.7,218.35l-1,.59c-.09.05-.08.14,0,.19l1,.57a.36.36,0,0,0,.32,0l1-.59c.09-.05.08-.13,0-.19l-1-.56A.36.36,0,0,0,453.7,218.35Z"/><path class="cls-7" d="M455.14,217.52l-1,.59c-.08,0-.07.13,0,.19l1,.56a.39.39,0,0,0,.33,0l1-.6c.08,0,.07-.13,0-.18l-1-.57A.38.38,0,0,0,455.14,217.52Z"/><path class="cls-7" d="M456.59,216.69l-1,.59c-.08,0-.07.13,0,.18l1,.57a.38.38,0,0,0,.33,0l1-.59c.09,0,.08-.13,0-.19l-1-.56A.33.33,0,0,0,456.59,216.69Z"/><path class="cls-7" d="M441.77,225.24l-1.4.81c-.08,0-.07.13,0,.18l1,.57a.38.38,0,0,0,.33,0l1.39-.8c.09,0,.08-.14,0-.19l-1-.57A.36.36,0,0,0,441.77,225.24Z"/><path class="cls-7" d="M450.81,220l-1.4.81c-.08,0-.07.13,0,.19l1,.56a.38.38,0,0,0,.33,0l1.4-.8c.08,0,.07-.14,0-.19l-1-.57A.38.38,0,0,0,450.81,220Z"/><path class="cls-7" d="M449,221.07l-6.8,3.93c-.08.05-.07.13,0,.19l1,.56a.35.35,0,0,0,.33,0l6.8-3.92c.08-.05.07-.14,0-.19l-1-.57A.38.38,0,0,0,449,221.07Z"/><path class="cls-7" d="M442.41,228.11l-1,.6c-.09,0-.08.13,0,.18l1,.57a.36.36,0,0,0,.32,0l1-.59c.09,0,.08-.13,0-.19l-1-.56A.36.36,0,0,0,442.41,228.11Z"/><path class="cls-7" d="M443.86,227.28l-1,.59c-.08,0-.07.13,0,.19l1,.56a.39.39,0,0,0,.33,0l1-.6c.08,0,.07-.13,0-.18l-1-.57A.36.36,0,0,0,443.86,227.28Z"/><path class="cls-7" d="M445.3,226.44l-1,.59c-.08.05-.07.14,0,.19l1,.57a.36.36,0,0,0,.32,0l1-.59c.08-.05.07-.13,0-.19l-1-.56A.39.39,0,0,0,445.3,226.44Z"/><path class="cls-7" d="M446.75,225.61l-1,.59c-.09.05-.08.13,0,.19l1,.56a.33.33,0,0,0,.32,0l1-.59c.08,0,.07-.13,0-.18l-1-.57A.38.38,0,0,0,446.75,225.61Z"/><path class="cls-7" d="M448.2,224.77l-1,.59c-.08,0-.07.14,0,.19l1,.57a.38.38,0,0,0,.33,0l1-.59c.09,0,.08-.13,0-.19l-1-.56A.33.33,0,0,0,448.2,224.77Z"/><path class="cls-7" d="M449.64,223.94l-1,.59c-.08.05-.07.13,0,.19l1,.56a.35.35,0,0,0,.33,0l1-.59c.08,0,.07-.13,0-.19l-1-.56A.35.35,0,0,0,449.64,223.94Z"/><path class="cls-7" d="M451.09,223.1l-1,.59c-.09.05-.08.13,0,.19l1,.56a.33.33,0,0,0,.32,0l1-.59c.08-.05.07-.14,0-.19l-1-.56A.35.35,0,0,0,451.09,223.1Z"/><path class="cls-7" d="M452.54,222.27l-1,.59c-.08,0-.07.13,0,.19l1,.56a.38.38,0,0,0,.33,0l1-.59c.09-.05.08-.13,0-.19l-1-.56A.33.33,0,0,0,452.54,222.27Z"/><path class="cls-7" d="M454,221.43l-1,.59c-.08,0-.07.13,0,.19l1,.56a.35.35,0,0,0,.33,0l1-.59c.08,0,.07-.14,0-.19l-1-.57A.36.36,0,0,0,454,221.43Z"/><path class="cls-7" d="M455.43,220.6l-1,.59c-.08,0-.07.13,0,.18l1,.57a.36.36,0,0,0,.32,0l1-.59c.08-.05.07-.13,0-.19l-1-.56A.35.35,0,0,0,455.43,220.6Z"/><path class="cls-7" d="M456.88,219.76l-1,.59c-.09.05-.08.13,0,.19l1,.56a.36.36,0,0,0,.32,0l1-.59c.09-.05.08-.14,0-.19l-1-.57A.36.36,0,0,0,456.88,219.76Z"/><path class="cls-7" d="M458.33,218.92l-1,.6c-.08,0-.07.13,0,.18l1,.57a.38.38,0,0,0,.33,0l1-.59c.09-.05.07-.13,0-.19l-1-.56A.36.36,0,0,0,458.33,218.92Z"/><path class="cls-7" d="M441,229l-2.11,1.22c-.09.05-.08.13,0,.19l1,.56a.35.35,0,0,0,.33,0l2.12-1.22c.08-.05.07-.14,0-.19l-1-.57A.38.38,0,0,0,441,229Z"/><path class="cls-7" d="M440.29,227.72l-1,.59c-.08.05-.07.13,0,.19l1,.56a.35.35,0,0,0,.33,0l1-.59c.09,0,.07-.13,0-.18l-1-.57A.36.36,0,0,0,440.29,227.72Z"/><path class="cls-7" d="M441.73,226.88l-1,.59c-.08.05-.07.14,0,.19l1,.57a.38.38,0,0,0,.33,0l1-.59c.08-.05.07-.13,0-.19l-1-.56A.35.35,0,0,0,441.73,226.88Z"/><path class="cls-7" d="M443.18,226.05l-1,.59c-.09.05-.08.13,0,.19l1,.56a.33.33,0,0,0,.32,0l1-.59c.08-.05.07-.13,0-.18l-1-.57A.38.38,0,0,0,443.18,226.05Z"/><path class="cls-7" d="M444.63,225.21l-1,.59c-.08,0-.07.14,0,.19l1,.57a.38.38,0,0,0,.33,0l1-.59c.09,0,.08-.13,0-.19l-1-.56A.33.33,0,0,0,444.63,225.21Z"/><path class="cls-7" d="M446.07,224.38l-1,.59c-.08.05-.07.13,0,.19l1,.56a.35.35,0,0,0,.33,0l1-.59c.08,0,.07-.13,0-.19l-1-.56A.38.38,0,0,0,446.07,224.38Z"/><path class="cls-7" d="M447.52,223.54l-1,.59c-.09.05-.08.14,0,.19l1,.56a.33.33,0,0,0,.32,0l1-.59c.08-.05.07-.14,0-.19l-1-.56A.35.35,0,0,0,447.52,223.54Z"/><path class="cls-7" d="M449,222.71l-1,.59c-.08,0-.07.13,0,.19l1,.56a.38.38,0,0,0,.33,0l1-.59c.09-.05.08-.13,0-.19l-1-.56A.33.33,0,0,0,449,222.71Z"/><path class="cls-7" d="M450.41,221.87l-1,.59c-.08,0-.07.13,0,.19l1,.56a.35.35,0,0,0,.33,0l1-.59c.08,0,.07-.14,0-.19l-1-.57A.38.38,0,0,0,450.41,221.87Z"/><path class="cls-7" d="M451.86,221l-1,.59c-.09,0-.08.13,0,.18l1,.57a.36.36,0,0,0,.32,0l1-.59c.08-.05.07-.13,0-.19l-1-.56A.35.35,0,0,0,451.86,221Z"/><path class="cls-7" d="M453.31,220.2l-1,.59c-.08.05-.07.13,0,.19l1,.56a.39.39,0,0,0,.33,0l1-.59c.09-.05.08-.14,0-.19l-1-.57A.36.36,0,0,0,453.31,220.2Z"/><path class="cls-7" d="M454.75,219.37l-1,.59c-.08,0-.07.13,0,.18l1,.57a.38.38,0,0,0,.33,0l1-.59c.08,0,.07-.13,0-.19l-1-.56A.35.35,0,0,0,454.75,219.37Z"/><path class="cls-7" d="M458,217.5l-2.81,1.62c-.09,0-.08.13,0,.19l1,.56a.36.36,0,0,0,.32,0l2.82-1.63c.08,0,.07-.13,0-.19l-1-.56A.35.35,0,0,0,458,217.5Z"/><path class="cls-7" d="M438.84,228.55l-1.4.81c-.08,0-.07.13,0,.19l1,.56a.35.35,0,0,0,.33,0l1.39-.8c.09,0,.08-.13,0-.19l-1-.56A.39.39,0,0,0,438.84,228.55Z"/><path class="cls-7" d="M463.66,220.77l-20.55,11.86c-.08.05-.07.13,0,.19l.49.28a.35.35,0,0,0,.33,0l20.55-11.86c.08-.05.07-.13,0-.19l-.49-.28A.36.36,0,0,0,463.66,220.77Z"/><polygon id="_Контур_18" data-name="&lt;Контур&gt;" class="cls-14" points="439.62 221.3 439.75 221.37 443.3 223.42 449.61 219.78 449.74 219.7 446.06 217.58 439.62 221.3"/><polygon id="_Контур_19" data-name="&lt;Контур&gt;" class="cls-15" points="439.75 221.37 443.3 223.42 449.61 219.78 446.06 217.73 439.75 221.37"/><path id="_Контур_20" data-name="&lt;Контур&gt;" class="cls-15" d="M429.49,226.08v.32a1.31,1.31,0,0,0,.64,1.12l12.52,7.22a1.25,1.25,0,0,0,1.29,0l22.65-13.07a1.3,1.3,0,0,0,.65-1.12v-.32L443.3,234.06Z"/><path id="_Контур_21" data-name="&lt;Контур&gt;" class="cls-9" d="M443.66,234.25a1.53,1.53,0,0,0,1.32-.11l22.55-13a1.54,1.54,0,0,0,.75-1.07l2.46-14.72a1.1,1.1,0,0,0,0-.25,1.56,1.56,0,0,0-.45-1.1l-23.43,13.53a1.15,1.15,0,0,0-.55.8Z"/><path id="_Контур_22" data-name="&lt;Контур&gt;" class="cls-15" d="M443.3,234.06l.15.08.21.11,2.67-15.93a1.15,1.15,0,0,1,.55-.8L470.31,204a1.78,1.78,0,0,0-.31-.23l-23.48,13.55a1.15,1.15,0,0,0-.55.79Z"/></g></g><path id="_Контур_23" data-name="&lt;Контур&gt;" class="cls-8" d="M426.28,171.07s.29,5.6.16,6.09-2.57,2.14-3.28,2.73S427,185,429.26,186s9.29-1.67,9.42-5.14-1.21-6.38-2.29-6.54S426.28,171.07,426.28,171.07Z"/><path id="_Контур_24" data-name="&lt;Контур&gt;" class="cls-9" d="M425.65,178.13s4.07,6.05,9.74,6.62c1.79-1.76,1.95-8-.53-10,0,0,2.28-1.84,3.83-1.48a8,8,0,0,1,3.51,4.47,36.82,36.82,0,0,1,2,13c-.1,5.94,0,21,0,21a12.78,12.78,0,0,1-6,8.6,18.46,18.46,0,0,1-13.46,1.86c-2.87-.67-3.94-2.28-4.93-4.36.26-4.16,1.91-12.74,1.21-18s-1.8-9.14-2.09-13.38.56-4.15,2.69-5.66A34.55,34.55,0,0,1,425.65,178.13Z"/><path id="_Контур_25" data-name="&lt;Контур&gt;" class="cls-8" d="M432.17,226.4a28.47,28.47,0,0,0-3.18-1.83,6.68,6.68,0,0,1-2.73-1.65c-1-1-2.62-4.67-3.79-8.27a36.92,36.92,0,0,1-1.37-12.5c.49-5.05,2.31-12.11,2.77-15s-.47-4.06-1.82-5.13c-1.59-1.26-3.78-.7-4.95,3.37a78.31,78.31,0,0,0-2.61,17.24,39.57,39.57,0,0,0,2,12.75,46.29,46.29,0,0,0,4.86,10c.56.94.74,1.77,1.59,3.69a13.07,13.07,0,0,0,3.72,4.95c1.43,1,2.1,1.16,2.43,1s.34-.71-.26-1.25a10.6,10.6,0,0,1-2.54-2.84s1.25,1.25,2.06,1.93a10.17,10.17,0,0,0,2.38,1.51c.83.37,2-.33,1.4-.89s-1.2-.84-2.38-1.87a10,10,0,0,1-1.69-1.83,19.77,19.77,0,0,0,2.64,1.71,4.41,4.41,0,0,0,2.4.65c.45,0,1-.63.16-1.23a15.86,15.86,0,0,1-3.16-2.15c-.91-.91-1.42-1.67-1.17-1.69s.76.55,1.82.89,2.21,0,2.35-.55S433.17,226.89,432.17,226.4Z"/><path id="_Контур_26" data-name="&lt;Контур&gt;" class="cls-8" d="M439,162.72h0c-.67-4.35-3.81-7.64-8.29-7.4a8.65,8.65,0,0,0-8.15,9.12,8.54,8.54,0,0,0,3.76,6.62A9.11,9.11,0,0,0,427,173c1.59,1.85,6.39,3,7.76,2.8,1.77-.25,2.73-1,3.57-2.93C439.79,169.43,439.32,164.87,439,162.72Z"/><path class="cls-7" d="M426.28,171.06h0l.41-3.79s-3.1-8,4.22-6.48c4.84,1,6,1.46,7.52-1.79s-3.71-6.16-9.87-5.35a8.5,8.5,0,0,0-7.62,8.64C421.1,164.68,421.73,169.51,426.28,171.06Z"/><path class="cls-13" d="M413.75,192.84s4,4,8.72,2.83c.68-.46,2.3-9.75,2.3-9.75s0-5.15-3.95-5S413.75,192.84,413.75,192.84Z"/><path class="cls-13" d="M443.92,185.13s2.09-.11,2.95-1.32c-.16-2.08-2.82-10-8.18-10.57a9.91,9.91,0,0,1,3.35,4A51.51,51.51,0,0,1,443.92,185.13Z"/></g><g id="Men_1"><path id="_Контур_27" data-name="&lt;Контур&gt;" class="cls-8" d="M138.59,354.34c.28,2.47,3.22,13.12,2.59,16.76s-10.69,9.75-10.69,9.75l-1.39-6.24,5.57-5.46-1.51-10.34Z"/><path id="_Контур_28" data-name="&lt;Контур&gt;" class="cls-13" d="M130.8,343.85a4.38,4.38,0,0,1,5.6,1.69c1.49,2.45,3,10.86,3.16,12.29,0,0-2.08,2.87-5.19,2.39Z"/><path class="cls-10" d="M119.31,462.57a8.65,8.65,0,0,1-6.51-.78c-1.57,0-10.08-3.6-11.23-.54-1,2.68,2.67,5.16,4.64,5.64,4.3,1,7.48,3.18,9.21,3.55,1.28.27,3,.45,4-.57C120.62,468.66,120.52,464.17,119.31,462.57Z"/><path class="cls-11" d="M115.42,469.69c-1.73-.36-4.91-2.5-9.21-3.55-1.65-.4-4.5-2.2-4.78-4.35-.39,2.46,2.94,4.65,4.78,5.1,4.3,1,7.48,3.18,9.21,3.55,1.28.27,3,.45,4-.57a2.48,2.48,0,0,0,.57-1A5.16,5.16,0,0,1,115.42,469.69Z"/><path class="cls-10" d="M133.12,456.37a8.64,8.64,0,0,1-6.51-.78c-1.57,0-10.08-3.6-11.24-.54-1,2.68,2.67,5.16,4.64,5.64,4.3,1,7.49,3.18,9.21,3.55,1.29.27,3,.45,4-.57C134.43,462.46,134.32,458,133.12,456.37Z"/><path class="cls-11" d="M129.22,463.49c-1.72-.36-4.91-2.5-9.21-3.55-1.65-.4-4.49-2.2-4.78-4.35-.38,2.46,3,4.65,4.78,5.1,4.3,1,7.49,3.18,9.21,3.55,1.29.27,3,.45,4-.57a2.36,2.36,0,0,0,.56-1A5.15,5.15,0,0,1,129.22,463.49Z"/><path id="_Контур_29" data-name="&lt;Контур&gt;" class="cls-12" d="M133.29,433.24a51.74,51.74,0,0,0-2-9.32s.58-8.05.87-15.68c.34-8.65,3.34-16.27,1-23.18L106.46,391s1.62,34.51,2,38.69a79.55,79.55,0,0,0,1.2,9.69c1.22,6.7,3.2,22.64,3.2,22.64,2.83,1.64,6.53.73,6.53.73s-.2-20.15-.38-25c-.22-5.9-.4-5.45-.4-5.45l.88-14.68.58-7.3s.74,5.36,1.22,10.15c.42,4.17,1.43,7.95,2.55,15.72,1,6.74,2.56,20.29,2.56,20.29,2.83,1.64,6.66.28,6.66.28S134.05,439.09,133.29,433.24Z"/><path id="_Контур_30" data-name="&lt;Контур&gt;" class="cls-8" d="M129.39,344c-2,.1-3.55.62-3.8,0a26,26,0,0,1-.47-3.17c.24-.59.44-1.23.44-1.23,2.55-1.57,3.36-4.33,3.7-7.55.57-5.49-2.4-10.3-7.9-10.88-5.16-.54-9,3.09-10,8.08-.54,2.46-1.63,7.11-.16,11.16.82,2.26,1.88,4.06,2.94,4.41a24.29,24.29,0,0,0,3.06-.27h0s.28,1.52.47,2.5.11,1.5-1.84,2.7,3,3.67,6.15,3.43,6.8-2.18,7.79-4.25C130.88,346.64,130.79,343.92,129.39,344Z"/><path id="_Контур_31" data-name="&lt;Контур&gt;" class="cls-9" d="M126.45,344.29c.56,1.41-.87,3.13-4.69,4.33s-4.17-.35-4.17-.35a76.09,76.09,0,0,0-7.42,3.83c-2.3,1.6-3.31,6.24-3.62,14.07-.36,9.06-.39,22.51-.09,24.83,0,0,4.29,4.27,9.77,3.82s14.71-5.3,17-9.05c-.06-7.95-1-9.24.3-13.82,2.94-10.48,4.49-14.77,3.06-21.73-1.18-5.74-2.83-6.45-5.1-6.4A48.43,48.43,0,0,0,126.45,344.29Z"/><path id="_Контур_32" data-name="&lt;Контур&gt;" class="cls-8" d="M97.93,373.67c4.5,1.13,5.55-1.71,6.15-4.06,1.43-5.69,2.2-10.83,3.27-14.05,1.25-3.81,2.57-4.42,4.42-5.16,2.17-.87,4,1,3.32,5.81A98.18,98.18,0,0,1,111,372.76c-.56,1.77-1.82,4.92-3.7,6.44-2.32,1.87-5.82,1.79-11.11.48-2.26-.57-4.73-1.91-9-3.9-1.15-.54-2-.89-4.24-1.92a15,15,0,0,1-5.64-4.4c-1.15-1.67-1.3-2.45-1.07-2.84s.82-.37,1.43.33a12.4,12.4,0,0,0,3.24,3s-1.42-1.47-2.19-2.42a12.31,12.31,0,0,1-1.7-2.78c-.41-1,.43-2.3,1.07-1.6s.94,1.4,2.1,2.79a12.07,12.07,0,0,0,2.09,2,22,22,0,0,1-1.92-3.09,5.14,5.14,0,0,1-.71-2.79c0-.51.75-1.12,1.43-.15a18.5,18.5,0,0,0,2.42,3.69c1,1.07,1.9,1.68,1.92,1.38s-.62-.88-1-2.12,0-2.55.69-2.7.56-.1,1.11,1.06a33,33,0,0,1,2,3.72,7.69,7.69,0,0,0,1.85,3.18C91.2,371.29,93.65,372.59,97.93,373.67Z"/><path id="_Контур_33" data-name="&lt;Контур&gt;" class="cls-13" d="M113.44,349.62c-3-.44-5.13.91-6.46,5.46s-2.25,8.29-2.25,8.29a8.13,8.13,0,0,0,5,3.35c3.6.87,4.89-.85,4.89-.85s1-4.77,1.62-8S117.16,350.17,113.44,349.62Z"/><path class="cls-7" d="M111.56,328.53s-4.75-7.22,5.54-8.69c7.42-1.06,12.19,3.71,12.74,8.88.52,4.95-2.52,10.08-4.72,12.12-1.07.38-3.38.6-6.41-.78a37.72,37.72,0,0,1-.14-4.05S122.18,328.4,111.56,328.53Z"/></g></g></g></svg>