<svg xmlns="http://www.w3.org/2000/svg" xmlns:xlink="http://www.w3.org/1999/xlink" viewBox="0 0 506.63 499.81"><defs><style>.cls-1{fill:none;}.cls-2{fill:#d6d8e5;opacity:0.4;}.cls-3{fill:#b1b4c4;}.cls-4{fill:#616e84;}.cls-5{fill:#757b89;}.cls-6{fill:#20232d;}.cls-10,.cls-7{fill:#fff;}.cls-8{opacity:0.5;fill:url(#Безымянный_градиент_15);}.cls-9{fill:#2b303f;}.cls-10{opacity:0.1;}.cls-11{fill:#e9eaf2;}.cls-12{opacity:0.6;}.cls-13{fill:#ddb545;}.cls-14{fill:#ffd44d;}.cls-15{clip-path:url(#clip-path);}.cls-16{opacity:0.12;}.cls-17{opacity:0.05;}.cls-18{clip-path:url(#clip-path-2);}.cls-19{fill:#ceb95f;}.cls-20{fill:#c19b3d;}.cls-21{clip-path:url(#clip-path-3);}.cls-22{opacity:0.3;}.cls-23{fill:#fafbff;}</style><linearGradient id="Безымянный_градиент_15" x1="263.24" y1="472.36" x2="263.24" y2="260.25" gradientUnits="userSpaceOnUse"><stop offset="0.21" stop-color="#fff" stop-opacity="0"/><stop offset="1" stop-color="#fff" stop-opacity="0.2"/></linearGradient><clipPath id="clip-path"><path class="cls-1" d="M74.25,186.48v49.4a3.19,3.19,0,0,1-.18,1,4.35,4.35,0,0,1-.25.59,3.71,3.71,0,0,1-1.32,1.47L6,277.32a1.18,1.18,0,0,1-1.32.06.94.94,0,0,1-.27-.32,1.58,1.58,0,0,1-.17-.76V226.9a3,3,0,0,1,.17-1A4,4,0,0,1,6,223.84l66.48-38.38h0a1.19,1.19,0,0,1,1.32-.07.89.89,0,0,1,.27.33A1.58,1.58,0,0,1,74.25,186.48Z"/></clipPath><clipPath id="clip-path-2"><path class="cls-1" d="M501.67,63.89v57.84a3.75,3.75,0,0,1-.21,1.16,6.76,6.76,0,0,1-.29.69,4.47,4.47,0,0,1-1.55,1.72l-77.87,45a1.39,1.39,0,0,1-1.55.07,1,1,0,0,1-.32-.38,1.92,1.92,0,0,1-.19-.89V111.21a3.49,3.49,0,0,1,.2-1.12,4.07,4.07,0,0,1,.3-.72,4.32,4.32,0,0,1,1.56-1.73L499.6,62.69h0a1.4,1.4,0,0,1,1.56-.08,1.1,1.1,0,0,1,.32.38A2,2,0,0,1,501.67,63.89Z"/></clipPath><clipPath id="clip-path-3"><path class="cls-1" d="M334,49.72v122.8a7.8,7.8,0,0,1-.44,2.46,10.37,10.37,0,0,1-.63,1.46,9.22,9.22,0,0,1-3.28,3.66L164.36,275.54a2.92,2.92,0,0,1-3.29.16,2.33,2.33,0,0,1-.67-.81A4.11,4.11,0,0,1,160,273V150.19a7.85,7.85,0,0,1,.41-2.39,10.63,10.63,0,0,1,.65-1.53,9.19,9.19,0,0,1,3.31-3.67L329.62,47.18h0a3,3,0,0,1,3.3-.16,2.33,2.33,0,0,1,.67.81A4.11,4.11,0,0,1,334,49.72Z"/></clipPath></defs><title>Email_SVG</title><g id="Слой_2" data-name="Слой 2"><g id="Слой_1-2" data-name="Слой 1"><g id="Mobile"><path class="cls-2" d="M158.09,496.44,56.15,437.59c-8.63-5-7.55-13.69,2.42-19.45L304.81,276c10-5.76,25.05-6.38,33.68-1.4l101.94,58.85c8.63,5,7.55,13.7-2.42,19.45L191.77,495.05C181.8,500.8,166.72,501.43,158.09,496.44Z"/><path class="cls-3" d="M171,488.7,69.07,429.85c-8.64-5-7.55-13.7,2.42-19.45L317.72,268.23c10-5.75,25-6.38,33.69-1.39l101.93,58.85c8.63,5,7.55,13.69-2.42,19.45L204.69,487.3C194.72,493.06,179.64,493.68,171,488.7Z"/><polygon class="cls-3" points="63.24 421.27 63.24 411.89 74.25 416.04 63.24 421.27"/><polygon class="cls-3" points="459.17 333.81 459.17 324.79 450.42 330.43 459.17 333.81"/><path class="cls-4" d="M171,480.75,69.07,421.9c-8.64-5-7.55-13.69,2.42-19.45L317.72,260.29c10-5.76,25-6.38,33.69-1.4l101.93,58.85c8.63,5,7.55,13.7-2.42,19.45L204.69,479.36C194.72,485.11,179.64,485.74,171,480.75Z"/><ellipse class="cls-5" cx="80.43" cy="432.32" rx="1.09" ry="1.89" transform="translate(-205.39 98.14) rotate(-30)"/><ellipse class="cls-5" cx="85.34" cy="435.15" rx="1.09" ry="1.89" transform="translate(-206.15 100.98) rotate(-30)"/><ellipse class="cls-5" cx="90.25" cy="437.98" rx="1.09" ry="1.89" transform="translate(-206.91 103.81) rotate(-30)"/><ellipse class="cls-5" cx="95.15" cy="440.82" rx="1.09" ry="1.89" transform="translate(-207.67 106.64) rotate(-30)"/><ellipse class="cls-5" cx="137.28" cy="465.14" rx="1.09" ry="1.89" transform="translate(-214.18 130.96) rotate(-30)"/><ellipse class="cls-5" cx="142.18" cy="467.97" rx="1.09" ry="1.89" transform="translate(-214.94 133.8) rotate(-30)"/><ellipse class="cls-5" cx="147.09" cy="470.8" rx="1.09" ry="1.89" transform="translate(-215.7 136.63) rotate(-30)"/><ellipse class="cls-5" cx="152" cy="473.64" rx="1.09" ry="1.89" transform="translate(-216.46 139.46) rotate(-30)"/><path class="cls-5" d="M123,458.93l-13.47-7.79a3.67,3.67,0,0,1-1.55-2.95h0c0-1.14.69-1.66,1.55-1.17L123,454.81a3.67,3.67,0,0,1,1.55,2.95h0C124.5,458.9,123.81,459.42,123,458.93Z"/><path class="cls-5" d="M428.32,356.16l-12.54,7.24c-.79.45-1.44,0-1.44-1.09h0a3.46,3.46,0,0,1,1.44-2.75l12.54-7.23c.79-.46,1.43,0,1.43,1.08h0A3.45,3.45,0,0,1,428.32,356.16Z"/><path class="cls-5" d="M409.12,367.24l-12.54,7.24c-.79.46-1.44,0-1.44-1.09h0a3.46,3.46,0,0,1,1.44-2.74l12.54-7.24c.79-.46,1.43,0,1.43,1.09h0A3.42,3.42,0,0,1,409.12,367.24Z"/><path class="cls-6" d="M171,479.31,69.07,420.46c-8.64-5-7.55-13.69,2.42-19.45L317.72,258.85c10-5.76,25-6.39,33.69-1.4L453.34,316.3c8.63,5,7.55,13.69-2.42,19.45L204.69,477.91C194.72,483.67,179.64,484.29,171,479.31Z"/><path class="cls-7" d="M442.4,318.65l-39.8-23-.09.06c-4.71,2.71-12.33,2.71-17,0s-4.7-7.12,0-9.83l.1-.06-39.8-23c-6-3.49-15.84-3.49-21.89,0L84.08,401.32c-6,3.49-6,9.15,0,12.64l96.61,55.78c6.05,3.49,15.85,3.49,21.89,0L442.4,331.28C448.44,327.79,448.44,322.14,442.4,318.65Z"/><path class="cls-8" d="M442.4,331.28,202.58,469.74c-5.46,3.15-14,3.46-20.06.9a16.2,16.2,0,0,1-1.82-.9L84.08,414A10.22,10.22,0,0,1,80.69,411c-2.28-3.23-1.15-7.07,3.39-9.69L323.89,262.86c6.05-3.48,15.84-3.48,21.89,0l39.8,23-.1,0c-4.7,2.71-4.7,7.11,0,9.83s12.33,2.71,17,0l.1-.06,39.8,23C448.44,322.14,448.44,327.79,442.4,331.28Z"/><ellipse class="cls-9" cx="391.38" cy="292.32" rx="4.57" ry="2.64"/><path class="cls-10" d="M390,293.1a.83.83,0,0,1,0-1.56,3,3,0,0,1,2.71,0,.82.82,0,0,1,0,1.56A3,3,0,0,1,390,293.1Z"/></g><polygon class="cls-11" points="407.76 311.35 406.03 310.35 408.92 308.68 410.65 309.68 407.76 311.35"/><polygon class="cls-11" points="410.07 312.68 408.34 311.68 412.38 309.35 414.11 310.35 410.07 312.68"/><polygon class="cls-11" points="412.38 314.01 410.65 313.01 416.42 309.68 418.15 310.68 412.38 314.01"/><polygon class="cls-11" points="414.69 315.35 412.96 314.35 421.04 309.68 422.77 310.68 414.69 315.35"/><polygon class="cls-11" points="422.19 319.68 419.5 318.12 424.89 315.01 427.58 316.57 422.19 319.68"/><polygon class="cls-11" points="425.79 321.75 423.09 320.2 428.48 317.09 431.17 318.64 425.79 321.75"/><polygon class="cls-11" points="429.38 323.82 426.68 322.27 432.07 319.16 434.76 320.71 429.38 323.82"/><path class="cls-11" d="M316.65,293.28l-12.39-7.16c-1.72-1-1.5-2.71.48-3.85l11.43-6.6a7.39,7.39,0,0,1,6.68-.28l12.39,7.15c1.71,1,1.5,2.72-.48,3.86L323.33,293A7.43,7.43,0,0,1,316.65,293.28Z"/><path class="cls-11" d="M400.93,341.94l-72.51-41.86c-1.71-1-1.49-2.72.48-3.86l11.44-6.6a7.4,7.4,0,0,1,6.67-.28l72.51,41.86c1.71,1,1.5,2.72-.48,3.86l-11.43,6.6A7.46,7.46,0,0,1,400.93,341.94Z"/><path class="cls-11" d="M291.55,307.77l-12.39-7.16c-1.71-1-1.5-2.71.48-3.85l11.43-6.6a7.39,7.39,0,0,1,6.68-.28L310.14,297c1.71,1,1.5,2.72-.48,3.86l-11.43,6.6A7.43,7.43,0,0,1,291.55,307.77Z"/><path class="cls-11" d="M375.83,356.43l-72.5-41.86c-1.71-1-1.5-2.72.48-3.86l11.43-6.6a7.43,7.43,0,0,1,6.68-.28l72.5,41.86c1.71,1,1.5,2.72-.48,3.86l-11.43,6.6A7.46,7.46,0,0,1,375.83,356.43Z"/><g class="cls-12"><path class="cls-11" d="M266.46,322.26l-12.4-7.16c-1.71-1-1.5-2.71.48-3.85l11.44-6.6a7.37,7.37,0,0,1,6.67-.28l12.4,7.15c1.71,1,1.49,2.72-.48,3.86L273.13,322A7.4,7.4,0,0,1,266.46,322.26Z"/><path class="cls-11" d="M350.74,370.92l-72.51-41.86c-1.71-1-1.5-2.72.48-3.86l11.43-6.6a7.43,7.43,0,0,1,6.68-.28l72.51,41.86c1.71,1,1.49,2.72-.48,3.86l-11.44,6.6A7.44,7.44,0,0,1,350.74,370.92Z"/></g><path class="cls-11" d="M241.36,336.75,229,329.59c-1.71-1-1.49-2.71.48-3.85l11.44-6.61a7.4,7.4,0,0,1,6.67-.27L260,326c1.71,1,1.5,2.72-.48,3.86L248,336.47A7.4,7.4,0,0,1,241.36,336.75Z"/><path class="cls-11" d="M325.64,385.41l-72.51-41.86c-1.71-1-1.49-2.72.48-3.86l11.44-6.6a7.4,7.4,0,0,1,6.67-.28l72.51,41.86c1.71,1,1.49,2.72-.48,3.86l-11.44,6.6A7.44,7.44,0,0,1,325.64,385.41Z"/><path class="cls-11" d="M216.26,351.24l-12.39-7.16c-1.71-1-1.5-2.71.48-3.85l11.43-6.61a7.42,7.42,0,0,1,6.68-.27l12.39,7.15c1.71,1,1.5,2.72-.48,3.86L222.94,351A7.43,7.43,0,0,1,216.26,351.24Z"/><path class="cls-11" d="M300.54,399.9,228,358c-1.71-1-1.49-2.72.48-3.86l11.44-6.6a7.42,7.42,0,0,1,6.68-.28l72.5,41.86c1.71,1,1.5,2.72-.48,3.86l-11.43,6.6A7.46,7.46,0,0,1,300.54,399.9Z"/><g class="cls-12"><path class="cls-11" d="M191.16,365.73l-12.39-7.16c-1.71-1-1.5-2.71.48-3.85l11.43-6.61a7.42,7.42,0,0,1,6.68-.27L209.75,355c1.72,1,1.5,2.72-.48,3.86l-11.43,6.6A7.43,7.43,0,0,1,191.16,365.73Z"/><path class="cls-11" d="M275.44,414.39l-72.5-41.86c-1.71-1-1.5-2.72.48-3.86l11.43-6.6a7.43,7.43,0,0,1,6.68-.28L294,403.65c1.71,1,1.5,2.72-.48,3.86l-11.43,6.6A7.46,7.46,0,0,1,275.44,414.39Z"/></g><path class="cls-11" d="M166.07,380.22l-12.4-7.16c-1.71-1-1.49-2.71.48-3.85l11.44-6.61a7.4,7.4,0,0,1,6.67-.27l12.4,7.15c1.71,1,1.49,2.72-.48,3.86l-11.44,6.6A7.4,7.4,0,0,1,166.07,380.22Z"/><path class="cls-11" d="M250.35,428.88,177.84,387c-1.71-1-1.5-2.72.48-3.86l11.43-6.6a7.43,7.43,0,0,1,6.68-.28l72.51,41.86c1.71,1,1.49,2.72-.48,3.86L257,428.6A7.44,7.44,0,0,1,250.35,428.88Z"/><g class="cls-12"><path class="cls-11" d="M141,394.71l-12.4-7.16c-1.71-1-1.49-2.71.48-3.85l11.44-6.61a7.42,7.42,0,0,1,6.68-.27L159.56,384c1.71,1,1.5,2.72-.48,3.86l-11.44,6.6A7.4,7.4,0,0,1,141,394.71Z"/><path class="cls-11" d="M225.25,443.37l-72.51-41.86c-1.71-1-1.49-2.72.48-3.86l11.44-6.6a7.4,7.4,0,0,1,6.67-.28l72.51,41.86c1.71,1,1.5,2.72-.48,3.86l-11.44,6.6A7.44,7.44,0,0,1,225.25,443.37Z"/></g><g class="cls-12"><path class="cls-11" d="M115.87,409.2,103.48,402c-1.71-1-1.5-2.71.48-3.85l11.43-6.61a7.42,7.42,0,0,1,6.68-.27l12.39,7.15c1.71,1,1.5,2.72-.48,3.86l-11.43,6.6A7.43,7.43,0,0,1,115.87,409.2Z"/><path class="cls-11" d="M200.15,457.86,127.65,416c-1.72-1-1.5-2.71.47-3.85l11.44-6.6a7.42,7.42,0,0,1,6.68-.28l72.5,41.86c1.71,1,1.5,2.72-.48,3.86l-11.43,6.6A7.46,7.46,0,0,1,200.15,457.86Z"/></g><path class="cls-13" d="M71.67,185.06v49.4a2.92,2.92,0,0,1-.18,1,3.37,3.37,0,0,1-.25.59,3.71,3.71,0,0,1-1.32,1.47l-66.5,38.4A1.18,1.18,0,0,1,2.1,276a.89.89,0,0,1-.27-.33,1.68,1.68,0,0,1-.16-.76v-49.4a3.27,3.27,0,0,1,.16-1,4.78,4.78,0,0,1,.26-.62,3.81,3.81,0,0,1,1.33-1.47L69.9,184h0a1.18,1.18,0,0,1,1.33-.06,1.07,1.07,0,0,1,.27.32A1.71,1.71,0,0,1,71.67,185.06Z"/><polygon class="cls-13" points="2.23 276.04 4.79 277.45 4.95 272.91 2.23 276.04"/><polygon class="cls-13" points="71.05 183.88 73.81 185.39 69.92 190.05 71.05 183.88"/><path class="cls-14" d="M74.25,186.48v49.4a3.19,3.19,0,0,1-.18,1,4.35,4.35,0,0,1-.25.59,3.71,3.71,0,0,1-1.32,1.47L6,277.32a1.18,1.18,0,0,1-1.32.06.94.94,0,0,1-.27-.32,1.58,1.58,0,0,1-.17-.76V226.9a3,3,0,0,1,.17-1A4,4,0,0,1,6,223.84l66.48-38.38h0a1.19,1.19,0,0,1,1.32-.07.89.89,0,0,1,.27.33A1.58,1.58,0,0,1,74.25,186.48Z"/><g class="cls-15"><polygon class="cls-16" points="4.53 277.56 39.24 231.19 73.89 237.31 73.89 242.21 4.24 282.42 4.53 277.56"/><polygon class="cls-17" points="39.24 231.19 4.6 225.47 1.41 224.45 0 280.79 4.68 277.38 39.24 231.19"/><polygon class="cls-17" points="39.24 231.19 73.89 185.46 77.08 180.77 78.49 235.47 73.89 237.31 39.24 231.19"/></g><path class="cls-13" d="M498.65,62.23v57.84a3.75,3.75,0,0,1-.21,1.16,6.76,6.76,0,0,1-.29.69,4.33,4.33,0,0,1-1.55,1.72l-77.87,45a1.4,1.4,0,0,1-1.55.07,1.1,1.1,0,0,1-.32-.38,1.92,1.92,0,0,1-.19-.89V109.55a3.49,3.49,0,0,1,.2-1.12,5,5,0,0,1,.3-.72,4.32,4.32,0,0,1,1.56-1.73L496.58,61h0a1.38,1.38,0,0,1,1.55-.08,1,1,0,0,1,.32.38A2,2,0,0,1,498.65,62.23Z"/><polygon class="cls-13" points="417.33 168.76 420.33 170.41 420.52 165.09 417.33 168.76"/><polygon class="cls-13" points="497.92 60.83 501.16 62.61 496.6 68.06 497.92 60.83"/><path class="cls-14" d="M501.67,63.89v57.84a3.75,3.75,0,0,1-.21,1.16,6.76,6.76,0,0,1-.29.69,4.47,4.47,0,0,1-1.55,1.72l-77.87,45a1.39,1.39,0,0,1-1.55.07,1,1,0,0,1-.32-.38,1.92,1.92,0,0,1-.19-.89V111.21a3.49,3.49,0,0,1,.2-1.12,4.07,4.07,0,0,1,.3-.72,4.32,4.32,0,0,1,1.56-1.73L499.6,62.69h0a1.4,1.4,0,0,1,1.56-.08,1.1,1.1,0,0,1,.32.38A2,2,0,0,1,501.67,63.89Z"/><g class="cls-18"><polygon class="cls-16" points="420.01 170.53 460.68 116.23 501.25 123.4 501.25 129.14 419.69 176.23 420.01 170.53"/><polygon class="cls-17" points="460.68 116.23 420.11 109.54 416.38 108.34 414.72 174.32 420.2 170.33 460.68 116.23"/><polygon class="cls-17" points="460.68 116.23 501.25 62.69 504.98 57.19 506.63 121.25 501.25 123.4 460.68 116.23"/></g><path class="cls-13" d="M328.54,44.78a1.62,1.62,0,0,0-.56-.71,5.27,5.27,0,0,0-1.6-.53L241.93,19.27,157.48,141.06a10.34,10.34,0,0,0-1.5,2.17,10.18,10.18,0,0,0-.65,1.53,7.85,7.85,0,0,0-.41,2.39V270a4.28,4.28,0,0,0,.4,1.9,2.32,2.32,0,0,0,.68.8,2.92,2.92,0,0,0,3.28-.15l165.31-95.44a10,10,0,0,0,3.91-5.12,7.58,7.58,0,0,0,.44-2.47V46.67A4.2,4.2,0,0,0,328.54,44.78Z"/><polygon class="cls-19" points="327.75 43.93 332.94 47.01 325.69 52.33 327.75 43.93"/><polygon class="cls-13" points="161.31 275.85 156 272.65 164.19 266.75 161.31 275.85"/><path class="cls-20" d="M241.93,19.27,247,22.32,332.94,47l-4.27-2.53a32.86,32.86,0,0,0-5.1-1.74Z"/><path class="cls-14" d="M334,49.72v122.8a7.8,7.8,0,0,1-.44,2.46,10.37,10.37,0,0,1-.63,1.46,9.22,9.22,0,0,1-3.28,3.66L164.36,275.54a2.92,2.92,0,0,1-3.29.16,2.33,2.33,0,0,1-.67-.81A4.11,4.11,0,0,1,160,273V150.19a7.85,7.85,0,0,1,.41-2.39,10.63,10.63,0,0,1,.65-1.53,9.19,9.19,0,0,1,3.31-3.67L329.62,47.18l-2.82,1.94c1.32-.75,5.34-2.71,6.14-2.11a2.33,2.33,0,0,1,.67.81A4.11,4.11,0,0,1,334,49.72Z"/><g class="cls-21"><polygon class="cls-16" points="161.07 275.7 247 160.85 333.14 176.07 333.14 188.25 159.99 288.21 161.07 275.7"/><polygon class="cls-17" points="247 160.85 160.87 146.64 152.96 144.1 149.44 284.16 161.07 275.7 247 160.85"/><polygon class="cls-17" points="246.82 160.69 332.95 47.03 340.86 35.36 344.38 171.35 332.95 175.91 246.82 160.69"/></g><polygon class="cls-14" points="161.05 146.27 247 22.32 332.94 47.01 247 160.85 161.05 146.27"/><polygon class="cls-22" points="332.94 47.01 313.49 72.78 247 160.85 180.52 149.57 161.05 146.27 180.52 118.19 228.42 49.11 247 22.32 265.58 27.66 313.49 41.43 332.94 47.01"/><polygon class="cls-23" points="313.49 0 313.49 72.78 247 160.85 180.52 149.57 180.52 76.77 313.49 0"/><polygon class="cls-11" points="224.74 108.75 191.93 127.69 191.93 89.81 224.74 70.86 224.74 108.75"/><polygon class="cls-11" points="263.41 86.42 230.6 105.37 230.6 67.48 263.41 48.53 263.41 86.42"/><polygon class="cls-11" points="302.08 64.1 269.26 83.05 269.26 45.16 302.08 26.21 302.08 64.1"/><polygon class="cls-11" points="302.08 79.83 191.93 143.42 191.93 136.83 302.08 73.23 302.08 79.83"/><polygon class="cls-11" points="285.67 96.91 285.67 103.51 200.57 152.64 191.92 151.76 191.92 151.04 285.67 96.91"/><polygon class="cls-11" points="269.26 119.58 269.26 126.18 219.09 155.14 208.73 154.53 269.26 119.58"/><polygon class="cls-11" points="260.63 138.77 260.63 142.8 257.19 147.35 236.76 159.15 227.87 157.69 260.63 138.77"/></g></g></svg>