<svg xmlns="http://www.w3.org/2000/svg" viewBox="0 0 500 476.61"><defs><style>.cls-1{fill:#d6d8e5;opacity:0.4;}.cls-2{fill:#8c50ff;}.cls-3{fill:#ef990f;}.cls-4{fill:#dd8910;}.cls-5{fill:#fca70d;}.cls-6{fill:#ece8f9;}.cls-7{fill:#d9dce8;}.cls-8{fill:#eff1f9;}.cls-9{fill:#d3d6e2;}.cls-10{fill:#c5c8d3;}.cls-11{fill:#ffcea9;}.cls-12{fill:#ededed;}.cls-13{fill:#38226d;}.cls-14{fill:#9c73ff;}.cls-15{fill:#f4f4f4;}.cls-16{fill:#3a2c6d;}</style></defs><title>Farmacy_SVG</title><g id="Слой_2" data-name="Слой 2"><g id="Слой_1-2" data-name="Слой 1"><ellipse class="cls-1" cx="328.5" cy="297.77" rx="95.13" ry="54.92"/><path class="cls-2" d="M432,97.18H241.7s.65,161.32.16,191.93a31.81,31.81,0,0,0-.11,4.14c0,.29,0,.51-.05.65h.08c.75,13.46,10,26.78,27.79,37.05C306.72,352.4,367,352.4,404.1,331c17.79-10.27,27-23.59,27.79-37.05H432Z"/><ellipse class="cls-2" cx="336.83" cy="95.4" rx="95.13" ry="54.92"/><path class="cls-3" d="M436.62,102.74a40.9,40.9,0,0,1-3.78,7.5,55.76,55.76,0,0,1-11,12.44c-1.26,1.11-2.59,2.18-4,3.23a85.5,85.5,0,0,1-8.78,5.77c-.66.38-1.31.75-2,1.11-1.35.75-2.75,1.48-4.18,2.17-3.41,1.67-7,3.21-10.67,4.58-1.37.52-2.75,1-4.16,1.48-3.53,1.19-7.16,2.23-10.88,3.15-1.25.32-2.51.62-3.78.89q-5.46,1.22-11.06,2c-1.27.19-2.53.37-3.8.52q-5.49.67-11,1c-1.26.07-2.52.14-3.8.17-3.68.16-7.37.18-11,.1-1.27,0-2.53-.07-3.8-.13-3.7-.17-7.39-.44-11.06-.85-1.27-.14-2.54-.28-3.8-.46-3.72-.48-7.41-1.1-11.05-1.83-1.27-.25-2.54-.53-3.79-.81q-5.65-1.29-11.05-3c-1.27-.4-2.55-.82-3.8-1.25-3.81-1.32-7.51-2.8-11.06-4.44-1.28-.58-2.55-1.19-3.78-1.82q-2.53-1.28-4.94-2.67c-2.16-1.25-4.19-2.53-6.12-3.87-1.32-.89-2.59-1.82-3.8-2.77a62.85,62.85,0,0,1-11.06-10.89,47.78,47.78,0,0,1-3.77-5.6c-11.76-20.51-3.51-44,24.75-60.32,39.9-23,104.61-23,144.53,0,11.23,6.48,19.28,14.08,24.2,22.19a41.73,41.73,0,0,1,3.32,6.75A35,35,0,0,1,436.62,102.74Z"/><path class="cls-3" d="M234.63,90c0-.52,0-29.38,0-29.38l34,14.69Z"/><polygon class="cls-3" points="439.04 59.01 439.01 88.55 420.49 104.33 409.18 77.24 439.04 59.01"/><path class="cls-4" d="M243.59,76.33v37.82a47.78,47.78,0,0,1-3.77-5.6V76.33Z"/><path class="cls-4" d="M258.45,88v39.78c-1.32-.89-2.59-1.82-3.8-2.77V88Z"/><path class="cls-4" d="M273.29,98.35v37.82c-1.28-.58-2.55-1.19-3.78-1.82v-36Z"/><path class="cls-4" d="M288.15,102.91v39c-1.27-.4-2.55-.82-3.8-1.25v-37.7Z"/><path class="cls-4" d="M303,108v37.63c-1.27-.25-2.54-.53-3.79-.81V108Z"/><path class="cls-4" d="M317.84,111.79v36.15c-1.27-.14-2.54-.28-3.8-.46V111.79Z"/><path class="cls-4" d="M332.7,111.79v37.13c-1.27,0-2.53-.07-3.8-.13v-37Z"/><path class="cls-4" d="M347.54,111.79v36.86c-1.26.07-2.52.14-3.8.17v-37Z"/><path class="cls-4" d="M362.39,110.4v36.7c-1.27.19-2.53.37-3.8.52V110.4Z"/><path class="cls-4" d="M377.23,106.43v37.74c-1.25.32-2.51.62-3.78.89V106.43Z"/><path class="cls-4" d="M392.27,101.08v38.46c-1.37.52-2.75,1-4.16,1.48V101.08Z"/><path class="cls-4" d="M407.12,92.74v40.05c-1.35.75-2.75,1.48-4.18,2.17V92.74Z"/><path class="cls-4" d="M421.88,83.61v39.07c-1.26,1.11-2.59,2.18-4,3.23V83.61Z"/><path class="cls-4" d="M436.62,70.42v32.32a40.9,40.9,0,0,1-3.78,7.5V70.42Z"/><ellipse class="cls-5" cx="336.83" cy="59.01" rx="102.2" ry="59.01"/><path class="cls-6" d="M404.1,166.67c-37.15,21.45-97.38,21.45-134.53,0l-1.74-1-.36.22V241c.68.42,1.38.84,2.1,1.25,37.15,21.46,97.38,21.46,134.53,0,.72-.41,1.4-.84,2.09-1.27V165.87l-.37-.23C405.26,166,404.69,166.33,404.1,166.67Z"/><path class="cls-2" d="M395.29,223.53C361,239,312.66,239,278.38,223.54v9.52c34.27,15.45,82.63,15.45,116.91,0Z"/><path class="cls-2" d="M353,198.6c-25.77,2.57-53-1-74.65-10.78v9.52C300,207.1,327.26,210.69,353,208.13Z"/><path class="cls-2" d="M353,216.16c-25.77,2.56-53-1-74.65-10.78v9.52c21.63,9.76,48.88,13.35,74.65,10.79Z"/><path class="cls-2" d="M376.64,192.84v30.23c2.32-.71,5.23-1.61,7.94-2.48V190.47h-.11C382,191.39,378.85,192.27,376.64,192.84Z"/><path class="cls-2" d="M392.52,198.14a130.86,130.86,0,0,1-25.6,7.57v9.52a130.86,130.86,0,0,0,25.6-7.57Z"/><ellipse class="cls-1" cx="68.23" cy="348.67" rx="24.02" ry="13.87"/><ellipse class="cls-7" cx="71.79" cy="347.78" rx="24.02" ry="13.87"/><path class="cls-7" d="M47.78,347.56v-7l7.63,2.56Z"/><polygon class="cls-7" points="95.79 341.08 95.79 347.34 87 345.6 95.79 341.08"/><ellipse class="cls-8" cx="71.79" cy="340.65" rx="24.02" ry="13.87"/><polygon class="cls-9" points="56.06 351.12 53.45 349.61 87.31 330.07 89.91 331.57 56.06 351.12"/><polygon class="cls-10" points="53.45 349.61 53.45 356.73 55.81 358.13 56.14 358.29 56.14 351.12 53.45 349.61"/><ellipse class="cls-1" cx="130.58" cy="191.83" rx="24.02" ry="13.87"/><ellipse class="cls-7" cx="134.15" cy="190.94" rx="24.02" ry="13.87"/><path class="cls-7" d="M110.13,190.72c0-.06,0-7,0-7l7.64,2.56Z"/><polygon class="cls-7" points="158.15 184.25 158.15 190.5 149.35 188.77 158.15 184.25"/><ellipse class="cls-8" cx="134.15" cy="183.81" rx="24.02" ry="13.87"/><polygon class="cls-9" points="118.41 194.28 115.81 192.78 149.66 173.23 152.26 174.73 118.41 194.28"/><polygon class="cls-10" points="115.81 192.78 115.81 199.89 118.17 201.29 118.5 201.46 118.5 194.28 115.81 192.78"/><ellipse class="cls-1" cx="24.02" cy="262.3" rx="24.02" ry="13.87"/><ellipse class="cls-7" cx="27.58" cy="261.4" rx="24.02" ry="13.87"/><path class="cls-7" d="M3.57,261.19v-7l7.63,2.56Z"/><polygon class="cls-7" points="51.58 254.71 51.58 260.96 42.79 259.23 51.58 254.71"/><ellipse class="cls-8" cx="27.58" cy="254.27" rx="24.02" ry="13.87"/><polygon class="cls-9" points="11.85 264.74 9.24 263.24 43.09 243.69 45.7 245.2 11.85 264.74"/><polygon class="cls-10" points="9.24 263.24 9.24 270.36 11.6 271.75 11.93 271.92 11.93 264.74 9.24 263.24"/><ellipse class="cls-1" cx="472.42" cy="362.31" rx="24.02" ry="13.87"/><ellipse class="cls-7" cx="475.98" cy="361.41" rx="24.02" ry="13.87"/><path class="cls-7" d="M452,361.2c0-.06,0-7,0-7l7.64,2.56Z"/><polygon class="cls-7" points="499.99 354.72 499.99 360.97 491.19 359.24 499.99 354.72"/><ellipse class="cls-8" cx="475.98" cy="354.28" rx="24.02" ry="13.87"/><polygon class="cls-9" points="460.25 364.75 457.64 363.25 491.5 343.7 494.1 345.21 460.25 364.75"/><polygon class="cls-10" points="457.64 363.25 457.64 370.37 460 371.76 460.34 371.93 460.34 364.75 457.64 363.25"/><polygon class="cls-1" points="188.42 445.93 137.88 416.71 145.19 412.49 195.73 441.71 188.42 445.93"/><polygon class="cls-2" points="164.77 427.53 187.68 440.51 199.04 418.82 177.57 406.22 164.77 427.53"/><polygon class="cls-5" points="144.18 415.4 163.19 426.49 176.81 405.78 155.46 393.36 144.18 415.4"/><ellipse class="cls-5" cx="149.85" cy="404.39" rx="11.41" ry="12.69"/><ellipse class="cls-2" cx="170.89" cy="416.69" rx="12.45" ry="7.19" transform="translate(-275.42 356.33) rotate(-60)"/><circle class="cls-2" cx="193.25" cy="429.61" r="12.24"/><polygon class="cls-1" points="174.88 299.04 124.34 269.81 131.65 265.59 182.19 294.82 174.88 299.04"/><polygon class="cls-2" points="151.23 280.63 174.15 293.61 185.5 271.93 164.03 259.33 151.23 280.63"/><polygon class="cls-5" points="130.64 268.5 149.65 279.6 163.27 258.89 141.92 246.47 130.64 268.5"/><ellipse class="cls-5" cx="136.31" cy="257.49" rx="11.41" ry="12.69"/><ellipse class="cls-2" cx="157.35" cy="269.8" rx="12.45" ry="7.19" transform="translate(-154.98 271.16) rotate(-60)"/><circle class="cls-2" cx="179.71" cy="282.71" r="12.24"/><ellipse class="cls-1" cx="362.39" cy="454.22" rx="38.77" ry="22.38"/><g id="Men_1"><path id="_Контур_" data-name="&lt;Контур&gt;" class="cls-11" d="M394.45,283.71c.44,3.88,5.06,20.59,4.07,26.31s-16.78,15.3-16.78,15.3l-2.18-9.8L388.3,307l-2.37-16.23Z"/><path id="_Контур_2" data-name="&lt;Контур&gt;" class="cls-12" d="M382.24,267.25A6.89,6.89,0,0,1,391,269.9c2.33,3.85,4.74,17.05,5,19.3,0,0-3.26,4.5-8.15,3.75Z"/><path class="cls-13" d="M364.21,453.54A13.52,13.52,0,0,1,354,452.31c-2.46.07-15.82-5.65-17.63-.85-1.6,4.21,4.19,8.11,7.28,8.85,6.75,1.64,11.74,5,14.45,5.57,2,.43,4.63.71,6.24-.88C366.26,463.1,366.09,456.05,364.21,453.54Z"/><path class="cls-14" d="M358.09,464.72c-2.71-.57-7.7-3.94-14.45-5.57-2.59-.63-7.05-3.46-7.5-6.84-.6,3.87,4.62,7.31,7.5,8,6.75,1.64,11.74,5,14.45,5.57,2,.43,4.63.71,6.24-.88a4,4,0,0,0,.89-1.61A8.11,8.11,0,0,1,358.09,464.72Z"/><path class="cls-13" d="M385.87,443.82a13.57,13.57,0,0,1-10.22-1.24c-2.46.07-15.81-5.64-17.63-.84-1.59,4.2,4.19,8.1,7.29,8.85,6.74,1.63,11.73,5,14.44,5.57,2,.42,4.64.7,6.25-.89C387.93,453.37,387.76,446.32,385.87,443.82Z"/><path class="cls-14" d="M379.75,455c-2.71-.57-7.7-3.94-14.44-5.57-2.59-.63-7.06-3.46-7.51-6.84-.6,3.87,4.62,7.31,7.51,8,6.74,1.63,11.73,5,14.44,5.57,2,.42,4.64.7,6.25-.89a4,4,0,0,0,.88-1.61A8.11,8.11,0,0,1,379.75,455Z"/><path id="_Контур_3" data-name="&lt;Контур&gt;" class="cls-2" d="M386.14,407.52a81.2,81.2,0,0,0-3.09-14.63s.92-12.62,1.38-24.59c.53-13.59,5.24-25.54,1.52-36.38L344,341.24s2.53,54.15,3.09,60.71A125.5,125.5,0,0,0,349,417.16c1.92,10.51,5,35.52,5,35.52,4.43,2.57,10.25,1.15,10.25,1.15s-.32-31.63-.61-39.2c-.35-9.25-.63-8.55-.63-8.55l1.39-23,.9-11.46s1.16,8.41,1.92,15.93c.65,6.55,2.24,12.47,4,24.67,1.54,10.58,4,31.84,4,31.84,4.43,2.57,10.45.43,10.45.43S387.33,416.7,386.14,407.52Z"/><path id="_Контур_4" data-name="&lt;Контур&gt;" class="cls-11" d="M380,267.48c-3.19.15-5.56,1-6,0a41.53,41.53,0,0,1-.73-5c.37-.93.68-1.93.68-1.93,4-2.46,5.28-6.8,5.81-11.84.89-8.62-3.76-16.17-12.39-17.07-8.1-.85-14.07,4.85-15.66,12.67-.85,3.87-2.56,11.16-.26,17.52,1.29,3.55,3,6.37,4.62,6.92a42.07,42.07,0,0,0,4.79-.42h0s.43,2.39.73,3.93.18,2.35-2.89,4.24,4.63,5.76,9.66,5.38,10.67-3.42,12.22-6.66C382.36,271.64,382.21,267.37,380,267.48Z"/><path id="_Контур_5" data-name="&lt;Контур&gt;" class="cls-15" d="M375.4,268c.88,2.21-1.37,4.9-7.36,6.79s-6.54-.54-6.54-.54-8.78,4-11.65,6c-3.6,2.52-5.19,9.79-5.68,22.08-.56,14.22-.61,35.32-.13,39,0,0,6.72,6.7,15.33,6S382.45,338.91,386,333c-.09-12.47-1.55-14.5.47-21.68,4.62-16.44,7.05-23.17,4.81-34.1-1.86-9-4.45-10.13-8-10A74.45,74.45,0,0,0,375.4,268Z"/><path id="_Контур_6" data-name="&lt;Контур&gt;" class="cls-11" d="M330.65,316.42c7.06,1.78,8.72-2.67,9.65-6.36,2.24-8.93,3.45-17,5.13-22.06,2-6,4-6.92,6.94-8.09,3.41-1.37,6.34,1.52,5.21,9.12-1.34,9-3.11,15.32-6.47,26-.88,2.78-2.85,7.72-5.8,10.11-3.64,2.95-9.13,2.82-17.44.75-3.54-.88-7.42-3-14.12-6.12-1.8-.84-3.19-1.39-6.64-3s-7.05-4.29-8.86-6.91-2.05-3.85-1.68-4.45,1.29-.58,2.25.52a19.32,19.32,0,0,0,5.08,4.7s-2.23-2.3-3.44-3.8a19.19,19.19,0,0,1-2.67-4.36c-.64-1.53.68-3.6,1.68-2.52s1.47,2.2,3.3,4.39a19,19,0,0,0,3.27,3.12,36.29,36.29,0,0,1-3-4.85,8,8,0,0,1-1.1-4.38c.05-.8,1.18-1.75,2.23-.24s1.58,3.49,3.8,5.8c1.61,1.67,3,2.63,3,2.17s-1-1.38-1.55-3.33,0-4,1.08-4.24.87-.16,1.73,1.66,2.2,3.17,3.21,5.84a12.08,12.08,0,0,0,2.9,5C320.09,312.69,323.93,314.73,330.65,316.42Z"/><path id="_Контур_7" data-name="&lt;Контур&gt;" class="cls-12" d="M355,278.69c-4.72-.69-8.05,1.43-10.13,8.57s-3.54,13-3.54,13a12.77,12.77,0,0,0,7.9,5.25c5.64,1.37,7.67-1.33,7.67-1.33s1.56-7.49,2.54-12.58S360.82,279.55,355,278.69Z"/><path class="cls-16" d="M352,243.22s-7.45-11.33,8.7-13.63c11.64-1.67,19.12,5.81,20,13.93.82,7.76-4,15.81-7.4,19-1.68.6-5.31.94-10.06-1.22A57.17,57.17,0,0,1,363,255S368.71,243,352,243.22Z"/></g><path class="cls-15" d="M390.19,293.42l-46.15,43-2.72,82.71s12.93,6.3,27.64,2.9l2.65-31.82,4.1,28.88-.48.87c6-2.57,12-7,17.29-14.39Z"/><path class="cls-12" d="M341.32,300.27l-2.27,10s-1.94,7-6.85,5.21-13.67-6.7-13.67-6.7l-6,12.23,12.34,5.78s17.11,6.1,21.88,0,10.1-22.58,10.1-22.58Z"/><path class="cls-12" d="M396,289.2l2,9.52s1,7.16,1,8.53.67,3.77-3.28,7.7-5,5.12-5,5.12l-.55-22.3,1.14-5.15,3.31-4.17Z"/></g></g></svg>