<svg xmlns="http://www.w3.org/2000/svg" xmlns:xlink="http://www.w3.org/1999/xlink" viewBox="0 0 429.12 500"><defs><style>.cls-1{fill:#d6d8e5;opacity:0.4;}.cls-2{fill:#efda86;}.cls-3{fill:#d1b66b;}.cls-4{fill:#e2c979;}.cls-11,.cls-5{opacity:0.1;}.cls-6{fill:#b1b4c4;}.cls-7{fill:#616e84;}.cls-8{fill:#20232d;}.cls-11,.cls-9{fill:#fff;}.cls-10{fill:#2b303f;}.cls-12{fill:#757b89;}.cls-13{fill:#e9eaf2;}.cls-14{fill:#d9dae2;}.cls-15{fill:#e26161;}.cls-16{fill:#f4f5f9;}.cls-17{opacity:0.15;}.cls-18{fill:#c65555;}.cls-19{fill:#ff6c6c;}.cls-20{fill:#dd6262;}.cls-21{fill:#ffcea9;}.cls-22{fill:#ededed;}.cls-23{fill:#2b2a30;}.cls-24{fill:#9c73ff;}.cls-25{fill:#8c50ff;}.cls-26{fill:#f4f4f4;}.cls-27{fill:#3a2c6d;}.cls-28{opacity:0.5;fill:url(#Безымянный_градиент_15);}.cls-29{fill:#eff0f9;}.cls-30{fill:#f9cb07;}</style><linearGradient id="Безымянный_градиент_15" x1="-2115.87" y1="3245.53" x2="-2115.87" y2="3226.31" gradientTransform="matrix(0.87, 0.5, -1, 0.58, 5178.35, -503.07)" gradientUnits="userSpaceOnUse"><stop offset="0.21" stop-color="#fff" stop-opacity="0"/><stop offset="1" stop-color="#fff" stop-opacity="0.2"/></linearGradient></defs><title>Online_shopping_SVG</title><g id="Слой_2" data-name="Слой 2"><g id="Слой_1-2" data-name="Слой 1"><polygon class="cls-1" points="167.55 279.29 132.92 259.41 170.07 237.97 204.7 257.85 167.55 279.29"/><polygon class="cls-2" points="171.43 234.65 134.29 213.2 171.43 191.75 208.58 213.2 171.43 234.65"/><polygon class="cls-3" points="206.07 257.04 171.43 277.04 171.43 237.04 206.07 217.05 206.07 257.04"/><polygon class="cls-4" points="171.43 277.04 136.8 257.04 136.8 217.05 171.43 237.04 171.43 277.04"/><polygon class="cls-5" points="136.8 217.05 136.8 227.51 171.43 247.28 171.43 237.09 136.8 217.05"/><polygon class="cls-5" points="206.07 217.05 206.07 228.26 171.43 247.28 171.43 237.09 206.07 217.05"/><polygon class="cls-4" points="134.29 213.2 134.29 224.29 171.43 245.45 171.43 234.65 134.29 213.2"/><polygon class="cls-3" points="171.43 245.45 208.58 225.16 208.58 213.2 171.43 234.65 171.43 245.45"/><path class="cls-1" d="M307,370,196.28,306.24a4.09,4.09,0,0,1,.17-7.17l13.93-7.18a4.11,4.11,0,0,1,3.91.09l114.45,65.9a4.08,4.08,0,0,1-.17,7.17l-10.11,5.21A11.94,11.94,0,0,1,307,370Z"/><path class="cls-6" d="M313.8,358l-94.36-54.48c-8-4.61-14.47-17-14.47-27.65V12.68C205,2,211.45-2.88,219.44,1.74L313.8,56.21c8,4.62,14.47,17,14.47,27.65v263.2C328.27,357.72,321.79,362.61,313.8,358Z"/><polygon class="cls-6" points="315.42 362.74 322.89 358.96 315.72 346.67 315.42 362.74"/><polygon class="cls-6" points="203.51 4.36 210.39 0.75 209 10.9 203.51 4.36"/><path class="cls-7" d="M307.78,361l-94.35-54.48c-8-4.61-14.47-17-14.47-27.65V15.69C199,5,205.44.13,213.43,4.74l94.35,54.48c8,4.62,14.48,17,14.48,27.65v263.2C322.26,360.72,315.78,365.62,307.78,361Z"/><path class="cls-8" d="M321.25,87.54V350.73c0,10.67-6.47,15.56-14.47,10.95l-37-21.36-11.51-6.65L212.42,307.2c-8-4.62-14.46-17-14.46-27.65V16.36C198,5.69,204.43.8,212.42,5.41l94.36,54.48C314.78,64.51,321.25,76.88,321.25,87.54Z"/><path class="cls-9" d="M314.44,84.87V341.21c0,6.46-4.53,9.08-10.11,5.84l-5-2.9-17.14-9.89L274.82,330l-2.6-1.51-.87-.51L265,324.33l-18.45-10.64h0l-7.6-4.39,0,0-3.08-1.78-18.4-10.62-2.51-1.45c-5.6-3.23-10.12-11.08-10.12-17.55V21.54c0-6.46,4.52-9.08,10.12-5.85L251.72,37v.1a17.43,17.43,0,0,0,7.88,13.66c4.36,2.5,7.89.47,7.89-4.55,0,0,0-.08,0-.11l36.85,21.27C309.91,70.56,314.44,78.41,314.44,84.87Z"/><ellipse class="cls-10" cx="259.6" cy="44.4" rx="2.44" ry="4.23" transform="matrix(0.87, -0.5, 0.5, 0.87, 12.58, 135.76)"/><path class="cls-11" d="M259.6,45.85a2.77,2.77,0,0,1-1.25-2.17c0-.8.56-1.12,1.25-.72a2.75,2.75,0,0,1,1.26,2.17C260.86,45.93,260.3,46.25,259.6,45.85Z"/><path class="cls-12" d="M325.08,122.17h0c-.77.45-1.39,0-1.39-1V109.9a3.32,3.32,0,0,1,1.39-2.66h0c.77-.45,1.39,0,1.39,1.05v11.22A3.32,3.32,0,0,1,325.08,122.17Z"/><path class="cls-12" d="M325.08,140.56h0c-.77.44-1.39,0-1.39-1.05V128.28a3.35,3.35,0,0,1,1.39-2.66h0c.77-.44,1.39,0,1.39,1.06V137.9A3.33,3.33,0,0,1,325.08,140.56Z"/><path class="cls-13" d="M293.84,172.51l-71-41c-3-1.74-5.46-6.41-5.46-10.44v-80c0-4,2.44-5.87,5.46-4.13l71,41c3,1.74,5.46,6.41,5.46,10.43v80C299.3,172.4,296.86,174.25,293.84,172.51Z"/><path class="cls-13" d="M293.84,279.56l-71-41c-3-1.74-5.46-6.41-5.46-10.43v-80c0-4,2.44-5.87,5.46-4.13l71,41c3,1.74,5.46,6.41,5.46,10.44v80C299.3,279.45,296.86,281.3,293.84,279.56Z"/><path class="cls-13" d="M299.31,302.46v41.69L274.82,330l-2.6-1.51-.87-.51L265,324.33l-18.45-10.64h0l-7.65-4.41-3.08-1.78-18.4-10.62v-41.7c0-4,2.45-5.86,5.46-4.12l71,41C296.86,293.77,299.31,298.44,299.31,302.46Z"/><path class="cls-14" d="M279.71,106.47,270,89.64A4.5,4.5,0,0,0,268.45,88h0a1.66,1.66,0,0,0-.27-.13,2.2,2.2,0,0,0-.28-.18l-2.7-1.56c-.74-.43-1.43-.4-1.83.09-.86,1-2.8.91-4.94-.33a12.23,12.23,0,0,1-4.94-5.37,4.64,4.64,0,0,0-1.84-2.21L249,76.76a1.74,1.74,0,0,0-.27-.14,1.71,1.71,0,0,0-1.82-.33l-9.71,5.61c-.86.5-.86,2.09,0,3.57l5.31,9.2A4.53,4.53,0,0,0,244,96.31a1.56,1.56,0,0,0,1.55.15l1.22-.71v22.5A4.86,4.86,0,0,0,249,122L267.9,133c1.21.7,2.18.13,2.18-1.26v-22.5l1.23,2.12a4.42,4.42,0,0,0,1.54,1.63h0a1.56,1.56,0,0,0,1.55.15l5.31-3.07C280.56,109.54,280.56,108,279.71,106.47Z"/><path class="cls-14" d="M275.6,209.26l-34.35-19.83a32.3,32.3,0,0,0-1.43,9.09V220l15.74,9.09,2.87-16.52,2.86,19.83L277,241.49V220A50,50,0,0,0,275.6,209.26Z"/><polygon class="cls-14" points="275.6 202.65 241.25 182.82 241.25 187.78 275.6 207.61 275.6 202.65"/><path class="cls-14" d="M282.17,334.26,274.82,330l-2.6-1.51-.87-.51L265,324.33l-18.45-10.64h0l-7.6-4.39V298.74c0-1.05.73-1.48,1.65-1a3.78,3.78,0,0,1,1.49,2l.31,1a14.86,14.86,0,0,0,6.06,7.94c3.67,2.12,6.67.39,6.67-3.86v-1.28c0-1.3.92-1.85,2-1.19a4,4,0,0,1,1.31,1.31l2.93,4.49L258.07,310l1.83,3.14,3.46-2,1.5,2.31-3.15,1.82,1.81,3.15,3.33-1.92,1.5,2.31-3,1.74,1.81,3.15,3.19-1.84a23.51,23.51,0,0,0,7.09,6.79l.58.32A10.51,10.51,0,0,1,282.17,334.26Z"/><polygon class="cls-5" points="305.41 98.86 216.76 48 216.76 16.59 305.41 67.44 305.41 98.86"/><polygon class="cls-15" points="198.5 45.32 187.58 39.01 217.07 16.95 227.99 23.25 198.5 45.32"/><polygon class="cls-16" points="209.43 51.62 198.5 45.32 227.99 23.25 238.91 29.56 209.43 51.62"/><polygon class="cls-15" points="220.35 57.93 209.43 51.62 238.91 29.56 249.83 35.86 220.35 57.93"/><polygon class="cls-16" points="231.27 64.23 220.35 57.93 249.83 35.86 260.75 42.17 231.27 64.23"/><polygon class="cls-15" points="242.19 70.54 231.27 64.23 260.75 42.17 271.67 48.47 242.19 70.54"/><polygon class="cls-16" points="253.11 76.84 242.19 70.54 271.67 48.47 282.59 54.78 253.11 76.84"/><polygon class="cls-15" points="264.03 83.15 253.11 76.84 282.59 54.78 293.51 61.08 264.03 83.15"/><polygon class="cls-16" points="274.95 89.45 264.03 83.15 293.51 61.08 304.44 67.39 274.95 89.45"/><path class="cls-15" d="M193.12,48.39c3,1.74,5.46.33,5.46-3.15l-10.92-6.31A12.09,12.09,0,0,0,193.12,48.39Z"/><path class="cls-16" d="M204.05,54.69c3,1.75,5.46.33,5.46-3.15l-10.93-6.3A12.06,12.06,0,0,0,204.05,54.69Z"/><path class="cls-15" d="M215,61c3,1.74,5.46.33,5.46-3.15l-10.92-6.31A12.06,12.06,0,0,0,215,61Z"/><path class="cls-16" d="M225.89,67.31c3,1.74,5.46.32,5.46-3.16l-10.92-6.3A12.08,12.08,0,0,0,225.89,67.31Z"/><path class="cls-15" d="M236.81,73.61c3,1.74,5.46.33,5.46-3.15l-10.92-6.31A12.06,12.06,0,0,0,236.81,73.61Z"/><path class="cls-16" d="M247.73,79.92c3,1.74,5.46.33,5.46-3.16l-10.92-6.3A12.08,12.08,0,0,0,247.73,79.92Z"/><path class="cls-15" d="M258.65,86.22c3,1.74,5.46.33,5.46-3.15l-10.92-6.31A12,12,0,0,0,258.65,86.22Z"/><path class="cls-16" d="M269.57,92.53c3,1.74,5.46.33,5.46-3.16l-10.92-6.3A12.08,12.08,0,0,0,269.57,92.53Z"/><g class="cls-17"><path d="M193.12,48.39c3,1.74,5.46.33,5.46-3.15l-10.92-6.31A12.09,12.09,0,0,0,193.12,48.39Z"/><path d="M204.05,54.69c3,1.75,5.46.33,5.46-3.15l-10.93-6.3A12.06,12.06,0,0,0,204.05,54.69Z"/><path d="M215,61c3,1.74,5.46.33,5.46-3.15l-10.92-6.31A12.06,12.06,0,0,0,215,61Z"/><path d="M225.89,67.31c3,1.74,5.46.32,5.46-3.16l-10.92-6.3A12.08,12.08,0,0,0,225.89,67.31Z"/><path d="M236.81,73.61c3,1.74,5.46.33,5.46-3.15l-10.92-6.31A12.06,12.06,0,0,0,236.81,73.61Z"/><path d="M247.73,79.92c3,1.74,5.46.33,5.46-3.16l-10.92-6.3A12.08,12.08,0,0,0,247.73,79.92Z"/><path d="M258.65,86.22c3,1.74,5.46.33,5.46-3.15l-10.92-6.31A12,12,0,0,0,258.65,86.22Z"/><path d="M269.57,92.53c3,1.74,5.46.33,5.46-3.16l-10.92-6.3A12.08,12.08,0,0,0,269.57,92.53Z"/></g><polygon class="cls-1" points="380.78 394.51 341.29 371.71 346.24 368.84 385.74 391.63 380.78 394.51"/><polygon class="cls-18" points="396.04 385.91 356.39 363.01 361.35 317.79 391.09 334.96 396.04 385.91"/><polygon class="cls-19" points="385.74 391.63 346.08 368.74 351.04 323.52 380.78 340.69 385.74 391.63"/><polygon class="cls-20" points="385.74 391.63 396.04 385.91 391.09 334.96 380.78 340.69 385.74 391.63"/><polygon class="cls-18" points="351.04 323.52 361.35 317.79 360.14 328.77 351.04 323.52"/><path class="cls-8" d="M373.34,336.29l-1.83-1.06c0-4.27-2.51-9.19-5.6-11s-5.59.24-5.59,4.51l-1.84-1.06c0-5.43,3.34-7.93,7.43-5.57S373.34,330.86,373.34,336.29Z"/><path class="cls-8" d="M383,330.38l-1.83-1.06c0-4.27-2.51-9.19-5.6-11s-5.59.24-5.59,4.51l-1.84-1.06c0-5.43,3.34-7.93,7.43-5.57S383,325,383,330.38Z"/><polygon class="cls-1" points="345.26 423.43 288.36 390.6 295.5 386.45 352.4 419.29 345.26 423.43"/><polygon class="cls-18" points="367.24 411.04 310.12 378.06 317.26 312.92 360.1 337.66 367.24 411.04"/><polygon class="cls-19" points="352.4 419.29 295.27 386.31 302.41 321.17 345.26 345.9 352.4 419.29"/><polygon class="cls-20" points="352.4 419.29 367.24 411.04 360.1 337.66 345.26 345.9 352.4 419.29"/><polygon class="cls-18" points="302.41 321.17 317.26 312.92 315.52 328.74 302.41 321.17"/><path class="cls-8" d="M334.54,339.57,331.9,338c0-6.15-3.62-13.24-8.06-15.8s-8.07.34-8.07,6.49l-2.64-1.52c0-7.83,4.8-11.43,10.71-8S334.54,331.74,334.54,339.57Z"/><path class="cls-8" d="M348.47,331.06l-2.64-1.53c0-6.15-3.62-13.24-8.06-15.81s-8.07.35-8.07,6.5l-2.64-1.52c0-7.84,4.81-11.43,10.71-8S348.47,323.22,348.47,331.06Z"/><polygon class="cls-1" points="109.47 280.6 88.09 268.33 112.1 254.47 133.47 266.75 109.47 280.6"/><polygon class="cls-2" points="112.94 252.43 90.01 239.19 112.94 225.95 135.87 239.19 112.94 252.43"/><polygon class="cls-3" points="134.32 266.25 112.94 278.59 112.94 253.9 134.32 241.56 134.32 266.25"/><polygon class="cls-4" points="112.94 278.59 91.56 266.25 91.56 241.56 112.94 253.9 112.94 278.59"/><polygon class="cls-5" points="91.56 241.56 91.56 248.02 112.94 260.22 112.94 253.93 91.56 241.56"/><polygon class="cls-5" points="134.32 241.56 134.32 248.48 112.94 260.22 112.94 253.93 134.32 241.56"/><polygon class="cls-4" points="90.01 239.19 90.01 246.03 112.94 259.09 112.94 252.43 90.01 239.19"/><polygon class="cls-3" points="112.94 259.09 135.87 246.57 135.87 239.19 112.94 252.43 112.94 259.09"/><polygon class="cls-1" points="389.25 422.32 369.95 411.25 391.67 398.71 410.97 409.79 389.25 422.32"/><polygon class="cls-2" points="392.43 396.86 371.73 384.91 392.43 372.96 413.13 384.91 392.43 396.86"/><polygon class="cls-3" points="411.73 409.34 392.43 420.48 392.43 398.19 411.73 387.05 411.73 409.34"/><polygon class="cls-4" points="392.43 420.48 373.13 409.34 373.13 387.05 392.43 398.19 392.43 420.48"/><polygon class="cls-5" points="373.13 387.05 373.13 392.88 392.43 403.9 392.43 398.22 373.13 387.05"/><polygon class="cls-5" points="411.73 387.05 411.73 393.3 392.43 403.9 392.43 398.22 411.73 387.05"/><polygon class="cls-4" points="371.73 384.91 371.73 391.09 392.43 402.88 392.43 396.86 371.73 384.91"/><polygon class="cls-3" points="392.43 402.88 413.13 391.57 413.13 384.91 392.43 396.86 392.43 402.88"/><polygon class="cls-1" points="161.37 313.52 120.28 289.81 125.44 286.82 166.53 310.53 161.37 313.52"/><polygon class="cls-18" points="177.25 304.57 135.99 280.75 141.15 233.71 172.09 251.58 177.25 304.57"/><polygon class="cls-19" points="166.53 310.53 125.27 286.71 130.43 239.67 161.37 257.53 166.53 310.53"/><polygon class="cls-20" points="166.53 310.53 177.25 304.57 172.09 251.58 161.37 257.53 166.53 310.53"/><polygon class="cls-18" points="130.43 239.67 141.15 233.71 139.9 245.13 130.43 239.67"/><path class="cls-8" d="M153.63,253l-1.9-1.1c0-4.45-2.62-9.57-5.83-11.42s-5.82.25-5.82,4.69l-1.91-1.1c0-5.65,3.47-8.25,7.73-5.79S153.63,247.3,153.63,253Z"/><path class="cls-8" d="M163.69,246.81l-1.9-1.1c0-4.44-2.62-9.57-5.83-11.42s-5.82.25-5.82,4.69l-1.91-1.1c0-5.65,3.47-8.25,7.73-5.79S163.69,241.15,163.69,246.81Z"/><g id="Men_2"><ellipse class="cls-1" cx="43.6" cy="474.83" rx="43.6" ry="25.17"/><path id="_Контур_" data-name="&lt;Контур&gt;" class="cls-21" d="M11.63,286.29c-.49,4.24-5.54,22.52-4.46,28.78S25.52,331.8,25.52,331.8l2.4-10.72-9.57-9.36L20.94,294Z"/><path id="_Контур_2" data-name="&lt;Контур&gt;" class="cls-22" d="M25,268.28a7.54,7.54,0,0,0-9.61,2.91c-2.54,4.2-5.18,18.64-5.42,21.1,0,0,3.57,4.93,8.91,4.1Z"/><path class="cls-23" d="M44.71,472.07a14.77,14.77,0,0,0,11.17-1.35c2.69.08,17.3-6.17,19.29-.92,1.74,4.6-4.58,8.86-8,9.68-7.38,1.79-12.84,5.47-15.8,6.09-2.21.47-5.07.77-6.83-1C42.46,482.52,42.64,474.82,44.71,472.07Z"/><path class="cls-24" d="M51.4,484.3c3-.63,8.42-4.31,15.8-6.1,2.84-.68,7.72-3.78,8.21-7.48.66,4.24-5,8-8.21,8.76-7.38,1.79-12.84,5.47-15.8,6.09-2.21.47-5.07.77-6.83-1a4.38,4.38,0,0,1-1-1.77C46.17,485,49.19,484.76,51.4,484.3Z"/><path class="cls-23" d="M21,461.43a14.77,14.77,0,0,0,11.17-1.35c2.69.08,17.3-6.18,19.29-.92,1.74,4.6-4.58,8.86-8,9.68-7.38,1.79-12.84,5.47-15.8,6.09-2.21.47-5.07.77-6.83-1C18.76,471.88,18.94,464.17,21,461.43Z"/><path class="cls-24" d="M27.7,473.65c3-.62,8.42-4.3,15.8-6.09,2.84-.68,7.72-3.79,8.21-7.48.66,4.24-5.05,8-8.21,8.76-7.38,1.79-12.84,5.47-15.8,6.09-2.21.47-5.07.77-6.83-1a4.27,4.27,0,0,1-1-1.76C22.47,474.34,25.49,474.12,27.7,473.65Z"/><path id="_Контур_3" data-name="&lt;Контур&gt;" class="cls-25" d="M20.72,421.73a88.34,88.34,0,0,1,3.37-16s-1-13.81-1.51-26.9C22,364,16.85,350.88,20.92,339l45.85,10.2S64,408.46,63.38,415.63a134.42,134.42,0,0,1-2.05,16.64c-2.1,11.5-5.5,38.86-5.5,38.86-4.85,2.81-11.21,1.25-11.21,1.25s.35-34.59.66-42.88c.38-10.12.69-9.35.69-9.35L44.46,395l-1-12.54s-1.27,9.2-2.09,17.42c-.72,7.17-2.45,13.65-4.39,27-1.67,11.57-4.39,34.83-4.39,34.83-4.85,2.82-11.43.48-11.43.48S19.4,431.77,20.72,421.73Z"/><path id="_Контур_4" data-name="&lt;Контур&gt;" class="cls-21" d="M27.41,268.53c3.49.17,6.09,1.07,6.53,0a47.32,47.32,0,0,0,.8-5.46c-.41-1-.75-2.1-.75-2.1-4.39-2.7-5.77-7.44-6.35-13-1-9.43,4.11-17.68,13.55-18.67,8.86-.92,15.39,5.31,17.13,13.86.94,4.23,2.8,12.21.28,19.16-1.41,3.89-3.23,7-5.05,7.57a42.31,42.31,0,0,1-5.24-.46h0s-.47,2.62-.79,4.3-.2,2.57,3.15,4.63-5.06,6.3-10.56,5.89-11.68-3.74-13.37-7.29C24.85,273.08,25,268.42,27.41,268.53Z"/><path id="_Контур_5" data-name="&lt;Контур&gt;" class="cls-26" d="M32.46,269.05c-1,2.41,1.49,5.36,8,7.42s7.15-.59,7.15-.59,9.62,4.38,12.75,6.57c3.93,2.75,5.68,10.71,6.21,24.15.61,15.56.67,38.64.15,42.62,0,0-7.36,7.33-16.77,6.56s-25.25-9.11-29.1-15.54c.11-13.64,1.71-15.86-.5-23.72-5.06-18-7.72-25.35-5.26-37.3,2-9.85,4.86-11.08,8.75-11A78.88,78.88,0,0,1,32.46,269.05Z"/><path id="_Контур_6" data-name="&lt;Контур&gt;" class="cls-21" d="M81.42,319.47c-7.73,1.94-9.54-2.93-10.56-7-2.46-9.77-3.78-18.59-5.61-24.13-2.16-6.54-4.42-7.58-7.6-8.85-3.73-1.5-6.94,1.65-5.69,10,1.46,9.85,3.39,16.76,7.07,28.4,1,3,3.12,8.45,6.35,11.06,4,3.22,10,3.08,19.07.83,3.87-1,8.12-3.28,15.45-6.7,2-.92,3.5-1.53,7.27-3.29s7.7-4.69,9.68-7.56,1.64-4.68,1.23-5.33c-.51-.82-.79-.17-1.85,1a21.09,21.09,0,0,1-5.56,5.14s2.44-2.52,3.77-4.16a21.07,21.07,0,0,0,2.92-4.77c.7-1.67-.74-3.94-1.84-2.75s-1.61,2.4-3.61,4.8a20.68,20.68,0,0,1-3.58,3.41,39.43,39.43,0,0,0,3.3-5.3c1.27-2.59-3-1.24-5.39,1.28-1.77,1.83-3.27,2.89-3.31,2.38s-3.49,3.19-5.24,5C95.79,315.05,88.76,317.62,81.42,319.47Z"/><path id="_Контур_7" data-name="&lt;Контур&gt;" class="cls-22" d="M54.79,278.19c5.16-.76,8.81,1.56,11.08,9.38s3.88,14.23,3.88,14.23a14,14,0,0,1-8.65,5.74c-6.17,1.5-8.39-1.45-8.39-1.45S51,297.9,49.93,292.32,48.41,279.14,54.79,278.19Z"/><path class="cls-27" d="M58,242s8.15-12.4-9.51-14.92c-12.74-1.82-20.92,6.36-21.87,15.24-.9,8.49,4.32,17.3,8.1,20.79,1.84.66,5.8,1,11-1.33a62.62,62.62,0,0,0,.25-6.95S39.78,241.77,58,242Z"/></g><path class="cls-21" d="M99.4,309.73s-2-3.65-.74-4.56,3.09,2.51,3.46,3.85-.14-.41-.14-.41-1.37-4.12-.48-4.91,2.09,1,3.28,3.56.3-.23.3-.23-2-4.13-1.13-4.7c1.13-.77,3,1.68,4.11,3.89s-1.49,4.82-1.49,4.82Z"/><g id="Mobile"><path class="cls-6" d="M103.26,316.25l-7.49-4.33c-.63-.36-.55-1,.18-1.42L114,300.05a2.74,2.74,0,0,1,2.47-.1l7.49,4.32c.63.37.55,1-.18,1.43l-18.09,10.44A2.74,2.74,0,0,1,103.26,316.25Z"/><polygon class="cls-6" points="95.34 311.3 95.34 310.61 96.15 310.91 95.34 311.3"/><polygon class="cls-6" points="124.42 304.87 124.42 304.21 123.78 304.62 124.42 304.87"/><path class="cls-7" d="M103.26,315.66l-7.49-4.32c-.63-.37-.55-1,.18-1.43L114,299.47a2.74,2.74,0,0,1,2.47-.1l7.49,4.32c.63.37.55,1-.18,1.43l-18.09,10.44A2.74,2.74,0,0,1,103.26,315.66Z"/><ellipse class="cls-12" cx="96.61" cy="312.11" rx="0.08" ry="0.14" transform="matrix(0.87, -0.5, 0.5, 0.87, -143.12, 90.12)"/><ellipse class="cls-12" cx="96.97" cy="312.31" rx="0.08" ry="0.14" transform="translate(-143.17 90.33) rotate(-30)"/><ellipse class="cls-12" cx="97.33" cy="312.52" rx="0.08" ry="0.14" transform="translate(-143.23 90.54) rotate(-30)"/><ellipse class="cls-12" cx="97.69" cy="312.73" rx="0.08" ry="0.14" transform="translate(-143.28 90.75) rotate(-30)"/><ellipse class="cls-12" cx="100.78" cy="314.52" rx="0.08" ry="0.14" transform="translate(-143.76 92.53) rotate(-30)"/><ellipse class="cls-12" cx="101.14" cy="314.72" rx="0.08" ry="0.14" transform="translate(-143.82 92.74) rotate(-30)"/><ellipse class="cls-12" cx="101.5" cy="314.93" rx="0.08" ry="0.14" transform="translate(-143.87 92.95) rotate(-30)"/><ellipse class="cls-12" cx="101.86" cy="315.14" rx="0.08" ry="0.14" transform="matrix(0.87, -0.5, 0.5, 0.87, -143.93, 93.16)"/><path class="cls-12" d="M99.73,314.06l-1-.57a.28.28,0,0,1-.11-.22h0c0-.08.05-.12.11-.08l1,.57a.26.26,0,0,1,.11.21h0C99.84,314.06,99.79,314.1,99.73,314.06Z"/><path class="cls-12" d="M122.16,306.51l-.92.53c-.06,0-.11,0-.11-.08h0a.27.27,0,0,1,.11-.2l.92-.53c.06,0,.1,0,.1.08h0A.23.23,0,0,1,122.16,306.51Z"/><path class="cls-12" d="M120.75,307.33l-.92.53c-.06,0-.11,0-.11-.08h0a.24.24,0,0,1,.11-.2l.92-.54c.06,0,.1,0,.1.08h0A.27.27,0,0,1,120.75,307.33Z"/><path class="cls-8" d="M103.26,315.56l-7.49-4.33c-.63-.36-.55-1,.18-1.42L114,299.36a2.77,2.77,0,0,1,2.47-.1l7.49,4.32c.63.37.55,1-.18,1.43l-18.09,10.44A2.74,2.74,0,0,1,103.26,315.56Z"/><path class="cls-10" d="M123.19,303.76l-2.92-1.69h0a1.38,1.38,0,0,1-1.25,0,.38.38,0,0,1,0-.72h0l-2.92-1.69a1.76,1.76,0,0,0-1.61,0L96.87,309.83a.49.49,0,0,0,0,.93l7.1,4.09a1.76,1.76,0,0,0,1.61,0l17.61-10.17A.48.48,0,0,0,123.19,303.76Z"/><path class="cls-28" d="M123.19,303.76l-2.92-1.69h0a1.38,1.38,0,0,1-1.25,0,.38.38,0,0,1,0-.72h0l-2.92-1.69a1.76,1.76,0,0,0-1.61,0L96.87,309.83a.49.49,0,0,0,0,.93l7.1,4.09a1.76,1.76,0,0,0,1.61,0l17.61-10.17A.48.48,0,0,0,123.19,303.76Z"/><ellipse class="cls-10" cx="119.45" cy="301.82" rx="0.34" ry="0.19"/><path class="cls-11" d="M119.35,301.88c-.06,0-.06-.08,0-.11a.18.18,0,0,1,.2,0,.06.06,0,0,1,0,.11A.23.23,0,0,1,119.35,301.88Z"/></g><path class="cls-21" d="M114.9,314.52s4-3.57,3.77-8.3c-.24-3.3-2.23-.92-2.23-.92l-2,3.63s-2,2.59-3.84,3.18a41.46,41.46,0,0,0-4.19.62c-2.46.48-4.91,3.55-4.91,3.55l3.17,2.43Z"/><path class="cls-14" d="M424.67,138.6,401.17,125a3,3,0,0,0-2.63-.36h0a2.17,2.17,0,0,0-.53.31l-4.31,2.47,3,4.16v22.33c0,3.28,2,7.09,4.46,8.51l20.73,12,.68,4.69c.14-.07,3.71-2.12,4.84-2.78a1.92,1.92,0,0,0,.31-.18l0,0h0a4.15,4.15,0,0,0,1.35-3.48V147.11C429.12,143.83,427.13,140,424.67,138.6Z"/><path class="cls-29" d="M419.81,178.81l-23.5-13.57c-2.46-1.42-4.45-5.23-4.45-8.51V131.18c0-3.28,2-4.78,4.45-3.36l23.5,13.56c2.46,1.42,4.46,5.24,4.46,8.52v25.54C424.27,178.72,422.27,180.23,419.81,178.81Z"/><path class="cls-15" d="M398.79,140.75c0-1.44.41-2.37,1.22-2.8s1.87-.27,3.18.49a8.89,8.89,0,0,1,3.21,3.18,8.23,8.23,0,0,1,1.21,4.3v1.16c0,1.45-.4,2.38-1.21,2.8s-1.87.24-3.18-.52a8.81,8.81,0,0,1-3.21-3.18,8.21,8.21,0,0,1-1.22-4.29Zm2.68,2.79a3.73,3.73,0,0,0,.48,1.83,3.3,3.3,0,0,0,1.27,1.32c.52.3.93.34,1.24.12a1.59,1.59,0,0,0,.46-1.33v-1.19a3.88,3.88,0,0,0-.46-1.83,3.26,3.26,0,0,0-1.27-1.33A1.14,1.14,0,0,0,402,141c-.32.21-.48.66-.48,1.36ZM404,161l-2-2.36L412,146l2,2.36Zm4.49-1.4c0-1.45.41-2.38,1.23-2.8s1.88-.24,3.18.51a9,9,0,0,1,3.2,3.16,8.18,8.18,0,0,1,1.22,4.33v1.16c0,1.43-.4,2.37-1.2,2.79s-1.86.25-3.19-.52a8.79,8.79,0,0,1-3.22-3.19,8.21,8.21,0,0,1-1.22-4.25Zm2.68,2.8a3.81,3.81,0,0,0,.5,1.81,3.44,3.44,0,0,0,1.26,1.35c1.13.66,1.7.26,1.7-1.19v-1.23a3.77,3.77,0,0,0-.47-1.82,3.35,3.35,0,0,0-1.26-1.32,1.15,1.15,0,0,0-1.25-.13,1.48,1.48,0,0,0-.48,1.32Z"/><path class="cls-14" d="M124.06,67.34l-23.5-13.57a3,3,0,0,0-2.63-.36h0a2.61,2.61,0,0,0-.53.31l-4.31,2.47,3,4.16V82.68c0,3.28,2,7.09,4.45,8.51l20.73,12,.69,4.7,4.83-2.79a3.07,3.07,0,0,0,.31-.17l0,0h0a4.11,4.11,0,0,0,1.36-3.48V75.85C128.52,72.57,126.52,68.76,124.06,67.34Z"/><path class="cls-29" d="M119.21,107.55,95.71,94c-2.46-1.42-4.46-5.23-4.46-8.51V59.93c0-3.28,2-4.79,4.46-3.37l23.5,13.57c2.46,1.42,4.45,5.23,4.45,8.51v25.54C123.66,107.46,121.67,109,119.21,107.55Z"/><polygon class="cls-30" points="107.46 69.99 110.64 79.28 117.77 84.59 112.61 87.42 113.83 96.31 107.46 88.77 101.08 88.95 102.3 81.46 97.14 72.68 104.27 75.6 107.46 69.99"/></g></g></svg>