<svg xmlns="http://www.w3.org/2000/svg" viewBox="0 0 497.75 500"><defs><style>.cls-1{fill:#fafbff;}.cls-2{fill:#d8dae5;}.cls-3{fill:#d6d8e5;opacity:0.3;}.cls-4{fill:#caccd8;}.cls-5{opacity:0.02;}.cls-6{fill:#e4e6ef;}.cls-7{fill:#2b303f;}.cls-8{fill:#798093;}.cls-9{fill:#6ac259;}.cls-10{fill:#ffd252;}.cls-11{fill:#ff6c6c;}.cls-12{fill:#dd990e;}.cls-13{fill:#f9cb07;}.cls-14{fill:#cc8b09;}.cls-15{fill:#e8a30a;}.cls-16{fill:#f9ca06;}</style></defs><title>payment_completed_SVG</title><g id="Слой_2" data-name="Слой 2"><g id="Слой_1-2" data-name="Слой 1"><g id="Window"><polygon class="cls-1" points="486.44 458.44 156.37 267.87 156.37 6.53 486.44 197.1 486.44 458.44"/><polygon class="cls-2" points="486.44 197.1 156.37 6.53 167.68 0 497.75 190.56 486.44 197.1"/><path class="cls-3" d="M409.79,452.83,190.62,326.3c-2.6-1.5-2.11-6.08.87-8.25h0a3.86,3.86,0,0,1,4.18-.5L414.84,444.09c2.59,1.5,2.11,6.08-.87,8.24h0A3.83,3.83,0,0,1,409.79,452.83Z"/><polygon class="cls-4" points="497.75 451.88 486.44 458.42 486.44 197.08 497.75 190.54 497.75 451.88"/><polygon class="cls-5" points="497.75 222.89 486.44 229.42 486.44 197.08 497.75 190.54 497.75 222.89"/><polygon class="cls-6" points="486.44 229.44 156.37 38.88 156.37 6.53 486.44 197.1 486.44 229.44"/><path class="cls-7" d="M281.05,244c-.08-.13-.22-.34-.43-.62a11,11,0,0,0-.77-.9c-.3-.32-.62-.64-1-.95a7.35,7.35,0,0,0-1.07-.77,2.14,2.14,0,0,0-1.45-.42c-.31.09-.47.38-.47.88a1.92,1.92,0,0,0,.18.82,4.08,4.08,0,0,0,.51.8,11.46,11.46,0,0,0,.86.89l1.2,1.06c.59.52,1.12,1,1.6,1.51a10.89,10.89,0,0,1,1.23,1.49,6.79,6.79,0,0,1,.77,1.58,5.57,5.57,0,0,1,.27,1.77,3.18,3.18,0,0,1-.37,1.7,1.5,1.5,0,0,1-1,.72,3,3,0,0,1-1.43-.11,7.85,7.85,0,0,1-1.68-.75,15.49,15.49,0,0,1-2.69-2,18.49,18.49,0,0,1-2.37-2.71l1-1.73a7.64,7.64,0,0,0,.55.78c.27.34.58.71.95,1.11a14.94,14.94,0,0,0,1.2,1.18,8.79,8.79,0,0,0,1.36,1c1.29.74,1.93.64,1.93-.32a1.92,1.92,0,0,0-.22-.89,4.2,4.2,0,0,0-.62-.91,13.16,13.16,0,0,0-1-1L276.89,246a19.24,19.24,0,0,1-1.5-1.46,8.49,8.49,0,0,1-1.06-1.38,6,6,0,0,1-.64-1.39,5.13,5.13,0,0,1-.21-1.5,3.55,3.55,0,0,1,.34-1.69,1.67,1.67,0,0,1,.94-.82,2.53,2.53,0,0,1,1.4,0,6.48,6.48,0,0,1,1.72.71,11.47,11.47,0,0,1,2.34,1.81,19,19,0,0,1,1.86,2.17Z"/><path class="cls-7" d="M286.77,257.73a5.21,5.21,0,0,1-2.09-2.22,7.69,7.69,0,0,1-.71-3.43v-6.43l2.27,1.31v5.86a3.41,3.41,0,0,0,1.48,3.23,1.92,1.92,0,0,0,1.28.28,1.42,1.42,0,0,0,1-.82v-6.37l2.28,1.31v7.26a1.56,1.56,0,0,0,.12.66,1.23,1.23,0,0,0,.42.43V261a6,6,0,0,1-.57-.23l-.41-.22a3.22,3.22,0,0,1-1-.9,2.57,2.57,0,0,1-.45-1.15l0-.86a1.84,1.84,0,0,1-1.53.71A4.33,4.33,0,0,1,286.77,257.73Z"/><path class="cls-7" d="M294,256.57a4.76,4.76,0,0,1,.33-1.86,2.32,2.32,0,0,1,.93-1.14,2.37,2.37,0,0,1,1.48-.3,4.69,4.69,0,0,1,1.95.69,8.6,8.6,0,0,1,2.49,2.16,9.81,9.81,0,0,1,1.53,2.79l-2.22-.5a4.84,4.84,0,0,0-.76-1.31,3.76,3.76,0,0,0-1.06-.91,2,2,0,0,0-.91-.31,1.21,1.21,0,0,0-.74.2,1.48,1.48,0,0,0-.5.69,3.44,3.44,0,0,0-.17,1.15,5.24,5.24,0,0,0,.18,1.36,6.46,6.46,0,0,0,.5,1.27,5.13,5.13,0,0,0,.74,1.06,3.82,3.82,0,0,0,.9.75,2,2,0,0,0,1.13.3.85.85,0,0,0,.72-.45l2.23,2.07a1.86,1.86,0,0,1-1.51,1.05,4.16,4.16,0,0,1-2.53-.72,8.12,8.12,0,0,1-2-1.55,10.63,10.63,0,0,1-1.47-2,11,11,0,0,1-.95-2.25A8.18,8.18,0,0,1,294,256.57Z"/><path class="cls-7" d="M303.56,262.09a4.94,4.94,0,0,1,.32-1.85,2.38,2.38,0,0,1,.93-1.14,2.44,2.44,0,0,1,1.48-.31,4.77,4.77,0,0,1,1.95.7,8.35,8.35,0,0,1,2.49,2.16,9.85,9.85,0,0,1,1.54,2.79l-2.23-.5a4.79,4.79,0,0,0-.76-1.32,4,4,0,0,0-1-.91,2,2,0,0,0-.92-.3,1.17,1.17,0,0,0-.74.2,1.46,1.46,0,0,0-.49.69,3.19,3.19,0,0,0-.18,1.15,4.91,4.91,0,0,0,.19,1.36,6.1,6.1,0,0,0,.5,1.27,5,5,0,0,0,.74,1.06,3.67,3.67,0,0,0,.9.75,1.93,1.93,0,0,0,1.12.3.88.88,0,0,0,.73-.45l2.22,2.07a1.88,1.88,0,0,1-1.51,1.05,4.17,4.17,0,0,1-2.53-.72,8.58,8.58,0,0,1-1.95-1.56,10.38,10.38,0,0,1-1.48-2,10.15,10.15,0,0,1-.94-2.24A8.2,8.2,0,0,1,303.56,262.09Z"/><path class="cls-7" d="M317.82,275.66a8.44,8.44,0,0,1-1.94-1.54,9.81,9.81,0,0,1-1.47-2,10.11,10.11,0,0,1-1-2.23,8,8,0,0,1-.33-2.21,5,5,0,0,1,.32-1.88,2.23,2.23,0,0,1,2.42-1.48,4.79,4.79,0,0,1,2,.71,7.89,7.89,0,0,1,1.95,1.55,10.45,10.45,0,0,1,1.46,2,9.81,9.81,0,0,1,.91,2.21,8.22,8.22,0,0,1,.32,2.18c0,.17,0,.33,0,.49a3,3,0,0,1,0,.37l-6.88-4a5,5,0,0,0,.26,1.22,5.62,5.62,0,0,0,.52,1.11,5.27,5.27,0,0,0,.73.93,4.31,4.31,0,0,0,.85.67,2.24,2.24,0,0,0,1.28.35.89.89,0,0,0,.83-.53l1.95,1.75a2,2,0,0,1-1.57,1A4.28,4.28,0,0,1,317.82,275.66Zm2.31-4.86a5.11,5.11,0,0,0-.74-2.28,4.54,4.54,0,0,0-1.59-1.61,2.2,2.2,0,0,0-.86-.31,1.24,1.24,0,0,0-.7.11,1.26,1.26,0,0,0-.5.52,2.09,2.09,0,0,0-.23.9Z"/><path class="cls-7" d="M327.22,281.09a11,11,0,0,1-2.19-1.68,12.06,12.06,0,0,1-1.83-2.23l.85-1.16a16.89,16.89,0,0,0,1.58,1.93,7.82,7.82,0,0,0,1.54,1.23,1.71,1.71,0,0,0,1.07.32c.26-.05.39-.25.39-.62a1.61,1.61,0,0,0-.46-1.07,19.62,19.62,0,0,0-1.49-1.45c-.58-.51-1.07-1-1.48-1.38a7.89,7.89,0,0,1-1-1.14,4.49,4.49,0,0,1-.55-1.06,3.68,3.68,0,0,1-.17-1.11,2.56,2.56,0,0,1,.27-1.26,1.29,1.29,0,0,1,.74-.64,2.14,2.14,0,0,1,1.11,0,4.82,4.82,0,0,1,1.38.57,10,10,0,0,1,1.88,1.41,10.63,10.63,0,0,1,1.6,2l-.92,1.06a11.3,11.3,0,0,0-1.31-1.62,6.17,6.17,0,0,0-1.27-1,1.55,1.55,0,0,0-1-.28c-.27,0-.39.25-.39.65a1.4,1.4,0,0,0,.09.51,1.87,1.87,0,0,0,.3.48,6.24,6.24,0,0,0,.53.58c.22.21.5.46.82.74.61.53,1.14,1,1.57,1.45a8.73,8.73,0,0,1,1.07,1.25,4.48,4.48,0,0,1,.61,1.16,3.76,3.76,0,0,1,.2,1.22c0,1-.32,1.62-1,1.83A3.51,3.51,0,0,1,327.22,281.09Z"/><path class="cls-7" d="M335.66,286a11,11,0,0,1-2.19-1.68,11.73,11.73,0,0,1-1.84-2.23l.85-1.16a18,18,0,0,0,1.59,1.93,7.82,7.82,0,0,0,1.54,1.23,1.71,1.71,0,0,0,1.07.32c.26,0,.39-.25.39-.62a1.62,1.62,0,0,0-.46-1.06,20.18,20.18,0,0,0-1.5-1.45c-.57-.52-1.06-1-1.47-1.39a8,8,0,0,1-1-1.14,3.94,3.94,0,0,1-.54-1.06,3.68,3.68,0,0,1-.17-1.11,2.68,2.68,0,0,1,.26-1.26,1.32,1.32,0,0,1,.74-.64,2.06,2.06,0,0,1,1.11,0,4.45,4.45,0,0,1,1.39.56,10,10,0,0,1,1.87,1.41,10.67,10.67,0,0,1,1.61,2l-.92,1.06a10.67,10.67,0,0,0-1.32-1.62,5.87,5.87,0,0,0-1.26-1,1.58,1.58,0,0,0-1-.28c-.26,0-.39.25-.39.65a1.22,1.22,0,0,0,.1.51,2.11,2.11,0,0,0,.29.48c.14.17.32.36.54.58s.49.46.82.74c.61.53,1.13,1,1.57,1.45a9.43,9.43,0,0,1,1.07,1.25,4.48,4.48,0,0,1,.61,1.16,3.76,3.76,0,0,1,.2,1.22c0,1-.33,1.62-1,1.83A3.45,3.45,0,0,1,335.66,286Z"/><path class="cls-8" d="M257.84,257v3.64l-1.06-.62v-9.29l3,1.72a5.68,5.68,0,0,1,2.07,2,4.69,4.69,0,0,1,.75,2.49c0,.9-.24,1.46-.73,1.66a2.49,2.49,0,0,1-2.1-.48Zm0-1,1.9,1.1a1.55,1.55,0,0,0,1.31.29q.45-.21.45-1.08a3.09,3.09,0,0,0-.45-1.59,3.59,3.59,0,0,0-1.24-1.24l-2-1.13Z"/><path class="cls-8" d="M267.39,266.18a3.92,3.92,0,0,1-.15-.81,1.59,1.59,0,0,1-1.7-.13,4.16,4.16,0,0,1-1.45-1.41,3.37,3.37,0,0,1-.57-1.8c0-.71.24-1.14.71-1.26a2.9,2.9,0,0,1,2,.56l1,.57v-.54a2.31,2.31,0,0,0-.32-1.17,2.55,2.55,0,0,0-1-.92,1.22,1.22,0,0,0-.92-.21.52.52,0,0,0-.37.56l-1-.59a1.07,1.07,0,0,1,.31-.82,1.13,1.13,0,0,1,.87-.26,2.73,2.73,0,0,1,1.19.41,4.59,4.59,0,0,1,1.62,1.53,3.9,3.9,0,0,1,.61,2v3.18a5.64,5.64,0,0,0,.21,1.64v.1Zm-1.7-1.88a1.64,1.64,0,0,0,.91.24.77.77,0,0,0,.63-.39v-1.41l-.8-.47c-1.26-.72-1.88-.66-1.88.19a1.85,1.85,0,0,0,.32,1.05A2.3,2.3,0,0,0,265.69,264.3Z"/><path class="cls-8" d="M271.72,267l1.4-4.37,1.09.63-2.4,6.59c-.37.93-1,1.16-1.78.69l-.19-.13-.38-.3v-1l.28.19a1.14,1.14,0,0,0,.8.22c.2-.05.36-.25.48-.61l.23-.57-2.13-8.06,1.11.65Z"/><path class="cls-8" d="M276.08,264.3l0,.78c.44-.34,1-.3,1.78.13a3.67,3.67,0,0,1,1.7,2.09,1.14,1.14,0,0,1,.78-.35,2.08,2.08,0,0,1,1.13.34,3.9,3.9,0,0,1,2,3.57v4.62l-1-.59v-4.55a2.58,2.58,0,0,0-.3-1.28,2.48,2.48,0,0,0-1-.94,1,1,0,0,0-.94-.15.91.91,0,0,0-.44.81v4.58l-1-.6v-4.52a2.42,2.42,0,0,0-1.27-2.24c-.67-.39-1.13-.33-1.38.19v5l-1-.59v-6.9Z"/><path class="cls-8" d="M287.52,277.93a5.31,5.31,0,0,1-2-2.06,6,6,0,0,1-.76-2.91v-.22a3.41,3.41,0,0,1,.34-1.63,1.34,1.34,0,0,1,.95-.72,2,2,0,0,1,1.33.31,4.63,4.63,0,0,1,1.81,1.93,6.3,6.3,0,0,1,.64,2.91v.5l-4.05-2.34a4.3,4.3,0,0,0,.52,1.95,3.37,3.37,0,0,0,1.26,1.35,1.52,1.52,0,0,0,.91.27,1.08,1.08,0,0,0,.66-.29l.63.92C289.28,278.5,288.52,278.51,287.52,277.93Zm-.12-6.26a.93.93,0,0,0-1-.08,1.49,1.49,0,0,0-.52,1.16l3,1.73v-.09a3.86,3.86,0,0,0-.42-1.64A2.71,2.71,0,0,0,287.4,271.67Z"/><path class="cls-8" d="M292,273.49l0,.88c.45-.4,1-.38,1.79,0a3.85,3.85,0,0,1,1.91,3.58v4.56l-1-.59v-4.57a2.78,2.78,0,0,0-.3-1.28,2.29,2.29,0,0,0-.9-.87,1.17,1.17,0,0,0-.88-.2.88.88,0,0,0-.58.46v4.92l-1-.59v-6.9Z"/><path class="cls-8" d="M298.67,275.66v1.67l1.11.65v.91l-1.11-.64v4.28a1.52,1.52,0,0,0,.15.71,1.2,1.2,0,0,0,.5.5,3,3,0,0,0,.49.21v.95a3,3,0,0,1-.78-.33,2.61,2.61,0,0,1-1-1.07,3.38,3.38,0,0,1-.34-1.56v-4.28l-1.09-.63v-.91l1.09.62v-1.67Z"/><path class="cls-8" d="M306.18,287.74a1.12,1.12,0,0,0,.95.17.72.72,0,0,0,.46-.7l1,.56a1.41,1.41,0,0,1-.35.93,1.15,1.15,0,0,1-.87.35,2.24,2.24,0,0,1-1.15-.35,5.11,5.11,0,0,1-1.95-2.06,6.29,6.29,0,0,1-.72-3v-.2a3.49,3.49,0,0,1,.32-1.61,1.23,1.23,0,0,1,.92-.69,2.29,2.29,0,0,1,1.42.39,4.74,4.74,0,0,1,1.67,1.66,4.47,4.47,0,0,1,.71,2.22l-1-.56a3,3,0,0,0-.44-1.36,2.74,2.74,0,0,0-1-1c-.52-.3-.92-.32-1.21-.05a2.3,2.3,0,0,0-.42,1.63v.22a4.83,4.83,0,0,0,.42,2.08A3,3,0,0,0,306.18,287.74Z"/><path class="cls-8" d="M309.43,286.94a3.31,3.31,0,0,1,.35-1.63,1.25,1.25,0,0,1,1-.69,2.2,2.2,0,0,1,1.41.37,5.14,5.14,0,0,1,2,2.12,6.36,6.36,0,0,1,.75,3v.08a3.43,3.43,0,0,1-.33,1.62,1.26,1.26,0,0,1-1,.69,2.24,2.24,0,0,1-1.42-.38,5.11,5.11,0,0,1-2-2.11,6.24,6.24,0,0,1-.76-3Zm1,.73a4.76,4.76,0,0,0,.46,2.11,3.14,3.14,0,0,0,1.24,1.41c.51.3.93.3,1.23,0a2.35,2.35,0,0,0,.46-1.71,4.82,4.82,0,0,0-.46-2.11,3.23,3.23,0,0,0-1.24-1.42c-.51-.29-.92-.3-1.23,0A2.35,2.35,0,0,0,310.46,287.67Z"/><path class="cls-8" d="M317.12,288l0,.78c.43-.34,1-.3,1.77.13a3.64,3.64,0,0,1,1.71,2.1,1.08,1.08,0,0,1,.77-.36,2,2,0,0,1,1.13.35,3.85,3.85,0,0,1,2,3.56v4.62l-1-.59V294a2.69,2.69,0,0,0-.29-1.28,2.46,2.46,0,0,0-1-.93,1.06,1.06,0,0,0-.95-.16.91.91,0,0,0-.44.81v4.58l-1-.6v-4.52a2.42,2.42,0,0,0-1.28-2.24c-.67-.39-1.13-.32-1.38.19v5l-1-.59v-6.9Z"/><path class="cls-8" d="M331.13,299.6a3,3,0,0,1-.63,2.18c-.41.4-1,.4-1.69,0A4.41,4.41,0,0,1,327.1,300v3.33l-1-.59v-9.56l.93.54.05.79c.42-.35,1-.32,1.73.11a4.36,4.36,0,0,1,1.71,1.92,6.75,6.75,0,0,1,.63,3Zm-1-.72a4.82,4.82,0,0,0-.43-2.09,2.89,2.89,0,0,0-1.18-1.36c-.62-.36-1.08-.31-1.39.14v3.3a3.26,3.26,0,0,0,1.4,1.76q.74.42,1.17,0A2.52,2.52,0,0,0,330.1,298.88Z"/><path class="cls-8" d="M333.53,304.37l-1-.59V294l1,.59Z"/><path class="cls-8" d="M337.65,306.87a5.25,5.25,0,0,1-2-2.06,6,6,0,0,1-.76-2.91v-.21a3.33,3.33,0,0,1,.34-1.64,1.32,1.32,0,0,1,.95-.72,2,2,0,0,1,1.32.31,4.59,4.59,0,0,1,1.82,1.93,6.34,6.34,0,0,1,.64,2.92V305l-4.05-2.34a4.3,4.3,0,0,0,.52,1.95,3.31,3.31,0,0,0,1.26,1.35,1.62,1.62,0,0,0,.91.28,1.18,1.18,0,0,0,.66-.3l.63.92C339.41,307.44,338.65,307.45,337.65,306.87Zm-.13-6.26a.94.94,0,0,0-1-.08,1.51,1.51,0,0,0-.52,1.16l3,1.73v-.09a3.9,3.9,0,0,0-.42-1.64A2.66,2.66,0,0,0,337.52,300.61Z"/><path class="cls-8" d="M342.55,301v1.67l1.12.65v.91l-1.12-.65v4.29a1.55,1.55,0,0,0,.15.71,1.23,1.23,0,0,0,.51.5,2.64,2.64,0,0,0,.49.21v.95a3.16,3.16,0,0,1-.79-.33,2.53,2.53,0,0,1-1-1.07,3.44,3.44,0,0,1-.35-1.56V303l-1.09-.62v-.92l1.09.63v-1.67Z"/><path class="cls-8" d="M347.34,312.47a5.25,5.25,0,0,1-2-2.07,5.8,5.8,0,0,1-.77-2.9v-.22a3.48,3.48,0,0,1,.34-1.64,1.35,1.35,0,0,1,.95-.71,2,2,0,0,1,1.33.31,4.63,4.63,0,0,1,1.81,1.93,6.3,6.3,0,0,1,.65,2.91v.49l-4.06-2.33a4.29,4.29,0,0,0,.52,1.94,3.4,3.4,0,0,0,1.26,1.36,1.55,1.55,0,0,0,.92.27,1.05,1.05,0,0,0,.65-.29l.63.92C349.1,313,348.35,313.05,347.34,312.47Zm-.12-6.26a.93.93,0,0,0-1-.08,1.49,1.49,0,0,0-.52,1.15l3,1.73v-.09a3.85,3.85,0,0,0-.42-1.63A2.58,2.58,0,0,0,347.22,306.21Z"/><path class="cls-8" d="M350.61,310.72a2.89,2.89,0,0,1,.65-2.18,1.36,1.36,0,0,1,1.71,0,4.24,4.24,0,0,1,1.66,1.79v-3.6l1,.59v9.8l-.93-.54-.05-.77q-.62.51-1.71-.12a4.31,4.31,0,0,1-1.7-2,6.8,6.8,0,0,1-.65-2.94Zm1,.72a4.89,4.89,0,0,0,.42,2.08,2.91,2.91,0,0,0,1.16,1.34c.65.37,1.12.31,1.42-.19V311.5a3.2,3.2,0,0,0-1.41-1.79c-.5-.29-.89-.3-1.17,0A2.57,2.57,0,0,0,351.63,311.44Z"/><path class="cls-9" d="M306.16,170.11c-14.21-8.2-25.72-1.55-25.72,14.85S292,221.3,306.16,229.5s25.71,1.56,25.71-14.84S320.36,178.31,306.16,170.11Zm-4.72,42.23-11.33-19.62,3.78-2.17,7.55,13.07,17-9.81,3.78,6.54Z"/><ellipse class="cls-9" cx="169.77" cy="30.31" rx="3.21" ry="5.56" transform="translate(7.59 88.95) rotate(-30)"/><ellipse class="cls-10" cx="181.56" cy="37.11" rx="3.21" ry="5.56" transform="translate(5.77 95.76) rotate(-30)"/><ellipse class="cls-11" cx="193.34" cy="43.92" rx="3.21" ry="5.56" transform="translate(3.95 102.56) rotate(-30)"/></g><g id="Coin"><ellipse class="cls-3" cx="47.94" cy="386.03" rx="41.42" ry="23.91"/><ellipse class="cls-12" cx="60.24" cy="381.93" rx="41.42" ry="23.91"/><polygon class="cls-12" points="18.83 382.3 18.83 371.4 27.01 378.69 18.83 382.3"/><polygon class="cls-12" points="101.66 371.69 101.66 381.93 97.47 386.38 95.42 374.64 101.66 371.69"/><ellipse class="cls-13" cx="60.24" cy="371.69" rx="41.42" ry="23.91"/><path class="cls-14" d="M89.84,372.43c-.42,4-3.29,8-8.63,11.08-11.58,6.68-30.36,6.68-41.94,0-5.34-3.09-8.21-7.06-8.62-11.08-.5-4.72,2.38-9.53,8.62-13.13,11.58-6.69,30.36-6.69,41.94,0C87.45,362.9,90.33,367.71,89.84,372.43Z"/><path class="cls-15" d="M89.84,372.43c-.42,4-3.29,8-8.63,11.08-11.58,6.68-30.36,6.68-41.94,0-5.34-3.09-8.21-7.06-8.62-11.08.41-4,3.28-8,8.62-11.08,11.58-6.69,30.36-6.69,41.94,0C86.55,364.43,89.42,368.4,89.84,372.43Z"/><path class="cls-14" d="M59.8,366.82a6.37,6.37,0,0,0-1.08.09c-.49.07-1,.17-1.64.3a18.73,18.73,0,0,0-1.89.48,13.76,13.76,0,0,0-1.86.71l4.77,2.75.85-.3c1.21-.41,2.35-.75,3.43-1a16.08,16.08,0,0,1,3.08-.51,11.11,11.11,0,0,1,2.84.19A9.23,9.23,0,0,1,71,370.56a5.41,5.41,0,0,1,2,1.8,2.4,2.4,0,0,1,.3,1.86,4.17,4.17,0,0,1-1.11,1.84,12,12,0,0,1-2.18,1.71l3,1.75-1.65,1-3.06-1.77a25,25,0,0,1-4.54,1.72,29.68,29.68,0,0,1-5,.94l-1.6-2.86a13,13,0,0,0,1.34-.11c.59-.07,1.26-.18,2-.34s1.51-.36,2.33-.59a17,17,0,0,0,2.33-.87l-4.74-2.73-.62.21-.65.2c-1.19.39-2.28.7-3.27.92a14.48,14.48,0,0,1-2.8.37,9.35,9.35,0,0,1-2.46-.23,8.15,8.15,0,0,1-2.28-.92,6,6,0,0,1-2-1.7,2.85,2.85,0,0,1-.53-1.84,3.41,3.41,0,0,1,.78-1.85,8.76,8.76,0,0,1,1.93-1.75l-2.81-1.62,1.65-1,2.78,1.61a20.49,20.49,0,0,1,4.09-1.51,31.09,31.09,0,0,1,4.09-.74Zm-8.09,5a3.46,3.46,0,0,0,2.06.44,13.38,13.38,0,0,0,2.84-.64l-4.46-2.57Q49.71,370.66,51.71,371.82Zm15.64,1.3a3.62,3.62,0,0,0-2.23-.4,18.5,18.5,0,0,0-3.11.68L66.44,376Q69.28,374.24,67.35,373.12Z"/><path class="cls-14" d="M57.24,378.51c0-.12,0-1.61,0-1.61l1.82,1.17-.79,1.22Z"/><polygon class="cls-14" points="73.1 379.52 73.1 377.92 69.16 378.22 71.42 379.76 73.1 379.52"/><polygon class="cls-14" points="73.43 373.63 73.43 372 70.48 373.07 73.43 373.63"/><path class="cls-14" d="M61.22,373.54l1-.94L65.66,375l-.22.71s-2.58-1.09-2.66-1.15S61.22,373.54,61.22,373.54Z"/><path class="cls-14" d="M52.16,368.48l4.59,2.6.94-.68s-.57-.66-.61-.72a6.08,6.08,0,0,0-1.44-1.2c-.34-.06-2.51-1-2.51-1Z"/><polygon class="cls-14" points="59.8 366.82 59.8 365.22 57.69 364.53 57.24 365.79 57.35 366.37 59.8 366.82"/><polygon class="cls-14" points="45.79 365.66 45.79 364.06 48.24 364.32 47.45 365.88 45.79 365.66"/><path class="cls-14" d="M45.88,371.11v-1.67h2.8l-.68,1.5-1.22,1.33Z"/><path class="cls-16" d="M59.8,365.22a7.3,7.3,0,0,0-1.08.08c-.49.07-1,.17-1.64.3s-1.24.29-1.89.48a15.24,15.24,0,0,0-1.86.71l4.77,2.75.85-.3c1.21-.4,2.35-.74,3.43-1a16.08,16.08,0,0,1,3.08-.51,11.1,11.1,0,0,1,2.84.2A8.93,8.93,0,0,1,71,369a5.5,5.5,0,0,1,2,1.81,2.4,2.4,0,0,1,.3,1.86,4.09,4.09,0,0,1-1.11,1.83,11.59,11.59,0,0,1-2.18,1.72l3,1.75-1.65.95-3.06-1.76a24.31,24.31,0,0,1-4.54,1.71,29.68,29.68,0,0,1-5,.94l-1.6-2.86a12.32,12.32,0,0,0,1.34-.1c.59-.07,1.26-.19,2-.34s1.51-.36,2.33-.6a17,17,0,0,0,2.33-.87l-4.74-2.73-.62.21c-.21.07-.42.14-.65.2-1.19.39-2.28.7-3.27.92a14.53,14.53,0,0,1-2.8.38,9.8,9.8,0,0,1-2.46-.23,8.46,8.46,0,0,1-2.28-.92,5.86,5.86,0,0,1-2-1.71,2.84,2.84,0,0,1-.53-1.83,3.35,3.35,0,0,1,.78-1.85,8.3,8.3,0,0,1,1.93-1.75l-2.81-1.62,1.65-1,2.78,1.61a19.86,19.86,0,0,1,4.09-1.5,29.53,29.53,0,0,1,4.09-.74Zm-8.09,5a3.39,3.39,0,0,0,2.06.44,13.27,13.27,0,0,0,2.84-.63l-4.46-2.58C50.52,368.51,50.37,369.44,51.71,370.21Zm15.64,1.3a3.62,3.62,0,0,0-2.23-.4,18.65,18.65,0,0,0-3.11.69l4.43,2.56Q69.28,372.62,67.35,371.51Z"/></g><g id="Coin-2" data-name="Coin"><ellipse class="cls-12" cx="63.62" cy="369.18" rx="41.42" ry="23.91"/><polygon class="cls-12" points="22.21 369.54 22.21 358.65 30.4 365.94 22.21 369.54"/><polygon class="cls-12" points="105.04 358.93 105.04 369.18 100.86 373.62 98.81 361.89 105.04 358.93"/><ellipse class="cls-13" cx="63.62" cy="358.93" rx="41.42" ry="23.91"/><path class="cls-14" d="M93.22,359.67c-.42,4-3.29,8-8.63,11.08-11.58,6.69-30.35,6.69-41.94,0-5.34-3.08-8.2-7.05-8.61-11.08-.51-4.71,2.37-9.53,8.61-13.12,11.59-6.7,30.36-6.7,41.94,0C90.83,350.14,93.71,355,93.22,359.67Z"/><path class="cls-15" d="M93.22,359.67c-.42,4-3.29,8-8.63,11.08-11.58,6.69-30.35,6.69-41.94,0-5.34-3.08-8.2-7.05-8.61-11.08.41-4,3.27-8,8.61-11.07,11.59-6.7,30.36-6.7,41.94,0C89.93,351.68,92.8,355.65,93.22,359.67Z"/><path class="cls-14" d="M63.19,354.07a6.54,6.54,0,0,0-1.09.09c-.49.07-1,.17-1.64.29s-1.23.29-1.88.49a11.75,11.75,0,0,0-1.86.71l4.76,2.75.85-.31c1.22-.4,2.36-.74,3.43-1a16.08,16.08,0,0,1,3.08-.51,10.64,10.64,0,0,1,2.84.19,9.13,9.13,0,0,1,2.71,1.06,5.33,5.33,0,0,1,2,1.8,2.45,2.45,0,0,1,.31,1.86,4.2,4.2,0,0,1-1.12,1.84A11.89,11.89,0,0,1,73.46,365l3,1.75-1.65,1-3-1.77a25.15,25.15,0,0,1-4.55,1.72,30.7,30.7,0,0,1-5,.94l-1.59-2.87a12.18,12.18,0,0,0,1.33-.1c.6-.07,1.26-.18,2-.34s1.51-.36,2.32-.6a16.47,16.47,0,0,0,2.33-.86l-4.73-2.74-.62.22-.65.2c-1.19.39-2.29.7-3.28.92a14.48,14.48,0,0,1-2.79.37,9.47,9.47,0,0,1-2.47-.23,8.46,8.46,0,0,1-2.28-.92,5.81,5.81,0,0,1-2-1.7,2.84,2.84,0,0,1-.54-1.84,3.53,3.53,0,0,1,.78-1.85A8.74,8.74,0,0,1,52,354.53l-2.81-1.62,1.66-1,2.78,1.6a20.62,20.62,0,0,1,4.09-1.5,31,31,0,0,1,4.08-.74Zm-8.1,5a3.51,3.51,0,0,0,2.07.45,14,14,0,0,0,2.83-.64l-4.46-2.57Q53.08,357.91,55.09,359.06Zm15.64,1.31a3.54,3.54,0,0,0-2.23-.4,17.75,17.75,0,0,0-3.11.68l4.43,2.56C71.71,362.06,72,361.11,70.73,360.37Z"/><path class="cls-14" d="M60.63,365.75c0-.11,0-1.6,0-1.6l1.82,1.17-.79,1.21Z"/><polygon class="cls-14" points="76.48 366.77 76.48 365.17 72.54 365.47 74.81 367.01 76.48 366.77"/><polygon class="cls-14" points="76.82 360.88 76.82 359.25 73.87 360.32 76.82 360.88"/><path class="cls-14" d="M64.6,360.79l1-.94L69,362.24l-.21.71s-2.58-1.09-2.67-1.16Z"/><path class="cls-14" d="M55.55,355.73l4.59,2.6.94-.68s-.58-.66-.62-.72a5.79,5.79,0,0,0-1.43-1.2c-.34-.06-2.52-1-2.52-1Z"/><polygon class="cls-14" points="63.19 354.07 63.19 352.47 61.08 351.78 60.63 353.04 60.74 353.62 63.19 354.07"/><polygon class="cls-14" points="49.17 352.91 49.17 351.31 51.62 351.57 50.83 353.13 49.17 352.91"/><path class="cls-14" d="M49.26,358.36s0-1.67,0-1.67h2.8l-.68,1.5-1.22,1.33Z"/><path class="cls-16" d="M63.19,352.47a6.29,6.29,0,0,0-1.09.08c-.49.07-1,.17-1.64.3s-1.23.29-1.88.48a12.81,12.81,0,0,0-1.86.71l4.76,2.75.85-.3c1.22-.41,2.36-.75,3.43-1a16.08,16.08,0,0,1,3.08-.51,11.07,11.07,0,0,1,2.84.19,9.13,9.13,0,0,1,2.71,1.06,5.33,5.33,0,0,1,2,1.8,2.45,2.45,0,0,1,.31,1.86,4.15,4.15,0,0,1-1.12,1.84,11.92,11.92,0,0,1-2.17,1.72l3,1.75-1.65.95-3-1.76a25.14,25.14,0,0,1-4.55,1.71,29.68,29.68,0,0,1-5,.94l-1.59-2.86c.29,0,.74,0,1.33-.1s1.26-.19,2-.35,1.51-.35,2.32-.59a16.49,16.49,0,0,0,2.33-.87l-4.73-2.73-.62.21-.65.2c-1.19.39-2.29.7-3.28.92a14.54,14.54,0,0,1-2.79.38,9.92,9.92,0,0,1-2.47-.23,8.18,8.18,0,0,1-2.28-.93,5.7,5.7,0,0,1-2-1.7,2.79,2.79,0,0,1-.54-1.83,3.5,3.5,0,0,1,.78-1.85A8.5,8.5,0,0,1,52,352.93l-2.81-1.62,1.66-1L53.61,352a19.44,19.44,0,0,1,4.09-1.5,28,28,0,0,1,4.08-.74Zm-8.1,5a3.43,3.43,0,0,0,2.07.44,13.2,13.2,0,0,0,2.83-.63l-4.46-2.58Q53.08,356.29,55.09,357.46Zm15.64,1.3a3.61,3.61,0,0,0-2.23-.4,18.87,18.87,0,0,0-3.11.69l4.43,2.55C71.71,360.45,72,359.5,70.73,358.76Z"/></g><g id="Coin-3" data-name="Coin"><ellipse class="cls-12" cx="63.36" cy="357.83" rx="41.42" ry="23.91"/><polygon class="cls-12" points="21.96 358.19 21.96 347.29 30.14 354.58 21.96 358.19"/><polygon class="cls-12" points="104.78 347.58 104.78 357.83 100.6 362.27 98.55 350.54 104.78 347.58"/><ellipse class="cls-13" cx="63.36" cy="347.58" rx="41.42" ry="23.91"/><path class="cls-14" d="M93,348.32c-.42,4-3.29,8-8.62,11.08-11.59,6.68-30.36,6.68-41.94,0-5.34-3.09-8.21-7-8.62-11.08-.5-4.71,2.38-9.53,8.62-13.13,11.58-6.69,30.35-6.69,41.94,0C90.58,338.79,93.46,343.61,93,348.32Z"/><path class="cls-15" d="M93,348.32c-.42,4-3.29,8-8.62,11.08-11.59,6.68-30.36,6.68-41.94,0-5.34-3.09-8.21-7-8.62-11.08.41-4,3.28-8,8.62-11.08,11.58-6.69,30.35-6.69,41.94,0C89.67,340.33,92.54,344.29,93,348.32Z"/><path class="cls-14" d="M62.93,342.72a7.5,7.5,0,0,0-1.09.08c-.48.07-1,.17-1.63.3s-1.24.29-1.89.48a13.76,13.76,0,0,0-1.86.71L61.22,347l.86-.3c1.21-.4,2.35-.75,3.43-1a16.08,16.08,0,0,1,3.08-.51,11.46,11.46,0,0,1,2.83.19,9.18,9.18,0,0,1,2.72,1.06,5.42,5.42,0,0,1,2,1.81,2.4,2.4,0,0,1,.3,1.86A4.12,4.12,0,0,1,75.37,352a11.19,11.19,0,0,1-2.17,1.72l3,1.75-1.65.95-3.06-1.76A25.31,25.31,0,0,1,67,356.32a29.68,29.68,0,0,1-5,.94l-1.6-2.86c.29,0,.74,0,1.34-.1s1.26-.19,2-.35,1.51-.35,2.33-.59a16.36,16.36,0,0,0,2.32-.87l-4.73-2.73L63,350l-.65.2c-1.19.39-2.28.7-3.27.92a14.63,14.63,0,0,1-2.8.38,9.8,9.8,0,0,1-2.46-.23,8.36,8.36,0,0,1-2.29-.93,5.8,5.8,0,0,1-2-1.7,2.84,2.84,0,0,1-.53-1.83,3.35,3.35,0,0,1,.78-1.85,8.3,8.3,0,0,1,1.93-1.75l-2.81-1.62,1.65-1,2.78,1.61a19.65,19.65,0,0,1,4.09-1.5,27.87,27.87,0,0,1,4.09-.74Zm-8.09,5a3.39,3.39,0,0,0,2.06.44,13.4,13.4,0,0,0,2.84-.63l-4.46-2.58C53.64,346,53.5,346.93,54.84,347.71ZM70.47,349a3.59,3.59,0,0,0-2.23-.4,19.09,19.09,0,0,0-3.11.69l4.44,2.56Q72.41,350.12,70.47,349Z"/><path class="cls-14" d="M60.37,354.4c.05-.12,0-1.61,0-1.61L62.19,354l-.79,1.22Z"/><polygon class="cls-14" points="76.23 355.42 76.23 353.81 72.29 354.11 74.55 355.65 76.23 355.42"/><polygon class="cls-14" points="76.56 349.52 76.56 347.9 73.61 348.97 76.56 349.52"/><path class="cls-14" d="M64.35,349.44l1-.94,3.46,2.39-.22.7S66,350.5,65.9,350.44Z"/><path class="cls-14" d="M55.29,344.38l4.59,2.6.94-.68s-.57-.66-.62-.73a6,6,0,0,0-1.43-1.19c-.34-.07-2.52-1-2.52-1Z"/><polygon class="cls-14" points="62.93 342.72 62.93 341.11 60.82 340.43 60.37 341.69 60.48 342.26 62.93 342.72"/><polygon class="cls-14" points="48.92 341.56 48.92 339.95 51.36 340.21 50.57 341.77 48.92 341.56"/><path class="cls-14" d="M49,347v-1.67h2.8l-.68,1.49-1.22,1.34Z"/><path class="cls-16" d="M62.93,341.11a6.54,6.54,0,0,0-1.09.09c-.48.07-1,.17-1.63.29s-1.24.29-1.89.49a13.73,13.73,0,0,0-1.86.7l4.76,2.75.86-.3c1.21-.4,2.35-.74,3.43-1a16.08,16.08,0,0,1,3.08-.51,10.57,10.57,0,0,1,2.83.19,8.92,8.92,0,0,1,2.72,1.06,5.41,5.41,0,0,1,2,1.8,2.4,2.4,0,0,1,.3,1.86,4.2,4.2,0,0,1-1.12,1.84,11.56,11.56,0,0,1-2.17,1.71l3,1.75-1.65.95L71.52,353A25.32,25.32,0,0,1,67,354.72a29.65,29.65,0,0,1-5,.93l-1.6-2.86a12.49,12.49,0,0,0,1.34-.1c.59-.07,1.26-.18,2-.34s1.51-.36,2.33-.6a16.34,16.34,0,0,0,2.32-.86l-4.73-2.74-.62.22-.65.2c-1.19.39-2.28.69-3.27.92a15.41,15.41,0,0,1-2.8.37,9.35,9.35,0,0,1-2.46-.23,8.65,8.65,0,0,1-2.29-.92,5.91,5.91,0,0,1-2-1.7,2.88,2.88,0,0,1-.53-1.84,3.35,3.35,0,0,1,.78-1.85,8.52,8.52,0,0,1,1.93-1.75L48.92,340l1.65-.95,2.78,1.6a20.85,20.85,0,0,1,4.09-1.5,30.8,30.8,0,0,1,4.09-.74Zm-8.09,5a3.46,3.46,0,0,0,2.06.45,14.18,14.18,0,0,0,2.84-.64l-4.46-2.57C53.64,344.41,53.5,345.33,54.84,346.1Zm15.63,1.3a3.53,3.53,0,0,0-2.23-.39,18,18,0,0,0-3.11.68l4.44,2.56Q72.41,348.53,70.47,347.4Z"/></g><g id="Coin-4" data-name="Coin"><ellipse class="cls-12" cx="64.6" cy="345.06" rx="41.42" ry="23.91"/><polygon class="cls-12" points="23.2 345.43 23.2 334.53 31.38 341.82 23.2 345.43"/><polygon class="cls-12" points="106.02 334.81 106.02 345.06 101.84 349.5 99.79 337.77 106.02 334.81"/><ellipse class="cls-13" cx="64.6" cy="334.81" rx="41.42" ry="23.91"/><path class="cls-14" d="M94.2,335.56c-.42,4-3.29,8-8.63,11.07-11.58,6.69-30.35,6.69-41.93,0-5.34-3.08-8.21-7.05-8.62-11.07-.5-4.72,2.37-9.54,8.62-13.13,11.58-6.69,30.35-6.69,41.93,0C91.81,326,94.69,330.84,94.2,335.56Z"/><path class="cls-15" d="M94.2,335.56c-.42,4-3.29,8-8.63,11.07-11.58,6.69-30.35,6.69-41.93,0-5.34-3.08-8.21-7.05-8.62-11.07.41-4,3.28-8,8.62-11.08,11.58-6.7,30.35-6.7,41.93,0C90.91,327.56,93.78,331.53,94.2,335.56Z"/><path class="cls-14" d="M64.17,330a6.54,6.54,0,0,0-1.09.09c-.48.07-1,.17-1.64.29s-1.23.29-1.88.49a13.76,13.76,0,0,0-1.86.71l4.76,2.75.86-.31q1.82-.6,3.42-1a16.18,16.18,0,0,1,3.09-.51,11,11,0,0,1,2.83.19,9,9,0,0,1,2.71,1.06,5.45,5.45,0,0,1,2.06,1.8,2.49,2.49,0,0,1,.3,1.86,4.2,4.2,0,0,1-1.12,1.84,11.89,11.89,0,0,1-2.17,1.71l3,1.75-1.66,1-3-1.77a25.32,25.32,0,0,1-4.54,1.72,31.11,31.11,0,0,1-5,.94l-1.6-2.86a12.8,12.8,0,0,0,1.33-.11c.6-.07,1.27-.18,2-.34s1.51-.36,2.33-.6a15.61,15.61,0,0,0,2.32-.86L64.86,337l-.62.22-.65.2c-1.19.39-2.28.7-3.28.92a14.48,14.48,0,0,1-2.79.37,9.35,9.35,0,0,1-2.46-.23,8.2,8.2,0,0,1-2.29-.92,5.81,5.81,0,0,1-2-1.7,2.88,2.88,0,0,1-.54-1.84,3.47,3.47,0,0,1,.79-1.85A8.93,8.93,0,0,1,53,330.41l-2.8-1.62,1.65-1,2.78,1.6a20.62,20.62,0,0,1,4.09-1.5,30.8,30.8,0,0,1,4.09-.74Zm-8.09,5a3.46,3.46,0,0,0,2.06.45,13.51,13.51,0,0,0,2.84-.64l-4.46-2.57C54.88,333.25,54.74,334.17,56.08,334.94Zm15.63,1.31a3.53,3.53,0,0,0-2.23-.4,18.72,18.72,0,0,0-3.11.68l4.43,2.56C72.69,337.94,73,337,71.71,336.25Z"/><path class="cls-14" d="M61.61,341.64c0-.12,0-1.61,0-1.61l1.82,1.17-.79,1.22Z"/><polygon class="cls-14" points="77.47 342.65 77.47 341.05 73.53 341.35 75.79 342.89 77.47 342.65"/><polygon class="cls-14" points="77.8 336.76 77.8 335.13 74.85 336.2 77.8 336.76"/><path class="cls-14" d="M65.58,336.67l1-.94L70,338.12l-.21.71s-2.58-1.09-2.67-1.15S65.58,336.67,65.58,336.67Z"/><path class="cls-14" d="M56.53,331.61l4.59,2.6.94-.68s-.58-.66-.62-.72a6,6,0,0,0-1.43-1.2c-.34-.06-2.52-1-2.52-1Z"/><polygon class="cls-14" points="64.17 329.95 64.17 328.35 62.06 327.66 61.61 328.92 61.72 329.5 64.17 329.95"/><polygon class="cls-14" points="50.16 328.79 50.16 327.19 52.6 327.45 51.81 329.01 50.16 328.79"/><path class="cls-14" d="M50.25,334.24v-1.67h2.8l-.68,1.5-1.22,1.33Z"/><path class="cls-16" d="M64.17,328.35a7.5,7.5,0,0,0-1.09.08c-.48.07-1,.17-1.64.3s-1.23.29-1.88.48a15.24,15.24,0,0,0-1.86.71l4.76,2.75.86-.3c1.21-.4,2.35-.75,3.42-1a16.18,16.18,0,0,1,3.09-.51,11,11,0,0,1,2.83.2,8.74,8.74,0,0,1,2.71,1.05,5.55,5.55,0,0,1,2.06,1.81,2.49,2.49,0,0,1,.3,1.86,4.12,4.12,0,0,1-1.12,1.83,11.5,11.5,0,0,1-2.17,1.72l3,1.75-1.66.95-3-1.76A25.31,25.31,0,0,1,68.22,342a30.05,30.05,0,0,1-5,.94L61.61,340a12.18,12.18,0,0,0,1.33-.1c.6-.07,1.27-.19,2-.35s1.51-.35,2.33-.59a16.83,16.83,0,0,0,2.32-.87l-4.73-2.73-.62.21-.65.2c-1.19.39-2.28.7-3.28.92a14.54,14.54,0,0,1-2.79.38,9.8,9.8,0,0,1-2.46-.23,8.52,8.52,0,0,1-2.29-.92,5.72,5.72,0,0,1-2-1.71,2.85,2.85,0,0,1-.54-1.83,3.44,3.44,0,0,1,.79-1.85A8.44,8.44,0,0,1,53,328.81l-2.8-1.62,1.65-1,2.78,1.61a19.44,19.44,0,0,1,4.09-1.5,29.26,29.26,0,0,1,4.09-.74Zm-8.09,5a3.39,3.39,0,0,0,2.06.44,13.4,13.4,0,0,0,2.84-.63l-4.46-2.58C54.88,331.64,54.74,332.56,56.08,333.34Zm15.63,1.3a3.59,3.59,0,0,0-2.23-.4,18.87,18.87,0,0,0-3.11.69l4.43,2.56C72.69,336.33,73,335.38,71.71,334.64Z"/></g><g id="Coin-5" data-name="Coin"><ellipse class="cls-12" cx="62.06" cy="332.79" rx="41.42" ry="23.91"/><polygon class="cls-12" points="20.66 333.15 20.66 322.25 28.84 329.54 20.66 333.15"/><polygon class="cls-12" points="103.48 322.54 103.48 332.79 99.3 337.23 97.25 325.5 103.48 322.54"/><ellipse class="cls-13" cx="62.06" cy="322.54" rx="41.42" ry="23.91"/><path class="cls-14" d="M91.66,323.28c-.42,4-3.29,8-8.63,11.08-11.58,6.68-30.35,6.68-41.93,0-5.34-3.09-8.21-7.05-8.62-11.08-.51-4.72,2.37-9.53,8.62-13.13,11.58-6.69,30.35-6.69,41.93,0C89.27,313.75,92.15,318.56,91.66,323.28Z"/><path class="cls-15" d="M91.66,323.28c-.42,4-3.29,8-8.63,11.08-11.58,6.68-30.35,6.68-41.93,0-5.34-3.09-8.21-7.05-8.62-11.08.41-4,3.28-8,8.62-11.08,11.58-6.69,30.35-6.69,41.93,0C88.37,315.29,91.24,319.25,91.66,323.28Z"/><path class="cls-14" d="M61.63,317.68a6.29,6.29,0,0,0-1.09.08c-.49.07-1,.17-1.64.3s-1.23.29-1.88.48a13.76,13.76,0,0,0-1.86.71L59.92,322l.86-.3c1.21-.4,2.35-.75,3.42-1a16.18,16.18,0,0,1,3.09-.51,11.49,11.49,0,0,1,2.83.19,9.13,9.13,0,0,1,2.71,1.06,5.34,5.34,0,0,1,2,1.81,2.45,2.45,0,0,1,.31,1.86,4.17,4.17,0,0,1-1.12,1.83,11.92,11.92,0,0,1-2.17,1.72l3,1.75-1.66.95-3-1.76a25.14,25.14,0,0,1-4.55,1.71,29.68,29.68,0,0,1-5,.94l-1.59-2.86c.29,0,.74,0,1.33-.1s1.27-.19,2-.35,1.51-.35,2.33-.59a16.83,16.83,0,0,0,2.32-.87l-4.73-2.73-.62.21-.65.2c-1.19.39-2.28.7-3.28.92a14.54,14.54,0,0,1-2.79.38,9.8,9.8,0,0,1-2.46-.23,8.12,8.12,0,0,1-2.29-.93,5.7,5.7,0,0,1-2-1.7,2.85,2.85,0,0,1-.54-1.83,3.44,3.44,0,0,1,.79-1.85,8.23,8.23,0,0,1,1.92-1.75l-2.8-1.62,1.65-1,2.78,1.61a19.44,19.44,0,0,1,4.09-1.5,28,28,0,0,1,4.08-.74Zm-8.1,5a3.43,3.43,0,0,0,2.07.44,13.2,13.2,0,0,0,2.83-.63L54,319.9Q51.53,321.51,53.53,322.67ZM69.17,324a3.61,3.61,0,0,0-2.23-.4,18.87,18.87,0,0,0-3.11.69l4.43,2.56C70.15,325.66,70.46,324.71,69.17,324Z"/><path class="cls-14" d="M59.07,329.36c0-.12,0-1.61,0-1.61l1.82,1.17-.79,1.22Z"/><polygon class="cls-14" points="74.92 330.38 74.92 328.77 70.98 329.07 73.25 330.61 74.92 330.38"/><polygon class="cls-14" points="75.26 324.48 75.26 322.86 72.31 323.93 75.26 324.48"/><path class="cls-14" d="M63,324.4l1-.94,3.46,2.39-.21.7s-2.58-1.09-2.67-1.15S63,324.4,63,324.4Z"/><path class="cls-14" d="M54,319.33l4.59,2.61.94-.68s-.58-.67-.62-.73a6.25,6.25,0,0,0-1.43-1.2c-.34-.06-2.52-1-2.52-1Z"/><polygon class="cls-14" points="61.63 317.68 61.63 316.07 59.52 315.38 59.07 316.64 59.18 317.22 61.63 317.68"/><polygon class="cls-14" points="47.62 316.52 47.62 314.91 50.06 315.17 49.27 316.73 47.62 316.52"/><path class="cls-14" d="M47.71,322V320.3h2.8l-.68,1.49-1.22,1.34Z"/><path class="cls-16" d="M61.63,316.07a6.54,6.54,0,0,0-1.09.09c-.49.07-1,.16-1.64.29s-1.23.29-1.88.49a13.73,13.73,0,0,0-1.86.7l4.76,2.75.86-.3q1.81-.6,3.42-1a16.18,16.18,0,0,1,3.09-.51,10.6,10.6,0,0,1,2.83.19,8.87,8.87,0,0,1,2.71,1.06,5.33,5.33,0,0,1,2,1.8,2.45,2.45,0,0,1,.31,1.86,4.12,4.12,0,0,1-1.12,1.83A11.5,11.5,0,0,1,71.9,327l3,1.75-1.66,1-3-1.76a25.15,25.15,0,0,1-4.55,1.72,30.68,30.68,0,0,1-5,.93l-1.59-2.86a12.18,12.18,0,0,0,1.33-.1c.6-.07,1.27-.18,2-.34s1.51-.36,2.33-.6a18.21,18.21,0,0,0,2.32-.86l-4.73-2.74-.62.22-.65.19c-1.19.4-2.28.7-3.28.93a15.31,15.31,0,0,1-2.79.37,9.35,9.35,0,0,1-2.46-.23,8.39,8.39,0,0,1-2.29-.92,5.81,5.81,0,0,1-2-1.7,2.9,2.9,0,0,1-.54-1.84,3.44,3.44,0,0,1,.79-1.85,8.46,8.46,0,0,1,1.92-1.75l-2.8-1.62,1.65-1,2.78,1.6a20,20,0,0,1,4.09-1.5,29.4,29.4,0,0,1,4.08-.74Zm-8.1,5a3.51,3.51,0,0,0,2.07.45,14,14,0,0,0,2.83-.64L54,318.3Q51.53,319.9,53.53,321.06Zm15.64,1.3a3.54,3.54,0,0,0-2.23-.39,17.75,17.75,0,0,0-3.11.68l4.43,2.56C70.15,324.05,70.46,323.11,69.17,322.36Z"/></g><g id="Coin-6" data-name="Coin"><ellipse class="cls-12" cx="65.54" cy="321.61" rx="41.42" ry="23.91"/><polygon class="cls-12" points="24.13 321.98 24.13 311.08 32.31 318.37 24.13 321.98"/><polygon class="cls-12" points="106.96 311.37 106.96 321.61 102.77 326.06 100.72 314.32 106.96 311.37"/><ellipse class="cls-13" cx="65.54" cy="311.37" rx="41.42" ry="23.91"/><path class="cls-14" d="M95.14,312.11c-.42,4-3.29,8-8.63,11.08-11.58,6.68-30.36,6.68-41.94,0-5.34-3.09-8.21-7.06-8.62-11.08-.5-4.72,2.38-9.53,8.62-13.13,11.58-6.69,30.36-6.69,41.94,0C92.75,302.58,95.63,307.39,95.14,312.11Z"/><path class="cls-15" d="M95.14,312.11c-.42,4-3.29,8-8.63,11.08-11.58,6.68-30.36,6.68-41.94,0-5.34-3.09-8.21-7.06-8.62-11.08.41-4,3.28-8,8.62-11.08,11.58-6.69,30.36-6.69,41.94,0C91.85,304.11,94.72,308.08,95.14,312.11Z"/><path class="cls-14" d="M65.1,306.5a6.37,6.37,0,0,0-1.08.09c-.49.07-1,.17-1.64.3a18.73,18.73,0,0,0-1.89.48,13.76,13.76,0,0,0-1.86.71l4.77,2.75.85-.3c1.21-.41,2.35-.75,3.43-1a16.08,16.08,0,0,1,3.08-.51,11.11,11.11,0,0,1,2.84.19,9.23,9.23,0,0,1,2.71,1.06,5.41,5.41,0,0,1,2,1.8,2.4,2.4,0,0,1,.3,1.86,4.17,4.17,0,0,1-1.11,1.84,12,12,0,0,1-2.18,1.72l3,1.74-1.65,1-3.06-1.77a25,25,0,0,1-4.54,1.72,29.68,29.68,0,0,1-5,.94l-1.6-2.86a13,13,0,0,0,1.34-.11c.59-.07,1.26-.18,2-.34s1.51-.36,2.33-.59a17,17,0,0,0,2.33-.87l-4.74-2.73-.62.21c-.21.07-.42.14-.65.2-1.19.39-2.28.7-3.27.92a14.48,14.48,0,0,1-2.8.37A9.35,9.35,0,0,1,56,315a8.15,8.15,0,0,1-2.28-.92,5.84,5.84,0,0,1-2-1.7,2.84,2.84,0,0,1-.53-1.83,3.41,3.41,0,0,1,.78-1.86A8.5,8.5,0,0,1,53.9,307l-2.81-1.63,1.65-.95L55.52,306a20.49,20.49,0,0,1,4.09-1.51,31.09,31.09,0,0,1,4.09-.74Zm-8.09,5a3.46,3.46,0,0,0,2.06.44,13.38,13.38,0,0,0,2.84-.64l-4.46-2.57Q55,310.34,57,311.5Zm15.64,1.3a3.62,3.62,0,0,0-2.23-.4,18.5,18.5,0,0,0-3.11.68l4.43,2.56Q74.57,313.92,72.65,312.8Z"/><path class="cls-14" d="M62.54,318.19c.05-.12,0-1.61,0-1.61l1.82,1.17L63.57,319Z"/><polygon class="cls-14" points="78.4 319.2 78.4 317.6 74.46 317.9 76.72 319.44 78.4 319.2"/><polygon class="cls-14" points="78.73 313.31 78.73 311.69 75.78 312.75 78.73 313.31"/><path class="cls-14" d="M66.52,313.22l1-.94,3.46,2.4-.22.7s-2.58-1.09-2.66-1.15S66.52,313.22,66.52,313.22Z"/><path class="cls-14" d="M57.46,308.16l4.59,2.6.94-.68s-.57-.66-.61-.72a6.08,6.08,0,0,0-1.44-1.2c-.34-.06-2.51-1-2.51-1Z"/><polygon class="cls-14" points="65.1 306.5 65.1 304.9 62.99 304.21 62.54 305.47 62.65 306.05 65.1 306.5"/><polygon class="cls-14" points="51.09 305.34 51.09 303.74 53.54 304 52.75 305.56 51.09 305.34"/><path class="cls-14" d="M51.18,310.8v-1.68H54l-.68,1.5L52.08,312Z"/><path class="cls-16" d="M65.1,304.9A6.37,6.37,0,0,0,64,305c-.49.06-1,.16-1.64.29s-1.24.29-1.89.48a15.24,15.24,0,0,0-1.86.71l4.77,2.75.85-.3c1.21-.4,2.35-.74,3.43-1a15.29,15.29,0,0,1,3.08-.5,10.67,10.67,0,0,1,2.84.19,8.93,8.93,0,0,1,2.71,1.05,5.5,5.5,0,0,1,2,1.81,2.4,2.4,0,0,1,.3,1.86,4.09,4.09,0,0,1-1.11,1.83,11.59,11.59,0,0,1-2.18,1.72l3,1.75-1.65.95-3.06-1.76a24.31,24.31,0,0,1-4.54,1.71,29.68,29.68,0,0,1-5,.94l-1.6-2.86a12.32,12.32,0,0,0,1.34-.1c.59-.07,1.26-.18,2-.34s1.51-.36,2.33-.6a17,17,0,0,0,2.33-.87l-4.74-2.73c-.2.07-.41.15-.62.21s-.42.14-.65.2c-1.19.39-2.28.7-3.27.92a14.53,14.53,0,0,1-2.8.38,9.8,9.8,0,0,1-2.46-.23,8.46,8.46,0,0,1-2.28-.92,6,6,0,0,1-2-1.7,2.88,2.88,0,0,1-.53-1.84,3.35,3.35,0,0,1,.78-1.85,8.3,8.3,0,0,1,1.93-1.75l-2.81-1.62,1.65-1,2.78,1.61a19.86,19.86,0,0,1,4.09-1.5,29.53,29.53,0,0,1,4.09-.74Zm-8.09,5a3.39,3.39,0,0,0,2.06.44,13.27,13.27,0,0,0,2.84-.63l-4.46-2.58C55.82,308.19,55.67,309.12,57,309.89Zm15.64,1.3a3.62,3.62,0,0,0-2.23-.4,18.65,18.65,0,0,0-3.11.69L71.74,314Q74.57,312.3,72.65,311.19Z"/></g><g id="Coin-7" data-name="Coin"><ellipse class="cls-12" cx="63.35" cy="310.2" rx="41.42" ry="23.91"/><polygon class="cls-12" points="21.95 310.56 21.95 299.67 30.13 306.95 21.95 310.56"/><polygon class="cls-12" points="104.77 299.95 104.77 310.2 100.59 314.64 98.54 302.91 104.77 299.95"/><ellipse class="cls-13" cx="63.35" cy="299.95" rx="41.42" ry="23.91"/><path class="cls-14" d="M93,300.69c-.42,4-3.29,8-8.63,11.08-11.58,6.68-30.35,6.68-41.93,0-5.34-3.08-8.21-7-8.62-11.08-.5-4.71,2.38-9.53,8.62-13.13,11.58-6.69,30.35-6.69,41.93,0C90.57,291.16,93.45,296,93,300.69Z"/><path class="cls-15" d="M93,300.69c-.42,4-3.29,8-8.63,11.08-11.58,6.68-30.35,6.68-41.93,0-5.34-3.08-8.21-7-8.62-11.08.41-4,3.28-8,8.62-11.08,11.58-6.69,30.35-6.69,41.93,0C89.66,292.7,92.53,296.67,93,300.69Z"/><path class="cls-14" d="M62.92,295.09a6.54,6.54,0,0,0-1.09.09c-.48.07-1,.16-1.64.29s-1.23.29-1.88.49a13.73,13.73,0,0,0-1.86.7l4.76,2.75.86-.3q1.82-.6,3.42-1a16.3,16.3,0,0,1,3.09-.51,10.6,10.6,0,0,1,2.83.19,8.77,8.77,0,0,1,2.71,1.06,5.45,5.45,0,0,1,2.06,1.8,2.49,2.49,0,0,1,.3,1.86,4.12,4.12,0,0,1-1.12,1.83A11.19,11.19,0,0,1,73.19,306l3,1.75-1.65.95L71.51,307A25.32,25.32,0,0,1,67,308.7a30.68,30.68,0,0,1-5,.93l-1.6-2.86a12.18,12.18,0,0,0,1.33-.1c.6-.07,1.27-.18,2-.34s1.51-.36,2.33-.6a18.21,18.21,0,0,0,2.32-.86l-4.73-2.74-.62.22-.65.19c-1.19.4-2.28.7-3.27.93a15.53,15.53,0,0,1-2.8.37,9.35,9.35,0,0,1-2.46-.23,8.65,8.65,0,0,1-2.29-.92,5.91,5.91,0,0,1-2-1.7,3,3,0,0,1-.54-1.84,3.44,3.44,0,0,1,.79-1.85,8.52,8.52,0,0,1,1.93-1.75l-2.81-1.62,1.65-.95,2.78,1.6a20.23,20.23,0,0,1,4.09-1.5,29.26,29.26,0,0,1,4.09-.74Zm-8.09,5a3.46,3.46,0,0,0,2.06.45,14.18,14.18,0,0,0,2.84-.64l-4.46-2.57C53.63,298.39,53.49,299.31,54.83,300.08Zm15.63,1.3a3.53,3.53,0,0,0-2.23-.39,17.75,17.75,0,0,0-3.11.68l4.43,2.56C71.44,303.07,71.75,302.13,70.46,301.38Z"/><path class="cls-14" d="M60.36,306.77c0-.11,0-1.6,0-1.6l1.82,1.17-.79,1.21Z"/><polygon class="cls-14" points="76.22 307.79 76.22 306.18 72.28 306.49 74.54 308.03 76.22 307.79"/><polygon class="cls-14" points="76.55 301.89 76.55 300.27 73.6 301.34 76.55 301.89"/><path class="cls-14" d="M64.33,301.81l1-.94,3.46,2.39-.22.71s-2.58-1.09-2.67-1.16Z"/><path class="cls-14" d="M55.28,296.75l4.59,2.6.94-.68s-.57-.66-.62-.73a6,6,0,0,0-1.43-1.19c-.34-.07-2.52-1-2.52-1Z"/><polygon class="cls-14" points="62.92 295.09 62.92 293.48 60.81 292.8 60.36 294.06 60.47 294.63 62.92 295.09"/><polygon class="cls-14" points="48.91 293.93 48.91 292.32 51.35 292.58 50.56 294.14 48.91 293.93"/><path class="cls-14" d="M49,299.38v-1.67h2.8l-.68,1.49-1.22,1.34Z"/><path class="cls-16" d="M62.92,293.48a6.54,6.54,0,0,0-1.09.09c-.48.07-1,.17-1.64.3a19.26,19.26,0,0,0-1.88.48,13.76,13.76,0,0,0-1.86.71l4.76,2.75.86-.3c1.21-.41,2.35-.75,3.42-1a16.3,16.3,0,0,1,3.09-.51,11,11,0,0,1,2.83.19,9,9,0,0,1,2.71,1.06,5.45,5.45,0,0,1,2.06,1.8,2.49,2.49,0,0,1,.3,1.86,4.2,4.2,0,0,1-1.12,1.84,11.58,11.58,0,0,1-2.17,1.72l3,1.74-1.65,1-3.06-1.77A25.32,25.32,0,0,1,67,307.09a29.68,29.68,0,0,1-5,.94l-1.6-2.86a12.8,12.8,0,0,0,1.33-.11c.6-.07,1.27-.18,2-.34s1.51-.36,2.33-.59a16.83,16.83,0,0,0,2.32-.87l-4.73-2.73-.62.21-.65.2c-1.19.39-2.28.7-3.27.92a14.68,14.68,0,0,1-2.8.37,9.35,9.35,0,0,1-2.46-.23,8.33,8.33,0,0,1-2.29-.92,5.8,5.8,0,0,1-2-1.7,2.91,2.91,0,0,1-.54-1.83,3.5,3.5,0,0,1,.79-1.86A8.5,8.5,0,0,1,51.72,294l-2.81-1.63,1.65-.95L53.34,293a20.26,20.26,0,0,1,4.09-1.51,30.8,30.8,0,0,1,4.09-.74Zm-8.09,5a3.46,3.46,0,0,0,2.06.44,13.51,13.51,0,0,0,2.84-.64l-4.46-2.57C53.63,296.78,53.49,297.7,54.83,298.48Zm15.63,1.3a3.59,3.59,0,0,0-2.23-.4,18.72,18.72,0,0,0-3.11.68l4.43,2.56C71.44,301.47,71.75,300.52,70.46,299.78Z"/></g><g id="Coin-8" data-name="Coin"><ellipse class="cls-3" cx="169.52" cy="464.78" rx="41.42" ry="23.91"/><ellipse class="cls-12" cx="179.77" cy="458.63" rx="41.42" ry="23.91"/><polygon class="cls-12" points="138.37 458.99 138.37 448.09 146.55 455.38 138.37 458.99"/><polygon class="cls-12" points="221.19 448.38 221.19 458.63 217.01 463.07 214.96 451.33 221.19 448.38"/><ellipse class="cls-13" cx="179.77" cy="448.38" rx="41.42" ry="23.91"/><path class="cls-14" d="M209.37,449.12c-.42,4-3.29,8-8.63,11.08-11.58,6.68-30.35,6.68-41.93,0-5.34-3.09-8.21-7.05-8.62-11.08-.5-4.72,2.38-9.53,8.62-13.13,11.58-6.69,30.35-6.69,41.93,0C207,439.59,209.87,444.4,209.37,449.12Z"/><path class="cls-15" d="M209.37,449.12c-.42,4-3.29,8-8.63,11.08-11.58,6.68-30.35,6.68-41.93,0-5.34-3.09-8.21-7.05-8.62-11.08.41-4,3.28-8,8.62-11.08,11.58-6.69,30.35-6.69,41.93,0C206.08,441.13,209,445.09,209.37,449.12Z"/><path class="cls-14" d="M179.34,443.52a7.5,7.5,0,0,0-1.09.08c-.48.07-1,.17-1.64.3s-1.23.29-1.88.48a13.76,13.76,0,0,0-1.86.71l4.76,2.75.86-.3c1.21-.4,2.35-.75,3.42-1A16.3,16.3,0,0,1,185,446a11.49,11.49,0,0,1,2.83.19,9,9,0,0,1,2.71,1.06,5.46,5.46,0,0,1,2.06,1.81,2.49,2.49,0,0,1,.3,1.86,4.17,4.17,0,0,1-1.12,1.83,11.58,11.58,0,0,1-2.17,1.72l3,1.75-1.66.95-3-1.76a25.31,25.31,0,0,1-4.54,1.71,30.05,30.05,0,0,1-5,.94l-1.6-2.86c.29,0,.74,0,1.33-.1s1.27-.19,2-.35,1.51-.35,2.33-.59a16.83,16.83,0,0,0,2.32-.87L180,450.56l-.62.21-.65.2c-1.19.39-2.28.7-3.28.92a14.54,14.54,0,0,1-2.79.38,9.8,9.8,0,0,1-2.46-.23,8.24,8.24,0,0,1-2.29-.93,5.7,5.7,0,0,1-2-1.7,2.91,2.91,0,0,1-.54-1.83,3.44,3.44,0,0,1,.79-1.85,8.44,8.44,0,0,1,1.92-1.75l-2.8-1.62,1.65-1,2.78,1.61a19.65,19.65,0,0,1,4.09-1.5,27.87,27.87,0,0,1,4.09-.74Zm-8.09,5a3.39,3.39,0,0,0,2.06.44,13.4,13.4,0,0,0,2.84-.63l-4.46-2.58C170.05,446.81,169.91,447.73,171.25,448.51Zm15.63,1.3a3.59,3.59,0,0,0-2.23-.4,18.87,18.87,0,0,0-3.11.69l4.43,2.56C187.86,451.5,188.17,450.55,186.88,449.81Z"/><path class="cls-14" d="M176.78,455.2c.05-.12,0-1.61,0-1.61l1.82,1.17-.79,1.22Z"/><polygon class="cls-14" points="192.64 456.22 192.64 454.61 188.7 454.91 190.96 456.45 192.64 456.22"/><polygon class="cls-14" points="192.97 450.32 192.97 448.7 190.02 449.77 192.97 450.32"/><path class="cls-14" d="M180.75,450.24l1-.94,3.46,2.39-.22.7s-2.58-1.09-2.67-1.15S180.75,450.24,180.75,450.24Z"/><path class="cls-14" d="M171.7,445.18l4.59,2.6.94-.68s-.58-.67-.62-.73a6,6,0,0,0-1.43-1.19c-.34-.07-2.52-1-2.52-1Z"/><polygon class="cls-14" points="179.34 443.52 179.34 441.91 177.23 441.23 176.78 442.49 176.89 443.06 179.34 443.52"/><polygon class="cls-14" points="165.33 442.36 165.33 440.75 167.77 441.01 166.98 442.57 165.33 442.36"/><path class="cls-14" d="M165.42,447.81v-1.67h2.8l-.68,1.49L166.32,449Z"/><path class="cls-16" d="M179.34,441.91a6.54,6.54,0,0,0-1.09.09c-.48.07-1,.16-1.64.29s-1.23.29-1.88.49a13.73,13.73,0,0,0-1.86.7l4.76,2.75.86-.3q1.81-.6,3.42-1a16.3,16.3,0,0,1,3.09-.51,10.6,10.6,0,0,1,2.83.19,8.77,8.77,0,0,1,2.71,1.06,5.45,5.45,0,0,1,2.06,1.8,2.49,2.49,0,0,1,.3,1.86,4.12,4.12,0,0,1-1.12,1.83,11.19,11.19,0,0,1-2.17,1.72l3,1.75-1.66.95-3-1.76a25.32,25.32,0,0,1-4.54,1.72,31.08,31.08,0,0,1-5,.93l-1.6-2.86a12.18,12.18,0,0,0,1.33-.1c.6-.07,1.27-.18,2-.34s1.51-.36,2.33-.6a18.21,18.21,0,0,0,2.32-.86L180,449l-.62.22-.65.2c-1.19.39-2.28.69-3.28.92a15.31,15.31,0,0,1-2.79.37,9.35,9.35,0,0,1-2.46-.23,8.52,8.52,0,0,1-2.29-.92,5.81,5.81,0,0,1-2-1.7,3,3,0,0,1-.54-1.84,3.44,3.44,0,0,1,.79-1.85,8.68,8.68,0,0,1,1.92-1.75l-2.8-1.62,1.65-.95,2.78,1.6a20.23,20.23,0,0,1,4.09-1.5,30.8,30.8,0,0,1,4.09-.74Zm-8.09,5a3.46,3.46,0,0,0,2.06.45,14.18,14.18,0,0,0,2.84-.64l-4.46-2.57C170.05,445.21,169.91,446.13,171.25,446.9Zm15.63,1.3a3.53,3.53,0,0,0-2.23-.39,17.75,17.75,0,0,0-3.11.68l4.43,2.56C187.86,449.9,188.17,449,186.88,448.2Z"/></g><g id="Coin-9" data-name="Coin"><ellipse class="cls-12" cx="183.16" cy="445.87" rx="41.42" ry="23.91"/><polygon class="cls-12" points="141.75 446.24 141.75 435.34 149.93 442.63 141.75 446.24"/><polygon class="cls-12" points="224.58 435.63 224.58 445.87 220.39 450.32 218.34 438.58 224.58 435.63"/><ellipse class="cls-13" cx="183.16" cy="435.63" rx="41.42" ry="23.91"/><path class="cls-14" d="M212.76,436.37c-.42,4-3.29,8-8.63,11.08-11.58,6.68-30.36,6.68-41.94,0-5.34-3.09-8.21-7.06-8.62-11.08-.5-4.72,2.38-9.53,8.62-13.13,11.58-6.69,30.36-6.69,41.94,0C210.37,426.84,213.25,431.65,212.76,436.37Z"/><path class="cls-15" d="M212.76,436.37c-.42,4-3.29,8-8.63,11.08-11.58,6.68-30.36,6.68-41.94,0-5.34-3.09-8.21-7.06-8.62-11.08.41-4,3.28-8,8.62-11.08,11.58-6.69,30.36-6.69,41.94,0C209.47,428.37,212.34,432.34,212.76,436.37Z"/><path class="cls-14" d="M182.72,430.76a6.44,6.44,0,0,0-1.08.09c-.49.07-1,.17-1.64.3s-1.24.29-1.89.48a13.76,13.76,0,0,0-1.86.71l4.77,2.75.85-.3c1.21-.41,2.35-.75,3.43-1a16.08,16.08,0,0,1,3.08-.51,11.11,11.11,0,0,1,2.84.19,9.23,9.23,0,0,1,2.71,1.06,5.41,5.41,0,0,1,2,1.8,2.4,2.4,0,0,1,.3,1.86,4.12,4.12,0,0,1-1.11,1.84,12,12,0,0,1-2.18,1.72l3,1.74-1.65,1-3.06-1.77a25,25,0,0,1-4.54,1.72,29.68,29.68,0,0,1-5,.94l-1.6-2.86a13,13,0,0,0,1.34-.11,17.68,17.68,0,0,0,2-.34c.74-.16,1.51-.36,2.33-.59a17,17,0,0,0,2.33-.87l-4.74-2.73-.62.21-.64.2c-1.2.39-2.29.7-3.28.92a14.48,14.48,0,0,1-2.79.37,9.39,9.39,0,0,1-2.47-.23,8.15,8.15,0,0,1-2.28-.92,5.84,5.84,0,0,1-2-1.7,2.84,2.84,0,0,1-.53-1.83,3.41,3.41,0,0,1,.78-1.86,8.5,8.5,0,0,1,1.93-1.74l-2.81-1.63,1.65-1,2.78,1.61a20.49,20.49,0,0,1,4.09-1.51,31.09,31.09,0,0,1,4.09-.74Zm-8.09,5a3.47,3.47,0,0,0,2.07.44,13.44,13.44,0,0,0,2.83-.64L175.07,433Q172.63,434.6,174.63,435.76Zm15.64,1.3a3.62,3.62,0,0,0-2.23-.4,18.5,18.5,0,0,0-3.11.68l4.43,2.56Q192.2,438.18,190.27,437.06Z"/><path class="cls-14" d="M180.16,442.45c.05-.12,0-1.61,0-1.61L182,442l-.79,1.22Z"/><polygon class="cls-14" points="196.02 443.46 196.02 441.86 192.08 442.16 194.34 443.7 196.02 443.46"/><polygon class="cls-14" points="196.35 437.57 196.35 435.95 193.41 437.01 196.35 437.57"/><path class="cls-14" d="M184.14,437.48l1-.94,3.46,2.4-.21.7s-2.59-1.09-2.67-1.15S184.14,437.48,184.14,437.48Z"/><path class="cls-14" d="M175.09,432.42l4.59,2.61.94-.69s-.58-.66-.62-.72a6.22,6.22,0,0,0-1.43-1.2c-.35-.06-2.52-1-2.52-1Z"/><polygon class="cls-14" points="182.72 430.76 182.72 429.16 180.62 428.47 180.16 429.73 180.27 430.31 182.72 430.76"/><polygon class="cls-14" points="168.71 429.6 168.71 428 171.16 428.26 170.37 429.82 168.71 429.6"/><path class="cls-14" d="M168.8,435.06v-1.68h2.81l-.69,1.5-1.22,1.33Z"/><path class="cls-16" d="M182.72,429.16a6.44,6.44,0,0,0-1.08.09c-.49.07-1,.16-1.64.29s-1.24.29-1.89.48a15.24,15.24,0,0,0-1.86.71l4.77,2.75.85-.3c1.21-.4,2.35-.74,3.43-1a15.29,15.29,0,0,1,3.08-.5,10.67,10.67,0,0,1,2.84.19,8.93,8.93,0,0,1,2.71,1.05,5.5,5.5,0,0,1,2,1.81,2.4,2.4,0,0,1,.3,1.86,4.09,4.09,0,0,1-1.11,1.83,11.59,11.59,0,0,1-2.18,1.72l3,1.75-1.65.95-3.06-1.76a24.31,24.31,0,0,1-4.54,1.71,29.68,29.68,0,0,1-5,.94l-1.6-2.86a12.32,12.32,0,0,0,1.34-.1c.6-.07,1.26-.18,2-.34s1.51-.36,2.33-.6a17,17,0,0,0,2.33-.87l-4.74-2.73c-.2.07-.41.15-.62.21l-.64.2c-1.2.4-2.29.7-3.28.93a15.31,15.31,0,0,1-2.79.37,9.83,9.83,0,0,1-2.47-.23,8.46,8.46,0,0,1-2.28-.92,6,6,0,0,1-2-1.7,2.88,2.88,0,0,1-.53-1.84,3.35,3.35,0,0,1,.78-1.85,8.3,8.3,0,0,1,1.93-1.75L168.71,428l1.65-1,2.78,1.61a19.86,19.86,0,0,1,4.09-1.5,29.53,29.53,0,0,1,4.09-.74Zm-8.09,5a3.4,3.4,0,0,0,2.07.44,13.33,13.33,0,0,0,2.83-.63l-4.46-2.58C173.44,432.45,173.29,433.38,174.63,434.15Zm15.64,1.3a3.62,3.62,0,0,0-2.23-.4,18.65,18.65,0,0,0-3.11.69l4.43,2.56Q192.2,436.56,190.27,435.45Z"/></g><g id="Coin-10" data-name="Coin"><ellipse class="cls-12" cx="180.62" cy="433.6" rx="41.42" ry="23.91"/><polygon class="cls-12" points="139.21 433.96 139.21 423.06 147.39 430.35 139.21 433.96"/><polygon class="cls-12" points="222.04 423.35 222.04 433.6 217.85 438.04 215.8 426.31 222.04 423.35"/><ellipse class="cls-13" cx="180.62" cy="423.35" rx="41.42" ry="23.91"/><path class="cls-14" d="M210.22,424.09c-.42,4-3.29,8-8.63,11.08-11.58,6.68-30.36,6.68-41.94,0-5.34-3.09-8.21-7.05-8.62-11.08-.5-4.71,2.38-9.53,8.62-13.13,11.58-6.69,30.36-6.69,41.94,0C207.83,414.56,210.71,419.38,210.22,424.09Z"/><path class="cls-15" d="M210.22,424.09c-.42,4-3.29,8-8.63,11.08-11.58,6.68-30.36,6.68-41.94,0-5.34-3.09-8.21-7.05-8.62-11.08.41-4,3.28-8,8.62-11.08,11.58-6.69,30.36-6.69,41.94,0C206.93,416.1,209.8,420.06,210.22,424.09Z"/><path class="cls-14" d="M180.18,418.49a7.3,7.3,0,0,0-1.08.08c-.49.07-1,.17-1.64.3s-1.24.29-1.89.48a15.24,15.24,0,0,0-1.86.71l4.77,2.75.85-.3c1.21-.4,2.35-.75,3.43-1a16.08,16.08,0,0,1,3.08-.51,11.1,11.1,0,0,1,2.84.2,8.93,8.93,0,0,1,2.71,1.05,5.5,5.5,0,0,1,2.05,1.81,2.4,2.4,0,0,1,.3,1.86,4.09,4.09,0,0,1-1.11,1.83,11.59,11.59,0,0,1-2.18,1.72l3,1.75-1.65.95-3.06-1.76a25,25,0,0,1-4.54,1.71,29.68,29.68,0,0,1-5,.94l-1.6-2.86a12.32,12.32,0,0,0,1.34-.1c.59-.07,1.26-.19,2-.35s1.51-.35,2.33-.59a17,17,0,0,0,2.33-.87l-4.74-2.73-.62.21c-.21.07-.42.14-.65.2-1.19.39-2.28.7-3.27.92a14.53,14.53,0,0,1-2.8.38,9.8,9.8,0,0,1-2.46-.23,8.46,8.46,0,0,1-2.28-.92,5.86,5.86,0,0,1-2-1.71,2.84,2.84,0,0,1-.53-1.83,3.35,3.35,0,0,1,.78-1.85A8.3,8.3,0,0,1,169,419l-2.81-1.62,1.65-1L170.6,418a19.86,19.86,0,0,1,4.09-1.5,29.53,29.53,0,0,1,4.09-.74Zm-8.09,5a3.39,3.39,0,0,0,2.06.44,13.27,13.27,0,0,0,2.84-.63l-4.46-2.58C170.9,421.78,170.75,422.71,172.09,423.48Zm15.64,1.3a3.62,3.62,0,0,0-2.23-.4,18.65,18.65,0,0,0-3.11.69l4.43,2.56Q189.66,425.89,187.73,424.78Z"/><path class="cls-14" d="M177.62,430.17c0-.12,0-1.61,0-1.61l1.82,1.17-.79,1.22Z"/><polygon class="cls-14" points="193.48 431.19 193.48 429.58 189.54 429.88 191.8 431.43 193.48 431.19"/><polygon class="cls-14" points="193.81 425.29 193.81 423.67 190.86 424.74 193.81 425.29"/><path class="cls-14" d="M181.6,425.21l1-.94,3.46,2.39-.21.7s-2.59-1.09-2.67-1.15Z"/><path class="cls-14" d="M172.54,420.15l4.6,2.6.93-.68s-.57-.66-.61-.73-1.09-1.13-1.44-1.19-2.51-1-2.51-1Z"/><polygon class="cls-14" points="180.18 418.49 180.18 416.88 178.07 416.2 177.62 417.46 177.73 418.03 180.18 418.49"/><polygon class="cls-14" points="166.17 417.33 166.17 415.72 168.62 415.98 167.83 417.54 166.17 417.33"/><path class="cls-14" d="M166.26,422.78v-1.67h2.8l-.68,1.49-1.22,1.34Z"/><path class="cls-16" d="M180.18,416.88a6.37,6.37,0,0,0-1.08.09c-.49.07-1,.17-1.64.29s-1.24.29-1.89.49a12.54,12.54,0,0,0-1.86.71l4.77,2.74.85-.3c1.21-.4,2.35-.74,3.43-1a16.08,16.08,0,0,1,3.08-.51,10.67,10.67,0,0,1,2.84.19,9.23,9.23,0,0,1,2.71,1.06,5.41,5.41,0,0,1,2.05,1.8,2.4,2.4,0,0,1,.3,1.86,4.17,4.17,0,0,1-1.11,1.84,12,12,0,0,1-2.18,1.71l3,1.75-1.65.95-3.06-1.76a25,25,0,0,1-4.54,1.72,30.7,30.7,0,0,1-5,.94l-1.6-2.87a12.32,12.32,0,0,0,1.34-.1c.59-.07,1.26-.18,2-.34s1.51-.36,2.33-.6a16.94,16.94,0,0,0,2.33-.86l-4.74-2.74-.62.22-.65.2c-1.19.39-2.28.7-3.27.92a14.48,14.48,0,0,1-2.8.37,9.35,9.35,0,0,1-2.46-.23,8.46,8.46,0,0,1-2.28-.92,6,6,0,0,1-2-1.7,2.88,2.88,0,0,1-.53-1.84,3.38,3.38,0,0,1,.78-1.85,8.52,8.52,0,0,1,1.93-1.75l-2.81-1.62,1.65-1,2.78,1.6a21.09,21.09,0,0,1,4.09-1.5,31.09,31.09,0,0,1,4.09-.74Zm-8.09,5a3.46,3.46,0,0,0,2.06.45,14,14,0,0,0,2.84-.64l-4.46-2.57Q170.09,420.72,172.09,421.87Zm15.64,1.31a3.55,3.55,0,0,0-2.23-.4,17.56,17.56,0,0,0-3.11.68l4.43,2.56Q189.66,424.3,187.73,423.18Z"/></g><g id="Coin-11" data-name="Coin"><ellipse class="cls-12" cx="184.14" cy="421.76" rx="41.42" ry="23.91"/><polygon class="cls-12" points="142.73 422.12 142.73 411.22 150.92 418.51 142.73 422.12"/><polygon class="cls-12" points="225.56 411.51 225.56 421.75 221.38 426.2 219.32 414.46 225.56 411.51"/><ellipse class="cls-13" cx="184.14" cy="411.51" rx="41.42" ry="23.91"/><path class="cls-14" d="M213.74,412.25c-.42,4-3.29,8-8.63,11.08-11.58,6.68-30.36,6.68-41.94,0-5.34-3.09-8.21-7.05-8.62-11.08-.5-4.72,2.38-9.53,8.62-13.13,11.58-6.69,30.36-6.69,41.94,0C211.35,402.72,214.23,407.53,213.74,412.25Z"/><path class="cls-15" d="M213.74,412.25c-.42,4-3.29,8-8.63,11.08-11.58,6.68-30.36,6.68-41.94,0-5.34-3.09-8.21-7.05-8.62-11.08.41-4,3.28-8,8.62-11.08,11.58-6.69,30.36-6.69,41.94,0C210.45,404.25,213.32,408.22,213.74,412.25Z"/><path class="cls-14" d="M183.71,406.65a6.23,6.23,0,0,0-1.09.08c-.49.07-1,.17-1.64.3s-1.23.29-1.89.48a13.14,13.14,0,0,0-1.85.71L182,411l.85-.3c1.21-.41,2.36-.75,3.43-1a16.08,16.08,0,0,1,3.08-.51,11.11,11.11,0,0,1,2.84.19,9.13,9.13,0,0,1,2.71,1.06,5.41,5.41,0,0,1,2.05,1.8,2.41,2.41,0,0,1,.3,1.86,4,4,0,0,1-1.11,1.84A11.67,11.67,0,0,1,194,417.6l3,1.75-1.65.95-3-1.76a25.42,25.42,0,0,1-4.55,1.71,29.68,29.68,0,0,1-5,.94l-1.59-2.86a13,13,0,0,0,1.33-.11,18.22,18.22,0,0,0,2-.34c.73-.16,1.51-.35,2.32-.59a16.49,16.49,0,0,0,2.33-.87l-4.74-2.73-.62.21-.64.2c-1.19.39-2.29.7-3.28.92a15.37,15.37,0,0,1-2.79.38,9.88,9.88,0,0,1-2.47-.23,8.18,8.18,0,0,1-2.28-.93,5.7,5.7,0,0,1-2-1.7,2.79,2.79,0,0,1-.54-1.83,3.5,3.5,0,0,1,.78-1.85,8.3,8.3,0,0,1,1.93-1.75l-2.81-1.62,1.66-1,2.78,1.61a19.56,19.56,0,0,1,4.08-1.5,28.35,28.35,0,0,1,4.09-.74Zm-8.1,5a3.42,3.42,0,0,0,2.07.44,13.2,13.2,0,0,0,2.83-.63l-4.46-2.58Q173.6,410.48,175.61,411.64Zm15.64,1.3a3.61,3.61,0,0,0-2.23-.4,18.87,18.87,0,0,0-3.11.69l4.43,2.55Q193.18,414.06,191.25,412.94Z"/><path class="cls-14" d="M181.15,418.33c0-.12,0-1.61,0-1.61l1.81,1.17-.79,1.22Z"/><polygon class="cls-14" points="197 419.35 197 417.74 193.06 418.04 195.33 419.58 197 419.35"/><polygon class="cls-14" points="197.34 413.45 197.34 411.83 194.39 412.89 197.34 413.45"/><path class="cls-14" d="M185.12,413.36l1-.93,3.46,2.39-.21.7s-2.59-1.09-2.67-1.15S185.12,413.36,185.12,413.36Z"/><path class="cls-14" d="M176.07,408.3l4.59,2.61.94-.68s-.58-.67-.62-.73a6.25,6.25,0,0,0-1.43-1.2c-.34-.06-2.52-1-2.52-1Z"/><polygon class="cls-14" points="183.71 406.65 183.71 405.04 181.6 404.36 181.15 405.61 181.26 406.19 183.71 406.65"/><polygon class="cls-14" points="169.69 405.49 169.69 403.88 172.14 404.14 171.35 405.7 169.69 405.49"/><path class="cls-14" d="M169.78,410.94v-1.68h2.81l-.69,1.5-1.21,1.34Z"/><path class="cls-16" d="M183.71,405a6.47,6.47,0,0,0-1.09.09c-.49.07-1,.16-1.64.29s-1.23.29-1.89.49a13.11,13.11,0,0,0-1.85.7l4.76,2.75.85-.3c1.21-.4,2.36-.74,3.43-1a16.08,16.08,0,0,1,3.08-.51,10.67,10.67,0,0,1,2.84.19,9.09,9.09,0,0,1,2.71,1,5.5,5.5,0,0,1,2.05,1.81,2.4,2.4,0,0,1,.3,1.86,4,4,0,0,1-1.11,1.83A11.27,11.27,0,0,1,194,416l3,1.75-1.65.95-3-1.76a25.43,25.43,0,0,1-4.55,1.72,30.68,30.68,0,0,1-5,.93l-1.59-2.86a12.35,12.35,0,0,0,1.33-.1c.6-.07,1.26-.18,2-.34s1.51-.36,2.32-.6a16.49,16.49,0,0,0,2.33-.87l-4.74-2.73-.62.22-.64.19c-1.19.4-2.29.7-3.28.93a15.31,15.31,0,0,1-2.79.37,9.43,9.43,0,0,1-2.47-.23,8.46,8.46,0,0,1-2.28-.92,5.81,5.81,0,0,1-2-1.7,2.84,2.84,0,0,1-.54-1.84,3.5,3.5,0,0,1,.78-1.85,8.3,8.3,0,0,1,1.93-1.75l-2.81-1.62,1.66-.95,2.78,1.6a20.14,20.14,0,0,1,4.08-1.5,29.79,29.79,0,0,1,4.09-.74Zm-8.1,5a3.5,3.5,0,0,0,2.07.45,14,14,0,0,0,2.83-.64l-4.46-2.58Q173.6,408.88,175.61,410Zm15.64,1.3a3.54,3.54,0,0,0-2.23-.39,17.75,17.75,0,0,0-3.11.68l4.43,2.56C192.23,413,192.53,412.08,191.25,411.33Z"/></g><g id="Coin-12" data-name="Coin"><ellipse class="cls-12" cx="181.6" cy="409.48" rx="41.42" ry="23.91"/><polygon class="cls-12" points="140.19 409.84 140.19 398.94 148.38 406.23 140.19 409.84"/><polygon class="cls-12" points="223.02 399.23 223.02 409.48 218.83 413.92 216.78 402.19 223.02 399.23"/><ellipse class="cls-13" cx="181.6" cy="399.23" rx="41.42" ry="23.91"/><path class="cls-14" d="M211.2,400c-.42,4-3.29,8-8.63,11.08-11.58,6.68-30.36,6.68-41.94,0C155.29,408,152.42,404,152,400c-.5-4.71,2.38-9.53,8.62-13.13,11.58-6.69,30.36-6.69,41.94,0C208.81,390.44,211.69,395.26,211.2,400Z"/><path class="cls-15" d="M211.2,400c-.42,4-3.29,8-8.63,11.08-11.58,6.68-30.36,6.68-41.94,0C155.29,408,152.42,404,152,400c.41-4,3.28-8,8.62-11.08,11.58-6.69,30.36-6.69,41.94,0C207.91,392,210.78,395.94,211.2,400Z"/><path class="cls-14" d="M181.16,394.37a6.44,6.44,0,0,0-1.08.09c-.49.07-1,.16-1.64.29s-1.23.29-1.89.48a14.49,14.49,0,0,0-1.85.71l4.76,2.75.85-.3c1.21-.4,2.36-.74,3.43-1a15.29,15.29,0,0,1,3.08-.5,10.67,10.67,0,0,1,2.84.19,8.83,8.83,0,0,1,2.71,1.05,5.5,5.5,0,0,1,2,1.81,2.4,2.4,0,0,1,.3,1.86,4,4,0,0,1-1.11,1.83,11.27,11.27,0,0,1-2.18,1.72l3,1.75-1.65.95-3.06-1.76a24.31,24.31,0,0,1-4.54,1.71,29.68,29.68,0,0,1-5,.94l-1.59-2.86a12.35,12.35,0,0,0,1.33-.1c.6-.07,1.26-.18,2-.34s1.51-.36,2.32-.6a16.49,16.49,0,0,0,2.33-.87l-4.74-2.73c-.2.07-.4.15-.62.21l-.64.2c-1.2.4-2.29.7-3.28.93a15.31,15.31,0,0,1-2.79.37,9.39,9.39,0,0,1-2.47-.23,8.46,8.46,0,0,1-2.28-.92,5.81,5.81,0,0,1-2-1.7,2.84,2.84,0,0,1-.54-1.84,3.42,3.42,0,0,1,.78-1.85,8.3,8.3,0,0,1,1.93-1.75l-2.81-1.62,1.65-1,2.78,1.61a19.86,19.86,0,0,1,4.09-1.5,29.79,29.79,0,0,1,4.09-.74Zm-8.09,5a3.42,3.42,0,0,0,2.07.44,13.33,13.33,0,0,0,2.83-.63l-4.46-2.58C171.88,397.66,171.73,398.59,173.07,399.36Zm15.64,1.3a3.55,3.55,0,0,0-2.23-.39,17.75,17.75,0,0,0-3.11.68l4.43,2.56Q190.64,401.77,188.71,400.66Z"/><path class="cls-14" d="M178.61,406.05c0-.12,0-1.6,0-1.6l1.81,1.16-.79,1.22Z"/><polygon class="cls-14" points="194.46 407.07 194.46 405.46 190.52 405.76 192.78 407.31 194.46 407.07"/><polygon class="cls-14" points="194.79 401.17 194.79 399.55 191.85 400.62 194.79 401.17"/><path class="cls-14" d="M182.58,401.09l1-.94,3.46,2.39-.21.7s-2.59-1.08-2.67-1.15Z"/><path class="cls-14" d="M173.53,396l4.59,2.6.94-.68s-.58-.66-.62-.73-1.09-1.13-1.43-1.19-2.52-1-2.52-1Z"/><polygon class="cls-14" points="181.16 394.37 181.16 392.76 179.06 392.08 178.6 393.34 178.72 393.91 181.16 394.37"/><polygon class="cls-14" points="167.15 393.21 167.15 391.6 169.6 391.86 168.81 393.42 167.15 393.21"/><path class="cls-14" d="M167.24,398.66V397h2.81l-.69,1.49-1.21,1.34Z"/><path class="cls-16" d="M181.16,392.76a6.44,6.44,0,0,0-1.08.09c-.49.07-1,.17-1.64.29s-1.23.29-1.89.49a13.14,13.14,0,0,0-1.85.71l4.76,2.75.85-.31c1.21-.4,2.36-.74,3.43-1a16.08,16.08,0,0,1,3.08-.51,11.11,11.11,0,0,1,2.84.19,9.13,9.13,0,0,1,2.71,1.06,5.41,5.41,0,0,1,2,1.8,2.4,2.4,0,0,1,.3,1.86,4.08,4.08,0,0,1-1.11,1.84,11.64,11.64,0,0,1-2.18,1.71l3,1.75-1.65,1-3.06-1.77a25,25,0,0,1-4.54,1.72,30.7,30.7,0,0,1-5,.94l-1.59-2.86a13,13,0,0,0,1.33-.11c.6-.07,1.26-.18,2-.34s1.51-.36,2.32-.6a15.33,15.33,0,0,0,2.33-.86l-4.74-2.74-.62.22-.64.2c-1.2.39-2.29.7-3.28.92a14.48,14.48,0,0,1-2.79.37,9.39,9.39,0,0,1-2.47-.23,8.15,8.15,0,0,1-2.28-.92,5.81,5.81,0,0,1-2-1.7,2.82,2.82,0,0,1-.54-1.84A3.45,3.45,0,0,1,168,395a8.52,8.52,0,0,1,1.93-1.75l-2.81-1.62,1.65-1,2.78,1.6a21.09,21.09,0,0,1,4.09-1.5,31.39,31.39,0,0,1,4.09-.74Zm-8.09,5a3.5,3.5,0,0,0,2.07.45,13.44,13.44,0,0,0,2.83-.64L173.51,395Q171.07,396.6,173.07,397.75Zm15.64,1.31a3.55,3.55,0,0,0-2.23-.4,18.72,18.72,0,0,0-3.11.68l4.43,2.56Q190.64,400.18,188.71,399.06Z"/></g><g id="Coin-13" data-name="Coin"><ellipse class="cls-3" cx="41.42" cy="476.09" rx="41.42" ry="23.91"/><ellipse class="cls-12" cx="47.57" cy="473.01" rx="41.42" ry="23.91"/><polygon class="cls-12" points="6.16 473.37 6.16 462.48 14.35 469.77 6.16 473.37"/><polygon class="cls-12" points="88.99 462.76 88.99 473.01 84.81 477.45 82.76 465.72 88.99 462.76"/><ellipse class="cls-13" cx="47.57" cy="462.76" rx="41.42" ry="23.91"/><path class="cls-14" d="M77.17,463.5c-.42,4-3.29,8-8.63,11.08-11.58,6.68-30.35,6.68-41.94,0-5.33-3.08-8.2-7.05-8.61-11.08-.51-4.71,2.37-9.53,8.61-13.12,11.59-6.7,30.36-6.7,41.94,0C74.78,454,77.66,458.79,77.17,463.5Z"/><path class="cls-15" d="M77.17,463.5c-.42,4-3.29,8-8.63,11.08-11.58,6.68-30.35,6.68-41.94,0-5.33-3.08-8.2-7.05-8.61-11.08.41-4,3.28-8,8.61-11.07,11.59-6.7,30.36-6.7,41.94,0C73.88,455.51,76.75,459.48,77.17,463.5Z"/><path class="cls-14" d="M47.14,457.9a6.54,6.54,0,0,0-1.09.09c-.49.07-1,.17-1.64.29s-1.23.29-1.88.49a13.73,13.73,0,0,0-1.86.7l4.76,2.75.85-.3c1.22-.4,2.36-.74,3.43-1a16.18,16.18,0,0,1,3.09-.51,10.6,10.6,0,0,1,2.83.19,9.13,9.13,0,0,1,2.71,1.06,5.33,5.33,0,0,1,2,1.8,2.45,2.45,0,0,1,.31,1.86,4.2,4.2,0,0,1-1.12,1.84,11.89,11.89,0,0,1-2.17,1.71l3,1.75-1.65.95-3.05-1.76a25.15,25.15,0,0,1-4.55,1.72,29.65,29.65,0,0,1-5,.93l-1.59-2.86a12.18,12.18,0,0,0,1.33-.1c.6-.07,1.26-.18,2-.34s1.51-.36,2.32-.6a16.47,16.47,0,0,0,2.33-.86l-4.73-2.74-.62.22-.65.2c-1.19.39-2.29.7-3.28.92a14.48,14.48,0,0,1-2.79.37,9.47,9.47,0,0,1-2.47-.23,8.46,8.46,0,0,1-2.28-.92,5.81,5.81,0,0,1-2-1.7,2.84,2.84,0,0,1-.54-1.84,3.47,3.47,0,0,1,.79-1.85,8.46,8.46,0,0,1,1.92-1.75l-2.81-1.62,1.66-.95,2.78,1.6a20.62,20.62,0,0,1,4.09-1.5,31,31,0,0,1,4.08-.74Zm-8.1,5a3.51,3.51,0,0,0,2.07.45,14,14,0,0,0,2.83-.64l-4.46-2.57Q37,461.74,39,462.89Zm15.64,1.31a3.54,3.54,0,0,0-2.23-.4,17.75,17.75,0,0,0-3.11.68L53.77,467C55.66,465.89,56,464.94,54.68,464.2Z"/><path class="cls-14" d="M44.58,469.58c0-.11,0-1.6,0-1.6l1.82,1.17-.79,1.21Z"/><polygon class="cls-14" points="60.43 470.6 60.43 469 56.49 469.3 58.76 470.84 60.43 470.6"/><polygon class="cls-14" points="60.77 464.71 60.77 463.08 57.82 464.15 60.77 464.71"/><path class="cls-14" d="M48.55,464.62l1-.94L53,466.07l-.21.71s-2.58-1.09-2.67-1.16Z"/><path class="cls-14" d="M39.5,459.56l4.59,2.6.94-.68s-.58-.66-.62-.72a5.79,5.79,0,0,0-1.43-1.2c-.34-.06-2.52-1-2.52-1Z"/><polygon class="cls-14" points="47.14 457.9 47.14 456.3 45.03 455.61 44.58 456.87 44.69 457.45 47.14 457.9"/><polygon class="cls-14" points="33.13 456.74 33.13 455.13 35.57 455.4 34.78 456.95 33.13 456.74"/><path class="cls-14" d="M33.21,462.19s0-1.67,0-1.67H36l-.68,1.5-1.22,1.33Z"/><path class="cls-16" d="M47.14,456.3a5.41,5.41,0,0,0-1.09.08c-.49.07-1,.17-1.64.3s-1.23.29-1.88.48a13.76,13.76,0,0,0-1.86.71l4.76,2.75.85-.3c1.22-.41,2.36-.75,3.43-1a16.18,16.18,0,0,1,3.09-.51,11,11,0,0,1,2.83.19A9.13,9.13,0,0,1,58.34,460a5.33,5.33,0,0,1,2,1.8,2.45,2.45,0,0,1,.31,1.86,4.15,4.15,0,0,1-1.12,1.84,11.92,11.92,0,0,1-2.17,1.72l3,1.74-1.65,1-3.05-1.77a24.42,24.42,0,0,1-4.55,1.72,29.68,29.68,0,0,1-5,.94L44.58,468a12.8,12.8,0,0,0,1.33-.11,18.22,18.22,0,0,0,2-.34c.73-.16,1.51-.35,2.32-.59a16.49,16.49,0,0,0,2.33-.87l-4.73-2.73-.62.21-.65.2c-1.19.39-2.29.7-3.28.92a15.37,15.37,0,0,1-2.79.38,9.47,9.47,0,0,1-2.47-.24,8.15,8.15,0,0,1-2.28-.92,5.7,5.7,0,0,1-2-1.7,2.79,2.79,0,0,1-.54-1.83A3.5,3.5,0,0,1,34,458.5a8.43,8.43,0,0,1,1.92-1.74l-2.81-1.62,1.66-1,2.78,1.61a20,20,0,0,1,4.09-1.51,29.32,29.32,0,0,1,4.08-.73Zm-8.1,5a3.43,3.43,0,0,0,2.07.44,13.2,13.2,0,0,0,2.83-.63l-4.46-2.58Q37,460.13,39,461.29Zm15.64,1.3a3.61,3.61,0,0,0-2.23-.4,18.87,18.87,0,0,0-3.11.69l4.43,2.55C55.66,464.28,56,463.33,54.68,462.59Z"/></g></g></g></svg>