<svg viewBox="0 0 500 428.3" xmlns="http://www.w3.org/2000/svg"><path d="m107.37 356.22-.89-1.54 142.88-82.49 1.78 1.02z" fill="#d6d8e5" opacity=".4"/><path d="m302.94 125.68h1.78v252.3h-1.78z" fill="#d6d8e5" opacity=".4" transform="matrix(.5 -.8660254 .8660254 .5 -66.17 389.04)"/><path d="m416.09 225.6-76.42-44.12 76.42-44.12 76.42 44.12z" fill="#d6d8e5" opacity=".4"/><path d="m490.09 171.73-66.65-38.48-66.64 38.48-9.78-5.64v11.28l76.42 44.12 76.42-44.12v-11.28z" fill="#d5d6e0"/><path d="m423.44 210.21-76.42-44.12 76.42-44.12 76.42 44.12z" fill="#e9eaf4"/><path d="m423.44 73.25-63.43-36.63 63.43-36.62 63.44 36.62z" fill="#e9eaf4"/><path d="m360.01 36.62v130.58l63.43 36.63v-130.58z" fill="#dfe0ea"/><path d="m423.44 203.83 63.44-36.63v-130.58l-63.44 36.63z" fill="#d5d6e0"/><path d="m444.99 89.23-10.98 6.34v-12.68l10.98-6.34z" fill="#2b303f"/><path d="m479.8 69.13-31.46 18.16v-12.68l31.46-18.16z" fill="#2b303f"/><path d="m444.99 107.71-10.98 6.34v-12.68l10.98-6.34z" fill="#2b303f"/><path d="m479.8 87.61-31.46 18.17v-12.69l31.46-18.15z" fill="#2b303f"/><path d="m444.99 126.19-10.98 6.34v-12.68l10.98-6.34z" fill="#2b303f"/><path d="m479.8 106.1-31.46 18.16v-12.68l31.46-18.16z" fill="#2b303f"/><path d="m444.99 144.67-10.98 6.34v-12.68l10.98-6.34z" fill="#2b303f"/><path d="m479.8 124.58-31.46 18.16v-12.68l31.46-18.16z" fill="#2b303f"/><path d="m444.99 163.15-10.98 6.35v-12.69l10.98-6.34z" fill="#2b303f"/><path d="m479.8 143.06-31.46 18.16v-12.68l31.46-18.16z" fill="#2b303f"/><path d="m378.85 76.91-10.91-6.3v-12.6l10.91 6.3z" fill="#2b303f"/><path d="m413.43 96.87-31.25-18.04v-12.6l31.25 18.05z" fill="#2b303f"/><path d="m378.85 95.27-10.91-6.3v-12.59l10.91 6.29z" fill="#2b303f"/><path d="m413.43 115.24-31.25-18.05v-12.59l31.25 18.04z" fill="#2b303f"/><path d="m378.85 113.63-10.91-6.3v-12.59l10.91 6.3z" fill="#2b303f"/><path d="m413.43 133.6-31.25-18.04v-12.6l31.25 18.04z" fill="#2b303f"/><path d="m378.85 132-10.91-6.3v-12.6l10.91 6.3z" fill="#2b303f"/><path d="m413.43 151.96-31.25-18.04v-12.6l31.25 18.04z" fill="#2b303f"/><path d="m378.85 150.36-10.91-6.3v-12.6l10.91 6.3z" fill="#2b303f"/><path d="m413.43 170.32-31.25-18.04v-12.6l31.25 18.04z" fill="#2b303f"/><path d="m360.01 159.88 63.43 35.96 63.44-37.25v8.61l-63.44 36.63-63.43-36.63z" fill="#8c50ff"/><path d="m424.8 37.48a9.27 9.27 0 0 1 -4.16 0l-3.15 1.82a16.08 16.08 0 0 0 10.48 0z" fill="#2b303f"/><path d="m427.83 35.74 3.17 1.83a3.78 3.78 0 0 0 0-6.05l-3.16 1.82a2 2 0 0 1 -.01 2.4z" fill="#2b303f"/><path d="m420.65 31.6a9.42 9.42 0 0 1 4.16 0l3.19-1.83a16.08 16.08 0 0 0 -10.48 0z" fill="#2b303f"/><path d="m417.63 33.34-3.16-1.82a3.77 3.77 0 0 0 0 6.05l3.16-1.82a2 2 0 0 1 0-2.41z" fill="#2b303f"/><path d="m433.3 38.9 3 1.76c4.84-3.59 4.84-8.65 0-12.24l-3 1.77c3.21 2.59 3.21 6.11 0 8.71z" fill="#2b303f"/><path d="m430.28 40.64a21.13 21.13 0 0 1 -15.1 0l-3.05 1.76a27.78 27.78 0 0 0 21.19 0z" fill="#2b303f"/><path d="m415.18 28.44a21.15 21.15 0 0 1 15.09 0l3.05-1.76a27.87 27.87 0 0 0 -21.19 0z" fill="#2b303f"/><path d="m412.16 30.18-3.05-1.76c-4.84 3.59-4.84 8.65 0 12.24l3.05-1.76c-3.16-2.6-3.22-6.12 0-8.72z" fill="#2b303f"/><path d="m438.63 42 3 1.75c7.72-5.29 7.72-13.08 0-18.38l-3 1.75c6.08 4.3 6.07 10.54 0 14.88z" fill="#2b303f"/><path d="m435.61 43.72c-7.48 3.51-18.29 3.51-25.77 0l-3 1.75c9.17 4.45 22.66 4.45 31.83 0z" fill="#2b303f"/><path d="m409.84 25.36c7.49-3.51 18.29-3.51 25.77 0l3-1.75c-9.17-4.46-22.66-4.46-31.83 0z" fill="#2b303f"/><path d="m406.82 27.1-3-1.75c-7.72 5.3-7.72 13.09 0 18.38l3-1.75c-6.07-4.32-6.07-10.56 0-14.88z" fill="#2b303f"/><path d="m176.61 230.93-76.42-44.12 76.42-44.12 76.42 44.12z" fill="#d6d8e5" opacity=".4"/><path d="m250.6 177.06-66.64-38.47-66.64 38.47-9.78-5.64v11.29l76.42 44.11 76.42-44.11v-11.29z" fill="#d5d6e0"/><path d="m183.96 215.54-76.42-44.12 76.42-44.12 76.42 44.12z" fill="#e9eaf4"/><path d="m183.96 78.58-63.43-36.63 63.43-36.62 63.44 36.62z" fill="#e9eaf4"/><path d="m120.53 41.95v130.58l63.43 36.63v-130.58z" fill="#dfe0ea"/><path d="m183.96 209.16 63.44-36.63v-130.58l-63.44 36.63z" fill="#d5d6e0"/><path d="m205.51 94.56-10.98 6.34v-12.68l10.98-6.34z" fill="#2b303f"/><path d="m240.31 74.47-31.45 18.16v-12.69l31.45-18.16z" fill="#2b303f"/><path d="m205.51 113.04-10.98 6.34v-12.68l10.98-6.34z" fill="#2b303f"/><path d="m240.31 92.95-31.45 18.16v-12.68l31.45-18.16z" fill="#2b303f"/><path d="m205.51 131.52-10.98 6.34v-12.68l10.98-6.34z" fill="#2b303f"/><path d="m240.31 111.43-31.45 18.16v-12.68l31.45-18.16z" fill="#2b303f"/><path d="m205.51 150-10.98 6.34v-12.68l10.98-6.34z" fill="#2b303f"/><path d="m240.31 129.91-31.45 18.16v-12.68l31.45-18.16z" fill="#2b303f"/><path d="m205.51 168.49-10.98 6.34v-12.68l10.98-6.34z" fill="#2b303f"/><path d="m240.31 148.39-31.45 18.16v-12.68l31.45-18.16z" fill="#2b303f"/><path d="m139.37 82.24-10.91-6.3v-12.6l10.91 6.3z" fill="#2b303f"/><path d="m173.94 102.2-31.25-18.04v-12.6l31.25 18.05z" fill="#2b303f"/><path d="m139.37 100.6-10.91-6.3v-12.59l10.91 6.3z" fill="#2b303f"/><path d="m173.94 120.57-31.25-18.04v-12.6l31.25 18.04z" fill="#2b303f"/><path d="m139.37 118.97-10.91-6.3v-12.6l10.91 6.3z" fill="#2b303f"/><path d="m173.94 138.93-31.25-18.04v-12.6l31.25 18.04z" fill="#2b303f"/><path d="m139.37 137.33-10.91-6.3v-12.6l10.91 6.3z" fill="#2b303f"/><path d="m173.94 157.29-31.25-18.04v-12.6l31.25 18.04z" fill="#2b303f"/><path d="m139.37 155.69-10.91-6.3v-12.6l10.91 6.3z" fill="#2b303f"/><path d="m173.94 175.65-31.25-18.04v-12.6l31.25 18.05z" fill="#2b303f"/><path d="m120.53 165.21 63.43 35.97 63.44-37.26v8.61l-63.44 36.63-63.43-36.63z" fill="#8c50ff"/><path d="m185.32 42.82a9.42 9.42 0 0 1 -4.16 0l-3.16 1.82a16.11 16.11 0 0 0 10.49 0z" fill="#2b303f"/><path d="m188.34 41.07 3.17 1.83a3.78 3.78 0 0 0 0-6l-3.16 1.82a2 2 0 0 1 -.01 2.35z" fill="#2b303f"/><path d="m181.17 36.93a9.42 9.42 0 0 1 4.16 0l3.16-1.82a16.18 16.18 0 0 0 -10.49 0z" fill="#2b303f"/><path d="m178.15 38.67-3.15-1.82a3.78 3.78 0 0 0 0 6l3.16-1.82a2 2 0 0 1 -.01-2.36z" fill="#2b303f"/><path d="m193.82 44.23 3 1.76c4.84-3.59 4.84-8.65 0-12.24l-3.05 1.77c3.23 2.6 3.23 6.11.05 8.71z" fill="#2b303f"/><path d="m190.79 46a21.15 21.15 0 0 1 -15.09 0l-3 1.76a27.78 27.78 0 0 0 21.19 0z" fill="#2b303f"/><path d="m175.7 33.77a21.15 21.15 0 0 1 15.09 0l3.05-1.77a27.87 27.87 0 0 0 -21.19 0z" fill="#2b303f"/><path d="m172.68 35.51-3.05-1.75c-4.84 3.58-4.84 8.64 0 12.23l3.05-1.76c-3.21-2.6-3.22-6.12 0-8.72z" fill="#2b303f"/><path d="m199.15 47.31 3 1.75c7.72-5.29 7.72-13.08 0-18.38l-3 1.75c6.07 4.32 6.07 10.57 0 14.88z" fill="#2b303f"/><path d="m196.13 49.05c-7.49 3.51-18.29 3.51-25.77 0l-3 1.75c9.17 4.45 22.66 4.45 31.83 0z" fill="#2b303f"/><path d="m170.36 30.69c7.49-3.5 18.29-3.51 25.77 0l3-1.75c-9.17-4.46-22.66-4.46-31.83 0z" fill="#2b303f"/><path d="m167.34 32.43-3-1.75c-7.72 5.3-7.72 13.09 0 18.38l3-1.75c-6.07-4.31-6.07-10.55 0-14.88z" fill="#2b303f"/><path d="m292.1 296.86-76.42-44.12 76.42-44.12 76.42 44.12z" fill="#d6d8e5" opacity=".4"/><path d="m366.09 242.99-66.64-38.48-66.64 38.48-9.78-5.64v11.28l76.42 44.12 76.42-44.11v-11.29z" fill="#d5d6e0"/><path d="m299.45 281.47-76.42-44.12 76.42-44.12 76.42 44.12z" fill="#e9eaf4"/><path d="m299.45 144.51-63.43-36.63 63.43-36.62 63.43 36.63z" fill="#e9eaf4"/><path d="m236.02 107.88v130.58l63.43 36.63v-130.58z" fill="#dfe0ea"/><path d="m299.45 275.09 63.43-36.62v-130.58l-63.43 36.62z" fill="#d5d6e0"/><path d="m321 160.49-10.98 6.34v-12.68l10.98-6.34z" fill="#2b303f"/><path d="m355.8 140.4-31.45 18.16v-12.68l31.45-18.16z" fill="#2b303f"/><path d="m321 178.97-10.98 6.34v-12.68l10.98-6.34z" fill="#2b303f"/><path d="m355.8 158.88-31.45 18.16v-12.68l31.45-18.16z" fill="#2b303f"/><path d="m321 197.45-10.98 6.34v-12.68l10.98-6.34z" fill="#2b303f"/><path d="m355.8 177.36-31.45 18.16v-12.68l31.45-18.16z" fill="#2b303f"/><path d="m321 215.93-10.98 6.34v-12.68l10.98-6.34z" fill="#2b303f"/><path d="m355.8 195.84-31.45 18.16v-12.68l31.45-18.16z" fill="#2b303f"/><path d="m321 234.42-10.98 6.34v-12.68l10.98-6.34z" fill="#2b303f"/><path d="m355.8 214.32-31.45 18.16v-12.68l31.45-18.16z" fill="#2b303f"/><path d="m254.85 148.17-10.91-6.3v-12.59l10.91 6.29z" fill="#2b303f"/><path d="m289.43 168.13-31.25-18.04v-12.59l31.25 18.04z" fill="#2b303f"/><path d="m254.85 166.53-10.91-6.3v-12.59l10.91 6.3z" fill="#2b303f"/><path d="m289.43 186.5-31.25-18.04v-12.6l31.25 18.04z" fill="#2b303f"/><path d="m254.85 184.9-10.91-6.3v-12.6l10.91 6.3z" fill="#2b303f"/><path d="m289.43 204.86-31.25-18.04v-12.6l31.25 18.04z" fill="#2b303f"/><path d="m254.85 203.26-10.91-6.3v-12.6l10.91 6.3z" fill="#2b303f"/><path d="m289.43 223.22-31.25-18.04v-12.6l31.25 18.04z" fill="#2b303f"/><path d="m254.85 221.62-10.91-6.3v-12.6l10.91 6.3z" fill="#2b303f"/><path d="m289.43 241.58-31.25-18.04v-12.6l31.25 18.05z" fill="#2b303f"/><path d="m236.02 231.14 63.43 35.97 63.43-37.26v8.62l-63.43 36.62-63.43-36.63z" fill="#8c50ff"/><path d="m300.81 108.75a9.42 9.42 0 0 1 -4.16 0l-3.16 1.82a16.11 16.11 0 0 0 10.49 0z" fill="#2b303f"/><path d="m303.83 107 3.17 1.83a3.78 3.78 0 0 0 0-6l-3.16 1.82a2 2 0 0 1 -.01 2.35z" fill="#2b303f"/><path d="m296.66 102.86a9.42 9.42 0 0 1 4.16 0l3.18-1.86a16.18 16.18 0 0 0 -10.49 0z" fill="#2b303f"/><path d="m293.64 104.6-3.17-1.82a3.78 3.78 0 0 0 0 6l3.16-1.82a2 2 0 0 1 .01-2.36z" fill="#2b303f"/><path d="m309.31 110.16 3 1.76c4.84-3.59 4.84-8.65 0-12.24l-3.05 1.77c3.25 2.6 3.26 6.11.05 8.71z" fill="#2b303f"/><path d="m306.28 111.91a21.15 21.15 0 0 1 -15.09 0l-3.05 1.76a27.78 27.78 0 0 0 21.19 0z" fill="#2b303f"/><path d="m291.19 99.7a21.15 21.15 0 0 1 15.09 0l3.05-1.76a27.87 27.87 0 0 0 -21.19 0z" fill="#2b303f"/><path d="m288.16 101.44-3-1.75c-4.84 3.58-4.84 8.64 0 12.23l3.05-1.76c-3.21-2.6-3.21-6.16-.05-8.72z" fill="#2b303f"/><path d="m314.64 113.24 3 1.75c7.72-5.29 7.72-13.08 0-18.38l-3 1.75c6.07 4.32 6.07 10.56 0 14.88z" fill="#2b303f"/><path d="m311.62 115c-7.49 3.51-18.29 3.51-25.77 0l-3 1.75c9.17 4.45 22.66 4.45 31.83 0z" fill="#2b303f"/><path d="m285.85 96.62c7.49-3.5 18.29-3.51 25.77 0l3-1.75c-9.17-4.46-22.66-4.46-31.83 0z" fill="#2b303f"/><path d="m282.83 98.36-3-1.75c-7.72 5.3-7.72 13.09 0 18.38l3-1.75c-6.07-4.32-6.07-10.55 0-14.88z" fill="#2b303f"/><path d="m416.23 368.59-76.42-44.12 76.42-44.12 76.42 44.12z" fill="#d6d8e5" opacity=".4"/><path d="m490.23 314.72-66.65-38.47-66.64 38.47-9.78-5.64v11.29l76.42 44.12 76.42-44.12v-11.29z" fill="#d5d6e0"/><path d="m423.58 353.2-76.42-44.12 76.42-44.12 76.42 44.12z" fill="#e9eaf4"/><path d="m423.58 216.24-63.43-36.62 63.43-36.63 63.43 36.63z" fill="#e9eaf4"/><path d="m360.15 179.62v130.57l63.43 36.63v-130.58z" fill="#dfe0ea"/><path d="m423.58 346.82 63.43-36.62v-130.58l-63.43 36.62z" fill="#d5d6e0"/><path d="m445.13 232.22-10.98 6.34v-12.68l10.98-6.34z" fill="#2b303f"/><path d="m479.93 212.13-31.45 18.16v-12.68l31.45-18.16z" fill="#2b303f"/><path d="m445.13 250.7-10.98 6.34v-12.68l10.98-6.34z" fill="#2b303f"/><path d="m479.93 230.61-31.45 18.16v-12.68l31.45-18.16z" fill="#2b303f"/><path d="m445.13 269.18-10.98 6.34v-12.68l10.98-6.34z" fill="#2b303f"/><path d="m479.93 249.09-31.45 18.16v-12.68l31.45-18.16z" fill="#2b303f"/><path d="m445.13 287.67-10.98 6.34v-12.68l10.98-6.34z" fill="#2b303f"/><path d="m479.93 267.57-31.45 18.16v-12.68l31.45-18.16z" fill="#2b303f"/><path d="m445.13 306.15-10.98 6.34v-12.68l10.98-6.34z" fill="#2b303f"/><path d="m479.93 286.05-31.45 18.16v-12.68l31.45-18.16z" fill="#2b303f"/><path d="m378.99 219.9-10.91-6.3v-12.59l10.91 6.3z" fill="#2b303f"/><path d="m413.56 239.87-31.25-18.05v-12.59l31.25 18.04z" fill="#2b303f"/><path d="m378.99 238.26-10.91-6.29v-12.6l10.91 6.3z" fill="#2b303f"/><path d="m413.56 258.23-31.25-18.04v-12.6l31.25 18.04z" fill="#2b303f"/><path d="m378.99 256.63-10.91-6.3v-12.6l10.91 6.3z" fill="#2b303f"/><path d="m413.56 276.59-31.25-18.04v-12.6l31.25 18.04z" fill="#2b303f"/><path d="m378.99 274.99-10.91-6.3v-12.6l10.91 6.3z" fill="#2b303f"/><path d="m413.56 294.95-31.25-18.04v-12.6l31.25 18.05z" fill="#2b303f"/><path d="m378.99 293.35-10.91-6.3v-12.6l10.91 6.3z" fill="#2b303f"/><path d="m413.56 313.31-31.25-18.04v-12.6l31.25 18.05z" fill="#2b303f"/><path d="m360.15 302.88 63.43 35.96 63.43-37.26v8.62l-63.43 36.62-63.43-36.63z" fill="#8c50ff"/><path d="m424.94 180.48a9.27 9.27 0 0 1 -4.16 0l-3.16 1.82a16.11 16.11 0 0 0 10.49 0z" fill="#2b303f"/><path d="m428 178.73 3.17 1.83a3.78 3.78 0 0 0 0-6.05l-3.17 1.82a2 2 0 0 1 0 2.4z" fill="#2b303f"/><path d="m420.79 174.59a9.27 9.27 0 0 1 4.16 0l3.16-1.83a16.22 16.22 0 0 0 -10.48 0z" fill="#2b303f"/><path d="m417.77 176.33-3.17-1.82a3.78 3.78 0 0 0 0 6.05l3.16-1.82a2 2 0 0 1 .01-2.41z" fill="#2b303f"/><path d="m433.44 181.89 3 1.76c4.84-3.58 4.84-8.65 0-12.23l-3.05 1.76c3.26 2.6 3.26 6.12.05 8.71z" fill="#2b303f"/><path d="m430.42 183.64a21.18 21.18 0 0 1 -15.1 0l-3.05 1.77a27.87 27.87 0 0 0 21.19 0z" fill="#2b303f"/><path d="m415.32 171.43a21.21 21.21 0 0 1 15.09 0l3-1.76a27.87 27.87 0 0 0 -21.19 0z" fill="#2b303f"/><path d="m412.3 173.18-3.05-1.76c-4.84 3.58-4.84 8.65 0 12.23l3.05-1.76c-3.21-2.6-3.22-6.12 0-8.71z" fill="#2b303f"/><path d="m438.77 185 3 1.75c7.72-5.29 7.72-13.08 0-18.38l-3 1.75c6.07 4.3 6.07 10.53 0 14.88z" fill="#2b303f"/><path d="m435.75 186.72c-7.49 3.5-18.29 3.5-25.77 0l-3 1.75c9.17 4.45 22.66 4.45 31.83 0z" fill="#2b303f"/><path d="m410 168.35c7.49-3.5 18.29-3.51 25.77 0l3-1.75c-9.17-4.46-22.66-4.45-31.83 0z" fill="#2b303f"/><path d="m407 170.1-3-1.75c-7.72 5.29-7.72 13.08 0 18.37l3-1.75c-6.11-4.32-6.11-10.55 0-14.87z" fill="#2b303f"/><path d="m49.31 426.28-45.8-26.45c-5.2-3-4.55-8.23 1.45-11.69l23.25-13.43c6-3.46 15.07-3.84 20.26-.84l45.8 26.45c5.2 3 4.54 8.23-1.45 11.69l-23.25 13.43c-6 3.46-15.07 3.84-20.26.84z" fill="#d6d8e5" opacity=".4"/><path d="m118.1 393.28v-63.94l-97.75-11v64.34c-.07 2 1.06 3.84 3.48 5.24l45.8 26.44c5.19 3 14.27 2.62 20.26-.84l23.25-13.42c3.38-2 5.06-4.46 5-6.82z" fill="#d6d8e5"/><path d="m118.08 336.32v-7h-7.52l-41.76-24.1c-5.19-3-14.26-2.62-20.26.84l-23.25 13.42a13.81 13.81 0 0 0 -1.2.78l-3.74-1.92s0 7.37 0 7.62c-.05 2 1.08 3.83 3.49 5.22l45.8 26.44c5.19 3 14.27 2.63 20.26-.84l23.25-13.42c3.48-2 5.15-4.61 4.93-7z" fill="#edf0f9"/><path d="m69.63 350-45.8-26.44c-5.19-3-4.54-8.23 1.46-11.7l23.25-13.42c6-3.46 15.07-3.84 20.26-.84l45.8 26.44c5.19 3 4.54 8.24-1.46 11.7l-23.25 13.44c-5.99 3.47-15.07 3.82-20.26.82z" fill="#e2e5f2"/><path d="m93.16 326a2.25 2.25 0 0 1 -1.16 2l-21.1 12.18a2.26 2.26 0 0 1 -2.25 0l-29.52-17.11a2.24 2.24 0 0 1 -1.13-1.95v-.12z" fill="#e5e5e5"/><path d="m92 328-21.1 12.18a2.24 2.24 0 0 1 -1.12.3v-14.48h23.38a2.25 2.25 0 0 1 -1.16 2z" fill="#e5e5e5"/><path d="m70.61 339a1.59 1.59 0 0 1 -1.61 0l-30.7-17.71a.43.43 0 0 1 0-.82l22.63-13.07 32.23 18.6z" fill="#f4f4f4"/><path d="m50.92 326.01.16.09 9.85 5.69 5.4-3.12.15-.09-10-5.78z" fill="#bfbfbf"/><path d="m51.08 326.1 9.85 5.69 5.4-3.12-9.85-5.69z" fill="#e5e5e5"/><g fill="#2b303f"><path d="m84.61 327.13 1.39.87a.48.48 0 0 0 .45 0l1.35-.78c.14-.08.15-.19 0-.26l-1.42-.82a.48.48 0 0 0 -.45 0l-1.35.78c-.07.08-.08.14.03.21z"/><path d="m82.6 326 1.42.82a.5.5 0 0 0 .46 0l1.35-.78c.14-.08.15-.2 0-.26l-1.42-.82a.48.48 0 0 0 -.45 0l-1.35.78c-.11.05-.12.16-.01.26z"/><path d="m80.59 324.81 1.42.82a.5.5 0 0 0 .46 0l1.35-.78c.13-.08.15-.2 0-.26l-1.42-.82a.48.48 0 0 0 -.45 0l-1.35.78c-.11.08-.12.19-.01.26z"/><path d="m78.58 323.65 1.42.82a.5.5 0 0 0 .46 0l1.35-.78c.13-.08.15-.2 0-.26l-1.42-.82a.48.48 0 0 0 -.45 0l-1.35.78c-.11.07-.12.19-.01.26z"/><path d="m76.57 322.49 1.42.82a.51.51 0 0 0 .45 0l1.36-.78c.13-.08.15-.2 0-.26l-1.42-.82a.51.51 0 0 0 -.45 0l-1.36.79c-.1.06-.11.18 0 .25z"/><path d="m74.56 321.33 1.42.82a.51.51 0 0 0 .45 0l1.36-.78c.13-.08.15-.2 0-.27l-1.42-.82a.55.55 0 0 0 -.45 0l-1.36.79c-.1.07-.11.19 0 .26z"/><path d="m72.55 320.17 1.45.83a.55.55 0 0 0 .45 0l1.36-.79c.13-.07.15-.19 0-.26l-1.42-.82a.55.55 0 0 0 -.45 0l-1.36.78c-.13.09-.15.19-.03.26z"/><path d="m70.54 319 1.42.82a.55.55 0 0 0 .45 0l1.36-.79c.13-.07.15-.19 0-.26l-1.42-.82a.51.51 0 0 0 -.45 0l-1.36.78c-.1.09-.12.21 0 .27z"/><path d="m68.53 317.84 1.42.82a.51.51 0 0 0 .45 0l1.36-.79c.13-.07.15-.19 0-.26l-1.42-.82a.51.51 0 0 0 -.45 0l-1.36.78c-.1.09-.12.21 0 .27z"/><path d="m66.52 316.68 1.42.82a.48.48 0 0 0 .45 0l1.36-.78c.13-.08.14-.19 0-.26l-1.42-.82a.48.48 0 0 0 -.45 0l-1.36.78c-.1.08-.12.2 0 .26z"/><path d="m64.51 315.52 1.42.82a.48.48 0 0 0 .45 0l1.36-.78c.13-.08.14-.19 0-.26l-1.42-.82a.48.48 0 0 0 -.45 0l-1.36.78c-.1.08-.12.2 0 .26z"/><path d="m62.5 314.36 1.42.82a.48.48 0 0 0 .45 0l1.35-.78c.14-.08.15-.19 0-.26l-1.42-.82a.5.5 0 0 0 -.46 0l-1.35.78c-.09.08-.11.19.01.26z"/><path d="m60.49 313.2 1.42.82a.48.48 0 0 0 .45 0l1.35-.78c.14-.08.15-.19 0-.26l-1.42-.82a.5.5 0 0 0 -.46 0l-1.35.78c-.09.06-.11.19.01.26z"/><path d="m57.51 311.48 2.39 1.38a.48.48 0 0 0 .45 0l1.35-.78c.14-.08.15-.2 0-.26l-2.39-1.38a.48.48 0 0 0 -.45 0l-1.36.78c-.09.08-.11.19.01.26z"/><path d="m79.68 326.53 1.42.82a.53.53 0 0 0 .46 0l1.35-.79c.13-.07.15-.19 0-.26l-1.42-.82a.51.51 0 0 0 -.45 0l-1.35.78c-.11.09-.12.21-.01.27z"/><path d="m77.67 325.37 1.42.82a.48.48 0 0 0 .45 0l1.36-.78c.13-.08.15-.19 0-.26l-1.42-.82a.48.48 0 0 0 -.45 0l-1.36.78c-.1.08-.12.19 0 .26z"/><path d="m75.65 324.21 1.43.82a.48.48 0 0 0 .45 0l1.35-.78c.14-.08.15-.2 0-.26l-1.43-.82a.48.48 0 0 0 -.45 0l-1.35.78c-.1.05-.11.19 0 .26z"/><path d="m73.64 323.05 1.42.82a.55.55 0 0 0 .45 0l1.36-.79c.13-.07.15-.19 0-.26l-1.39-.82a.51.51 0 0 0 -.45 0l-1.36.78c-.13.08-.15.22-.03.27z"/><path d="m71.64 321.89 1.42.82a.5.5 0 0 0 .46 0l1.35-.78c.13-.08.15-.19 0-.26l-1.42-.82a.48.48 0 0 0 -.45 0l-1.35.78c-.11.08-.12.2-.01.26z"/><path d="m69.63 320.73 1.42.82a.48.48 0 0 0 .45 0l1.36-.78c.13-.08.14-.2 0-.26l-1.42-.82a.48.48 0 0 0 -.45 0l-1.36.78c-.1.08-.12.19 0 .26z"/><path d="m67.61 319.57 1.42.82a.57.57 0 0 0 .46 0l1.35-.78c.14-.08.15-.2 0-.27l-1.42-.82a.55.55 0 0 0 -.45 0l-1.35.79c-.11.07-.12.19-.01.26z"/><path d="m65.6 318.4 1.42.82a.48.48 0 0 0 .45 0l1.36-.78c.13-.07.15-.19 0-.26l-1.42-.82a.48.48 0 0 0 -.45 0l-1.36.78c-.1.08-.12.2 0 .26z"/><path d="m63.59 317.24 1.42.82a.48.48 0 0 0 .45 0l1.35-.78c.14-.08.15-.19 0-.26l-1.42-.82a.5.5 0 0 0 -.46 0l-1.35.78c-.1.08-.11.19.01.26z"/><path d="m61.57 316.08 1.42.82a.51.51 0 0 0 .45 0l1.36-.78c.13-.08.15-.2 0-.26l-1.39-.86a.51.51 0 0 0 -.45 0l-1.36.79c-.13.1-.14.21-.03.29z"/><path d="m59.56 314.91 1.42.82a.51.51 0 0 0 .45 0l1.36-.79c.13-.07.14-.19 0-.26l-1.42-.82a.51.51 0 0 0 -.45 0l-1.36.78c-.1.09-.12.21 0 .27z"/><path d="m57.54 313.75 1.42.82a.5.5 0 0 0 .46 0l1.35-.78c.14-.08.15-.19 0-.26l-1.42-.82a.48.48 0 0 0 -.45 0l-1.35.78c-.11.08-.12.2-.01.26z"/><path d="m81.7 327.7 2.39 1.38a.55.55 0 0 0 .45 0l1.35-.78c.14-.08.15-.2 0-.27l-2.39-1.38a.55.55 0 0 0 -.45 0l-1.36.79c-.09.07-.11.19.01.26z"/><path d="m57.38 311.54 1.42.82c.11.06.11.17 0 .24l-1.44.83a.48.48 0 0 1 -.42 0l-.11-.07a.45.45 0 0 0 -.39 0l-1.51.88a.45.45 0 0 1 -.42 0l-.91-.52a.14.14 0 0 1 0-.25l1.42-.81.29-.17.21-.13.22-.12 1.22-.7a.45.45 0 0 1 .42 0z"/><path d="m76.81 331.63 1.42.82a.51.51 0 0 0 .45 0l1.36-.78c.13-.08.15-.2 0-.27l-1.42-.82a.55.55 0 0 0 -.45 0l-1.36.79c-.1.07-.11.19 0 .26z"/><path d="m74.81 330.47 1.42.82a.48.48 0 0 0 .45 0l1.35-.78c.14-.08.15-.2 0-.26l-1.42-.82a.5.5 0 0 0 -.46 0l-1.35.78c-.1.08-.11.19.01.26z"/><path d="m72.8 329.31 1.42.82a.48.48 0 0 0 .45 0l1.36-.78c.13-.08.15-.19 0-.26l-1.42-.82a.48.48 0 0 0 -.45 0l-1.36.78c-.1.08-.11.2 0 .26z"/><path d="m55.73 319.45 1.42.82a.51.51 0 0 0 .45 0l1.35-.79c.14-.07.15-.19 0-.26l-1.42-.82a.5.5 0 0 0 -.46 0l-1.35.78c-.09.09-.11.21.01.27z"/><path d="m53.72 318.3 1.42.82a.51.51 0 0 0 .45 0l1.36-.78c.13-.08.15-.2 0-.27l-1.42-.82a.55.55 0 0 0 -.45 0l-1.36.79c-.1.07-.11.19 0 .26z"/><path d="m51.72 317.14 1.42.82a.48.48 0 0 0 .45 0l1.35-.78c.14-.08.15-.2 0-.26l-1.42-.82a.5.5 0 0 0 -.46 0l-1.35.78c-.09.12-.11.19.01.26z"/><path d="m49.71 316 1.42.82a.48.48 0 0 0 .45 0l1.36-.78c.13-.08.15-.19 0-.26l-1.42-.82a.48.48 0 0 0 -.45 0l-1.36.78c-.1.06-.11.17 0 .26z"/><path d="m70.28 327.86 1.94 1.14a.51.51 0 0 0 .45 0l1.35-.79c.14-.07.15-.19 0-.26l-1.94-1.12a.55.55 0 0 0 -.45 0l-1.36.79c-.09.05-.11.17.01.24z"/><path d="m57.73 320.61 1.94 1.12a.48.48 0 0 0 .45 0l1.36-.78c.13-.08.14-.2 0-.26l-1.94-1.12a.48.48 0 0 0 -.45 0l-1.36.78c-.1.08-.11.19 0 .26z"/><path d="m60.25 322.07 9.45 5.45a.48.48 0 0 0 .45 0l1.35-.78c.14-.08.15-.2 0-.26l-9.41-5.48a.51.51 0 0 0 -.45 0l-1.35.79c-.14.09-.15.21-.04.28z"/><path d="m77.19 327.34 1.42.82a.48.48 0 0 0 .45 0l1.36-.78c.13-.07.14-.19 0-.26l-1.42-.84a.48.48 0 0 0 -.45 0l-1.36.78c-.1.1-.12.22 0 .28z"/><path d="m75.18 326.18 1.42.82a.51.51 0 0 0 .45 0l1.36-.79c.13-.07.15-.19 0-.26l-1.41-.83a.48.48 0 0 0 -.45 0l-1.36.78c-.11.1-.13.22-.01.28z"/><path d="m73.17 325 1.42.82a.51.51 0 0 0 .45 0l1.36-.82c.13-.07.15-.19 0-.26l-1.4-.74a.51.51 0 0 0 -.45 0l-1.36.78c-.12.06-.14.22-.02.22z"/><path d="m71.16 323.86 1.42.82a.51.51 0 0 0 .45 0l1.36-.79c.13-.07.15-.19 0-.26l-1.39-.83a.51.51 0 0 0 -.45 0l-1.36.78c-.13.1-.14.22-.03.28z"/><path d="m69.15 322.71 1.42.82a.57.57 0 0 0 .46 0l1.35-.79c.14-.07.15-.19 0-.26l-1.38-.84a.51.51 0 0 0 -.45 0l-1.35.78c-.15.1-.2.22-.05.29z"/><path d="m67.15 321.55 1.42.82a.55.55 0 0 0 .45 0l1.35-.79c.14-.07.15-.19 0-.26l-1.37-.84a.57.57 0 0 0 -.46 0l-1.35.78c-.19.1-.19.22-.04.29z"/><path d="m65.14 320.39 1.42.82a.55.55 0 0 0 .45 0l1.35-.78c.14-.08.15-.2 0-.27l-1.36-.84a.57.57 0 0 0 -.46 0l-1.35.79c-.19.09-.19.21-.05.28z"/><path d="m63.13 319.23 1.42.82a.51.51 0 0 0 .45 0l1.36-.78c.13-.08.14-.2 0-.27l-1.36-.84a.55.55 0 0 0 -.45 0l-1.36.79c-.19.05-.19.21-.06.28z"/><path d="m61.12 318.07 1.42.82a.51.51 0 0 0 .45 0l1.36-.78c.13-.08.15-.2 0-.27l-1.35-.84a.55.55 0 0 0 -.45 0l-1.36.79c-.19.09-.19.21-.07.28z"/><path d="m59.11 316.91 1.42.82a.51.51 0 0 0 .45 0l1.36-.78c.13-.08.15-.2 0-.26l-1.34-.84a.51.51 0 0 0 -.45 0l-1.36.79c-.19.08-.19.2-.08.27z"/><path d="m57.1 315.75 1.42.82a.53.53 0 0 0 .46 0l1.35-.78c.13-.08.15-.2 0-.26l-1.42-.82a.51.51 0 0 0 -.45 0l-1.35.79c-.11.06-.11.18-.01.25z"/><path d="m55.09 314.59 1.42.82a.5.5 0 0 0 .46 0l1.35-.78c.14-.08.15-.2 0-.26l-1.42-.82a.51.51 0 0 0 -.45 0l-1.35.79c-.1.06-.1.18-.01.25z"/><path d="m79.2 328.5 2.93 1.7a.5.5 0 0 0 .46 0l1.35-.78c.13-.08.15-.2 0-.26l-2.94-1.72a.5.5 0 0 0 -.46 0l-1.35.78c-.1.1-.11.22.01.28z"/><path d="m76.24 329 1.42.82a.51.51 0 0 0 .45 0l1.35-.79c.14-.07.15-.19 0-.26l-1.38-.77a.53.53 0 0 0 -.46 0l-1.35.78c-.14.08-.15.22-.03.22z"/><path d="m74.23 327.89 1.42.82a.55.55 0 0 0 .45 0l1.36-.79c.13-.07.14-.19 0-.26l-1.42-.82a.51.51 0 0 0 -.45 0l-1.36.78c-.1.08-.12.2 0 .27z"/><path d="m72.22 326.73 1.42.82a.55.55 0 0 0 .45 0l1.36-.79c.13-.07.15-.19 0-.26l-1.42-.82a.51.51 0 0 0 -.45 0l-1.36.78c-.1.08-.12.2 0 .27z"/><path d="m70.21 325.57 1.42.82a.55.55 0 0 0 .45 0l1.36-.78c.13-.08.15-.2 0-.27l-1.42-.82a.55.55 0 0 0 -.45 0l-1.36.79c-.1.07-.11.19 0 .26z"/><path d="m68.2 324.41 1.42.82a.53.53 0 0 0 .46 0l1.35-.78c.13-.08.15-.2 0-.27l-1.43-.84a.55.55 0 0 0 -.45 0l-1.35.79c-.1.09-.11.21 0 .28z"/><path d="m66.19 323.25 1.43.82a.51.51 0 0 0 .45 0l1.35-.78c.14-.08.15-.2 0-.26l-1.42-.84a.51.51 0 0 0 -.45 0l-1.35.79c-.11.08-.12.2-.01.27z"/><path d="m64.19 322.09 1.42.82a.48.48 0 0 0 .45 0l1.35-.78c.14-.08.15-.2 0-.26l-1.41-.87a.53.53 0 0 0 -.46 0l-1.35.79c-.1.11-.12.21 0 .3z"/><path d="m62.18 320.93 1.42.82a.48.48 0 0 0 .45 0l1.36-.78c.13-.08.14-.2 0-.26l-1.41-.84a.48.48 0 0 0 -.45 0l-1.36.78c-.11.1-.13.21-.01.28z"/><path d="m60.17 319.77 1.42.82a.48.48 0 0 0 .45 0l1.36-.78c.13-.08.15-.2 0-.26l-1.4-.84a.48.48 0 0 0 -.45 0l-1.36.78c-.12.1-.14.21-.02.28z"/><path d="m58.16 318.61 1.42.82a.48.48 0 0 0 .45 0l1.36-.78c.13-.08.15-.2 0-.26l-1.39-.84a.48.48 0 0 0 -.45 0l-1.35.78c-.14.1-.15.21-.04.28z"/><path d="m56.15 317.45 1.42.82a.5.5 0 0 0 .46 0l1.35-.78c.14-.08.15-.19 0-.26l-1.38-.84a.48.48 0 0 0 -.45 0l-1.35.78c-.15.1-.2.21-.05.28z"/><path d="m51.66 314.86 3.91 2.25a.48.48 0 0 0 .45 0l1.35-.78c.14-.08.15-.19 0-.26l-3.91-2.26a.55.55 0 0 0 -.45 0l-1.36.79c-.09.07-.11.19.01.26z"/><path d="m78.24 330.2 1.94 1.12a.48.48 0 0 0 .45 0l1.36-.78c.13-.08.15-.19 0-.26l-1.94-1.12a.48.48 0 0 0 -.45 0l-1.35.78c-.11.06-.12.2-.01.26z"/></g><path d="m93.16 326-32.23-18.6v-25.35l.25-.56.26-.14a2.27 2.27 0 0 1 2.23 0l29.49 17a2.22 2.22 0 0 1 1.11 1.93v23.78c-.2 1.26-.42 1.55-1.11 1.94z" fill="#e5e5e5"/><path d="m90.2 301.45-29.27-18.55v-.85l.25-.56.26-.14a2.27 2.27 0 0 1 2.23 0l29.49 17a2.25 2.25 0 0 1 .85.88z" fill="#e5e5e5"/><path d="m61.67 281.48 31 17.87a1.08 1.08 0 0 1 .54.94v25.71l-32.28-18.6v-25.49a.49.49 0 0 1 .74-.43z" fill="#dceeff"/><path d="m61.67 281.48 31 17.87a1.08 1.08 0 0 1 .54.94v25.71l-32.28-18.6v-25.49a.49.49 0 0 1 .74-.43z" fill="#f4f4f4"/><path d="m93.16 326.01v-.92l-32.23-18.61v.92z" fill="#dbdbdb"/><path d="m62.16 283.04v22.82l29.96 17.25v-22.77z" fill="#1e212d"/><path d="m8.66 303.64c-.27 2.4-3.13 12.72-2.51 16.25s10.36 9.45 10.36 9.45l1.35-6-5.4-5.34 1.46-10z" fill="#ffcea9"/><path d="m16.21 293.47a4.27 4.27 0 0 0 -5.43 1.64c-1.44 2.38-2.93 10.53-3.06 11.89 0 0 2 2.78 5 2.32z" fill="#ededed"/><path d="m27.34 408.56a8.36 8.36 0 0 0 6.31-.77c1.52 0 9.78-3.48 10.9-.52 1 2.6-2.59 5-4.5 5.47-4.17 1-7.25 3.09-8.93 3.44-1.25.26-2.86.43-3.85-.55-1.2-1.17-1.09-5.52.07-7.07z" fill="#38226d"/><path d="m31.12 415.46c1.68-.35 4.76-2.43 8.93-3.44 1.6-.39 4.35-2.14 4.63-4.23.37 2.4-2.85 4.52-4.63 4.95-4.17 1-7.25 3.09-8.93 3.44-1.25.26-2.86.43-3.85-.55a2.34 2.34 0 0 1 -.55-1 5 5 0 0 0 4.4.83z" fill="#9c73ff"/><path d="m14 402.55a8.38 8.38 0 0 0 6.31-.77c1.52.05 9.77-3.48 10.89-.52 1 2.6-2.59 5-4.5 5.47-4.16 1-7.25 3.09-8.92 3.44-1.25.26-2.86.43-3.86-.55-1.23-1.17-1.13-5.52.08-7.07z" fill="#38226d"/><path d="m17.74 409.45c1.67-.35 4.76-2.43 8.92-3.44 1.6-.39 4.36-2.14 4.64-4.23.37 2.4-2.85 4.52-4.64 5-4.16 1-7.25 3.09-8.92 3.44-1.25.26-2.86.43-3.86-.55a2.33 2.33 0 0 1 -.54-1 5 5 0 0 0 4.4.78z" fill="#9c73ff"/><path d="m13.8 380.13a49.34 49.34 0 0 1 1.9-9s-.57-7.8-.85-15.2c-.33-8.39-3.24-15.77-.94-22.47l25.89 5.76s-1.56 33.45-1.91 37.5a76.61 76.61 0 0 1 -1.16 9.4c-1.18 6.49-3.1 21.94-3.1 21.94-2.74 1.59-6.34.71-6.34.71s.2-19.54.38-24.22c.21-5.71.39-5.27.39-5.27l-.86-14.28-.56-7.08s-.72 5.2-1.18 9.84c-.41 4.05-1.39 7.71-2.48 15.24-.94 6.54-2.48 19.67-2.48 19.67-2.74 1.59-6.46.27-6.46.27s-.98-17.14-.24-22.81z" fill="#8c50ff"/><path d="m17.58 293.61c2 .1 3.44.61 3.68 0a24 24 0 0 0 .45-3.08c-.22-.57-.42-1.18-.42-1.18-2.48-1.53-3.26-4.2-3.58-7.32-.56-5.33 2.32-10 7.65-10.55 5-.52 8.69 3 9.67 7.83.53 2.39 1.58 6.9.16 10.82-.8 2.2-1.82 3.94-2.85 4.28a26.44 26.44 0 0 1 -3-.26s-.27 1.48-.45 2.43-.11 1.45 1.78 2.61-2.86 3.56-6 3.33-6.6-2.11-7.55-4.12c-.99-2.22-.9-4.85.46-4.79z" fill="#ffcea9"/><path d="m20.43 293.9c-.55 1.37.84 3 4.55 4.2s4-.34 4-.34a74.4 74.4 0 0 1 7.2 3.71c2.22 1.56 3.21 6 3.51 13.64.34 8.79.37 21.82.08 24.07 0 0-4.15 4.14-9.47 3.7s-14.26-5.14-16.43-8.77c.06-7.7 1-9-.28-13.4-2.86-10.15-4.36-14.31-3-21.06 1.14-5.57 2.74-6.26 4.94-6.2a45.35 45.35 0 0 1 4.9.45z" fill="#f4f4f4"/><path d="m48.07 322.38c-4.36 1.1-5.38-1.66-6-3.93-1.38-5.52-2.13-10.5-3.17-13.63-1.21-3.69-2.49-4.28-4.29-5-2.1-.84-3.91.94-3.21 5.64a94.91 94.91 0 0 0 4 16c.55 1.72 1.77 4.77 3.59 6.25 2.25 1.82 5.64 1.74 10.77.46 2.18-.54 4.58-1.85 8.72-3.78 1.11-.52 2-.86 4.11-1.85a14.64 14.64 0 0 0 5.47-4.27c1.11-1.62 1.26-2.38 1-2.75s-.79-.36-1.38.32a12.12 12.12 0 0 1 -3.14 2.91s1.37-1.43 2.12-2.35a12 12 0 0 0 1.65-2.7c.39-.94-.42-2.22-1-1.55s-.92 1.36-2 2.71a11.58 11.58 0 0 1 -2 1.93 22.06 22.06 0 0 0 1.87-3 5 5 0 0 0 .68-2.71c0-.49-.73-1.08-1.39-.14a17.61 17.61 0 0 1 -2.34 3.58c-1 1-1.84 1.63-1.87 1.34s.61-.86 1-2.06 0-2.48-.66-2.61-.54-.11-1.08 1a35.32 35.32 0 0 0 -2 3.6 7.42 7.42 0 0 1 -1.79 3.09c-1.14 1.19-3.51 2.45-7.66 3.5z" fill="#ffcea9"/><path d="m33 299.07c2.91-.43 5 .88 6.26 5.29s2.18 8 2.18 8a7.89 7.89 0 0 1 -4.88 3.24c-3.48.85-4.74-.82-4.74-.82s-1-4.62-1.57-7.77-.81-7.41 2.75-7.94z" fill="#ededed"/><path d="m34.86 278.63s4.6-7-5.37-8.43c-7.19-1-11.81 3.6-12.35 8.61-.51 4.79 2.44 9.77 4.57 11.74 1 .37 3.28.59 6.22-.75a35.4 35.4 0 0 0 .14-3.92s-3.51-7.38 6.79-7.25z" fill="#3a2c6d"/></svg>