<svg xmlns="http://www.w3.org/2000/svg" xmlns:xlink="http://www.w3.org/1999/xlink" viewBox="0 0 419.72 500"><defs><style>.cls-1,.cls-3{fill:#d6d8e5;}.cls-1{opacity:0.4;}.cls-2{fill:#b1b4c4;}.cls-4{fill:#9ea1af;}.cls-5{fill:#e4e7f2;}.cls-6{fill:#2b303f;}.cls-7{opacity:0.5;fill:url(#Безымянный_градиент_15);}.cls-8{fill:#a6ce28;}.cls-9{fill:#bcd64d;}.cls-10{fill:#28221c;}.cls-11{fill:#fff;opacity:0.07;}.cls-12{fill:#8da01f;}.cls-13{fill:#99b524;}.cls-14{fill:#e4e6ef;}</style><linearGradient id="Безымянный_градиент_15" x1="135.31" y1="190.31" x2="413.18" y2="190.31" gradientUnits="userSpaceOnUse"><stop offset="0.21" stop-color="#fff" stop-opacity="0"/><stop offset="1" stop-color="#fff" stop-opacity="0.2"/></linearGradient></defs><title>Workspace_2_SVG</title><g id="Слой_2" data-name="Слой 2"><g id="Слой_1-2" data-name="Слой 1"><g id="monitor"><path class="cls-1" d="M255.73,364.93l-54.95-31.72c-4-2.28-3.46-6.28,1.11-8.92l35.6-20.55,69.29,40-35.6,20.55C266.61,366.93,259.69,367.22,255.73,364.93Z"/><path class="cls-2" d="M260.68,362l-54.94-31.72c-4-2.29-3.46-6.28,1.11-8.93l35.6-20.55,69.28,40-35.59,20.55C271.56,364,264.64,364.32,260.68,362Z"/><polygon class="cls-2" points="311.73 340.84 311.73 338.74 308.54 340.58 311.73 340.84"/><polygon class="cls-2" points="203.07 326.53 203.07 324.39 206.35 325.76 203.07 326.53"/><path class="cls-3" d="M260.68,359.93l-54.94-31.72c-4-2.29-3.46-6.28,1.11-8.92l35.6-20.56,69.28,40-35.59,20.55C271.56,361.93,264.64,362.22,260.68,359.93Z"/><polygon class="cls-4" points="242.63 298.83 234.06 270.38 304.1 310.55 311.73 338.74 242.63 298.83"/><path class="cls-4" d="M309.7,339.91l2-1.17-3-2.41Z"/><polygon class="cls-2" points="240.42 299.9 231.85 271.45 301.89 311.62 309.7 339.91 240.42 299.9"/><path class="cls-2" d="M412.84,385.45,141.71,228.91c-3.8-2.19-6.88-8.08-6.88-13.15V6c0-5.07,3.08-7.4,6.88-5.2L412.84,157.36c3.8,2.2,6.88,8.09,6.88,13.16V380.24C419.72,385.31,416.64,387.65,412.84,385.45Z"/><polygon class="cls-2" points="414.23 387.61 417.24 385.88 415.94 376.97 414.23 387.61"/><path class="cls-2" d="M134.34,2.12l3-1.71,4.25,2.42s-4.53.7-4.64.67S134.34,2.12,134.34,2.12Z"/><path class="cls-5" d="M410.35,386.89,139.23,230.35c-3.81-2.2-6.89-8.09-6.89-13.16V7.47c0-5.07,3.08-7.4,6.89-5.21L410.35,158.8c3.81,2.19,6.89,8.08,6.89,13.15V381.68C417.24,386.75,414.16,389.08,410.35,386.89Z"/><path class="cls-3" d="M409.88,387.16,138.75,230.62c-3.8-2.19-6.89-8.08-6.89-13.15V7.74c0-5.07,3.09-7.4,6.89-5.21L409.88,159.07c3.8,2.2,6.88,8.09,6.88,13.16V382C416.76,387,413.68,389.35,409.88,387.16Z"/><path class="cls-6" d="M413,374.4,135.31,214.06l.14-205.48c0-2.1,1.48-3,3.3-1.9L409.88,163.21a7.3,7.3,0,0,1,3.3,5.72Z"/><path class="cls-7" d="M413,374.4,135.31,214.06l.14-205.48c0-2.1,1.48-3,3.3-1.9L409.88,163.21a7.3,7.3,0,0,1,3.3,5.72Z"/></g><path class="cls-1" d="M167.82,486.17l-159.15-92c-2.27-1.31-2-3.59.63-5.11l59.51-34.35c2.62-1.52,6.58-1.68,8.85-.37l159.15,92c2.27,1.31,2,3.6-.63,5.11l-59.51,34.36C174.05,487.32,170.09,487.48,167.82,486.17Z"/><path class="cls-2" d="M238.94,444,80.5,352.45c-2.26-1.31-6.23-1.14-8.84.37L12.41,387,10,386.07v3.8h0a2.56,2.56,0,0,0,1.51,2.42l159.16,92c2.27,1.31,6.23,1.14,8.85-.37L239,449.55c1.47-.85,2.21-1.94,2.17-3h0v-3.8Z"/><path class="cls-3" d="M170.67,480.48l-159.16-92c-2.27-1.31-2-3.59.64-5.11L71.66,349c2.61-1.52,6.58-1.68,8.84-.37l159.16,92c2.27,1.31,2,3.6-.64,5.11l-59.5,34.36C176.9,481.63,172.94,481.79,170.67,480.48Z"/><path class="cls-6" d="M67.44,366l-7.84-4.53c-.64-.37-.56-1,.18-1.44l7.48-4.32a2.75,2.75,0,0,1,2.49-.1l7.84,4.52c.64.37.56,1-.18,1.44l-7.48,4.32A2.75,2.75,0,0,1,67.44,366Z"/><path class="cls-6" d="M78.54,372.4l-7.84-4.52c-.64-.37-.56-1,.18-1.44l7.48-4.32a2.75,2.75,0,0,1,2.49-.1l7.84,4.52c.64.37.56,1-.18,1.44L81,372.3A2.75,2.75,0,0,1,78.54,372.4Z"/><path class="cls-6" d="M89.76,378.89l-7.84-4.53c-.64-.37-.56-1,.18-1.44l7.48-4.32a2.77,2.77,0,0,1,2.5-.1L99.92,373c.64.37.55,1-.18,1.44l-7.48,4.32A2.8,2.8,0,0,1,89.76,378.89Z"/><path class="cls-6" d="M100.73,385.22l-7.84-4.53c-.64-.37-.56-1,.18-1.44l7.48-4.32a2.8,2.8,0,0,1,2.5-.1l7.84,4.53c.64.37.56,1-.18,1.44l-7.48,4.32A2.8,2.8,0,0,1,100.73,385.22Z"/><path class="cls-6" d="M111.83,391.63,104,387.1c-.64-.37-.56-1,.18-1.44l7.48-4.32a2.77,2.77,0,0,1,2.5-.1l7.83,4.52c.64.37.56,1-.17,1.44l-7.49,4.32A2.75,2.75,0,0,1,111.83,391.63Z"/><path class="cls-6" d="M122.93,398l-7.84-4.52c-.64-.37-.56-1,.18-1.44l7.48-4.32a2.78,2.78,0,0,1,2.49-.11l7.84,4.53c.64.37.56,1-.18,1.44l-7.48,4.32A2.75,2.75,0,0,1,122.93,398Z"/><path class="cls-6" d="M134,404.44l-7.84-4.52c-.64-.37-.56-1,.17-1.45l7.49-4.31a2.75,2.75,0,0,1,2.49-.11l7.84,4.53c.64.37.56,1-.18,1.44l-7.48,4.32A2.78,2.78,0,0,1,134,404.44Z"/><path class="cls-6" d="M145.12,410.85l-7.84-4.53c-.64-.37-.56-1,.18-1.44l7.48-4.32a2.8,2.8,0,0,1,2.5-.1l7.84,4.53c.64.37.56,1-.18,1.44l-7.48,4.32A2.8,2.8,0,0,1,145.12,410.85Z"/><path class="cls-6" d="M156.22,417.26l-7.84-4.53c-.64-.37-.56-1,.18-1.44L156,407a2.77,2.77,0,0,1,2.5-.1l7.84,4.52c.64.37.56,1-.18,1.44l-7.48,4.32A2.77,2.77,0,0,1,156.22,417.26Z"/><path class="cls-6" d="M167.32,423.66l-7.84-4.52c-.64-.37-.56-1,.18-1.44l7.48-4.32a2.78,2.78,0,0,1,2.49-.11l7.84,4.53c.64.37.56,1-.17,1.44l-7.49,4.32A2.75,2.75,0,0,1,167.32,423.66Z"/><path class="cls-6" d="M178.42,430.07l-7.84-4.53c-.64-.36-.56-1,.18-1.44l7.48-4.31a2.75,2.75,0,0,1,2.49-.11l7.84,4.53c.64.37.56,1-.18,1.44L180.91,430A2.78,2.78,0,0,1,178.42,430.07Z"/><path class="cls-6" d="M189.51,436.48,181.68,432c-.64-.37-.56-1,.17-1.44l7.49-4.32a2.78,2.78,0,0,1,2.49-.1l7.84,4.53c.64.36.56,1-.18,1.44L192,436.38A2.8,2.8,0,0,1,189.51,436.48Z"/><path class="cls-6" d="M200.61,442.89l-7.84-4.53c-.64-.37-.56-1,.18-1.44l7.48-4.32a2.77,2.77,0,0,1,2.5-.1l7.84,4.52c.64.37.56,1-.18,1.44l-7.48,4.32A2.77,2.77,0,0,1,200.61,442.89Z"/><path class="cls-6" d="M217.06,452.38l-13.19-7.61c-.64-.37-.56-1,.18-1.44l7.48-4.32a2.77,2.77,0,0,1,2.5-.11l13.18,7.62c.64.37.56,1-.18,1.44l-7.48,4.32A2.78,2.78,0,0,1,217.06,452.38Z"/><path class="cls-6" d="M73.14,381.71l-7.84-4.52c-.64-.37-.56-1,.18-1.44L73,371.43a2.77,2.77,0,0,1,2.5-.11l7.84,4.53c.64.37.56,1-.18,1.44l-7.48,4.32A2.8,2.8,0,0,1,73.14,381.71Z"/><path class="cls-6" d="M84.26,388.13l-7.84-4.53c-.64-.36-.56-1,.18-1.44l7.48-4.32a2.8,2.8,0,0,1,2.5-.1l7.84,4.53c.64.37.55,1-.18,1.44L86.76,388A2.8,2.8,0,0,1,84.26,388.13Z"/><path class="cls-6" d="M95.38,394.55,87.54,390c-.64-.37-.56-1,.18-1.44l7.48-4.32a2.78,2.78,0,0,1,2.49-.1l7.84,4.53c.64.36.56,1-.18,1.44l-7.48,4.32A2.78,2.78,0,0,1,95.38,394.55Z"/><path class="cls-6" d="M106.49,401l-7.84-4.53c-.63-.37-.55-1,.18-1.44l7.48-4.32a2.8,2.8,0,0,1,2.5-.1l7.84,4.52c.64.37.56,1-.18,1.44L109,400.86A2.77,2.77,0,0,1,106.49,401Z"/><path class="cls-6" d="M117.52,407.33l-7.84-4.52c-.64-.37-.56-1,.18-1.44l7.48-4.32a2.8,2.8,0,0,1,2.5-.11l7.84,4.53c.64.37.56,1-.18,1.44L120,407.23A2.77,2.77,0,0,1,117.52,407.33Z"/><path class="cls-6" d="M128.64,413.75l-7.84-4.52c-.64-.37-.56-1,.18-1.44l7.48-4.32a2.77,2.77,0,0,1,2.5-.11l7.83,4.53c.64.37.56,1-.17,1.44l-7.49,4.32A2.75,2.75,0,0,1,128.64,413.75Z"/><path class="cls-6" d="M139.76,420.17l-7.84-4.52c-.64-.37-.56-1,.18-1.45l7.48-4.31a2.75,2.75,0,0,1,2.49-.11l7.84,4.53c.64.37.56,1-.18,1.44l-7.48,4.32A2.78,2.78,0,0,1,139.76,420.17Z"/><path class="cls-6" d="M150.87,426.59,143,422.06c-.64-.37-.56-1,.18-1.44l7.48-4.32a2.8,2.8,0,0,1,2.5-.1l7.84,4.53c.64.37.56,1-.18,1.44l-7.48,4.32A2.8,2.8,0,0,1,150.87,426.59Z"/><path class="cls-6" d="M162,433l-7.84-4.53c-.64-.37-.56-1,.18-1.44l7.48-4.32a2.8,2.8,0,0,1,2.5-.1l7.84,4.52c.64.37.56,1-.18,1.45l-7.48,4.31A2.77,2.77,0,0,1,162,433Z"/><path class="cls-6" d="M173.11,439.43l-7.84-4.53c-.64-.37-.56-1,.18-1.44l7.48-4.32a2.75,2.75,0,0,1,2.49-.1l7.84,4.52c.64.37.56,1-.18,1.44l-7.48,4.32A2.75,2.75,0,0,1,173.11,439.43Z"/><path class="cls-6" d="M184.22,445.84l-7.83-4.52c-.64-.37-.56-1,.17-1.44l7.49-4.32a2.75,2.75,0,0,1,2.49-.1l7.84,4.52c.64.37.56,1-.18,1.44l-7.48,4.32A2.77,2.77,0,0,1,184.22,445.84Z"/><path class="cls-6" d="M195.34,452.26l-7.84-4.52c-.64-.37-.56-1,.18-1.44l7.48-4.32a2.77,2.77,0,0,1,2.5-.11l7.84,4.53c.64.37.56,1-.18,1.44l-7.48,4.32A2.77,2.77,0,0,1,195.34,452.26Z"/><path class="cls-6" d="M62,375.29l-13.19-7.61c-.64-.37-.56-1,.18-1.44l7.48-4.32a2.8,2.8,0,0,1,2.5-.1l13.18,7.61c.64.37.56,1-.18,1.44l-7.48,4.32A2.75,2.75,0,0,1,62,375.29Z"/><path class="cls-6" d="M216.52,452.79l-7.84-4.53a2.59,2.59,0,0,0-2.32,0l-7.91,4.57a.71.71,0,0,0,0,1.34l.62.36c.59.34.59.89,0,1.24l-8.35,4.82a.71.71,0,0,0,0,1.35l5,2.88a2.56,2.56,0,0,0,2.32,0l7.82-4.51,1.62-.94,1.16-.67,1.17-.68,6.74-3.89A.71.71,0,0,0,216.52,452.79Z"/><path class="cls-6" d="M24.46,390.86l-7.84-4.52c-.64-.37-.56-1,.18-1.44l7.48-4.32a2.75,2.75,0,0,1,2.49-.1L34.61,385c.64.37.56,1-.18,1.44L27,390.76A2.75,2.75,0,0,1,24.46,390.86Z"/><path class="cls-6" d="M35.52,397.25l-7.84-4.52c-.64-.37-.56-1,.18-1.44L35.34,387a2.77,2.77,0,0,1,2.5-.11l7.84,4.53c.64.37.56,1-.18,1.44L38,397.15A2.77,2.77,0,0,1,35.52,397.25Z"/><path class="cls-6" d="M46.59,403.64l-7.84-4.52c-.64-.37-.56-1,.18-1.44l7.48-4.32a2.75,2.75,0,0,1,2.49-.11l7.84,4.53c.64.37.56,1-.18,1.44l-7.48,4.32A2.75,2.75,0,0,1,46.59,403.64Z"/><path class="cls-6" d="M140.83,458.05,133,453.53c-.64-.37-.56-1,.18-1.44l7.48-4.32a2.77,2.77,0,0,1,2.5-.11l7.84,4.53c.63.37.55,1-.18,1.44L143.33,458A2.77,2.77,0,0,1,140.83,458.05Z"/><path class="cls-6" d="M151.9,464.44l-7.84-4.52c-.64-.37-.56-1,.18-1.44l7.48-4.32a2.75,2.75,0,0,1,2.49-.11l7.84,4.53c.64.37.56,1-.18,1.44l-7.48,4.32A2.75,2.75,0,0,1,151.9,464.44Z"/><path class="cls-6" d="M163,470.83l-7.84-4.52c-.64-.37-.56-1,.18-1.45l7.48-4.31a2.77,2.77,0,0,1,2.5-.11l7.84,4.53c.64.37.56,1-.18,1.44l-7.48,4.32A2.8,2.8,0,0,1,163,470.83Z"/><path class="cls-6" d="M174,477.22l-7.84-4.53c-.64-.36-.56-1,.18-1.44l7.48-4.32a2.78,2.78,0,0,1,2.49-.1l7.84,4.53c.64.37.56,1-.17,1.44l-7.49,4.32A2.78,2.78,0,0,1,174,477.22Z"/><path class="cls-6" d="M60.51,411.68l-10.7-6.17c-.63-.37-.55-1,.18-1.44l7.48-4.32a2.77,2.77,0,0,1,2.5-.11l10.69,6.17c.64.37.56,1-.18,1.45L63,411.57A2.75,2.75,0,0,1,60.51,411.68Z"/><path class="cls-6" d="M129.76,451.66l-10.69-6.17c-.64-.37-.56-1,.18-1.44l7.48-4.32a2.8,2.8,0,0,1,2.5-.1l10.69,6.17c.64.37.56,1-.18,1.44l-7.48,4.32A2.77,2.77,0,0,1,129.76,451.66Z"/><path class="cls-6" d="M115.85,443.63,63.73,413.54c-.64-.37-.56-1,.18-1.44l7.48-4.32a2.77,2.77,0,0,1,2.5-.1L126,437.77c.64.37.56,1-.18,1.44l-7.48,4.32A2.78,2.78,0,0,1,115.85,443.63Z"/><path class="cls-6" d="M65.41,389.67l-7.84-4.53c-.64-.37-.56-1,.18-1.44l7.48-4.32a2.75,2.75,0,0,1,2.49-.1l7.84,4.52c.64.37.56,1-.18,1.44l-7.48,4.32A2.75,2.75,0,0,1,65.41,389.67Z"/><path class="cls-6" d="M76.49,396.07l-7.84-4.53c-.64-.37-.56-1,.18-1.44l7.48-4.32a2.77,2.77,0,0,1,2.5-.1l7.84,4.52c.64.37.56,1-.18,1.44L79,396A2.77,2.77,0,0,1,76.49,396.07Z"/><path class="cls-6" d="M87.58,402.47l-7.84-4.53c-.64-.37-.56-1,.18-1.44l7.48-4.32a2.75,2.75,0,0,1,2.49-.1l7.84,4.52c.64.37.56,1-.18,1.44l-7.48,4.32A2.75,2.75,0,0,1,87.58,402.47Z"/><path class="cls-6" d="M98.66,408.87l-7.84-4.53c-.64-.37-.56-1,.18-1.44l7.48-4.32a2.77,2.77,0,0,1,2.5-.1l7.84,4.52c.64.37.56,1-.18,1.44l-7.48,4.32A2.77,2.77,0,0,1,98.66,408.87Z"/><path class="cls-6" d="M109.75,415.27l-7.84-4.53c-.64-.37-.56-1,.18-1.44l7.48-4.32a2.75,2.75,0,0,1,2.49-.1l7.84,4.52c.64.37.56,1-.18,1.44l-7.48,4.32A2.75,2.75,0,0,1,109.75,415.27Z"/><path class="cls-6" d="M120.83,421.67,113,417.14c-.64-.37-.56-1,.18-1.44l7.48-4.32a2.77,2.77,0,0,1,2.5-.1L131,415.8c.64.37.56,1-.18,1.44l-7.48,4.32A2.77,2.77,0,0,1,120.83,421.67Z"/><path class="cls-6" d="M131.92,428.07l-7.84-4.53c-.64-.37-.56-1,.18-1.44l7.48-4.32a2.75,2.75,0,0,1,2.49-.1l7.84,4.52c.64.37.56,1-.17,1.44L134.41,428A2.75,2.75,0,0,1,131.92,428.07Z"/><path class="cls-6" d="M143,434.47l-7.83-4.53c-.64-.37-.56-1,.17-1.44l7.49-4.32a2.75,2.75,0,0,1,2.49-.1l7.84,4.52c.64.37.56,1-.18,1.44l-7.48,4.32A2.77,2.77,0,0,1,143,434.47Z"/><path class="cls-6" d="M154.09,440.87l-7.84-4.53c-.64-.37-.56-1,.18-1.44l7.48-4.32a2.8,2.8,0,0,1,2.5-.1l7.84,4.52c.63.37.55,1-.18,1.44l-7.48,4.32A2.77,2.77,0,0,1,154.09,440.87Z"/><path class="cls-6" d="M165.18,447.27l-7.84-4.53c-.64-.37-.56-1,.18-1.44L165,437a2.78,2.78,0,0,1,2.49-.1l7.84,4.52c.64.37.56,1-.18,1.45l-7.48,4.31A2.75,2.75,0,0,1,165.18,447.27Z"/><path class="cls-6" d="M176.26,453.67l-7.84-4.53c-.64-.37-.56-1,.18-1.44l7.48-4.32a2.8,2.8,0,0,1,2.5-.1l7.84,4.52c.64.37.56,1-.18,1.45l-7.48,4.31A2.77,2.77,0,0,1,176.26,453.67Z"/><path class="cls-6" d="M187.35,460.07l-7.84-4.53c-.64-.37-.56-1,.18-1.44l7.48-4.32a2.78,2.78,0,0,1,2.49-.1l7.84,4.52c.64.37.56,1-.18,1.45L189.84,460A2.75,2.75,0,0,1,187.35,460.07Z"/><path class="cls-6" d="M54.32,383.27,38.11,373.9c-.64-.36-.56-1,.18-1.44l7.48-4.32a2.78,2.78,0,0,1,2.49-.1l16.22,9.36c.64.37.56,1-.18,1.44l-7.48,4.32A2.8,2.8,0,0,1,54.32,383.27Z"/><path class="cls-6" d="M49.15,392.7l-7.84-4.53c-.64-.37-.56-1,.18-1.44L49,382.41a2.78,2.78,0,0,1,2.49-.1l7.84,4.53c.64.37.56,1-.18,1.44l-7.48,4.32A2.78,2.78,0,0,1,49.15,392.7Z"/><path class="cls-6" d="M60.23,399.1l-7.84-4.53c-.64-.37-.56-1,.18-1.44l7.48-4.32a2.8,2.8,0,0,1,2.5-.1l7.84,4.53c.64.36.55,1-.18,1.44L62.73,399A2.77,2.77,0,0,1,60.23,399.1Z"/><path class="cls-6" d="M71.31,405.5,63.47,401c-.64-.37-.56-1,.18-1.44l7.48-4.32a2.8,2.8,0,0,1,2.5-.1l7.84,4.52c.64.37.56,1-.18,1.44l-7.48,4.32A2.77,2.77,0,0,1,71.31,405.5Z"/><path class="cls-6" d="M82.4,411.9l-7.84-4.53c-.64-.37-.56-1,.18-1.44l7.48-4.32a2.75,2.75,0,0,1,2.49-.1L92.55,406c.64.37.56,1-.18,1.44l-7.48,4.32A2.75,2.75,0,0,1,82.4,411.9Z"/><path class="cls-6" d="M93.48,418.3l-7.84-4.53c-.64-.37-.56-1,.18-1.44L93.3,408a2.77,2.77,0,0,1,2.5-.1l7.84,4.52c.64.37.56,1-.18,1.44L96,418.19A2.8,2.8,0,0,1,93.48,418.3Z"/><path class="cls-6" d="M104.56,424.69l-7.83-4.52c-.64-.37-.56-1,.17-1.44l7.49-4.32a2.75,2.75,0,0,1,2.49-.1l7.84,4.52c.64.37.56,1-.18,1.44l-7.48,4.32A2.77,2.77,0,0,1,104.56,424.69Z"/><path class="cls-6" d="M115.65,431.09l-7.84-4.52c-.64-.37-.56-1,.18-1.44l7.48-4.32a2.78,2.78,0,0,1,2.49-.11l7.84,4.53c.64.37.56,1-.18,1.44L118.14,431A2.75,2.75,0,0,1,115.65,431.09Z"/><path class="cls-6" d="M126.73,437.49,118.89,433c-.64-.37-.56-1,.18-1.44l7.48-4.32a2.77,2.77,0,0,1,2.5-.11l7.84,4.53c.64.37.56,1-.18,1.44l-7.48,4.32A2.77,2.77,0,0,1,126.73,437.49Z"/><path class="cls-6" d="M137.82,443.89,130,439.37c-.64-.37-.56-1,.18-1.44l7.48-4.32a2.75,2.75,0,0,1,2.49-.11L148,438c.64.37.56,1-.18,1.44l-7.48,4.32A2.75,2.75,0,0,1,137.82,443.89Z"/><path class="cls-6" d="M148.9,450.29l-7.84-4.52c-.64-.37-.56-1,.18-1.45l7.48-4.31a2.77,2.77,0,0,1,2.5-.11l7.83,4.53c.64.37.56,1-.17,1.44l-7.49,4.32A2.78,2.78,0,0,1,148.9,450.29Z"/><path class="cls-6" d="M160,456.69l-7.84-4.53c-.64-.36-.56-1,.18-1.44l7.48-4.32a2.8,2.8,0,0,1,2.5-.1l7.84,4.53c.64.37.56,1-.18,1.44l-7.48,4.32A2.8,2.8,0,0,1,160,456.69Z"/><path class="cls-6" d="M184.79,471l-21.56-12.45c-.64-.37-.56-1,.18-1.44l7.48-4.32a2.78,2.78,0,0,1,2.49-.1l21.56,12.45c.64.37.56,1-.18,1.44l-7.48,4.32A2.78,2.78,0,0,1,184.79,471Z"/><path class="cls-6" d="M38.06,386.3l-10.69-6.17c-.64-.37-.56-1,.18-1.44L35,374.37a2.8,2.8,0,0,1,2.5-.11l10.69,6.18c.64.37.56,1-.18,1.44l-7.48,4.32A2.8,2.8,0,0,1,38.06,386.3Z"/><path class="cls-6" d="M228.19,446,70.78,355.07c-.64-.37-.56-1,.18-1.44l3.74-2.16a2.78,2.78,0,0,1,2.49-.11L234.6,442.25c.64.37.56,1-.17,1.44l-3.74,2.16A2.8,2.8,0,0,1,228.19,446Z"/><ellipse class="cls-1" cx="353.95" cy="485.71" rx="24.75" ry="14.29"/><path class="cls-8" d="M381.12,483.68V445.56l-49.39,1.25.1,35.13c-.92,4.23,1.43,8.65,7.05,11.9,9.66,5.58,25.33,5.58,35,0C378.74,491,381.15,487.35,381.12,483.68Z"/><ellipse class="cls-9" cx="356.38" cy="445.56" rx="24.75" ry="14.29"/><path class="cls-10" d="M377.21,445.56c0,2.33-1.93,4.77-5.29,6.71A31.35,31.35,0,0,1,358,455.9q-.8,0-1.59,0c-5.85,0-11.51-1.33-15.54-3.66-3.36-1.94-5.29-4.38-5.29-6.71s1.93-4.77,5.29-6.71c4-2.33,9.69-3.66,15.54-3.66.53,0,1.06,0,1.59,0a31.22,31.22,0,0,1,13.95,3.62C375.28,440.79,377.21,443.24,377.21,445.56Z"/><path class="cls-11" d="M377.21,445.56c0,2.33-1.93,4.77-5.29,6.71a28.64,28.64,0,0,1-27.91,0c-3.36-1.94-5.29-4.38-5.29-6.71s1.93-4.77,5.29-6.71a28.71,28.71,0,0,1,27.91,0C375.28,440.79,377.21,443.24,377.21,445.56Z"/><path class="cls-12" d="M377.51,463.21l-5.26-3-2.55,1.48,2.55,1.48v1l4.93,2.84-.15.91c.72.61,3.26,5.31,3.26,5.31l.19-.16v12.27c0,3.22-1.89,2.13-2.7,1.66l-5.53-3.19-2.55,1.48,2.55,1.48v1l5.53,3.19a8.7,8.7,0,0,0,1.8.8l-.33,1.54,2.86-1.61,0,0,0,0h0c1.2-.71,1.69-2.4,1.69-4.31V474.41C383.88,469,379.71,464.71,377.51,463.21Z"/><path class="cls-13" d="M375.23,492.34l-5.53-3.19v-3.93l5.53,3.2c.8.46,2.69,1.55,2.69-1.67V473.93c0-3-2.74-5.12-3.2-5.45l-5-2.9v-3.93l5.25,3c2.21,1.5,6.37,5.77,6.37,11.2v12.83C381.32,492.17,379.72,494.94,375.23,492.34Z"/><ellipse class="cls-1" cx="23.31" cy="291.01" rx="19.21" ry="11.09"/><ellipse class="cls-3" cx="26.05" cy="288.95" rx="19.21" ry="11.09"/><polygon class="cls-3" points="0.34 251.03 7.06 289.73 45.21 289.73 51.77 251.31 0.34 251.03"/><ellipse class="cls-14" cx="26.05" cy="250.55" rx="25.74" ry="14.86"/><path class="cls-10" d="M26.05,262.14c-6.31,0-12.19-1.39-16.56-3.92-3.75-2.16-5.9-5-5.9-7.67s2.15-5.5,5.9-7.67c4.37-2.52,10.25-3.91,16.56-3.91s12.19,1.39,16.56,3.91c3.75,2.17,5.9,5,5.9,7.67s-2.15,5.51-5.9,7.67C38.24,260.75,32.36,262.14,26.05,262.14Z"/><path class="cls-13" d="M37.13,238.85a32.55,32.55,0,0,0-10.92-26.77v0h0l-.08-.07v.14A32.52,32.52,0,0,0,15.19,238.9L.48,237.51c6.21,23.41,25.73,21.39,25.73,21.39v0c1.47.11,19.67,1.05,25.62-21.41Z"/><path class="cls-8" d="M26.21,258.9S24.89,240.68.42,228.4C.42,228.4-5.38,258.68,26.21,258.9Z"/><path class="cls-8" d="M26.05,258.9s1.32-18.22,25.79-30.5C51.84,228.4,57.64,258.68,26.05,258.9Z"/></g></g></svg>