<svg xmlns="http://www.w3.org/2000/svg" xmlns:xlink="http://www.w3.org/1999/xlink" viewBox="0 0 500 472.76"><defs><style>.cls-1{fill:#b1b4c4;}.cls-2{fill:#e4e7f2;}.cls-3,.cls-6{fill:#d6d8e5;}.cls-4{fill:#1e212d;}.cls-12,.cls-14,.cls-5{opacity:0.5;}.cls-5{fill:url(#Безымянный_градиент_15);}.cls-6{opacity:0.4;}.cls-7{fill:#2b303f;}.cls-8{fill:#c3c6d1;}.cls-9{fill:#616e84;}.cls-10{fill:#757b89;}.cls-11{fill:#20232d;}.cls-12{fill:url(#Безымянный_градиент_15-2);}.cls-13{fill:#fff;}.cls-13,.cls-16{opacity:0.1;}.cls-14{fill:url(#Безымянный_градиент_15-3);}.cls-15{fill:#696f7c;}.cls-17,.cls-19{opacity:0.3;}.cls-17{fill:url(#Безымянный_градиент_22);}.cls-18{fill:#1f232d;}.cls-19{fill:url(#Безымянный_градиент_22-2);}</style><linearGradient id="Безымянный_градиент_15" x1="-215" y1="2299.93" x2="-215" y2="2147.32" gradientTransform="matrix(0.87, 0.5, 0, 1.15, 512.04, -2300.54)" gradientUnits="userSpaceOnUse"><stop offset="0.21" stop-color="#fff" stop-opacity="0"/><stop offset="1" stop-color="#fff" stop-opacity="0.2"/></linearGradient><linearGradient id="Безымянный_градиент_15-2" x1="-1791.86" y1="3243.88" x2="-1791.86" y2="3142.82" gradientTransform="matrix(0.87, 0.5, -1, 0.58, 5169.48, -526.54)" xlink:href="#Безымянный_градиент_15"/><linearGradient id="Безымянный_градиент_15-3" x1="-2254.45" y1="3015.77" x2="-2232.13" y2="2996.44" gradientTransform="matrix(0.87, 0.5, -1, 0.58, 5012.82, -405.11)" xlink:href="#Безымянный_градиент_15"/><linearGradient id="Безымянный_градиент_22" x1="122.71" y1="393.74" x2="122.71" y2="426.76" gradientUnits="userSpaceOnUse"><stop offset="0.01" stop-color="#fff"/><stop offset="0.88" stop-color="#fff" stop-opacity="0"/></linearGradient><linearGradient id="Безымянный_градиент_22-2" x1="77.82" y1="368.52" x2="77.82" y2="401.22" xlink:href="#Безымянный_градиент_22"/></defs><title>workspace</title><g id="Слой_2" data-name="Слой 2"><g id="Слой_1-2" data-name="Слой 1"><g id="Laptop"><path class="cls-1" d="M442.56,324.42,214.36,192.67c-3.2-1.85-5.79-6.8-5.79-11.07V5.08c0-4.27,2.59-6.23,5.79-4.38l228.2,131.75c3.2,1.85,5.8,6.8,5.8,11.07V320C448.36,324.31,445.76,326.27,442.56,324.42Z"/><polygon class="cls-1" points="443.74 326.24 446.27 324.79 445.17 317.29 443.74 326.24"/><path class="cls-1" d="M208.16,1.78,210.65.35l3.57,2s-3.81.58-3.9.55S208.16,1.78,208.16,1.78Z"/><path class="cls-2" d="M440.47,325.63,212.27,193.88c-3.2-1.85-5.8-6.81-5.8-11.07V6.29c0-4.27,2.6-6.23,5.8-4.39l228.2,131.76c3.2,1.84,5.8,6.8,5.8,11.07V321.25C446.27,325.52,443.67,327.48,440.47,325.63Z"/><path class="cls-3" d="M440.07,325.86,211.87,194.11c-3.2-1.85-5.8-6.81-5.8-11.07V6.51c0-4.26,2.6-6.22,5.8-4.38l228.2,131.76c3.2,1.84,5.79,6.8,5.79,11.07V321.48C445.86,325.75,443.27,327.71,440.07,325.86Z"/><path class="cls-4" d="M442.73,315.13,209,180.17l.12-172.95c0-1.77,1.24-2.49,2.78-1.6l228.2,131.75a6.16,6.16,0,0,1,2.78,4.81Z"/><path class="cls-5" d="M442.66,315.13,208.9,180.18l.12-173c0-1.77,1.25-2.49,2.78-1.6L440,137.38a6.12,6.12,0,0,1,2.78,4.81Z"/><path class="cls-6" d="M268,428.44,39.75,296.68c-3.2-1.84-2.8-5.07.9-7.21l152.87-88.26c3.7-2.13,9.29-2.36,12.49-.51l228.2,131.75c3.2,1.85,2.8,5.07-.9,7.21L280.44,427.92C276.75,430.05,271.15,430.28,268,428.44Z"/><path class="cls-1" d="M272.94,425.44,44.74,293.69c-3.2-1.85-2.8-5.07.9-7.21l152.87-88.26c3.69-2.13,9.28-2.36,12.48-.52L439.2,329.46c3.2,1.84,2.8,5.07-.9,7.21L285.43,424.93C281.73,427.06,276.14,427.29,272.94,425.44Z"/><polygon class="cls-1" points="42.58 290.71 42.58 286.41 47.41 288.43 42.58 290.71"/><polygon class="cls-1" points="441.36 332.67 441.36 328.47 437.78 329.7 440.15 333.18 441.36 332.67"/><path class="cls-2" d="M272.94,421.82,44.74,290.07c-3.2-1.85-2.8-5.08.9-7.21L198.51,194.6c3.69-2.14,9.28-2.37,12.48-.52L439.2,325.83c3.2,1.85,2.8,5.08-.9,7.21L285.43,421.3C281.73,423.44,276.14,423.67,272.94,421.82Z"/><path class="cls-3" d="M272.94,421.26,44.74,289.51c-3.2-1.85-2.8-5.08.9-7.21L198.51,194c3.69-2.14,9.28-2.37,12.48-.52L439.2,325.27c3.2,1.85,2.8,5.08-.9,7.21L285.43,420.74C281.73,422.88,276.14,423.11,272.94,421.26Z"/><path class="cls-7" d="M194.27,223.81l-10.62-6.14c-.87-.5-.76-1.37.24-1.95L194,209.87a3.75,3.75,0,0,1,3.38-.14L208,215.86c.86.5.76,1.38-.25,2l-10.13,5.85A3.77,3.77,0,0,1,194.27,223.81Z"/><path class="cls-7" d="M209.31,232.49l-10.62-6.13c-.87-.5-.76-1.38.24-2l10.14-5.86a3.75,3.75,0,0,1,3.38-.14l10.63,6.14c.87.5.76,1.37-.24,1.95l-10.14,5.85A3.77,3.77,0,0,1,209.31,232.49Z"/><path class="cls-7" d="M224.53,241.28l-10.63-6.14c-.86-.5-.76-1.37.25-1.95l10.14-5.85a3.75,3.75,0,0,1,3.38-.14l10.62,6.13c.87.5.76,1.38-.24,1.95l-10.14,5.86A3.78,3.78,0,0,1,224.53,241.28Z"/><path class="cls-7" d="M239.4,249.86l-10.63-6.13c-.86-.5-.76-1.38.25-1.95l10.13-5.86a3.77,3.77,0,0,1,3.39-.14l10.62,6.14c.87.5.76,1.37-.24,2l-10.14,5.85A3.75,3.75,0,0,1,239.4,249.86Z"/><path class="cls-7" d="M254.44,258.55l-10.63-6.14c-.86-.5-.75-1.37.25-1.95l10.14-5.85a3.72,3.72,0,0,1,3.38-.14l10.62,6.13c.87.5.76,1.37-.24,2l-10.14,5.86A3.78,3.78,0,0,1,254.44,258.55Z"/><path class="cls-7" d="M269.48,267.23l-10.62-6.13c-.87-.5-.76-1.38.24-2l10.14-5.85a3.75,3.75,0,0,1,3.38-.14l10.63,6.13c.86.5.75,1.38-.25,2l-10.14,5.85A3.75,3.75,0,0,1,269.48,267.23Z"/><path class="cls-7" d="M284.52,275.92l-10.62-6.14c-.87-.5-.76-1.37.24-1.95L284.28,262a3.78,3.78,0,0,1,3.38-.14L298.29,268c.86.5.76,1.37-.25,1.95l-10.14,5.85A3.75,3.75,0,0,1,284.52,275.92Z"/><path class="cls-7" d="M299.56,284.6l-10.62-6.14c-.87-.5-.76-1.37.24-1.95l10.14-5.85a3.75,3.75,0,0,1,3.38-.14l10.63,6.13c.87.5.76,1.38-.24,2L303,284.46A3.77,3.77,0,0,1,299.56,284.6Z"/><path class="cls-7" d="M314.61,293.28,304,287.15c-.87-.5-.76-1.38.24-1.95l10.14-5.86a3.75,3.75,0,0,1,3.38-.14l10.63,6.14c.87.5.76,1.37-.24,2L318,293.14A3.75,3.75,0,0,1,314.61,293.28Z"/><path class="cls-7" d="M329.65,302,319,295.83c-.86-.5-.76-1.37.25-1.95L329.4,288a3.77,3.77,0,0,1,3.39-.14L343.41,294c.87.5.76,1.38-.24,2L333,301.83A3.75,3.75,0,0,1,329.65,302Z"/><path class="cls-7" d="M344.69,310.65l-10.63-6.13c-.86-.5-.75-1.38.25-1.95l10.14-5.86a3.75,3.75,0,0,1,3.38-.14l10.62,6.14c.87.5.76,1.37-.24,2l-10.14,5.85A3.75,3.75,0,0,1,344.69,310.65Z"/><path class="cls-7" d="M359.73,319.34l-10.62-6.14c-.87-.5-.76-1.37.24-1.95l10.14-5.85a3.72,3.72,0,0,1,3.38-.14l10.62,6.13c.87.5.76,1.37-.24,1.95l-10.14,5.86A3.78,3.78,0,0,1,359.73,319.34Z"/><path class="cls-7" d="M374.77,328l-10.62-6.13c-.87-.5-.76-1.38.24-2l10.14-5.85a3.75,3.75,0,0,1,3.38-.14l10.63,6.13c.86.5.75,1.38-.25,2l-10.14,5.85A3.75,3.75,0,0,1,374.77,328Z"/><path class="cls-7" d="M397.06,340.89l-17.87-10.32c-.87-.5-.76-1.37.24-1.95l10.14-5.86a3.78,3.78,0,0,1,3.38-.14l17.87,10.32c.87.5.76,1.38-.24,1.95l-10.14,5.86A3.75,3.75,0,0,1,397.06,340.89Z"/><path class="cls-7" d="M202,245.11,191.38,239c-.87-.5-.76-1.37.24-1.95l10.14-5.85a3.77,3.77,0,0,1,3.39-.14l10.62,6.13c.87.5.76,1.38-.24,2L205.39,245A3.75,3.75,0,0,1,202,245.11Z"/><path class="cls-7" d="M217.07,253.81l-10.62-6.14c-.87-.5-.76-1.37.24-1.95l10.14-5.85a3.75,3.75,0,0,1,3.38-.14l10.63,6.13c.86.5.76,1.38-.25,1.95l-10.13,5.86A3.77,3.77,0,0,1,217.07,253.81Z"/><path class="cls-7" d="M232.14,262.51l-10.62-6.14c-.87-.5-.76-1.37.24-2l10.14-5.85a3.75,3.75,0,0,1,3.38-.14l10.63,6.13c.86.5.75,1.38-.25,1.95l-10.14,5.86A3.78,3.78,0,0,1,232.14,262.51Z"/><path class="cls-7" d="M247.21,271.21l-10.63-6.14c-.86-.5-.75-1.37.25-1.95L247,257.27a3.72,3.72,0,0,1,3.38-.14L261,263.26c.87.5.76,1.37-.24,1.95l-10.14,5.86A3.78,3.78,0,0,1,247.21,271.21Z"/><path class="cls-7" d="M262.16,279.84l-10.63-6.14c-.87-.5-.76-1.37.24-1.95l10.14-5.86a3.78,3.78,0,0,1,3.38-.14l10.63,6.14c.87.5.76,1.37-.24,1.95l-10.14,5.86A3.78,3.78,0,0,1,262.16,279.84Z"/><path class="cls-7" d="M277.22,288.54,266.6,282.4c-.87-.5-.76-1.37.24-1.95L277,274.59a3.78,3.78,0,0,1,3.38-.14L291,280.59c.86.5.76,1.37-.25,2l-10.13,5.85A3.77,3.77,0,0,1,277.22,288.54Z"/><path class="cls-7" d="M292.29,297.23l-10.62-6.13c-.87-.5-.76-1.37.24-2l10.14-5.86a3.78,3.78,0,0,1,3.38-.14l10.62,6.14c.87.5.76,1.37-.24,1.95l-10.14,5.85A3.75,3.75,0,0,1,292.29,297.23Z"/><path class="cls-7" d="M307.36,305.93l-10.63-6.13c-.86-.5-.76-1.38.25-1.95L307.11,292a3.77,3.77,0,0,1,3.39-.14L321.12,298c.87.5.76,1.37-.24,1.95l-10.14,5.85A3.75,3.75,0,0,1,307.36,305.93Z"/><path class="cls-7" d="M322.43,314.63,311.8,308.5c-.87-.5-.76-1.38.24-1.95l10.14-5.86a3.75,3.75,0,0,1,3.38-.14l10.63,6.14c.87.5.76,1.37-.24,1.95l-10.14,5.85A3.75,3.75,0,0,1,322.43,314.63Z"/><path class="cls-7" d="M337.49,323.33l-10.62-6.13c-.87-.5-.76-1.38.24-2l10.14-5.85a3.75,3.75,0,0,1,3.38-.14l10.63,6.14c.86.5.76,1.37-.25,1.95l-10.13,5.85A3.77,3.77,0,0,1,337.49,323.33Z"/><path class="cls-7" d="M352.56,332l-10.62-6.13c-.87-.5-.76-1.38.24-2l10.14-5.85a3.75,3.75,0,0,1,3.38-.14l10.62,6.13c.87.51.76,1.38-.24,2l-10.14,5.85A3.75,3.75,0,0,1,352.56,332Z"/><path class="cls-7" d="M367.63,340.73,357,334.6c-.86-.5-.76-1.38.25-2l10.14-5.85a3.75,3.75,0,0,1,3.38-.14l10.62,6.13c.87.5.76,1.38-.24,2L371,340.59A3.75,3.75,0,0,1,367.63,340.73Z"/><path class="cls-7" d="M186.94,236.41l-17.87-10.32c-.87-.5-.76-1.37.24-2l10.14-5.85a3.75,3.75,0,0,1,3.38-.14l17.87,10.31c.87.5.76,1.38-.24,2l-10.14,5.85A3.75,3.75,0,0,1,186.94,236.41Z"/><path class="cls-7" d="M396.33,341.45l-10.62-6.14a3.46,3.46,0,0,0-3.15,0l-10.72,6.19a1,1,0,0,0,0,1.82l.84.48a.89.89,0,0,1,0,1.68L361.33,352c-.87.51-.88,1.32,0,1.82l6.76,3.91a3.5,3.5,0,0,0,3.15,0l10.6-6.12,2.19-1.26,1.58-.92,1.59-.91,9.13-5.27C397.19,342.76,397.2,342,396.33,341.45Z"/><path class="cls-7" d="M136,257.51l-10.63-6.13c-.86-.5-.76-1.38.24-1.95l10.14-5.86a3.77,3.77,0,0,1,3.39-.14l10.62,6.14c.87.5.76,1.37-.24,2l-10.14,5.85A3.75,3.75,0,0,1,136,257.51Z"/><path class="cls-7" d="M151,266.17,140.39,260c-.87-.5-.76-1.38.24-2l10.14-5.86a3.75,3.75,0,0,1,3.38-.14l10.63,6.14c.87.5.76,1.37-.24,1.95L154.4,266A3.75,3.75,0,0,1,151,266.17Z"/><path class="cls-7" d="M166,274.83l-10.62-6.13c-.87-.5-.76-1.38.24-1.95l10.14-5.86a3.75,3.75,0,0,1,3.38-.14l10.63,6.14c.87.5.76,1.37-.24,1.95l-10.14,5.85A3.77,3.77,0,0,1,166,274.83Z"/><path class="cls-7" d="M293.75,348.58l-10.63-6.14c-.87-.5-.76-1.37.24-1.95l10.14-5.85a3.75,3.75,0,0,1,3.38-.14l10.63,6.13c.87.5.76,1.38-.24,1.95l-10.14,5.86A3.75,3.75,0,0,1,293.75,348.58Z"/><path class="cls-7" d="M308.74,357.24l-10.62-6.14c-.87-.5-.76-1.37.24-2l10.14-5.85a3.75,3.75,0,0,1,3.38-.14l10.63,6.13c.87.5.76,1.38-.24,1.95l-10.14,5.86A3.77,3.77,0,0,1,308.74,357.24Z"/><path class="cls-7" d="M323.74,365.9l-10.62-6.14c-.87-.5-.76-1.37.24-1.95L323.5,352a3.75,3.75,0,0,1,3.38-.14L337.51,358c.86.5.76,1.38-.25,1.95l-10.13,5.86A3.8,3.8,0,0,1,323.74,365.9Z"/><path class="cls-7" d="M338.74,374.56l-10.62-6.14c-.87-.5-.76-1.37.24-1.95l10.14-5.85a3.72,3.72,0,0,1,3.38-.14l10.63,6.13c.86.5.75,1.37-.25,1.95l-10.14,5.86A3.78,3.78,0,0,1,338.74,374.56Z"/><path class="cls-7" d="M184.88,285.72l-14.49-8.36c-.87-.5-.76-1.38.24-2l10.14-5.85a3.75,3.75,0,0,1,3.38-.14l14.49,8.37c.87.5.76,1.37-.24,2l-10.14,5.85A3.75,3.75,0,0,1,184.88,285.72Z"/><path class="cls-7" d="M278.75,339.92l-14.49-8.37c-.87-.5-.76-1.37.24-1.95l10.14-5.85a3.75,3.75,0,0,1,3.38-.14L292.51,332c.87.5.76,1.38-.24,1.95l-10.14,5.86A3.75,3.75,0,0,1,278.75,339.92Z"/><path class="cls-7" d="M259.88,329l-70.63-40.78c-.87-.5-.76-1.38.24-1.95l10.14-5.86a3.75,3.75,0,0,1,3.38-.14l70.64,40.78c.87.5.76,1.38-.24,1.95l-10.14,5.86A3.77,3.77,0,0,1,259.88,329Z"/><path class="cls-7" d="M191.52,255.89l-10.63-6.14c-.86-.5-.75-1.37.25-1.95L191.28,242a3.75,3.75,0,0,1,3.38-.14l10.62,6.13c.87.5.76,1.38-.24,1.95l-10.14,5.86A3.75,3.75,0,0,1,191.52,255.89Z"/><path class="cls-7" d="M206.54,264.56l-10.62-6.13c-.87-.5-.76-1.38.24-1.95l10.14-5.86a3.75,3.75,0,0,1,3.38-.14l10.63,6.14c.87.5.76,1.37-.24,1.95l-10.14,5.85A3.77,3.77,0,0,1,206.54,264.56Z"/><path class="cls-7" d="M221.57,273.24l-10.63-6.14c-.86-.5-.75-1.37.25-2l10.14-5.85a3.75,3.75,0,0,1,3.38-.14l10.62,6.13c.87.5.76,1.38-.24,1.95L225,273.1A3.75,3.75,0,0,1,221.57,273.24Z"/><path class="cls-7" d="M236.59,281.91,226,275.78c-.87-.5-.76-1.38.24-1.95L236.35,268a3.75,3.75,0,0,1,3.38-.14L250.36,274c.86.5.76,1.37-.24,1.95L240,281.77A3.77,3.77,0,0,1,236.59,281.91Z"/><path class="cls-7" d="M251.62,290.59,241,284.45c-.86-.5-.75-1.37.25-1.95l10.14-5.85a3.75,3.75,0,0,1,3.38-.14l10.62,6.13c.87.5.76,1.37-.24,1.95L255,290.45A3.78,3.78,0,0,1,251.62,290.59Z"/><path class="cls-7" d="M266.64,299.26,256,293.13c-.87-.5-.76-1.38.24-2l10.14-5.85a3.75,3.75,0,0,1,3.38-.14l10.63,6.13c.86.51.76,1.38-.25,2L270,299.12A3.77,3.77,0,0,1,266.64,299.26Z"/><path class="cls-7" d="M281.67,307.94,271,301.8c-.86-.5-.76-1.37.25-1.95L281.43,294a3.75,3.75,0,0,1,3.38-.15L295.43,300c.87.5.76,1.37-.24,1.95l-10.14,5.86A3.78,3.78,0,0,1,281.67,307.94Z"/><path class="cls-7" d="M296.69,316.61l-10.62-6.13c-.87-.5-.76-1.38.24-2l10.14-5.85a3.75,3.75,0,0,1,3.38-.14l10.63,6.13c.86.5.76,1.38-.25,2l-10.13,5.85A3.77,3.77,0,0,1,296.69,316.61Z"/><path class="cls-7" d="M311.72,325.29l-10.63-6.14c-.86-.5-.76-1.37.25-1.95l10.13-5.86a3.8,3.8,0,0,1,3.39-.14l10.62,6.14c.87.5.76,1.37-.24,2l-10.14,5.85A3.75,3.75,0,0,1,311.72,325.29Z"/><path class="cls-7" d="M326.74,334l-10.62-6.13c-.87-.51-.76-1.38.24-2L326.5,320a3.75,3.75,0,0,1,3.38-.14L340.51,326c.86.5.75,1.38-.25,2l-10.14,5.85A3.75,3.75,0,0,1,326.74,334Z"/><path class="cls-7" d="M341.77,342.63l-10.63-6.13c-.86-.5-.76-1.37.24-1.95l10.14-5.86a3.8,3.8,0,0,1,3.39-.14l10.62,6.14c.87.5.76,1.37-.24,1.95l-10.14,5.85A3.75,3.75,0,0,1,341.77,342.63Z"/><path class="cls-7" d="M356.79,351.31l-10.62-6.14c-.87-.5-.76-1.37.24-1.95l10.14-5.85a3.75,3.75,0,0,1,3.38-.14l10.63,6.13c.86.5.75,1.38-.25,1.95l-10.14,5.86A3.75,3.75,0,0,1,356.79,351.31Z"/><path class="cls-7" d="M176.49,247.21l-22-12.68c-.87-.5-.76-1.38.24-2l10.14-5.85a3.75,3.75,0,0,1,3.38-.14l22,12.69c.87.5.76,1.37-.24,1.95l-10.14,5.85A3.77,3.77,0,0,1,176.49,247.21Z"/><path class="cls-7" d="M169.48,260l-10.62-6.13c-.87-.51-.76-1.38.24-2l10.14-5.85a3.75,3.75,0,0,1,3.38-.14l10.63,6.13c.86.5.75,1.38-.25,2l-10.14,5.85A3.75,3.75,0,0,1,169.48,260Z"/><path class="cls-7" d="M184.5,268.67l-10.62-6.13c-.87-.5-.76-1.38.24-2l10.14-5.86a3.75,3.75,0,0,1,3.38-.14l10.63,6.14c.87.5.76,1.37-.24,1.95l-10.14,5.85A3.77,3.77,0,0,1,184.5,268.67Z"/><path class="cls-7" d="M199.53,277.35l-10.63-6.14c-.87-.5-.76-1.37.24-1.95l10.14-5.85a3.77,3.77,0,0,1,3.39-.15l10.62,6.14c.87.5.76,1.37-.24,2l-10.14,5.86A3.78,3.78,0,0,1,199.53,277.35Z"/><path class="cls-7" d="M214.55,286l-10.63-6.14c-.86-.5-.75-1.37.25-1.95l10.14-5.85a3.75,3.75,0,0,1,3.38-.14l10.62,6.13c.87.5.76,1.38-.24,2l-10.14,5.85A3.75,3.75,0,0,1,214.55,286Z"/><path class="cls-7" d="M229.57,294.69,219,288.56c-.87-.5-.76-1.38.24-1.95l10.14-5.86a3.75,3.75,0,0,1,3.38-.14l10.63,6.14c.86.5.75,1.37-.25,1.95L233,294.55A3.75,3.75,0,0,1,229.57,294.69Z"/><path class="cls-7" d="M244.59,303.37,234,297.23c-.87-.5-.76-1.37.24-2l10.14-5.86a3.78,3.78,0,0,1,3.38-.14l10.63,6.14c.86.5.76,1.37-.25,1.95L248,303.23A3.8,3.8,0,0,1,244.59,303.37Z"/><path class="cls-7" d="M259.62,312,249,305.9c-.87-.5-.76-1.37.24-1.95l10.14-5.85a3.75,3.75,0,0,1,3.38-.14l10.63,6.13c.87.5.76,1.38-.24,2L263,311.9A3.75,3.75,0,0,1,259.62,312Z"/><path class="cls-7" d="M274.64,320.71,264,314.58c-.86-.5-.76-1.38.25-2l10.13-5.85a3.77,3.77,0,0,1,3.39-.14l10.62,6.13c.87.51.76,1.38-.24,2L278,320.57A3.75,3.75,0,0,1,274.64,320.71Z"/><path class="cls-7" d="M289.66,329.38,279,323.25c-.87-.5-.76-1.37.24-1.95l10.14-5.86a3.78,3.78,0,0,1,3.38-.14l10.62,6.14c.87.5.76,1.37-.24,1.95L293,329.24A3.72,3.72,0,0,1,289.66,329.38Z"/><path class="cls-7" d="M304.68,338.06l-10.62-6.14c-.87-.5-.76-1.37.24-1.95l10.14-5.85a3.75,3.75,0,0,1,3.38-.14l10.63,6.13c.86.5.75,1.38-.25,1.95l-10.14,5.86A3.75,3.75,0,0,1,304.68,338.06Z"/><path class="cls-7" d="M319.7,346.73l-10.62-6.13c-.87-.5-.76-1.38.24-2l10.14-5.85a3.75,3.75,0,0,1,3.38-.14l10.63,6.13c.87.5.76,1.38-.24,2l-10.14,5.85A3.77,3.77,0,0,1,319.7,346.73Z"/><path class="cls-7" d="M353.32,366.14,324.1,349.27c-.87-.5-.76-1.38.24-1.95l10.14-5.86a3.8,3.8,0,0,1,3.39-.14l29.22,16.87c.86.5.75,1.38-.25,2L356.7,366A3.75,3.75,0,0,1,353.32,366.14Z"/><path class="cls-7" d="M154.46,251.33,140,243c-.87-.5-.76-1.37.24-2l10.14-5.85a3.77,3.77,0,0,1,3.39-.15l14.48,8.37c.87.5.76,1.37-.24,2l-10.14,5.86A3.78,3.78,0,0,1,154.46,251.33Z"/><path class="cls-7" d="M412.15,332.17,198.8,209c-.87-.5-.76-1.38.24-2l5.07-2.92a3.75,3.75,0,0,1,3.38-.14L420.84,327.16c.87.5.76,1.37-.24,1.95L415.53,332A3.75,3.75,0,0,1,412.15,332.17Z"/><path class="cls-1" d="M280,346.18a3.18,3.18,0,0,1-1.47,1.53l-58.71,33.9a7.22,7.22,0,0,1-6.51.26L113,324a2.21,2.21,0,0,1-1-1.06c-.37-.89.14-1.93,1.47-2.7l58.71-33.9a7.25,7.25,0,0,1,6.51-.27L279,344A1.77,1.77,0,0,1,280,346.18Z"/><path class="cls-8" d="M280,346.18a3.18,3.18,0,0,1-1.47,1.53l-58.71,33.9a7.22,7.22,0,0,1-6.51.26L113,324a2.21,2.21,0,0,1-1-1.06,3.27,3.27,0,0,1,1.47-1.53l58.71-33.89a7.25,7.25,0,0,1,6.51-.27L279,345.13A2.22,2.22,0,0,1,280,346.18Z"/><path class="cls-7" d="M428.39,322.83,215,199.65a3.75,3.75,0,0,1-1.57-3v-2.5c0-1.16.7-1.69,1.57-1.19L428.39,316.14a3.75,3.75,0,0,1,1.57,3v2.51C430,322.8,429.26,323.33,428.39,322.83Z"/></g><g id="Mobile"><path class="cls-6" d="M383.74,471.47l-39.37-22.73c-3.33-1.93-2.91-5.29.94-7.51l95.08-54.9c3.85-2.22,9.68-2.46,13-.54l39.36,22.73c3.34,1.92,2.92,5.29-.93,7.51l-95.09,54.9C392.89,473.15,387.07,473.39,383.74,471.47Z"/><path class="cls-1" d="M388.72,468.47l-39.36-22.72c-3.33-1.93-2.92-5.29.93-7.51l95.09-54.9c3.85-2.22,9.67-2.46,13-.54l39.36,22.73c3.33,1.92,2.92,5.28-.93,7.51l-95.09,54.89C397.88,470.16,392.06,470.4,388.72,468.47Z"/><polygon class="cls-1" points="347.11 442.44 347.11 438.81 351.36 440.42 347.11 442.44"/><polygon class="cls-1" points="500 408.67 500 405.18 496.62 407.36 500 408.67"/><path class="cls-9" d="M388.72,465.41l-39.36-22.73c-3.33-1.92-2.92-5.29.93-7.51l95.09-54.9c3.85-2.22,9.67-2.46,13-.54l39.36,22.73c3.33,1.92,2.92,5.29-.93,7.51l-95.09,54.9C397.88,467.09,392.06,467.33,388.72,465.41Z"/><ellipse class="cls-10" cx="353.75" cy="446.7" rx="0.42" ry="0.73" transform="translate(-175.96 236.73) rotate(-30)"/><ellipse class="cls-10" cx="355.64" cy="447.8" rx="0.42" ry="0.73" transform="translate(-176.26 237.83) rotate(-30)"/><ellipse class="cls-10" cx="357.54" cy="448.89" rx="0.42" ry="0.73" transform="translate(-176.55 238.92) rotate(-30)"/><ellipse class="cls-10" cx="359.43" cy="449.98" rx="0.42" ry="0.73" transform="translate(-176.84 240.02) rotate(-30)"/><ellipse class="cls-10" cx="375.7" cy="459.38" rx="0.42" ry="0.73" transform="matrix(0.87, -0.5, 0.5, 0.87, -179.36, 249.41)"/><ellipse class="cls-10" cx="377.6" cy="460.47" rx="0.42" ry="0.73" transform="translate(-179.65 250.5) rotate(-30)"/><ellipse class="cls-10" cx="379.49" cy="461.56" rx="0.42" ry="0.73" transform="translate(-179.95 251.6) rotate(-30)"/><ellipse class="cls-10" cx="381.38" cy="462.66" rx="0.42" ry="0.73" transform="translate(-180.24 252.69) rotate(-30)"/><path class="cls-10" d="M370.17,457,365,454a1.45,1.45,0,0,1-.59-1.14h0c0-.44.27-.64.59-.45l5.21,3a1.43,1.43,0,0,1,.6,1.14h0C370.77,457,370.5,457.17,370.17,457Z"/><path class="cls-10" d="M488.09,417.29l-4.84,2.8c-.31.18-.56,0-.56-.42h0a1.33,1.33,0,0,1,.56-1.06l4.84-2.8c.3-.17.55,0,.55.42h0A1.33,1.33,0,0,1,488.09,417.29Z"/><path class="cls-10" d="M480.67,421.57l-4.84,2.8c-.31.18-.55,0-.55-.42h0a1.32,1.32,0,0,1,.55-1.06l4.84-2.8c.31-.17.56,0,.56.42h0A1.31,1.31,0,0,1,480.67,421.57Z"/><path class="cls-11" d="M388.72,464.85l-39.36-22.73c-3.33-1.92-2.92-5.28.93-7.51l95.09-54.89c3.85-2.23,9.67-2.47,13-.54l39.36,22.72c3.33,1.93,2.92,5.29-.93,7.51l-95.09,54.9C397.88,466.53,392.06,466.77,388.72,464.85Z"/><path class="cls-7" d="M493.52,402.81l-15.36-8.87,0,0a7.27,7.27,0,0,1-6.58,0c-1.81-1-1.81-2.75,0-3.8l0,0-15.37-8.87a9.32,9.32,0,0,0-8.45,0l-92.6,53.46c-2.34,1.35-2.34,3.54,0,4.88l37.31,21.54a9.32,9.32,0,0,0,8.45,0l92.6-53.46C495.86,406.34,495.86,404.16,493.52,402.81Z"/><path class="cls-12" d="M493.52,402.81l-15.36-8.87,0,0a7.27,7.27,0,0,1-6.58,0c-1.81-1-1.81-2.75,0-3.8l0,0-15.37-8.87a9.32,9.32,0,0,0-8.45,0l-92.6,53.46c-2.34,1.35-2.34,3.54,0,4.88l37.31,21.54a9.32,9.32,0,0,0,8.45,0l92.6-53.46C495.86,406.34,495.86,404.16,493.52,402.81Z"/><ellipse class="cls-7" cx="473.82" cy="392.64" rx="1.76" ry="1.02"/><path class="cls-13" d="M473.3,392.94c-.29-.16-.29-.43,0-.6a1.14,1.14,0,0,1,1.05,0,.32.32,0,0,1,0,.6A1.14,1.14,0,0,1,473.3,392.94Z"/></g><g id="Watch"><path class="cls-1" d="M56.05,222.93l-10.72-6.19c-3.33-1.92-2.91-5.29.94-7.51l12.62-7.29c3.85-2.22,9.67-2.46,13-.54l10.72,6.19c3.34,1.93,2.92,5.29-.93,7.51l-12.62,7.29C65.21,224.61,59.38,224.85,56.05,222.93Z"/><path class="cls-1" d="M84.86,210.56c0-.09,0-3.52,0-3.52L81.22,209Z"/><polygon class="cls-1" points="116.73 186.09 116.73 184.57 114.31 185.33 116.73 186.09"/><path class="cls-6" d="M58.29,223.81a12.41,12.41,0,0,1-1.74-.62l-7.36-6,1.92-1.85-7-.9a3.32,3.32,0,0,1-1.36,2.67L3.31,238.38c-3.73,2.15-4.67,6.15-.93,8.31h0c3.32,2.32,9.05,2.13,12.79,0L56.22,225l.08,0c1.36-.78,4.54-.72,4.54-.72A16.27,16.27,0,0,1,58.29,223.81Zm-17.85,2.46a.7.7,0,0,1,0,1.32,2.5,2.5,0,0,1-2.29,0,.69.69,0,0,1,0-1.32A2.5,2.5,0,0,1,40.44,226.27Zm-3.64,2.1a.7.7,0,0,1,0,1.32,2.5,2.5,0,0,1-2.29,0,.69.69,0,0,1,0-1.32A2.5,2.5,0,0,1,36.8,228.37Zm-3.64,2.1a.7.7,0,0,1,0,1.32,2.52,2.52,0,0,1-2.3,0,.7.7,0,0,1,0-1.32A2.58,2.58,0,0,1,33.16,230.47Zm-3.64,2.1a.7.7,0,0,1,0,1.33,2.58,2.58,0,0,1-2.3,0,.7.7,0,0,1,0-1.33A2.58,2.58,0,0,1,29.52,232.57Zm-3.64,2.1a.7.7,0,0,1,0,1.33,2.58,2.58,0,0,1-2.3,0,.7.7,0,0,1,0-1.33A2.58,2.58,0,0,1,25.88,234.67Zm-9.46,5.59c-.69-.32-.79-.91-.22-1.31a2.5,2.5,0,0,1,2.28-.13c.69.33.79.92.22,1.32A2.53,2.53,0,0,1,16.42,240.26Zm3.64-2.1c-.69-.33-.79-.92-.22-1.32a2.5,2.5,0,0,1,2.28-.12c.69.32.79.91.22,1.31A2.5,2.5,0,0,1,20.06,238.16Z"/><path class="cls-1" d="M59.46,218.47l-3.21,1.1-7-4,1.92-1.85-7-.9a3.31,3.31,0,0,1-1.36,2.67L4.16,237.81c-3.73,2.16-3.73,5.65,0,7.81h0a15,15,0,0,0,13.52,0l38.62-22.3.09,0c1.36-.78,4.62-.78,4.62-.78Zm-18.93,6.16a.7.7,0,0,1,0,1.32,2.52,2.52,0,0,1-2.3,0,.7.7,0,0,1,0-1.32A2.52,2.52,0,0,1,40.53,224.63Zm-3.64,2.1a.7.7,0,0,1,0,1.32,2.52,2.52,0,0,1-2.3,0,.7.7,0,0,1,0-1.32A2.52,2.52,0,0,1,36.89,226.73Zm-3.65,2.1a.7.7,0,0,1,0,1.33,2.58,2.58,0,0,1-2.3,0,.7.7,0,0,1,0-1.33A2.56,2.56,0,0,1,33.24,228.83Zm-3.64,2.1a.7.7,0,0,1,0,1.33,2.56,2.56,0,0,1-2.29,0,.7.7,0,0,1,0-1.33A2.56,2.56,0,0,1,29.6,230.93ZM26,233c.64.36.64,1,0,1.32a2.5,2.5,0,0,1-2.29,0,.7.7,0,0,1,0-1.32A2.5,2.5,0,0,1,26,233Zm-9.45,5.58c-.7-.32-.8-.91-.23-1.31a2.52,2.52,0,0,1,2.29-.13c.69.33.79.92.22,1.32A2.5,2.5,0,0,1,16.51,238.62Zm3.64-2.1c-.7-.33-.8-.92-.23-1.32a2.55,2.55,0,0,1,2.29-.12c.69.32.79.91.22,1.31A2.5,2.5,0,0,1,20.15,236.52Z"/><path class="cls-3" d="M59.46,217.07l-3.21,1.11-7-4,1.92-1.86-7.84-.9s.86,1.89-.5,2.68L4.16,236.42c-3.73,2.15-3.73,5.65,0,7.8h0a14.91,14.91,0,0,0,13.52,0L56.3,221.93l.09,0c1.36-.79,4.62-1,4.62-1Zm-18.93,6.16a.7.7,0,0,1,0,1.33,2.58,2.58,0,0,1-2.3,0,.7.7,0,0,1,0-1.33A2.58,2.58,0,0,1,40.53,223.23Zm-3.64,2.11a.7.7,0,0,1,0,1.32,2.52,2.52,0,0,1-2.3,0,.7.7,0,0,1,0-1.32A2.52,2.52,0,0,1,36.89,225.34Zm-3.65,2.1a.7.7,0,0,1,0,1.32,2.52,2.52,0,0,1-2.3,0,.7.7,0,0,1,0-1.32A2.5,2.5,0,0,1,33.24,227.44Zm-3.64,2.1a.69.69,0,0,1,0,1.32,2.5,2.5,0,0,1-2.29,0,.7.7,0,0,1,0-1.32A2.5,2.5,0,0,1,29.6,229.54ZM26,231.64A.7.7,0,0,1,26,233a2.56,2.56,0,0,1-2.29,0,.7.7,0,0,1,0-1.33A2.56,2.56,0,0,1,26,231.64Zm-9.45,5.59c-.7-.33-.8-.92-.23-1.32a2.55,2.55,0,0,1,2.29-.13c.69.33.79.92.22,1.32A2.5,2.5,0,0,1,16.51,237.23Zm3.64-2.1c-.7-.33-.8-.92-.23-1.32a2.52,2.52,0,0,1,2.29-.13c.69.33.79.92.22,1.32A2.5,2.5,0,0,1,20.15,235.13Z"/><path class="cls-6" d="M87.3,207.14a.18.18,0,0,0,.07,0l27.36-17.56a37.9,37.9,0,0,0-.8-5.29h0a15,15,0,0,0-13.53,0L73.78,199.62c-1.36.78-4.63.78-4.63.78l1.56,4,3.21-1.11,7,4,3.94.62v1.71A9.07,9.07,0,0,1,87.3,207.14Zm16.09-13-6.61-3.82a.76.76,0,0,1,0-1.44,2.82,2.82,0,0,1,2.5,0l6.6,3.81a.77.77,0,0,1,0,1.45A2.8,2.8,0,0,1,103.39,194.15Z"/><path class="cls-1" d="M87.31,205.43a.18.18,0,0,0,.07-.05l26.55-15.32c3.73-2.16,3.73-5.65,0-7.81h0a14.94,14.94,0,0,0-13.53,0L73.78,197.62c-1.36.78-4.63.79-4.63.79l1.56,4,3.21-1.11,7,4L79,207.2l5.86.76A9.07,9.07,0,0,1,87.31,205.43Zm16.08-13.28-6.61-3.81a.76.76,0,0,1,0-1.44,2.75,2.75,0,0,1,2.5,0l6.6,3.81a.76.76,0,0,1,0,1.44A2.73,2.73,0,0,1,103.39,192.15Z"/><path class="cls-3" d="M87.31,204l.07,0,26.55-15.33c3.73-2.15,3.73-5.65,0-7.8h0a14.94,14.94,0,0,0-13.53,0L73.78,196.23c-1.36.78-4.63.78-4.63.78l1.56,4,3.21-1.11,7,4L79,205.81l5.68.59A11.9,11.9,0,0,1,87.31,204Zm16.08-13.28L96.78,187a.76.76,0,0,1,0-1.44,2.75,2.75,0,0,1,2.5,0l6.6,3.81a.76.76,0,0,1,0,1.44A2.8,2.8,0,0,1,103.39,190.76Z"/><path class="cls-11" d="M56.05,219.58l-10.72-6.19c-3.33-1.92-2.91-5.28.94-7.51l12.62-7.28c3.85-2.23,9.67-2.47,13-.54l10.72,6.19c3.34,1.92,2.92,5.28-.93,7.51L69.06,219C65.21,221.27,59.38,221.51,56.05,219.58Z"/><path class="cls-7" d="M47.08,206.53,60,199.07c3.24-1.87,8.13-2.07,10.93-.45l10.72,6.18c2.8,1.62,2.45,4.45-.79,6.31l-12.92,7.46c-3.23,1.87-8.12,2.07-10.92.46L46.3,212.84C43.5,211.22,43.85,208.39,47.08,206.53Z"/><path class="cls-14" d="M47.08,206.53,60,199.07c3.24-1.87,8.13-2.07,10.93-.45l10.72,6.18c2.8,1.62,2.45,4.45-.79,6.31l-12.92,7.46c-3.23,1.87-8.12,2.07-10.92.46L46.3,212.84C43.5,211.22,43.85,208.39,47.08,206.53Z"/><ellipse class="cls-15" cx="80.67" cy="213.94" rx="2.58" ry="1.49" transform="translate(-144.94 176.83) rotate(-60)"/><polygon class="cls-15" points="81.86 211.66 82.8 212.19 81.67 212.91 81.86 211.66"/><polygon class="cls-15" points="80.36 216.73 79.33 216.15 80.57 215.48 80.36 216.73"/><ellipse class="cls-10" cx="81.57" cy="214.46" rx="2.58" ry="1.49" transform="translate(-144.94 177.86) rotate(-60)"/></g><g id="Glasses"><path class="cls-6" d="M144.22,429.68l-14-13.07a32,32,0,0,0-6.31-6.84,32.9,32.9,0,0,0-3.39-2.46l-18.17-12.09-19.79-8.73A33.69,33.69,0,0,0,78.8,385a34.79,34.79,0,0,0-9-1.7L51,377.13c-1.06-.06-.49,1.94.12,2.74l1.8.74c2.31.88.38.56,2.73,2.22l10.86,2.77c6.88-.63,13.71,2,19.65,5.2l14.33,7.2,13.85,8.31a32.59,32.59,0,0,1,13.79,14.85l7.3,5.88c2.26,2.13,1,1.19,4.32,1.72l1.87,1.59C142.81,430.54,144.85,430.61,144.22,429.68Z"/><path class="cls-16" d="M104.83,402a13.52,13.52,0,0,1,4.4-4.23c3.66-2.57,8.54-2,8.54-2a27,27,0,0,1,10.1,3.11l.32.17,4.82,2.7q1.94,1.08,3.72,2.33c.8.55,1.57,1.12,2.31,1.72,3.46,2.76,2.46,8.22-.61,12.53a39.77,39.77,0,0,1-5.86,6.66,14.9,14.9,0,0,1-14.17,3.1,34.71,34.71,0,0,1-6.5-2.85,32.54,32.54,0,0,1-5.4-3.84c-4.46-3.94-5.22-9.35-3.32-15.44A17.4,17.4,0,0,1,104.83,402Zm-41.6-25.15c2.74-4.16,7.36-7.33,11.3-6,.86.28,1.71.59,2.54.93,1.27.51,2.51,1.09,3.72,1.72l4.58,2.4.29.16a22.08,22.08,0,0,1,7.32,6.3s2.75,3.5,1.85,7.53a12.1,12.1,0,0,1-2.22,5.38,19.14,19.14,0,0,1-3.17,3.09c-5.1,4.22-10.66,6-16.28,4.19A31,31,0,0,1,67.34,400a29.13,29.13,0,0,1-5.24-3.78,11,11,0,0,1-2.68-12.07A36.9,36.9,0,0,1,63.23,376.84Z"/><path class="cls-7" d="M58,382.92l10.82-1a35.08,35.08,0,0,1,19.71,3.91L148,415.75l3.47-4.84L84.89,381.53a34.78,34.78,0,0,0-12.75-3.2L51,377.13a1.23,1.23,0,0,0-1.16,1.9l.56.73A8.51,8.51,0,0,0,58,382.92Z"/><path class="cls-7" d="M134.91,426.09l-4.47-9.89a32.56,32.56,0,0,0-13.78-14.85L62.32,368.76l3.05-4.64,57.47,38.24a33.13,33.13,0,0,1,9.71,9.29l12.33,18a1.31,1.31,0,0,1-1.48,1.91l-1.1-.17A9.6,9.6,0,0,1,134.91,426.09Z"/><path class="cls-17" d="M118.76,393.81a27,27,0,0,1,10.11,3.1l.31.17,4.83,2.71a41.52,41.52,0,0,1,3.72,2.33c.79.55,1.56,1.12,2.31,1.72,3.46,2.76,2.45,8.22-.62,12.53a40.19,40.19,0,0,1-5.85,6.66,14.88,14.88,0,0,1-14.17,3.09,34.67,34.67,0,0,1-6.5-2.84,32.71,32.71,0,0,1-5.4-3.84c-4.46-3.94-5.22-9.36-3.32-15.45a17.52,17.52,0,0,1,1.65-4,13.61,13.61,0,0,1,4.39-4.24C113.89,393.19,118.76,393.81,118.76,393.81Z"/><path class="cls-7" d="M63.74,362.85,61.11,367a1.38,1.38,0,0,0,.23,1.79A2.72,2.72,0,0,1,62,372l-4.34,9.08a13.15,13.15,0,0,0,2.9,15.6h0a33.7,33.7,0,0,0,12.31,7.09h0a20,20,0,0,0,20.18-5l4.06-4.09a5.25,5.25,0,0,0,1.53-3.3,3.5,3.5,0,0,1,5.06-2.66l1,.52,1,.58a3,3,0,0,1-.34,5.27,5.64,5.64,0,0,0-2.6,2.73L100.5,403a16.34,16.34,0,0,0,4.27,19h0A37.33,37.33,0,0,0,118,429.5h0A17.7,17.7,0,0,0,136.1,425l7.58-8a3.88,3.88,0,0,1,3.92-1,1.92,1.92,0,0,0,2.08-.63l3.09-4.22a2.14,2.14,0,0,0-.05-2.71s-5-5.62-16.47-11.83L131.41,394a31.25,31.25,0,0,0-12-3.75l-3.72-.38a3.32,3.32,0,0,1-2.44-1.4,3.9,3.9,0,0,0-1.42-1.28l-4.13-2.24-4.11-2.23a4.62,4.62,0,0,0-1.91-.53,3.27,3.27,0,0,1-2.47-1.25l-2-2.71a25.83,25.83,0,0,0-8.8-7.44l-4.59-2.39c-11.08-6-17.57-6.71-17.57-6.71A2.59,2.59,0,0,0,63.74,362.85ZM105.83,400a13.61,13.61,0,0,1,4.39-4.24c3.67-2.57,8.54-1.95,8.54-1.95a27,27,0,0,1,10.11,3.1l.31.17,4.83,2.71a41.52,41.52,0,0,1,3.72,2.33c.79.55,1.56,1.12,2.31,1.72,3.46,2.76,2.45,8.22-.62,12.53a40.19,40.19,0,0,1-5.85,6.66,14.88,14.88,0,0,1-14.17,3.09,34.67,34.67,0,0,1-6.5-2.84,32.71,32.71,0,0,1-5.4-3.84c-4.46-3.94-5.22-9.36-3.32-15.45A17.52,17.52,0,0,1,105.83,400Zm-41.6-25.16c2.74-4.16,7.35-7.33,11.3-6,.86.29,1.7.6,2.54.94a39.13,39.13,0,0,1,3.72,1.72l4.57,2.39.3.16A22.32,22.32,0,0,1,94,380.33s2.74,3.5,1.84,7.53a11.89,11.89,0,0,1-2.21,5.37,19.26,19.26,0,0,1-3.18,3.1c-5.1,4.22-10.65,6-16.27,4.18A30.92,30.92,0,0,1,68.34,398a29.18,29.18,0,0,1-5.24-3.79,11,11,0,0,1-2.68-12.06A37.21,37.21,0,0,1,64.23,374.84Z"/><path class="cls-18" d="M90,397c-5.09,4.21-10.64,6-16.26,4.17a30.29,30.29,0,0,1-5.82-2.55,29.46,29.46,0,0,1-5.23-3.79A11,11,0,0,1,60,382.73a37.32,37.32,0,0,1,3.8-7.26l.08-.11a37.23,37.23,0,0,0-3.47,6.75,11,11,0,0,0,2.68,12.06A29.18,29.18,0,0,0,68.34,398a30.92,30.92,0,0,0,5.82,2.55c5.62,1.81,11.17,0,16.27-4.18a19.48,19.48,0,0,0,3.14-3.05c-.12.19-.24.38-.39.59A19.18,19.18,0,0,1,90,397Z"/><path class="cls-18" d="M133.11,423.67A14.88,14.88,0,0,1,119,426.76a34.62,34.62,0,0,1-6.49-2.85,32.13,32.13,0,0,1-5.4-3.84c-4.46-3.94-5.22-9.36-3.32-15.44a17.16,17.16,0,0,1,1.65-4c.14-.22.28-.4.41-.59a17.21,17.21,0,0,0-1.62,3.94c-1.9,6.09-1.14,11.51,3.32,15.45a32.71,32.71,0,0,0,5.4,3.84,34.67,34.67,0,0,0,6.5,2.84A14.88,14.88,0,0,0,133.57,423,40.59,40.59,0,0,0,139,416.9a.83.83,0,0,1-.08.12A39.61,39.61,0,0,1,133.11,423.67Z"/><path class="cls-19" d="M94,380.33A22.32,22.32,0,0,0,86.66,374l-.3-.16-4.57-2.39a39.13,39.13,0,0,0-3.72-1.72c-.84-.34-1.68-.65-2.54-.94-4-1.3-8.56,1.87-11.3,6a37.21,37.21,0,0,0-3.81,7.27,11,11,0,0,0,2.68,12.06A29.18,29.18,0,0,0,68.34,398a30.92,30.92,0,0,0,5.82,2.55c5.62,1.81,11.17,0,16.27-4.18a19.26,19.26,0,0,0,3.18-3.1,11.89,11.89,0,0,0,2.21-5.37C96.72,383.83,94,380.33,94,380.33Z"/></g></g></g></svg>