<svg xmlns="http://www.w3.org/2000/svg" viewBox="0 0 500 395.34"><defs><style>.cls-1{fill:#dadce5;}.cls-2{fill:#f2f5f9;}.cls-3{fill:#b9cc00;}.cls-4{fill:#3a3a3a;}.cls-5{fill:#fff;}.cls-6{fill:#00e7ff;}.cls-7{fill:#443d31;}.cls-8{fill:#c6e800;}.cls-9{fill:#e4e7ef;}.cls-10{fill:#edf1f9;}.cls-11{fill:#6675ff;}.cls-12{fill:#84a6f4;}</style></defs><title>City_SVG</title><g id="Слой_2" data-name="Слой 2"><g id="Слой_1-2" data-name="Слой 1"><polygon class="cls-1" points="496.53 249 250 106.67 3.47 249 0 246.99 0 251 250 395.34 500 251 500 246.99 496.53 249"/><polygon class="cls-2" points="250 391.33 0 246.99 250 102.65 500 246.99 250 391.33"/><polygon class="cls-3" points="316.1 330.51 249.44 369.26 83.87 272.45 150.52 233.69 316.1 330.51"/><polygon class="cls-4" points="288.85 150.22 80.3 270.62 66.24 262.51 274.79 142.1 288.85 150.22"/><polygon class="cls-5" points="74.99 266.11 73.58 266.93 72.64 266.38 74.05 265.57 74.99 266.11"/><path class="cls-5" d="M278.06,148.87l-2.82,1.63-.94-.54,2.82-1.63Zm-5.64,3.26-2.82,1.63-.94-.55,2.82-1.62Zm-5.64,3.26L264,157l-.94-.54,2.82-1.63Zm-5.64,3.25-2.82,1.63-.94-.54,2.82-1.63Zm-5.64,3.26-2.82,1.63-.94-.55,2.82-1.62Zm-5.64,3.26L247,166.78l-.95-.54,2.82-1.63Zm-5.65,3.25L241.39,170l-.94-.54,2.82-1.63Zm-5.64,3.26-2.82,1.63-.94-.55,2.82-1.62Zm-5.64,3.26-2.82,1.62-.94-.54,2.82-1.63Zm-5.64,3.25-2.82,1.63-.94-.54,2.82-1.63Zm-5.64,3.26-2.82,1.63-.94-.55,2.82-1.62ZM216,184.7l-2.82,1.62-.94-.54,2.82-1.63ZM210.37,188l-2.82,1.63-.94-.54,2.82-1.63Zm-5.64,3.26-2.82,1.63-.94-.55,2.82-1.62Zm-5.64,3.26-2.82,1.62-.94-.54,2.82-1.63Zm-5.64,3.25-2.82,1.63-.94-.54,2.82-1.63ZM187.81,201,185,202.61l-.94-.55,2.82-1.62Zm-5.64,3.26-2.82,1.62-.94-.54,2.82-1.63Zm-5.64,3.25-2.82,1.63-1-.54,2.83-1.63Zm-5.64,3.26-2.82,1.63-.95-.55,2.83-1.62ZM165.24,214l-2.82,1.62-.94-.54,2.82-1.63Zm-5.64,3.25-2.82,1.63-.94-.54,2.82-1.63ZM154,220.52l-2.82,1.63-.94-.55L153,220Zm-5.64,3.26-2.82,1.62-.94-.54,2.82-1.63ZM142.68,227l-2.82,1.63-.94-.54,2.82-1.63ZM137,230.29l-2.82,1.63-.94-.55,2.82-1.62Zm-5.64,3.26-2.82,1.62-.94-.54,2.82-1.63Zm-5.64,3.25-2.82,1.63-.94-.54,2.82-1.63Zm-5.64,3.26-2.82,1.63-.94-.55,2.82-1.62Zm-5.64,3.26-2.82,1.62-.94-.54,2.82-1.63Zm-5.64,3.25L106,248.2l-.94-.54L107.9,246Zm-5.64,3.26-2.82,1.63-.94-.55,2.82-1.62Zm-5.64,3.26-2.82,1.62-.94-.54,2.82-1.63Zm-5.64,3.25L89.1,258l-.95-.54L91,255.8Zm-5.64,3.26-2.82,1.63-.95-.55,2.82-1.62Zm-5.65,3.26-2.82,1.62-.94-.54,2.82-1.63Z"/><polygon class="cls-5" points="282.29 146.43 280.88 147.25 279.94 146.7 281.35 145.89 282.29 146.43"/><ellipse class="cls-6" cx="194.2" cy="296.7" rx="20.75" ry="53.64" transform="translate(-155.56 355.08) rotate(-66.27)"/><polygon class="cls-3" points="245.71 153.98 130.74 220.99 99.26 203.75 214.23 136.74 245.71 153.98"/><polygon class="cls-3" points="413.29 274.65 314.97 331.52 239.49 288.66 337.81 231.78 413.29 274.65"/><path class="cls-7" d="M131.76,194.46h-3.13v11a.78.78,0,0,0,.46.64,2.46,2.46,0,0,0,2.21,0,.8.8,0,0,0,.46-.64h0Z"/><circle class="cls-8" cx="130.27" cy="186.42" r="8.2"/><path class="cls-7" d="M150.93,183.45H147.8v11a.79.79,0,0,0,.46.64,2.46,2.46,0,0,0,2.21,0,.77.77,0,0,0,.46-.64h0Z"/><circle class="cls-8" cx="149.44" cy="175.42" r="8.2"/><path class="cls-7" d="M190.84,162.5h-3.13v11a.75.75,0,0,0,.46.64,2.4,2.4,0,0,0,2.21,0,.77.77,0,0,0,.46-.64h0Z"/><circle class="cls-8" cx="189.35" cy="154.47" r="8.2"/><polygon class="cls-9" points="337.81 223.76 310.04 207.72 310.04 141.04 337.81 157.07 337.81 223.76"/><polygon class="cls-10" points="337.81 157.07 310.04 141.04 337.81 125.01 365.57 141.04 337.81 157.07"/><polygon class="cls-11" points="332.81 170.85 315.04 160.59 315.04 151.62 332.81 161.88 332.81 170.85"/><polygon class="cls-1" points="365.57 207.73 337.81 223.76 337.81 157.07 365.57 141.04 365.57 207.73"/><polygon class="cls-11" points="349.47 167.01 342.81 170.86 342.81 161.88 349.47 158.03 349.47 167.01"/><polygon class="cls-11" points="360.58 160.6 353.91 164.45 353.91 155.47 360.58 151.62 360.58 160.6"/><polygon class="cls-11" points="349.47 180.48 342.81 184.32 342.81 175.35 349.47 171.5 349.47 180.48"/><polygon class="cls-11" points="360.58 174.06 353.91 177.91 353.91 168.94 360.58 165.09 360.58 174.06"/><polygon class="cls-11" points="349.47 193.94 342.81 197.79 342.81 188.81 349.47 184.97 349.47 193.94"/><polygon class="cls-11" points="360.58 187.53 353.91 191.38 353.91 182.4 360.58 178.55 360.58 187.53"/><polygon class="cls-11" points="349.47 208.05 342.81 211.9 342.81 202.92 349.47 199.07 349.47 208.05"/><polygon class="cls-11" points="360.58 201.64 353.91 205.49 353.91 196.51 360.58 192.66 360.58 201.64"/><polygon class="cls-11" points="332.81 184.32 315.04 174.06 315.04 165.08 332.81 175.34 332.81 184.32"/><polygon class="cls-11" points="332.81 197.79 315.04 187.53 315.04 178.55 332.81 188.81 332.81 197.79"/><polygon class="cls-11" points="332.81 211.89 315.04 201.63 315.04 192.66 332.81 202.92 332.81 211.89"/><polygon class="cls-9" points="337.81 150.02 321.79 140.77 321.79 137.91 337.81 147.16 337.81 150.02"/><polygon class="cls-1" points="337.81 150.02 353.83 140.77 353.83 137.91 337.81 147.16 337.81 150.02"/><polygon class="cls-9" points="97.38 240.28 69.61 224.25 69.61 119.08 97.38 135.11 97.38 240.28"/><polygon class="cls-10" points="97.38 135.11 69.61 119.08 97.38 103.05 125.14 119.08 97.38 135.11"/><polygon class="cls-12" points="92.38 148.9 74.61 138.64 74.61 129.66 92.38 139.92 92.38 148.9"/><polygon class="cls-1" points="125.14 224.25 97.38 240.28 97.38 135.12 125.14 119.09 125.14 224.25"/><polygon class="cls-12" points="109.04 145.06 102.38 148.91 102.38 139.93 109.04 136.08 109.04 145.06"/><polygon class="cls-12" points="120.15 138.65 113.48 142.49 113.48 133.51 120.15 129.67 120.15 138.65"/><polygon class="cls-12" points="109.04 158.52 102.38 162.37 102.38 153.39 109.04 149.55 109.04 158.52"/><polygon class="cls-12" points="120.15 152.11 113.48 155.96 113.48 146.98 120.15 143.13 120.15 152.11"/><polygon class="cls-12" points="109.04 171.99 102.38 175.84 102.38 166.86 109.04 163.01 109.04 171.99"/><polygon class="cls-12" points="120.15 165.58 113.48 169.42 113.48 160.45 120.15 156.6 120.15 165.58"/><polygon class="cls-12" points="109.04 186.1 102.38 189.94 102.38 180.97 109.04 177.12 109.04 186.1"/><polygon class="cls-12" points="120.15 179.68 113.48 183.53 113.48 174.55 120.15 170.71 120.15 179.68"/><polygon class="cls-12" points="109.04 201.16 102.38 205.01 102.38 196.03 109.04 192.18 109.04 201.16"/><polygon class="cls-12" points="120.15 194.75 113.48 198.59 113.48 189.62 120.15 185.77 120.15 194.75"/><polygon class="cls-12" points="109.04 216.56 102.38 220.41 102.38 211.43 109.04 207.58 109.04 216.56"/><polygon class="cls-12" points="120.15 210.15 113.48 213.99 113.48 205.02 120.15 201.17 120.15 210.15"/><polygon class="cls-12" points="92.38 162.37 74.61 152.11 74.61 143.13 92.38 153.39 92.38 162.37"/><polygon class="cls-12" points="92.38 175.83 74.61 165.57 74.61 156.59 92.38 166.85 92.38 175.83"/><polygon class="cls-12" points="92.38 189.94 74.61 179.68 74.61 170.7 92.38 180.96 92.38 189.94"/><polygon class="cls-12" points="92.38 205.01 74.61 194.75 74.61 185.77 92.38 196.03 92.38 205.01"/><polygon class="cls-12" points="92.38 220.41 74.61 210.15 74.61 201.17 92.38 211.43 92.38 220.41"/><polygon class="cls-9" points="97.38 128.07 81.36 118.82 81.36 115.96 97.38 125.21 97.38 128.07"/><polygon class="cls-1" points="97.38 128.07 113.4 118.82 113.4 115.96 97.38 125.21 97.38 128.07"/><polygon class="cls-9" points="97.38 240.28 69.61 224.25 69.61 119.08 97.38 135.11 97.38 240.28"/><polygon class="cls-10" points="97.38 135.11 69.61 119.08 97.38 103.05 125.15 119.08 97.38 135.11"/><polygon class="cls-11" points="92.38 148.9 74.61 138.64 74.61 129.66 92.38 139.92 92.38 148.9"/><polygon class="cls-1" points="125.15 224.25 97.38 240.28 97.38 135.12 125.15 119.09 125.15 224.25"/><polygon class="cls-11" points="109.04 145.06 102.38 148.91 102.38 139.93 109.04 136.08 109.04 145.06"/><polygon class="cls-11" points="120.15 138.65 113.48 142.49 113.48 133.51 120.15 129.67 120.15 138.65"/><polygon class="cls-11" points="109.04 158.52 102.38 162.37 102.38 153.39 109.04 149.55 109.04 158.52"/><polygon class="cls-11" points="120.15 152.11 113.48 155.96 113.48 146.98 120.15 143.13 120.15 152.11"/><polygon class="cls-11" points="109.04 171.99 102.38 175.84 102.38 166.86 109.04 163.01 109.04 171.99"/><polygon class="cls-11" points="120.15 165.58 113.48 169.42 113.48 160.45 120.15 156.6 120.15 165.58"/><polygon class="cls-11" points="109.04 186.1 102.38 189.94 102.38 180.97 109.04 177.12 109.04 186.1"/><polygon class="cls-11" points="120.15 179.68 113.48 183.53 113.48 174.55 120.15 170.71 120.15 179.68"/><polygon class="cls-11" points="109.04 201.16 102.38 205.01 102.38 196.03 109.04 192.18 109.04 201.16"/><polygon class="cls-11" points="120.15 194.75 113.48 198.59 113.48 189.62 120.15 185.77 120.15 194.75"/><polygon class="cls-11" points="109.04 216.56 102.38 220.41 102.38 211.43 109.04 207.58 109.04 216.56"/><polygon class="cls-11" points="120.15 210.15 113.48 213.99 113.48 205.02 120.15 201.17 120.15 210.15"/><polygon class="cls-11" points="92.38 162.37 74.61 152.11 74.61 143.13 92.38 153.39 92.38 162.37"/><polygon class="cls-11" points="92.38 175.83 74.61 165.57 74.61 156.59 92.38 166.85 92.38 175.83"/><polygon class="cls-11" points="92.38 189.94 74.61 179.68 74.61 170.7 92.38 180.96 92.38 189.94"/><polygon class="cls-11" points="92.38 205.01 74.61 194.75 74.61 185.77 92.38 196.03 92.38 205.01"/><polygon class="cls-11" points="92.38 220.41 74.61 210.15 74.61 201.17 92.38 211.43 92.38 220.41"/><polygon class="cls-9" points="97.38 128.07 81.36 118.82 81.36 115.96 97.38 125.21 97.38 128.07"/><polygon class="cls-1" points="97.38 128.07 113.41 118.82 113.41 115.96 97.38 125.21 97.38 128.07"/><polygon class="cls-9" points="222.24 224.75 194.48 208.72 194.48 103.56 222.24 119.59 222.24 224.75"/><polygon class="cls-10" points="222.24 119.59 194.47 103.56 222.24 87.53 250.01 103.56 222.24 119.59"/><polygon class="cls-11" points="217.25 133.37 199.47 123.11 199.47 114.14 217.25 124.4 217.25 133.37"/><polygon class="cls-1" points="250.01 208.72 222.24 224.75 222.24 119.59 250.01 103.56 250.01 208.72"/><polygon class="cls-11" points="233.9 129.53 227.24 133.38 227.24 124.4 233.9 120.55 233.9 129.53"/><polygon class="cls-11" points="245.01 123.12 238.35 126.97 238.35 117.99 245.01 114.14 245.01 123.12"/><polygon class="cls-11" points="233.9 143 227.24 146.84 227.24 137.87 233.9 134.02 233.9 143"/><polygon class="cls-11" points="245.01 136.58 238.35 140.43 238.35 131.45 245.01 127.61 245.01 136.58"/><polygon class="cls-11" points="233.9 156.46 227.24 160.31 227.24 151.33 233.9 147.49 233.9 156.46"/><polygon class="cls-11" points="245.01 150.05 238.35 153.9 238.35 144.92 245.01 141.07 245.01 150.05"/><polygon class="cls-11" points="233.9 170.57 227.24 174.42 227.24 165.44 233.9 161.59 233.9 170.57"/><polygon class="cls-11" points="245.01 164.16 238.35 168 238.35 159.03 245.01 155.18 245.01 164.16"/><polygon class="cls-11" points="233.9 185.63 227.24 189.48 227.24 180.5 233.9 176.66 233.9 185.63"/><polygon class="cls-11" points="245.01 179.22 238.35 183.07 238.35 174.09 245.01 170.24 245.01 179.22"/><polygon class="cls-11" points="233.9 201.03 227.24 204.88 227.24 195.9 233.9 192.06 233.9 201.03"/><polygon class="cls-11" points="245.01 194.62 238.35 198.47 238.35 189.49 245.01 185.64 245.01 194.62"/><polygon class="cls-11" points="217.25 146.84 199.47 136.58 199.47 127.6 217.25 137.86 217.25 146.84"/><polygon class="cls-11" points="217.25 160.31 199.47 150.04 199.47 141.07 217.25 151.33 217.25 160.31"/><polygon class="cls-11" points="217.25 174.41 199.47 164.15 199.47 155.18 217.25 165.43 217.25 174.41"/><polygon class="cls-11" points="217.25 189.48 199.47 179.22 199.47 170.24 217.25 180.5 217.25 189.48"/><polygon class="cls-11" points="217.25 204.88 199.47 194.62 199.47 185.64 217.25 195.9 217.25 204.88"/><polygon class="cls-9" points="222.24 112.54 206.22 103.29 206.22 100.43 222.24 109.68 222.24 112.54"/><polygon class="cls-1" points="222.24 112.54 238.27 103.29 238.27 100.43 222.24 109.68 222.24 112.54"/><polygon class="cls-9" points="61.28 260.8 33.52 244.77 33.52 178.08 61.28 194.11 61.28 260.8"/><polygon class="cls-10" points="61.28 194.11 33.52 178.08 61.28 162.05 89.05 178.08 61.28 194.11"/><polygon class="cls-11" points="56.29 207.9 38.52 197.64 38.52 188.66 56.29 198.92 56.29 207.9"/><polygon class="cls-1" points="89.05 244.77 61.28 260.8 61.28 194.12 89.05 178.08 89.05 244.77"/><polygon class="cls-11" points="72.94 204.05 66.28 207.9 66.28 198.92 72.94 195.08 72.94 204.05"/><polygon class="cls-11" points="84.05 197.64 77.39 201.49 77.39 192.51 84.05 188.66 84.05 197.64"/><polygon class="cls-11" points="72.94 217.52 66.28 221.37 66.28 212.39 72.94 208.54 72.94 217.52"/><polygon class="cls-11" points="84.05 211.11 77.39 214.95 77.39 205.98 84.05 202.13 84.05 211.11"/><polygon class="cls-11" points="72.94 230.99 66.28 234.83 66.28 225.86 72.94 222.01 72.94 230.99"/><polygon class="cls-11" points="84.05 224.57 77.39 228.42 77.39 219.44 84.05 215.6 84.05 224.57"/><polygon class="cls-11" points="72.94 245.09 66.28 248.94 66.28 239.96 72.94 236.12 72.94 245.09"/><polygon class="cls-11" points="84.05 238.68 77.39 242.53 77.39 233.55 84.05 229.7 84.05 238.68"/><polygon class="cls-11" points="56.29 221.36 38.52 211.1 38.52 202.13 56.29 212.38 56.29 221.36"/><polygon class="cls-11" points="56.29 234.83 38.52 224.57 38.52 215.59 56.29 225.85 56.29 234.83"/><polygon class="cls-11" points="56.29 248.94 38.52 238.68 38.52 229.7 56.29 239.96 56.29 248.94"/><polygon class="cls-9" points="61.28 187.06 45.26 177.81 45.26 174.95 61.28 184.2 61.28 187.06"/><polygon class="cls-1" points="61.28 187.06 77.31 177.81 77.31 174.95 61.28 184.2 61.28 187.06"/><polygon class="cls-9" points="182.54 246.82 154.78 230.79 154.78 164.11 182.54 180.14 182.54 246.82"/><polygon class="cls-10" points="182.54 180.14 154.78 164.1 182.54 148.07 210.31 164.11 182.54 180.14"/><polygon class="cls-11" points="177.54 193.92 159.77 183.66 159.77 174.69 177.54 184.95 177.54 193.92"/><polygon class="cls-1" points="210.31 230.8 182.54 246.83 182.54 180.14 210.31 164.11 210.31 230.8"/><polygon class="cls-11" points="194.2 190.08 187.54 193.93 187.54 184.95 194.2 181.1 194.2 190.08"/><polygon class="cls-11" points="205.31 183.67 198.65 187.52 198.65 178.54 205.31 174.69 205.31 183.67"/><polygon class="cls-11" points="194.2 203.55 187.54 207.39 187.54 198.42 194.2 194.57 194.2 203.55"/><polygon class="cls-11" points="205.31 197.13 198.65 200.98 198.65 192 205.31 188.16 205.31 197.13"/><polygon class="cls-11" points="194.2 217.01 187.54 220.86 187.54 211.88 194.2 208.03 194.2 217.01"/><polygon class="cls-11" points="205.31 210.6 198.65 214.45 198.65 205.47 205.31 201.62 205.31 210.6"/><polygon class="cls-11" points="194.2 231.12 187.54 234.97 187.54 225.99 194.2 222.14 194.2 231.12"/><polygon class="cls-11" points="205.31 224.71 198.65 228.55 198.65 219.58 205.31 215.73 205.31 224.71"/><polygon class="cls-11" points="177.54 207.39 159.77 197.13 159.77 188.15 177.54 198.41 177.54 207.39"/><polygon class="cls-11" points="177.54 220.85 159.77 210.59 159.77 201.62 177.54 211.88 177.54 220.85"/><polygon class="cls-11" points="177.54 234.96 159.77 224.7 159.77 215.72 177.54 225.98 177.54 234.96"/><polygon class="cls-9" points="182.54 173.09 166.52 163.84 166.52 160.98 182.54 170.23 182.54 173.09"/><polygon class="cls-1" points="182.54 173.09 198.57 163.84 198.57 160.98 182.54 170.23 182.54 173.09"/><polygon class="cls-9" points="282.9 254.69 239.48 229.63 239.48 25.07 282.9 50.14 282.9 254.69"/><polygon class="cls-11" points="277.72 60.27 244.59 41.15 244.59 32.63 277.72 51.75 277.72 60.27"/><polygon class="cls-11" points="277.72 70.04 244.59 50.91 244.59 42.39 277.72 61.52 277.72 70.04"/><polygon class="cls-11" points="277.72 79.81 244.59 60.68 244.59 52.16 277.72 71.28 277.72 79.81"/><polygon class="cls-11" points="277.72 89.57 244.59 70.45 244.59 61.93 277.72 81.05 277.72 89.57"/><polygon class="cls-11" points="277.72 99.34 244.59 80.22 244.59 71.69 277.72 90.82 277.72 99.34"/><polygon class="cls-11" points="277.72 109.11 244.59 89.98 244.59 81.46 277.72 100.59 277.72 109.11"/><polygon class="cls-11" points="277.72 118.88 244.59 99.75 244.59 91.23 277.72 110.35 277.72 118.88"/><polygon class="cls-11" points="277.72 128.64 244.59 109.52 244.59 101 277.72 120.12 277.72 128.64"/><polygon class="cls-11" points="277.72 138.41 244.59 119.29 244.59 110.76 277.72 129.89 277.72 138.41"/><polygon class="cls-11" points="277.72 148.18 244.59 129.05 244.59 120.53 277.72 139.66 277.72 148.18"/><polygon class="cls-11" points="277.72 157.94 244.59 138.82 244.59 130.3 277.72 149.42 277.72 157.94"/><polygon class="cls-11" points="277.72 167.71 244.59 148.59 244.59 140.06 277.72 159.19 277.72 167.71"/><polygon class="cls-11" points="277.72 177.48 244.59 158.35 244.59 149.83 277.72 168.96 277.72 177.48"/><polygon class="cls-11" points="277.72 187.25 244.59 168.12 244.59 159.6 277.72 178.72 277.72 187.25"/><polygon class="cls-11" points="277.72 197.01 244.59 177.89 244.59 169.37 277.72 188.49 277.72 197.01"/><polygon class="cls-11" points="277.72 206.78 244.59 187.66 244.59 179.13 277.72 198.26 277.72 206.78"/><polygon class="cls-11" points="277.72 216.55 244.59 197.42 244.59 188.9 277.72 208.03 277.72 216.55"/><polygon class="cls-1" points="252.75 202.13 252.17 201.8 252.17 37 252.75 37.34 252.75 202.13"/><polygon class="cls-1" points="261.07 206.94 260.5 206.6 260.5 41.81 261.07 42.14 261.07 206.94"/><polygon class="cls-1" points="269.4 211.74 268.82 211.41 268.82 46.61 269.4 46.95 269.4 211.74"/><polygon class="cls-10" points="282.9 50.14 239.49 25.07 282.9 0 326.32 25.07 282.9 50.14"/><polygon class="cls-1" points="326.32 229.63 282.9 254.69 282.9 50.14 326.32 25.07 326.32 229.63"/><polygon class="cls-11" points="321.14 41.19 288.01 60.32 288.01 51.79 321.14 32.67 321.14 41.19"/><polygon class="cls-11" points="321.14 50.96 288.01 70.08 288.01 61.56 321.14 42.44 321.14 50.96"/><polygon class="cls-11" points="321.14 60.73 288.01 79.85 288.01 71.33 321.14 52.2 321.14 60.73"/><polygon class="cls-11" points="321.14 70.49 288.01 89.62 288.01 81.09 321.14 61.97 321.14 70.49"/><polygon class="cls-11" points="321.14 80.26 288.01 99.38 288.01 90.86 321.14 71.74 321.14 80.26"/><polygon class="cls-11" points="321.14 90.03 288.01 109.15 288.01 100.63 321.14 81.5 321.14 90.03"/><polygon class="cls-11" points="321.14 99.79 288.01 118.92 288.01 110.4 321.14 91.27 321.14 99.79"/><polygon class="cls-11" points="321.14 109.56 288.01 128.69 288.01 120.16 321.14 101.04 321.14 109.56"/><polygon class="cls-11" points="321.14 119.33 288.01 138.45 288.01 129.93 321.14 110.81 321.14 119.33"/><polygon class="cls-11" points="321.14 129.1 288.01 148.22 288.01 139.7 321.14 120.57 321.14 129.1"/><polygon class="cls-11" points="321.14 138.86 288.01 157.99 288.01 149.47 321.14 130.34 321.14 138.86"/><polygon class="cls-11" points="321.14 148.63 288.01 167.75 288.01 159.23 321.14 140.11 321.14 148.63"/><polygon class="cls-11" points="321.14 158.4 288.01 177.52 288.01 169 321.14 149.88 321.14 158.4"/><polygon class="cls-11" points="321.14 168.16 288.01 187.29 288.01 178.77 321.14 159.64 321.14 168.16"/><polygon class="cls-11" points="321.14 177.93 288.01 197.06 288.01 188.53 321.14 169.41 321.14 177.93"/><polygon class="cls-11" points="321.14 187.7 288.01 206.82 288.01 198.3 321.14 179.18 321.14 187.7"/><polygon class="cls-11" points="321.14 197.47 288.01 216.59 288.01 208.07 321.14 188.94 321.14 197.47"/><polygon class="cls-1" points="296.17 211.88 295.6 212.22 295.6 47.42 296.17 47.08 296.17 211.88"/><polygon class="cls-1" points="304.5 207.08 303.92 207.41 303.92 42.61 304.5 42.28 304.5 207.08"/><polygon class="cls-1" points="312.82 202.27 312.24 202.61 312.24 37.81 312.82 37.47 312.82 202.27"/><polygon class="cls-9" points="212.69 264.18 194.82 253.86 194.82 231.55 212.69 241.87 212.69 264.18"/><polygon class="cls-10" points="212.68 241.89 194.81 231.57 210.61 222.07 228.47 232.39 212.68 241.89"/><polygon class="cls-9" points="240.46 280.2 212.69 264.17 212.69 197.49 240.46 213.52 240.46 280.2"/><polygon class="cls-10" points="240.45 213.52 212.69 197.49 240.45 181.46 268.22 197.49 240.45 213.52"/><polygon class="cls-11" points="235.46 227.3 217.69 217.04 217.69 208.07 235.46 218.33 235.46 227.3"/><polygon class="cls-1" points="268.22 264.18 240.45 280.21 240.45 213.52 268.22 197.49 268.22 264.18"/><polygon class="cls-11" points="252.12 223.46 245.45 227.31 245.45 218.33 252.12 214.48 252.12 223.46"/><polygon class="cls-11" points="263.22 217.05 256.56 220.9 256.56 211.92 263.22 208.07 263.22 217.05"/><polygon class="cls-11" points="252.12 236.93 245.45 240.77 245.45 231.8 252.12 227.95 252.12 236.93"/><polygon class="cls-11" points="263.22 230.51 256.56 234.36 256.56 225.38 263.22 221.54 263.22 230.51"/><polygon class="cls-11" points="252.12 250.39 245.45 254.24 245.45 245.26 252.12 241.41 252.12 250.39"/><polygon class="cls-11" points="263.22 243.98 256.56 247.83 256.56 238.85 263.22 235 263.22 243.98"/><polygon class="cls-11" points="252.12 264.5 245.45 268.35 245.45 259.37 252.12 255.52 252.12 264.5"/><polygon class="cls-11" points="263.22 258.09 256.56 261.93 256.56 252.96 263.22 249.11 263.22 258.09"/><polygon class="cls-11" points="235.46 240.77 217.69 230.51 217.69 221.53 235.46 231.79 235.46 240.77"/><polygon class="cls-11" points="235.46 254.24 217.69 243.97 217.69 235 235.46 245.26 235.46 254.24"/><polygon class="cls-11" points="235.46 268.34 217.69 258.08 217.69 249.1 235.46 259.37 235.46 268.34"/><polygon class="cls-11" points="209.95 254.24 197.76 247.22 197.76 238.25 209.95 245.26 209.95 254.24"/><polygon class="cls-9" points="240.46 206.47 224.43 197.22 224.43 194.36 240.46 203.61 240.46 206.47"/><polygon class="cls-1" points="240.46 206.47 256.48 197.22 256.48 194.36 240.46 203.61 240.46 206.47"/><polygon class="cls-9" points="377.24 246.52 349.47 230.49 349.47 125.33 377.24 141.36 377.24 246.52"/><polygon class="cls-10" points="377.24 141.36 349.47 125.33 377.24 109.3 405 125.33 377.24 141.36"/><polygon class="cls-11" points="372.24 155.15 354.47 144.89 354.47 135.91 372.24 146.17 372.24 155.15"/><polygon class="cls-1" points="405 230.5 377.24 246.53 377.24 141.37 405 125.33 405 230.5"/><polygon class="cls-11" points="388.9 151.3 382.23 155.15 382.23 146.17 388.9 142.33 388.9 151.3"/><polygon class="cls-11" points="400 144.89 393.34 148.74 393.34 139.76 400 135.91 400 144.89"/><polygon class="cls-11" points="388.9 164.77 382.23 168.62 382.23 159.64 388.9 155.79 388.9 164.77"/><polygon class="cls-11" points="400 158.36 393.34 162.21 393.34 153.23 400 149.38 400 158.36"/><polygon class="cls-11" points="388.9 178.24 382.23 182.08 382.23 173.11 388.9 169.26 388.9 178.24"/><polygon class="cls-11" points="400 171.82 393.34 175.67 393.34 166.69 400 162.85 400 171.82"/><polygon class="cls-11" points="388.9 192.34 382.23 196.19 382.23 187.21 388.9 183.37 388.9 192.34"/><polygon class="cls-11" points="400 185.93 393.34 189.78 393.34 180.8 400 176.95 400 185.93"/><polygon class="cls-11" points="388.9 207.41 382.23 211.25 382.23 202.28 388.9 198.43 388.9 207.41"/><polygon class="cls-11" points="400 200.99 393.34 204.84 393.34 195.86 400 192.02 400 200.99"/><polygon class="cls-11" points="388.9 222.81 382.23 226.65 382.23 217.68 388.9 213.83 388.9 222.81"/><polygon class="cls-11" points="400 216.39 393.34 220.24 393.34 211.26 400 207.42 400 216.39"/><polygon class="cls-11" points="372.24 168.61 354.47 158.35 354.47 149.38 372.24 159.63 372.24 168.61"/><polygon class="cls-11" points="372.24 182.08 354.47 171.82 354.47 162.84 372.24 173.1 372.24 182.08"/><polygon class="cls-11" points="372.24 196.19 354.47 185.93 354.47 176.95 372.24 187.21 372.24 196.19"/><polygon class="cls-11" points="372.24 211.25 354.47 200.99 354.47 192.02 372.24 202.28 372.24 211.25"/><polygon class="cls-11" points="372.24 226.65 354.47 216.39 354.47 207.42 372.24 217.68 372.24 226.65"/><polygon class="cls-9" points="377.24 134.32 361.21 125.06 361.21 122.2 377.24 131.45 377.24 134.32"/><polygon class="cls-1" points="377.24 134.32 393.26 125.06 393.26 122.2 377.24 131.45 377.24 134.32"/><polygon class="cls-9" points="421.11 270.23 393.34 254.2 393.34 187.51 421.11 203.54 421.11 270.23"/><polygon class="cls-10" points="421.11 203.54 393.34 187.51 421.11 171.48 448.87 187.51 421.11 203.54"/><polygon class="cls-11" points="416.11 217.33 398.34 207.07 398.34 198.09 416.11 208.35 416.11 217.33"/><polygon class="cls-1" points="448.87 254.21 421.11 270.24 421.11 203.55 448.87 187.52 448.87 254.21"/><polygon class="cls-11" points="432.77 213.49 426.11 217.34 426.11 208.36 432.77 204.51 432.77 213.49"/><polygon class="cls-11" points="443.88 207.08 437.21 210.92 437.21 201.95 443.88 198.1 443.88 207.08"/><polygon class="cls-11" points="432.77 226.95 426.11 230.8 426.11 221.82 432.77 217.98 432.77 226.95"/><polygon class="cls-11" points="443.88 220.54 437.21 224.39 437.21 215.41 443.88 211.56 443.88 220.54"/><polygon class="cls-11" points="432.77 240.42 426.11 244.27 426.11 235.29 432.77 231.44 432.77 240.42"/><polygon class="cls-11" points="443.88 234.01 437.21 237.85 437.21 228.88 443.88 225.03 443.88 234.01"/><polygon class="cls-11" points="432.77 254.53 426.11 258.37 426.11 249.4 432.77 245.55 432.77 254.53"/><polygon class="cls-11" points="443.88 248.11 437.21 251.96 437.21 242.98 443.88 239.14 443.88 248.11"/><polygon class="cls-11" points="416.11 230.8 398.34 220.54 398.34 211.56 416.11 221.82 416.11 230.8"/><polygon class="cls-11" points="416.11 244.26 398.34 234 398.34 225.03 416.11 235.28 416.11 244.26"/><polygon class="cls-11" points="416.11 258.37 398.34 248.11 398.34 239.13 416.11 249.39 416.11 258.37"/><polygon class="cls-9" points="421.11 196.5 405.08 187.25 405.08 184.39 421.11 193.64 421.11 196.5"/><polygon class="cls-1" points="421.11 196.5 437.13 187.25 437.13 184.39 421.11 193.64 421.11 196.5"/><path class="cls-7" d="M344.47,235.11h-3.13v11a.78.78,0,0,0,.46.64,2.46,2.46,0,0,0,2.21,0,.78.78,0,0,0,.46-.64h0Z"/><circle class="cls-8" cx="342.98" cy="227.07" r="8.2"/><path class="cls-7" d="M325.49,246.08h-3.13v11a.75.75,0,0,0,.46.63,2.4,2.4,0,0,0,2.21,0,.75.75,0,0,0,.46-.63h0Z"/><circle class="cls-8" cx="324" cy="238.05" r="8.2"/><path class="cls-7" d="M305.18,257.69h-3.13v11a.78.78,0,0,0,.46.64,2.46,2.46,0,0,0,2.21,0,.78.78,0,0,0,.46-.64h0Z"/><circle class="cls-8" cx="303.69" cy="249.65" r="8.2"/><path class="cls-7" d="M285.14,270H282v11a.78.78,0,0,0,.46.64,2.46,2.46,0,0,0,2.21,0,.78.78,0,0,0,.46-.64h0Z"/><circle class="cls-8" cx="283.65" cy="261.95" r="8.2"/><path class="cls-7" d="M151.37,241.31h-3.13v11a.78.78,0,0,0,.46.64,2.46,2.46,0,0,0,2.21,0,.78.78,0,0,0,.46-.64h0Z"/><circle class="cls-8" cx="149.88" cy="233.27" r="8.2"/><path class="cls-7" d="M132.39,252.28h-3.13v11a.75.75,0,0,0,.46.64,2.4,2.4,0,0,0,2.21,0,.75.75,0,0,0,.46-.64h0Z"/><circle class="cls-8" cx="130.9" cy="244.25" r="8.2"/><path class="cls-7" d="M112.08,264H109v11a.75.75,0,0,0,.46.63,2.4,2.4,0,0,0,2.21,0,.75.75,0,0,0,.46-.63h0Z"/><circle class="cls-8" cx="110.59" cy="255.99" r="8.2"/><path class="cls-7" d="M361.68,247.8h-3.13v11a.77.77,0,0,0,.46.64,2.4,2.4,0,0,0,2.21,0,.75.75,0,0,0,.46-.64h0Z"/><circle class="cls-8" cx="360.19" cy="239.77" r="8.2"/><path class="cls-7" d="M342.7,258.78h-3.13v11a.8.8,0,0,0,.46.64,2.46,2.46,0,0,0,2.21,0,.78.78,0,0,0,.46-.64h0Z"/><circle class="cls-8" cx="341.21" cy="250.74" r="8.2"/><path class="cls-7" d="M323.39,270.52h-3.12v11a.79.79,0,0,0,.45.64,2.48,2.48,0,0,0,2.22,0,.79.79,0,0,0,.45-.64h0Z"/><circle class="cls-8" cx="321.91" cy="262.48" r="8.2"/><path class="cls-7" d="M305.1,281H302v11a.8.8,0,0,0,.46.64,2.48,2.48,0,0,0,2.22,0,.79.79,0,0,0,.45-.64h0Z"/><circle class="cls-8" cx="303.62" cy="272.93" r="8.2"/><path class="cls-7" d="M284.47,293h-3.13v11a.78.78,0,0,0,.46.64,2.46,2.46,0,0,0,2.21,0,.78.78,0,0,0,.46-.64h0Z"/><circle class="cls-8" cx="282.98" cy="284.94" r="8.2"/><path class="cls-7" d="M284.47,317h-3.13v11a.75.75,0,0,0,.46.64,2.4,2.4,0,0,0,2.21,0,.75.75,0,0,0,.46-.64h0Z"/><circle class="cls-8" cx="282.98" cy="308.96" r="8.2"/><path class="cls-7" d="M265.49,328h-3.13v11a.78.78,0,0,0,.46.64,2.46,2.46,0,0,0,2.21,0,.78.78,0,0,0,.46-.64h0Z"/><circle class="cls-8" cx="264" cy="319.93" r="8.2"/><path class="cls-7" d="M245.18,339.71h-3.13v11a.78.78,0,0,0,.46.64,2.46,2.46,0,0,0,2.21,0,.78.78,0,0,0,.46-.64h0Z"/><circle class="cls-8" cx="243.69" cy="331.67" r="8.2"/><path class="cls-7" d="M344.47,282h-3.13v11a.78.78,0,0,0,.46.64,2.46,2.46,0,0,0,2.21,0,.78.78,0,0,0,.46-.64h0Z"/><circle class="cls-8" cx="342.98" cy="273.96" r="8.2"/><path class="cls-7" d="M325.49,293h-3.13v11a.78.78,0,0,0,.46.64,2.46,2.46,0,0,0,2.21,0,.78.78,0,0,0,.46-.64h0Z"/><circle class="cls-8" cx="324" cy="284.94" r="8.2"/><path class="cls-7" d="M305.18,304.72h-3.13v11a.78.78,0,0,0,.46.64,2.46,2.46,0,0,0,2.21,0,.78.78,0,0,0,.46-.64h0Z"/><circle class="cls-8" cx="303.69" cy="296.68" r="8.2"/><path class="cls-7" d="M382.34,260h-3.13v11a.75.75,0,0,0,.46.63,2.4,2.4,0,0,0,2.21,0,.75.75,0,0,0,.46-.63h0Z"/><circle class="cls-8" cx="380.85" cy="252" r="8.2"/><path class="cls-7" d="M363.36,271h-3.13v11a.78.78,0,0,0,.46.64,2.46,2.46,0,0,0,2.21,0,.78.78,0,0,0,.46-.64h0Z"/><circle class="cls-8" cx="361.87" cy="262.97" r="8.2"/></g></g></svg>