<svg xmlns="http://www.w3.org/2000/svg" viewBox="0 0 458.91 500"><defs><style>.cls-1,.cls-9{fill:#d6d8e5;}.cls-1{opacity:0.4;}.cls-2{fill:#3a2c6d;}.cls-3{fill:#ffcea9;}.cls-4{fill:#f4f4f4;}.cls-5{fill:#38226d;}.cls-6{fill:#9c73ff;}.cls-7{fill:#8c50ff;}.cls-8{fill:#ededed;}.cls-9{opacity:0.2;}.cls-10{fill:#c1c4d3;}.cls-11{fill:#d5d7e2;}.cls-12{fill:#e9eaf4;}.cls-13{fill:#ced0dd;}.cls-14{fill:#fff;}</style></defs><title>Data_analysis_SVG</title><g id="Слой_2" data-name="Слой 2"><g id="Слой_1-2" data-name="Слой 1"><ellipse class="cls-1" cx="418.32" cy="214.51" rx="40.59" ry="23.44"/><g id="Girl_8"><path id="_Контур_" data-name="&lt;Контур&gt;" class="cls-2" d="M416.57,2.47c1.59-2.55,13.69-4.22,17.67,6,1.51,3.89,1.27,13.83,2.54,20.07s4.23,9.78,5.3,14.85-.67,13.55-12.88,15-21.59-2.78-24.47-6.67-3-12.16,0-16.61,5.26-8,5.19-13.84Z"/><path class="cls-3" d="M402.08,45.37S399.21,65.61,404.63,80s3.91-3.71,3.91-3.71L407.24,72s-1.09-16.55-.64-20.6.35-7.54.64-7.87-1.07-1-1.65-1.05S402.08,45.37,402.08,45.37Z"/><path id="_Контур_2" data-name="&lt;Контур&gt;" class="cls-2" d="M424.56.7S415.45-1.93,409.93,3c-5.05,4.5-4.63,10.62-3.9,13.5s2.21,6.8,4.5,7S424.56.7,424.56.7Z"/><path id="_Контур_3" data-name="&lt;Контур&gt;" class="cls-3" d="M428,25.55s-.59,10.15-.41,10.9,4,1.47,5.06,2.35S427.16,50,423.81,51.51,410.09,49.14,409.37,44c-.66-4.75,3-8.44,4.37-9.73a21,21,0,0,1,2.86-.07l.3-4.92C421.45,27.81,428,25.55,428,25.55Z"/><path id="_Контур_4" data-name="&lt;Контур&gt;" class="cls-4" d="M429.44,37.44c2.85.43,6.11,2,6.56,3.52.52,1.82,1.65,10.41-.82,16.95s-4.13,10.69-5.55,13.51c0,0-12.35,5.29-22.3-.88,0,0-.68-7-.73-10.75-9.18-8-1.33-17.9,6.45-25.58a16.4,16.4,0,0,1,2.8,0s-6.94,8.21-2.11,12.88C424.08,43.93,426.13,39.29,429.44,37.44Z"/><path id="_Контур_5" data-name="&lt;Контур&gt;" class="cls-3" d="M409.08,13h0c1-6.52,5.73-11.45,12.46-11A12.92,12.92,0,0,1,428,25.55a13.33,13.33,0,0,1-1,2.85c-2.39,2.77-8.72,4.54-10.81,4.56-1.8,0-3.36-1.66-5.05-4.47C407.62,22.66,408.51,16.19,409.08,13Z"/><path class="cls-2" d="M423.62,2c4.72.92,8.61,2.25,9.89,6.88.88,3.19,2,9.28.93,11.84l-.68,1.85L428,25.55s-2.66-2.22-1.83-8.74a4.71,4.71,0,0,0-.8-2.47,7.45,7.45,0,0,1-.8-2,7.27,7.27,0,0,0-3.7-4C416.66,6,410.43,8,409.56,8.9A12.4,12.4,0,0,1,423.62,2Z"/><path id="_Контур_6" data-name="&lt;Контур&gt;" class="cls-3" d="M436.33,84.88c1.06-6.61,3-10.9,2.12-14.53a129.43,129.43,0,0,0-8-21.42c-2.09-4.12-1.45-7,.72-8.6,2.43-1.82,4.75-1,6.94,3.53,2.76,5.73,5.87,11.61,7.38,20.14.74,4.14,1.12,8.16-.21,16.66-.93,5.94-2.82,9.28-5.06,14.86C439.57,97.05,435.43,90.49,436.33,84.88Z"/><path class="cls-5" d="M432.2,208.18c-2.39,1.94-6.1.6-6.28.78-2.43,2.43-6.05,4.55-8.75,6.68-1.49,1.17-3.81,2.74-3.39,5,.75,4,7.19,2.78,9.62,1.55s4.42-3.27,6.72-4.7c1.64-1,3.25-1.54,3.51-3.62C433.78,212.61,432.62,208.13,432.2,208.18Z"/><path class="cls-6" d="M433.6,213c-.32,2-1.91,2.53-3.54,3.54-2.34,1.45-4.4,3.55-6.82,4.78-2.25,1.13-7.85,2.26-9.43-.61.86,3.88,7.19,2.66,9.59,1.44s4.42-3.27,6.72-4.7c1.64-1,3.25-1.54,3.51-3.62A4.13,4.13,0,0,0,433.6,213Z"/><path class="cls-5" d="M415.44,204.83c-2.18,1.78-5.49.78-5.65.95-2.22,2.23-5.52,4.14-8,6.09-1.37,1.07-3.49,2.51-3.11,4.57.69,3.68,6.59,2.55,8.82,1.42s4-3,6.15-4.3c1.5-.93,3-1.42,3.21-3.32C417,209.1,415.83,204.79,415.44,204.83Z"/><path class="cls-6" d="M416.84,209.48c-.29,1.82-1.75,2.32-3.24,3.24-2.14,1.33-4,3.25-6.25,4.38-2.06,1-7.19,2.07-8.63-.56.79,3.55,6.58,2.44,8.79,1.32s4-3,6.15-4.3c1.5-.93,3-1.42,3.21-3.32A3.47,3.47,0,0,0,416.84,209.48Z"/><path class="cls-3" d="M402.57,93.73c1.05-8.23,4.09-20.2,4.09-20.2a24.22,24.22,0,0,0,9.14,2.27c5.31.27,13.81-1.35,13.81-1.35A84.36,84.36,0,0,0,434.48,82c2.38,3.3,7,10.52,5.88,23.14-.73,8.24-5.35,43.26-5.35,43.26a65.48,65.48,0,0,1,2.84,18.16c-.05,5.09-1.39,13.75-2.89,21.75l-2.76,19.88s-3.67,2.65-6.28.78l.33-19.46c-.32-4.75-.79-11.78-1.1-16.26-.49-7.31-1.8-18.91-2.18-21.8s-1.3-8-1.74-13.63-2.58-34.5-2.58-34.5l-.3,5.4s-.28,8.76-1.54,19.58-1.7,15.61-1.7,15.61,2.18,4,2.46,7c.22,2.34,2.9,20.82,1.3,30.23L415.59,205a6.28,6.28,0,0,1-5.66.75L408,181.66c-1.29-9.17-4-28.6-4.44-31.13-.56-3.33-1-5-1.64-15.42S401.51,102,402.57,93.73Z"/><path class="cls-7" d="M429.63,71.42l7.09,14.24s10.82,15.84-.39,56.56l2.1,12.56s-21.22,13.62-35.43,0c0,0-4.92-37.63-2.3-55a199.47,199.47,0,0,1,6.61-29.48s3.48,3.85,21.38,1.31"/><path class="cls-8" d="M442.35,51.85s-4.93,4.9-10.77,4.3l-2.8-9.55s-1.83-5,2.43-7.18S439.9,42.07,442.35,51.85Z"/><path class="cls-8" d="M413.05,34.21S407.41,32.49,401.43,45l2.24,1.35S409.56,37.42,413.05,34.21Z"/></g><ellipse class="cls-1" cx="40.59" cy="309.84" rx="40.59" ry="23.44"/><g id="Men_13"><path class="cls-5" d="M19.77,302.65c2.9,2.36,7.19.2,7.4.42A132.76,132.76,0,0,0,37.89,312c1.81,1.42,4.64,3.33,4.13,6.06-.92,4.9-8.75,3.39-11.71,1.9s-5.37-4-8.17-5.72c-2-1.24-4-1.88-4.27-4.4C17.68,308.32,19.25,302.59,19.77,302.65Z"/><path class="cls-6" d="M17.91,308.82c.38,2.42,2.32,3.08,4.3,4.31,2.85,1.77,5.35,4.31,8.3,5.81,2.74,1.38,9.55,2.76,11.47-.74-1,4.72-8.74,3.24-11.67,1.76s-5.37-4-8.17-5.72c-2-1.24-4-1.88-4.27-4.4A4.68,4.68,0,0,1,17.91,308.82Z"/><path class="cls-5" d="M45,293.28c2.9,2.36,8-.22,8.2,0a111.83,111.83,0,0,0,9.58,8.64c1.81,1.43,4.63,3.33,4.12,6.07-.91,4.9-8.75,3.39-11.7,1.89s-5.37-4-8.17-5.71c-2-1.24-4-1.89-4.27-4.41C42.55,298.24,44.46,293.22,45,293.28Z"/><path class="cls-6" d="M42.82,299.09c.39,2.42,2.33,3.08,4.31,4.31,2.84,1.77,5.35,4.32,8.3,5.81,2.73,1.39,9.54,2.76,11.46-.74-1,4.72-8.74,3.24-11.66,1.76s-5.37-4-8.17-5.72c-2-1.24-4-1.88-4.27-4.4A5.28,5.28,0,0,1,42.82,299.09Z"/><path id="_Контур_7" data-name="&lt;Контур&gt;" class="cls-7" d="M19.6,195.41c.14,4.4,1.51,23.47,2.12,33.57s.75,22.48.75,22.48-1.74,7.36-2.87,16,0,35.94,0,35.94a6.9,6.9,0,0,0,7.44,0s4.65-21.85,6.8-31.69,2.53-15.51,3.65-21.61c1.35-7.39,4.26-41.82,4.26-41.82l1.17.06L46,247.23a44,44,0,0,0-2,8.82c-.84,6.34.9,38.2.9,38.2a7.73,7.73,0,0,0,8-.33s7.77-42.2,7.77-48.62c0-4.25-.73-60.25-.73-60.25Z"/><path id="_Контур_8" data-name="&lt;Контур&gt;" class="cls-3" d="M30.13,110.5s.49,9.58.28,10.43-4.4,3.66-5.62,4.66,6.63,8.74,10.44,10.49,15.89-2.86,16.11-8.79-2.07-10.91-3.92-11.18S30.13,110.5,30.13,110.5Z"/><path class="cls-3" d="M56.36,128.28c.56-4.23-2.22-8.24.48-11.61,9.46,9.28,8.25,33.8,10.4,49.5,7,7.34,21.13,14.57,25.1,16.36.72.33,1.35.68,1.21,1.46-.57,3.06-1.46,4.22-3.29,7.18-9.33-4-16.07-6.34-27.73-17.42a26.27,26.27,0,0,1-3-3.89C56.24,159.86,55.4,135.57,56.36,128.28Z"/><path id="_Контур_9" data-name="&lt;Контур&gt;" class="cls-4" d="M29.06,122.59s7,10.35,16.65,11.33c3.06-3,3.34-13.74-.9-17.17,0,0,3.89-3.14,6.55-2.53a13.71,13.71,0,0,1,6,7.64A62.62,62.62,0,0,1,60.77,144c-.16,10.16,0,41.21,0,41.21s-1.36,6.57-10.13,11.45-15.29,5.37-21.24,4c-4.91-1.15-9-2.87-10.65-6.44.44-7.12,3.62-25.71,2.43-34.66s-3.08-15.65-3.57-22.89.95-7.09,4.58-9.67A55.94,55.94,0,0,1,29.06,122.59Z"/><path id="_Контур_10" data-name="&lt;Контур&gt;" class="cls-3" d="M51.81,96.23h0c-1.14-7.44-6.5-13.07-14.17-12.65a14.74,14.74,0,0,0-7.51,26.92,14.64,14.64,0,0,0,1.19,3.25c2.71,3.18,10.91,5.13,13.27,4.8,3-.44,4.66-1.7,6.1-5C53.24,107.71,52.44,99.9,51.81,96.23Z"/><path class="cls-2" d="M30.13,110.5h0l.7-6.48s-5.3-13.73,7.23-11.09c8.26,1.74,10.34,2.49,12.85-3.05S44.56,79.34,34,80.73A14.55,14.55,0,0,0,21,95.5C21.27,99.58,22.36,107.84,30.13,110.5Z"/><path class="cls-3" d="M15.47,132.41c3.63-1,.86-.18,3.63-1,9.45,9.27,8.27,25.16,10.42,40.86,5.21,8.63,24.59,20.33,24.59,20.33.24,1.66-.35,2.16-2.44,5.53-9.33-4-17.15-7.5-28.81-18.58-.46-.44-1.13-.55-1.33-1.15C18.2,168.36,14.5,139.71,15.47,132.41Z"/><polygon class="cls-4" points="101.66 151.76 87.58 199.9 56.69 212.24 67.96 165.34 101.66 151.76"/><path class="cls-3" d="M49.23,192.9c.46-1.64,1.65-1.24,3-.82a7.79,7.79,0,0,0,4.57.39c1.27-.39,2.19-1.49,3.28-2.21a4.23,4.23,0,0,1,2.06-.59c-.07.42-.71,2.87-.71,2.87s6.77.07,7.46-.08A1.14,1.14,0,0,1,70,194.34l.46-.07c1.39-.31,2,1.82.59,2.13-.38.08-.75.12-1.13.17.9.35,1.13,1.84,0,2.06-.11,0-.23,0-.35.06a1,1,0,0,1-.49.07,1.66,1.66,0,0,1-.22,0,1.22,1.22,0,0,1-1,1.44c-3.31.42-8.18,1.74-11.16-1a18.81,18.81,0,0,1-6-1.62C48.73,196.72,48.68,194.87,49.23,192.9Z"/><path class="cls-3" d="M83,189c.16,0,.31,0,.46,0a1.14,1.14,0,0,1,.65-2.06c.71,0,7.68-1.45,7.68-1.45l.83-2.87c0-.16,1.21.58,1.25.61a4.66,4.66,0,0,1,2.1,3.48A7.46,7.46,0,0,1,94,192a6.88,6.88,0,0,1-4.72,2c-.84.06-1.66.1-2.39.16a1.22,1.22,0,0,1-1.3-1.19l-.21,0a1,1,0,0,1-.5,0l-.36,0c-1.18,0-1.27-1.47-.47-2-.38,0-.76.07-1.14.07C81.49,191.16,81.61,189,83,189Z"/><path class="cls-8" d="M60.3,134.56s3.57-.18,5-2.26c-.27-3.56-4.82-17.07-14-18.08a16.93,16.93,0,0,1,5.73,6.91C58.76,125.2,60.3,134.56,60.3,134.56Z"/><path class="cls-8" d="M13.82,152.41s9.11,3.14,15.53-2.14c.7-1.21-3.72-16.72-3.72-16.72s-3.82-7.93-9.81-4.78S13.82,152.41,13.82,152.41Z"/></g><polygon class="cls-9" points="393.6 354.08 203.6 464.45 91.87 398.8 281.87 288.42 393.6 354.08"/><path class="cls-10" d="M103.32,296.4V398.68a1.82,1.82,0,0,0,1.07,1.49,5.68,5.68,0,0,0,5.17,0,1.82,1.82,0,0,0,1.07-1.49h0V296.4Z"/><path class="cls-10" d="M202.09,336.2V454.92a1.83,1.83,0,0,0,.93,1.49,4.48,4.48,0,0,0,4.53,0,1.83,1.83,0,0,0,.93-1.49h0V336.2Z"/><path class="cls-10" d="M372.87,257v96.8a1.84,1.84,0,0,0,.94,1.49,4.46,4.46,0,0,0,4.52,0,1.84,1.84,0,0,0,.94-1.49h0V257Z"/><polygon class="cls-11" points="205.28 366.67 96.94 304.12 96.94 296.81 205.28 359.36 205.28 366.67"/><polygon class="cls-12" points="387.95 254.12 205.26 359.59 96.92 297.04 279.6 191.56 387.95 254.12"/><polygon class="cls-13" points="387.97 261.19 205.28 366.67 205.28 359.36 387.97 253.89 387.97 261.19"/><ellipse class="cls-1" cx="412.4" cy="476.56" rx="40.59" ry="23.44"/><g id="Men_1"><path id="_Контур_11" data-name="&lt;Контур&gt;" class="cls-3" d="M445.29,298.42c.47,4,5.29,21.5,4.26,27.48s-17.53,16-17.53,16l-2.28-10.23,9.13-8.95-2.47-17Z"/><path id="_Контур_12" data-name="&lt;Контур&gt;" class="cls-8" d="M432.54,281.21a7.22,7.22,0,0,1,9.18,2.78c2.42,4,4.94,17.8,5.17,20.16,0,0-3.4,4.7-8.51,3.91Z"/><path class="cls-5" d="M413.7,475.85A14.18,14.18,0,0,1,403,474.57c-2.57.07-16.52-5.9-18.42-.89-1.66,4.4,4.38,8.47,7.61,9.25,7.05,1.71,12.27,5.22,15.1,5.82,2.11.44,4.84.73,6.52-.92C415.85,485.84,415.67,478.48,413.7,475.85Z"/><path class="cls-6" d="M407.31,487.53c-2.83-.6-8.05-4.11-15.1-5.82-2.7-.65-7.37-3.62-7.84-7.14-.63,4,4.83,7.63,7.84,8.36,7.05,1.71,12.27,5.22,15.1,5.82,2.11.44,4.84.73,6.52-.92a4.05,4.05,0,0,0,.92-1.69C412.3,488.18,409.42,488,407.31,487.53Z"/><path class="cls-5" d="M436.33,465.69a14.11,14.11,0,0,1-10.67-1.29c-2.57.08-16.53-5.9-18.42-.88-1.67,4.4,4.38,8.46,7.61,9.24,7,1.71,12.26,5.23,15.09,5.82,2.11.45,4.84.74,6.53-.92C438.48,475.67,438.31,468.31,436.33,465.69Z"/><path class="cls-6" d="M429.94,477.37c-2.83-.6-8-4.12-15.09-5.82-2.71-.66-7.37-3.62-7.84-7.15-.63,4.05,4.82,7.63,7.84,8.36,7,1.71,12.26,5.23,15.09,5.82,2.11.45,4.84.74,6.53-.92a4.12,4.12,0,0,0,.92-1.68C434.94,478,432.05,477.81,429.94,477.37Z"/><path id="_Контур_13" data-name="&lt;Контур&gt;" class="cls-7" d="M436.61,427.77a85.14,85.14,0,0,0-3.22-15.29s1-13.19,1.44-25.69c.55-14.2,5.47-26.69,1.59-38l-43.79,9.74s2.65,56.58,3.23,63.43a127.69,127.69,0,0,0,2,15.89c2,11,5.24,37.11,5.24,37.11,4.63,2.69,10.71,1.2,10.71,1.2s-.33-33-.63-41c-.37-9.66-.66-8.92-.66-8.92l1.45-24.08.95-12s1.21,8.79,2,16.64c.68,6.84,2.34,13,4.18,25.78,1.6,11.05,4.2,33.26,4.2,33.26,4.63,2.69,10.92.46,10.92.46S437.86,437.36,436.61,427.77Z"/><path id="_Контур_14" data-name="&lt;Контур&gt;" class="cls-3" d="M430.22,281.45c-3.34.16-5.82,1-6.24,0a42.37,42.37,0,0,1-.76-5.21c.39-1,.71-2,.71-2,4.19-2.58,5.52-7.1,6.07-12.38.94-9-3.93-16.89-12.94-17.83-8.47-.88-14.7,5.07-16.36,13.24-.9,4-2.68,11.66-.27,18.3,1.34,3.71,3.08,6.65,4.82,7.23a42,42,0,0,0,5-.44h0s.44,2.51.75,4.11.19,2.46-3,4.43,4.84,6,10.09,5.62,11.15-3.57,12.77-7C432.66,285.8,432.51,281.34,430.22,281.45Z"/><path id="_Контур_15" data-name="&lt;Контур&gt;" class="cls-4" d="M425.39,282c.92,2.3-1.42,5.12-7.69,7.09s-6.82-.57-6.82-.57-9.19,4.19-12.18,6.27c-3.76,2.63-5.42,10.24-5.93,23.08-.59,14.85-.64,36.89-.14,40.7,0,0,7,7,16,6.26s24.12-8.69,27.79-14.84c-.1-13-1.62-15.15.49-22.65,4.82-17.18,7.37-24.21,5-35.63-1.93-9.41-4.65-10.58-8.36-10.49A76,76,0,0,0,425.39,282Z"/><path id="_Контур_16" data-name="&lt;Контур&gt;" class="cls-3" d="M378.64,330.1c7.37,1.86,9.11-2.79,10.08-6.65,2.34-9.32,3.61-17.75,5.36-23,2.06-6.25,4.22-7.24,7.25-8.45,3.56-1.43,6.63,1.58,5.44,9.52-1.4,9.4-3.24,16-6.76,27.13-.91,2.9-3,8.06-6.06,10.56-3.8,3.08-9.54,2.94-18.21.79-3.7-.93-7.76-3.14-14.76-6.4-1.87-.88-3.34-1.46-6.94-3.14s-7.36-4.48-9.25-7.22-2.14-4-1.75-4.64c.48-.79,1.34-.61,2.34.54a20.46,20.46,0,0,0,5.31,4.91s-2.33-2.41-3.59-4a20.07,20.07,0,0,1-2.79-4.56c-.67-1.6.71-3.76,1.75-2.63s1.54,2.3,3.45,4.59a20,20,0,0,0,3.42,3.26,37.3,37.3,0,0,1-3.15-5.07,8.38,8.38,0,0,1-1.15-4.58c.05-.84,1.23-1.82,2.34-.24,1,1.41,1.64,3.64,4,6.05,1.68,1.75,3.12,2.75,3.16,2.27s-1-1.45-1.62-3.48,0-4.19,1.13-4.43.9-.17,1.81,1.74,2.29,3.31,3.35,6.09a12.65,12.65,0,0,0,3,5.23C367.61,326.2,371.62,328.33,378.64,330.1Z"/><path id="_Контур_17" data-name="&lt;Контур&gt;" class="cls-8" d="M404.07,290.68c-4.93-.73-8.41,1.49-10.59,9s-3.7,13.59-3.7,13.59a13.39,13.39,0,0,0,8.26,5.48c5.89,1.43,8-1.39,8-1.39s1.64-7.82,2.66-13.15S410.16,291.58,404.07,290.68Z"/><path class="cls-2" d="M401,256.11s-7.78-11.84,9.09-14.25c12.16-1.74,20,6.08,20.88,14.56.86,8.1-4.13,16.52-7.73,19.86-1.76.62-5.54,1-10.51-1.27a60.64,60.64,0,0,1-.23-6.64S418.4,255.9,401,256.11Z"/></g><path class="cls-14" d="M155.34,303.42c-7,4-18.4,4-25.4,0s-7-10.62,0-14.67,18.4-4,25.4,0S162.34,299.37,155.34,303.42Zm-21.73-12.55c-5,2.88-5,7.55,0,10.43s13.08,2.87,18.06,0,5-7.55,0-10.43S138.59,288,133.61,290.87Z"/><path class="cls-7" d="M155.34,303.42c-7,4-18.4,4-25.4,0s-7-10.62,0-14.67l3.67,2.12c-5,2.88-5,7.55,0,10.43s13.08,2.87,18.06,0,5-7.55,0-10.43l3.67-2.12C162.34,292.8,162.34,299.37,155.34,303.42Z"/><path class="cls-14" d="M186,321.11c-7,4.05-18.39,4.05-25.4,0s-7-10.62,0-14.66,18.4-4.05,25.4,0S193,317.07,186,321.11Zm-21.73-12.54c-5,2.87-5,7.55,0,10.42s13.08,2.88,18.06,0,5-7.55,0-10.43S169.23,305.69,164.25,308.57Z"/><path class="cls-7" d="M186,321.11c-7,4.05-18.39,4.05-25.4,0s-7-10.62,0-14.66l3.67,2.12c-5,2.87-5,7.55,0,10.42s13.08,2.88,18.06,0a7.26,7.26,0,0,0,3.54-3.89l5.11.53A10.2,10.2,0,0,1,186,321.11Z"/><path class="cls-14" d="M216.63,338.8c-7,4.05-18.4,4.05-25.4,0s-7-10.62,0-14.66,18.4-4,25.4,0S223.63,334.76,216.63,338.8ZM194.9,326.26c-5,2.87-5,7.55,0,10.43s13.08,2.87,18.06,0,5-7.56,0-10.43S199.88,323.38,194.9,326.26Z"/><path class="cls-7" d="M199.14,341.47a23.35,23.35,0,0,1-7.91-2.67c-7-4-7-10.62,0-14.66l3.67,2.12c-5,2.87-5,7.55,0,10.43a16.62,16.62,0,0,0,5.62,1.89Z"/><ellipse class="cls-7" cx="183.81" cy="269.89" rx="15.38" ry="8.88"/><polygon class="cls-7" points="257.13 224.29 198.44 258.18 191.64 254.55 250.34 220.66 257.13 224.29"/><polygon class="cls-14" points="250.86 242 210.38 265.37 203.84 261.59 244.32 238.22 250.86 242"/><ellipse class="cls-7" cx="215.75" cy="288.33" rx="15.38" ry="8.88"/><polygon class="cls-7" points="288.82 242.88 230.13 276.77 223.59 272.99 282.29 239.1 288.82 242.88"/><polygon class="cls-14" points="282.81 260.44 242.33 283.81 235.79 280.03 276.27 256.66 282.81 260.44"/><ellipse class="cls-7" cx="248.35" cy="307.15" rx="15.38" ry="8.88"/><polygon class="cls-7" points="321.42 261.7 262.72 295.59 256.18 291.81 314.88 257.92 321.42 261.7"/><polygon class="cls-14" points="315.4 279.26 274.92 302.63 268.38 298.85 308.86 275.48 315.4 279.26"/><path class="cls-14" d="M186,265.21h-1.87a1.24,1.24,0,0,0-.66.16.44.44,0,0,0-.28.38V271h-4.06a1.24,1.24,0,0,0-.66.16.44.44,0,0,0-.28.38v1.08a.44.44,0,0,0,.28.38,1.24,1.24,0,0,0,.66.16H186a1.24,1.24,0,0,0,.66-.16.44.44,0,0,0,.28-.38v-6.84a.44.44,0,0,0-.28-.38A1.24,1.24,0,0,0,186,265.21Z"/><path class="cls-14" d="M218.2,283.8h-1.88a1.4,1.4,0,0,0-.66.16.47.47,0,0,0-.27.38v5.23h-4a1.34,1.34,0,0,0-.66.16c-.19.11-.28.23-.28.38v1.08a.46.46,0,0,0,.28.39,1.34,1.34,0,0,0,.66.16h6.86a1.4,1.4,0,0,0,.66-.16.47.47,0,0,0,.27-.39v-6.84a.47.47,0,0,0-.27-.38A1.37,1.37,0,0,0,218.2,283.8Z"/><path class="cls-14" d="M250.53,302.47h-1.87a1.24,1.24,0,0,0-.66.16c-.19.11-.28.23-.28.38v5.22h-4.06a1.24,1.24,0,0,0-.66.16c-.18.11-.28.23-.28.38v1.08a.45.45,0,0,0,.28.38,1.24,1.24,0,0,0,.66.16h6.86a1.24,1.24,0,0,0,.66-.16.44.44,0,0,0,.28-.38V303c0-.15-.09-.27-.28-.38A1.24,1.24,0,0,0,250.53,302.47Z"/><polygon class="cls-14" points="354.91 260.55 267.64 210.17 280.98 202.47 368.25 252.85 354.91 260.55"/></g></g></svg>