<svg xmlns="http://www.w3.org/2000/svg" viewBox="0 0 500 442.96"><defs><style>.cls-1,.cls-7{fill:#d6d8e5;}.cls-1{opacity:0.3;}.cls-2{fill:#dd990e;}.cls-3{fill:#f9cb07;}.cls-4{fill:#cc8b09;}.cls-5{fill:#e8a30a;}.cls-6{fill:#f9ca06;}.cls-7{opacity:0.4;}.cls-8{fill:#7d90e2;}.cls-9{fill:#525bff;}.cls-10{fill:#97a6ff;}.cls-11{opacity:0.1;}.cls-12{fill:none;stroke:#cc8b09;stroke-miterlimit:10;stroke-width:10.46px;}</style></defs><title>Financial_insurance_SVG</title><g id="Слой_2" data-name="Слой 2"><g id="Слой_1-2" data-name="Слой 1"><g id="Coin"><ellipse class="cls-1" cx="132.95" cy="58.16" rx="46.31" ry="26.74"/><ellipse class="cls-2" cx="140" cy="52.46" rx="46.31" ry="26.74"/><polygon class="cls-2" points="93.7 52.86 93.7 40.68 102.85 48.83 93.7 52.86"/><polygon class="cls-2" points="186.31 41 186.31 52.45 181.63 57.42 179.34 44.3 186.31 41"/><ellipse class="cls-3" cx="140" cy="41" rx="46.31" ry="26.74"/><path class="cls-4" d="M173.09,41.83c-.47,4.5-3.67,8.93-9.64,12.38-12.95,7.47-33.95,7.47-46.89,0-6-3.45-9.18-7.88-9.64-12.38-.56-5.28,2.66-10.66,9.64-14.68,12.94-7.49,33.94-7.49,46.89,0C170.42,31.17,173.64,36.55,173.09,41.83Z"/><path class="cls-5" d="M173.09,41.83c-.47,4.5-3.67,8.93-9.64,12.38-12.95,7.47-33.95,7.47-46.89,0-6-3.45-9.18-7.88-9.64-12.38.46-4.51,3.67-8.94,9.64-12.39,12.94-7.48,33.94-7.48,46.89,0C169.42,32.89,172.62,37.32,173.09,41.83Z"/><path class="cls-4" d="M139.51,35.56a7.16,7.16,0,0,0-1.21.1q-.83.12-1.83.33c-.68.14-1.38.32-2.11.54a15.16,15.16,0,0,0-2.08.79l5.32,3.08,1-.34c1.35-.45,2.63-.83,3.83-1.15a18.51,18.51,0,0,1,3.45-.57,12.29,12.29,0,0,1,3.17.22,9.81,9.81,0,0,1,3,1.18,6.09,6.09,0,0,1,2.3,2,2.69,2.69,0,0,1,.33,2.08,4.63,4.63,0,0,1-1.24,2.06A13.46,13.46,0,0,1,151,47.81l3.39,1.95-1.85,1.07-3.41-2A28.19,28.19,0,0,1,144,50.77a33.87,33.87,0,0,1-5.6,1l-1.79-3.2a13,13,0,0,0,1.49-.11c.67-.08,1.41-.21,2.24-.38s1.68-.4,2.6-.67a19.1,19.1,0,0,0,2.6-1l-5.3-3.06a7,7,0,0,1-.69.24l-.72.23c-1.34.43-2.56.78-3.67,1a16.48,16.48,0,0,1-3.12.42,11.21,11.21,0,0,1-2.76-.26,9.48,9.48,0,0,1-2.55-1,6.53,6.53,0,0,1-2.22-1.91,3.2,3.2,0,0,1-.6-2,3.89,3.89,0,0,1,.88-2.07,9.21,9.21,0,0,1,2.16-2l-3.14-1.82,1.84-1.06L128.8,35a23,23,0,0,1,4.57-1.68,34,34,0,0,1,4.57-.82Zm-9,5.58a3.9,3.9,0,0,0,2.31.5,15.27,15.27,0,0,0,3.17-.71l-5-2.88C129.13,39.25,129,40.28,130.46,41.14ZM148,42.6a4.07,4.07,0,0,0-2.5-.45,21.05,21.05,0,0,0-3.47.77l5,2.86C149.05,44.49,149.38,43.43,148,42.6Z"/><path class="cls-4" d="M136.65,48.62c0-.13,0-1.79,0-1.79l2,1.31-.88,1.36Z"/><polygon class="cls-4" points="154.38 49.76 154.38 47.97 149.98 48.3 152.51 50.03 154.38 49.76"/><polygon class="cls-4" points="154.75 43.17 154.75 41.35 151.46 42.55 154.75 43.17"/><path class="cls-4" d="M141.1,43.07l1.09-1,3.87,2.68-.24.79s-2.89-1.22-3-1.29S141.1,43.07,141.1,43.07Z"/><path class="cls-4" d="M131,37.42l5.14,2.91,1-.77s-.65-.74-.7-.81a6.43,6.43,0,0,0-1.6-1.33c-.38-.08-2.81-1.17-2.81-1.17Z"/><polygon class="cls-4" points="139.51 35.56 139.51 33.77 137.16 33 136.65 34.41 136.77 35.05 139.51 35.56"/><polygon class="cls-4" points="123.85 34.26 123.85 32.47 126.58 32.76 125.7 34.5 123.85 34.26"/><path class="cls-4" d="M124,40.36V38.49h3.13l-.76,1.67L125,41.66Z"/><path class="cls-6" d="M139.51,33.77a6.91,6.91,0,0,0-1.21.09q-.83.12-1.83.33c-.68.14-1.38.33-2.11.54a16.58,16.58,0,0,0-2.08.79l5.32,3.08,1-.34c1.35-.45,2.63-.83,3.83-1.14a17,17,0,0,1,3.45-.57,11.87,11.87,0,0,1,3.17.21,10.07,10.07,0,0,1,3,1.18,6.1,6.1,0,0,1,2.3,2,2.69,2.69,0,0,1,.33,2.08,4.6,4.6,0,0,1-1.24,2.05A12.64,12.64,0,0,1,151,46l3.39,2L152.53,49l-3.41-2A28.19,28.19,0,0,1,144,49a33.87,33.87,0,0,1-5.6,1.05l-1.79-3.2a13.6,13.6,0,0,0,1.49-.12,21,21,0,0,0,2.24-.38c.82-.18,1.68-.4,2.6-.67a19.08,19.08,0,0,0,2.6-1l-5.3-3.06-.69.24-.72.22c-1.34.44-2.56.78-3.67,1a16.48,16.48,0,0,1-3.12.42,10.74,10.74,0,0,1-2.76-.26,9.17,9.17,0,0,1-2.55-1,6.52,6.52,0,0,1-2.22-1.9,3.24,3.24,0,0,1-.6-2,3.82,3.82,0,0,1,.88-2.07,9.46,9.46,0,0,1,2.16-2l-3.14-1.81,1.84-1.07,3.11,1.8a21.78,21.78,0,0,1,4.57-1.68,34.07,34.07,0,0,1,4.57-.83Zm-9,5.58a3.89,3.89,0,0,0,2.31.49,14.65,14.65,0,0,0,3.17-.71l-5-2.88C129.13,37.45,129,38.48,130.46,39.35ZM148,40.8a4,4,0,0,0-2.5-.44,20.9,20.9,0,0,0-3.47.76l5,2.86C149.05,42.69,149.38,41.63,148,40.8Z"/></g><g id="Coin-2" data-name="Coin"><ellipse class="cls-2" cx="143.78" cy="38.2" rx="46.31" ry="26.74"/><polygon class="cls-2" points="97.48 38.6 97.48 26.42 106.63 34.57 97.48 38.6"/><polygon class="cls-2" points="190.09 26.74 190.09 38.2 185.42 43.16 183.12 30.05 190.09 26.74"/><ellipse class="cls-3" cx="143.78" cy="26.74" rx="46.31" ry="26.74"/><path class="cls-4" d="M176.88,27.57c-.47,4.5-3.68,8.94-9.65,12.39-12.95,7.47-33.94,7.47-46.89,0-6-3.45-9.18-7.89-9.64-12.39-.56-5.27,2.66-10.66,9.64-14.68,12.95-7.48,33.94-7.48,46.89,0C174.21,16.91,177.43,22.3,176.88,27.57Z"/><path class="cls-5" d="M176.88,27.57c-.47,4.5-3.68,8.94-9.65,12.39-12.95,7.47-33.94,7.47-46.89,0-6-3.45-9.18-7.89-9.64-12.39.46-4.51,3.67-8.94,9.64-12.39,12.95-7.48,33.94-7.48,46.89,0C173.2,18.63,176.41,23.06,176.88,27.57Z"/><path class="cls-4" d="M143.3,21.3a7.26,7.26,0,0,0-1.22.1q-.81.12-1.83.33c-.68.14-1.38.32-2.11.54a15.16,15.16,0,0,0-2.08.79l5.33,3.08,1-.34c1.36-.45,2.63-.83,3.84-1.15a18.55,18.55,0,0,1,3.44-.57,12.26,12.26,0,0,1,3.17.22,10.23,10.23,0,0,1,3,1.18,6.06,6.06,0,0,1,2.29,2,2.73,2.73,0,0,1,.34,2.08,4.68,4.68,0,0,1-1.25,2.05,13.73,13.73,0,0,1-2.43,1.92l3.39,2-1.85,1.07-3.42-2a27.91,27.91,0,0,1-5.08,1.92,32.48,32.48,0,0,1-5.6,1l-1.78-3.19a14,14,0,0,0,1.49-.12c.67-.08,1.41-.2,2.23-.38s1.69-.4,2.6-.67a17.86,17.86,0,0,0,2.6-1l-5.29-3-.7.24-.72.22c-1.33.44-2.55.78-3.66,1a16.57,16.57,0,0,1-3.13.42,10.67,10.67,0,0,1-2.75-.26,9.68,9.68,0,0,1-2.56-1,6.57,6.57,0,0,1-2.21-1.9,3.25,3.25,0,0,1-.6-2.06,3.87,3.87,0,0,1,.87-2.07,9.65,9.65,0,0,1,2.16-1.95L127.63,20l1.85-1.07,3.11,1.79a22.11,22.11,0,0,1,4.57-1.67,32.3,32.3,0,0,1,4.57-.83Zm-9.05,5.58a3.81,3.81,0,0,0,2.31.5,15.27,15.27,0,0,0,3.17-.71l-5-2.88Q132,25.59,134.25,26.88Zm17.48,1.46a4,4,0,0,0-2.49-.44,20,20,0,0,0-3.48.76l5,2.86Q153.89,29.59,151.73,28.34Z"/><path class="cls-4" d="M140.44,34.37c.05-.14,0-1.8,0-1.8l2,1.31-.89,1.36Z"/><polygon class="cls-4" points="158.16 35.5 158.16 33.71 153.76 34.04 156.29 35.77 158.16 35.5"/><polygon class="cls-4" points="158.54 28.91 158.54 27.1 155.24 28.29 158.54 28.91"/><path class="cls-4" d="M144.88,28.82l1.1-1.05,3.86,2.67-.23.79s-2.89-1.22-3-1.29S144.88,28.82,144.88,28.82Z"/><path class="cls-4" d="M134.76,23.16l5.13,2.91,1.05-.76s-.64-.74-.69-.82a6.82,6.82,0,0,0-1.6-1.33c-.38-.07-2.82-1.16-2.82-1.16Z"/><polygon class="cls-4" points="143.3 21.3 143.3 19.51 140.94 18.74 140.44 20.15 140.56 20.79 143.3 21.3"/><polygon class="cls-4" points="127.63 20.01 127.63 18.21 130.36 18.5 129.48 20.25 127.63 20.01"/><path class="cls-4" d="M127.73,26.1V24.23h3.14l-.77,1.67-1.36,1.5Z"/><path class="cls-6" d="M143.3,19.51a7.26,7.26,0,0,0-1.22.1c-.54.07-1.15.18-1.83.32s-1.38.33-2.11.55a15.16,15.16,0,0,0-2.08.79l5.33,3.07,1-.34c1.36-.45,2.63-.83,3.84-1.14a17,17,0,0,1,3.44-.57,11.84,11.84,0,0,1,3.17.21,10.23,10.23,0,0,1,3,1.18,6.23,6.23,0,0,1,2.29,2,2.74,2.74,0,0,1,.34,2.08,4.63,4.63,0,0,1-1.25,2,12.87,12.87,0,0,1-2.43,1.92l3.39,2-1.85,1.06-3.42-2a27.91,27.91,0,0,1-5.08,1.92,33.49,33.49,0,0,1-5.6,1.05l-1.78-3.2a14,14,0,0,0,1.49-.12,20.45,20.45,0,0,0,2.23-.38c.82-.18,1.69-.4,2.6-.66a19.1,19.1,0,0,0,2.6-1l-5.29-3.06-.7.24-.72.22c-1.33.44-2.55.78-3.66,1a16.57,16.57,0,0,1-3.13.42,10.67,10.67,0,0,1-2.75-.26,9.35,9.35,0,0,1-2.56-1,6.46,6.46,0,0,1-2.21-1.9,3.22,3.22,0,0,1-.6-2.05,3.87,3.87,0,0,1,.87-2.07,9.68,9.68,0,0,1,2.16-2l-3.14-1.81,1.85-1.07,3.11,1.8a22.73,22.73,0,0,1,4.57-1.68,33.79,33.79,0,0,1,4.57-.83Zm-9.05,5.58a3.88,3.88,0,0,0,2.31.5,15.39,15.39,0,0,0,3.17-.72l-5-2.87Q132,23.79,134.25,25.09Zm17.48,1.46a3.92,3.92,0,0,0-2.49-.45,20.15,20.15,0,0,0-3.48.77l5,2.86C152.83,28.44,153.17,27.37,151.73,26.55Z"/></g><g id="Coin-3" data-name="Coin"><ellipse class="cls-1" cx="437.35" cy="416.22" rx="46.31" ry="26.74"/><ellipse class="cls-2" cx="448.8" cy="409.34" rx="46.31" ry="26.74"/><polygon class="cls-2" points="402.51 409.75 402.51 397.56 411.66 405.71 402.51 409.75"/><polygon class="cls-2" points="495.12 397.88 495.12 409.34 490.44 414.31 488.15 401.19 495.12 397.88"/><ellipse class="cls-3" cx="448.8" cy="397.88" rx="46.31" ry="26.74"/><path class="cls-4" d="M481.9,398.71c-.47,4.51-3.68,8.94-9.65,12.39-12.94,7.47-33.94,7.47-46.89,0-6-3.45-9.18-7.88-9.63-12.39-.57-5.27,2.65-10.65,9.63-14.68,12.95-7.48,33.95-7.48,46.89,0C479.23,388.06,482.45,393.44,481.9,398.71Z"/><path class="cls-5" d="M481.9,398.71c-.47,4.51-3.68,8.94-9.65,12.39-12.94,7.47-33.94,7.47-46.89,0-6-3.45-9.18-7.88-9.63-12.39.45-4.5,3.66-8.94,9.63-12.38,12.95-7.49,33.95-7.49,46.89,0C478.22,389.77,481.43,394.21,481.9,398.71Z"/><path class="cls-4" d="M448.32,392.45a7.09,7.09,0,0,0-1.21.1c-.55.07-1.16.18-1.84.32s-1.38.33-2.1.55a14.68,14.68,0,0,0-2.08.79l5.32,3.07,1-.34c1.35-.45,2.63-.83,3.83-1.14a17,17,0,0,1,3.45-.57,12.33,12.33,0,0,1,3.17.21,10.28,10.28,0,0,1,3,1.18,6.14,6.14,0,0,1,2.29,2,2.69,2.69,0,0,1,.34,2.08,4.6,4.6,0,0,1-1.24,2,12.64,12.64,0,0,1-2.44,1.92l3.39,2-1.85,1.06-3.41-2a28.19,28.19,0,0,1-5.08,1.92,33.79,33.79,0,0,1-5.61,1l-1.78-3.2a13.79,13.79,0,0,0,1.49-.12,20.45,20.45,0,0,0,2.23-.38c.82-.17,1.69-.4,2.6-.66a18.76,18.76,0,0,0,2.61-1l-5.3-3.06-.69.24-.73.22c-1.33.44-2.55.78-3.66,1a16.58,16.58,0,0,1-3.12.42,10.32,10.32,0,0,1-2.76-.26,9.17,9.17,0,0,1-2.55-1,6.41,6.41,0,0,1-2.22-1.9,3.22,3.22,0,0,1-.6-2.05,3.81,3.81,0,0,1,.88-2.07,9.4,9.4,0,0,1,2.15-2l-3.14-1.81,1.85-1.07,3.11,1.8a23,23,0,0,1,4.57-1.68,34.07,34.07,0,0,1,4.57-.83ZM439.27,398a3.9,3.9,0,0,0,2.31.5,15.27,15.27,0,0,0,3.17-.71l-5-2.88C437.94,396.13,437.77,397.16,439.27,398Zm17.49,1.46a4,4,0,0,0-2.5-.45,20.36,20.36,0,0,0-3.48.77l5,2.86C457.85,401.38,458.19,400.31,456.76,399.49Z"/><path class="cls-4" d="M445.46,405.51c.05-.13,0-1.8,0-1.8l2,1.31-.88,1.36Z"/><polygon class="cls-4" points="463.19 406.65 463.19 404.85 458.78 405.19 461.31 406.91 463.19 406.65"/><polygon class="cls-4" points="463.56 400.06 463.56 398.24 460.26 399.44 463.56 400.06"/><path class="cls-4" d="M449.9,400l1.1-1,3.87,2.67-.24.79s-2.89-1.22-3-1.29Z"/><path class="cls-4" d="M439.78,394.3l5.13,2.91,1-.76s-.64-.74-.69-.81a6.84,6.84,0,0,0-1.6-1.34c-.38-.07-2.81-1.16-2.81-1.16Z"/><polygon class="cls-4" points="448.32 392.45 448.32 390.65 445.96 389.89 445.46 391.3 445.58 391.94 448.32 392.45"/><polygon class="cls-4" points="432.65 391.15 432.65 389.36 435.39 389.65 434.5 391.39 432.65 391.15"/><path class="cls-4" d="M432.75,397.25s0-1.87,0-1.87h3.13l-.76,1.67-1.37,1.49Z"/><path class="cls-6" d="M448.32,390.65a7.09,7.09,0,0,0-1.21.1c-.55.08-1.16.19-1.84.33s-1.38.32-2.1.54a14.68,14.68,0,0,0-2.08.79l5.32,3.08,1-.34c1.35-.45,2.63-.83,3.83-1.15a18.51,18.51,0,0,1,3.45-.57,12.32,12.32,0,0,1,3.17.22,10,10,0,0,1,3,1.18,6,6,0,0,1,2.29,2,2.69,2.69,0,0,1,.34,2.08,4.65,4.65,0,0,1-1.24,2.05,13.46,13.46,0,0,1-2.44,1.92l3.39,2-1.85,1.07-3.41-2a28.19,28.19,0,0,1-5.08,1.92,34.83,34.83,0,0,1-5.61,1l-1.78-3.2a11.16,11.16,0,0,0,1.49-.11c.67-.08,1.41-.2,2.23-.38s1.69-.4,2.6-.67a18.76,18.76,0,0,0,2.61-1l-5.3-3.05-.69.24-.73.22c-1.33.44-2.55.78-3.66,1a16.58,16.58,0,0,1-3.12.42,10.74,10.74,0,0,1-2.76-.26,9.48,9.48,0,0,1-2.55-1,6.52,6.52,0,0,1-2.22-1.9,3.25,3.25,0,0,1-.6-2.06,3.81,3.81,0,0,1,.88-2.07,9.37,9.37,0,0,1,2.15-1.95l-3.14-1.81,1.85-1.07,3.11,1.79a23,23,0,0,1,4.57-1.68,34,34,0,0,1,4.57-.82Zm-9.05,5.58a3.83,3.83,0,0,0,2.31.5,15.27,15.27,0,0,0,3.17-.71l-5-2.88C437.94,394.34,437.77,395.37,439.27,396.23Zm17.49,1.46a4,4,0,0,0-2.5-.44,20.21,20.21,0,0,0-3.48.76l5,2.86Q458.91,398.93,456.76,397.69Z"/></g><g id="Coin-4" data-name="Coin"><ellipse class="cls-2" cx="452.59" cy="395.08" rx="46.31" ry="26.74"/><polygon class="cls-2" points="406.29 395.49 406.29 383.31 415.44 391.46 406.29 395.49"/><polygon class="cls-2" points="498.9 383.63 498.9 395.08 494.22 400.05 491.93 386.93 498.9 383.63"/><ellipse class="cls-3" cx="452.59" cy="383.63" rx="46.31" ry="26.74"/><path class="cls-4" d="M485.69,384.45c-.47,4.51-3.68,8.94-9.65,12.39-13,7.47-33.94,7.47-46.89,0-6-3.45-9.18-7.88-9.64-12.39-.56-5.27,2.66-10.65,9.64-14.67,13-7.49,33.94-7.49,46.89,0C483,373.8,486.24,379.18,485.69,384.45Z"/><path class="cls-5" d="M485.69,384.45c-.47,4.51-3.68,8.94-9.65,12.39-13,7.47-33.94,7.47-46.89,0-6-3.45-9.18-7.88-9.64-12.39.46-4.5,3.67-8.93,9.64-12.38,13-7.49,33.94-7.49,46.89,0C482,375.52,485.22,380,485.69,384.45Z"/><path class="cls-4" d="M452.11,378.19a7.19,7.19,0,0,0-1.22.1c-.54.08-1.16.18-1.83.33s-1.38.32-2.11.54a15.16,15.16,0,0,0-2.08.79L450.2,383l.95-.33c1.36-.45,2.63-.84,3.83-1.15a18.51,18.51,0,0,1,3.45-.57,12.72,12.72,0,0,1,3.17.21,10.1,10.1,0,0,1,3,1.19,6.09,6.09,0,0,1,2.3,2,2.74,2.74,0,0,1,.34,2.08,4.66,4.66,0,0,1-1.25,2.06,13.26,13.26,0,0,1-2.43,1.91l3.38,2-1.84,1.07-3.42-2a27.91,27.91,0,0,1-5.08,1.92,33.68,33.68,0,0,1-5.6,1.05l-1.79-3.2c.33,0,.83,0,1.5-.11s1.41-.21,2.23-.39,1.69-.39,2.6-.66a19.1,19.1,0,0,0,2.6-1l-5.29-3.06c-.23.09-.46.17-.7.24l-.72.23c-1.33.43-2.56.78-3.66,1a17.37,17.37,0,0,1-3.13.41,10.67,10.67,0,0,1-2.75-.25,9.74,9.74,0,0,1-2.56-1,6.59,6.59,0,0,1-2.21-1.91,3.1,3.1,0,0,1-.6-2,3.87,3.87,0,0,1,.87-2.07,9.42,9.42,0,0,1,2.16-2l-3.14-1.82,1.84-1.06,3.11,1.79a23,23,0,0,1,4.57-1.68,34.12,34.12,0,0,1,4.58-.82Zm-9.05,5.58a3.85,3.85,0,0,0,2.3.5,15.27,15.27,0,0,0,3.17-.71l-5-2.88Q440.81,382.48,443.06,383.77Zm17.48,1.46a4,4,0,0,0-2.49-.45,20,20,0,0,0-3.48.77l4.95,2.86Q462.7,386.48,460.54,385.23Z"/><path class="cls-4" d="M449.24,391.25c.05-.13,0-1.79,0-1.79l2,1.3-.89,1.36Z"/><polygon class="cls-4" points="466.97 392.39 466.97 390.59 462.57 390.93 465.1 392.66 466.97 392.39"/><polygon class="cls-4" points="467.35 385.8 467.35 383.98 464.05 385.18 467.35 385.8"/><path class="cls-4" d="M453.69,385.7l1.1-1.05,3.86,2.68-.24.78s-2.88-1.21-3-1.29Z"/><path class="cls-4" d="M443.56,380,448.7,383l1.05-.76s-.65-.74-.69-.81a7.09,7.09,0,0,0-1.6-1.34c-.39-.07-2.82-1.16-2.82-1.16Z"/><polygon class="cls-4" points="452.11 378.19 452.11 376.39 449.75 375.63 449.24 377.04 449.37 377.68 452.11 378.19"/><polygon class="cls-4" points="436.44 376.89 436.44 375.1 439.17 375.39 438.29 377.13 436.44 376.89"/><path class="cls-4" d="M436.54,383v-1.87h3.13l-.76,1.67-1.36,1.49Z"/><path class="cls-6" d="M452.11,376.39a8.42,8.42,0,0,0-1.22.1c-.54.08-1.16.19-1.83.33s-1.38.32-2.11.54a16.58,16.58,0,0,0-2.08.79l5.33,3.08.95-.34c1.36-.45,2.63-.83,3.83-1.15a17.67,17.67,0,0,1,3.45-.56,11.84,11.84,0,0,1,3.17.21,10.07,10.07,0,0,1,3,1.18,6,6,0,0,1,2.3,2,2.73,2.73,0,0,1,.34,2.08,4.68,4.68,0,0,1-1.25,2.05,13.29,13.29,0,0,1-2.43,1.92l3.38,1.95-1.84,1.07-3.42-2a27.91,27.91,0,0,1-5.08,1.92,33.68,33.68,0,0,1-5.6,1.05l-1.79-3.2a13.93,13.93,0,0,0,1.5-.12c.66-.08,1.41-.2,2.23-.38s1.69-.4,2.6-.67a17.86,17.86,0,0,0,2.6-1l-5.29-3.05-.7.24-.72.22c-1.33.44-2.56.78-3.66,1a16.57,16.57,0,0,1-3.13.42,10.67,10.67,0,0,1-2.75-.26,9.11,9.11,0,0,1-2.56-1,6.57,6.57,0,0,1-2.21-1.9,3.13,3.13,0,0,1-.6-2.06,3.87,3.87,0,0,1,.87-2.07,9.9,9.9,0,0,1,2.16-1.95l-3.14-1.81,1.84-1.07,3.11,1.8a21.78,21.78,0,0,1,4.57-1.68,32.69,32.69,0,0,1,4.58-.83ZM443.06,382a3.85,3.85,0,0,0,2.3.49,15.27,15.27,0,0,0,3.17-.71l-5-2.88Q440.81,380.68,443.06,382Zm17.48,1.45a4,4,0,0,0-2.49-.44,19.82,19.82,0,0,0-3.48.76l4.95,2.86Q462.7,384.67,460.54,383.43Z"/></g><g id="Coin-5" data-name="Coin"><ellipse class="cls-2" cx="449.75" cy="381.36" rx="46.31" ry="26.74"/><polygon class="cls-2" points="403.45 381.76 403.45 369.58 412.6 377.73 403.45 381.76"/><polygon class="cls-2" points="496.06 369.9 496.06 381.36 491.38 386.32 489.09 373.2 496.06 369.9"/><ellipse class="cls-3" cx="449.75" cy="369.9" rx="46.31" ry="26.74"/><path class="cls-4" d="M482.85,370.73c-.47,4.5-3.68,8.94-9.65,12.38-12.95,7.48-33.94,7.48-46.89,0-6-3.44-9.18-7.88-9.64-12.38-.56-5.27,2.66-10.66,9.64-14.68,12.95-7.48,33.94-7.48,46.89,0C480.18,360.07,483.4,365.46,482.85,370.73Z"/><path class="cls-5" d="M482.85,370.73c-.47,4.5-3.68,8.94-9.65,12.38-12.95,7.48-33.94,7.48-46.89,0-6-3.44-9.18-7.88-9.64-12.38.46-4.51,3.67-8.94,9.64-12.39,12.95-7.48,33.94-7.48,46.89,0C479.17,361.79,482.38,366.22,482.85,370.73Z"/><path class="cls-4" d="M449.26,364.46a7.16,7.16,0,0,0-1.21.1c-.54.08-1.16.19-1.83.33s-1.38.32-2.11.54a15.16,15.16,0,0,0-2.08.79l5.33,3.08.95-.34c1.36-.45,2.63-.83,3.83-1.15a18.51,18.51,0,0,1,3.45-.57,12.29,12.29,0,0,1,3.17.22,10.07,10.07,0,0,1,3,1.18,6,6,0,0,1,2.3,2,2.68,2.68,0,0,1,.33,2.08,4.65,4.65,0,0,1-1.24,2.05,13.73,13.73,0,0,1-2.43,1.92l3.38,2-1.85,1.07-3.41-2a27.91,27.91,0,0,1-5.08,1.92,32.84,32.84,0,0,1-5.6,1l-1.79-3.2a11.06,11.06,0,0,0,1.49-.11c.67-.08,1.42-.2,2.24-.38s1.68-.4,2.6-.67a19.1,19.1,0,0,0,2.6-1l-5.3-3.05-.69.24-.72.22c-1.33.44-2.56.78-3.67,1a16.48,16.48,0,0,1-3.12.42,10.67,10.67,0,0,1-2.75-.26,9.41,9.41,0,0,1-2.56-1,6.62,6.62,0,0,1-2.22-1.9,3.25,3.25,0,0,1-.6-2.06,4,4,0,0,1,.88-2.07,9.44,9.44,0,0,1,2.16-1.95l-3.14-1.81,1.84-1.07,3.11,1.79a23,23,0,0,1,4.57-1.68,33.84,33.84,0,0,1,4.58-.82ZM440.21,370a3.83,3.83,0,0,0,2.31.5,15.27,15.27,0,0,0,3.17-.71l-5-2.88C438.88,368.15,438.72,369.18,440.21,370Zm17.49,1.46a4,4,0,0,0-2.49-.44,19.82,19.82,0,0,0-3.48.76l4.95,2.86Q459.86,372.75,457.7,371.5Z"/><path class="cls-4" d="M446.4,377.52c.05-.13,0-1.79,0-1.79l2,1.31-.88,1.36Z"/><polygon class="cls-4" points="464.13 378.66 464.13 376.87 459.73 377.2 462.26 378.93 464.13 378.66"/><polygon class="cls-4" points="464.5 372.07 464.5 370.26 461.21 371.45 464.5 372.07"/><path class="cls-4" d="M450.85,372l1.09-1.05,3.87,2.67-.24.79s-2.89-1.22-3-1.29Z"/><path class="cls-4" d="M440.72,366.32l5.14,2.91,1.05-.76s-.65-.74-.7-.82a6.55,6.55,0,0,0-1.59-1.33c-.39-.07-2.82-1.16-2.82-1.16Z"/><polygon class="cls-4" points="449.26 364.46 449.26 362.67 446.91 361.9 446.4 363.31 446.52 363.95 449.26 364.46"/><polygon class="cls-4" points="433.6 363.17 433.6 361.37 436.33 361.66 435.45 363.4 433.6 363.17"/><path class="cls-4" d="M433.7,369.26v-1.87h3.13l-.76,1.67-1.36,1.5Z"/><path class="cls-6" d="M449.26,362.67a8.07,8.07,0,0,0-1.21.09c-.54.08-1.16.19-1.83.33s-1.38.33-2.11.55a15.16,15.16,0,0,0-2.08.79l5.33,3.07.95-.34c1.36-.45,2.63-.83,3.83-1.14a17,17,0,0,1,3.45-.57,11.87,11.87,0,0,1,3.17.21,10.07,10.07,0,0,1,3,1.18,6.19,6.19,0,0,1,2.3,2,2.69,2.69,0,0,1,.33,2.08,4.6,4.6,0,0,1-1.24,2.05,12.87,12.87,0,0,1-2.43,1.92l3.38,2-1.85,1.06-3.41-2a27.91,27.91,0,0,1-5.08,1.92,33.87,33.87,0,0,1-5.6,1.05l-1.79-3.2a13.6,13.6,0,0,0,1.49-.12,20.59,20.59,0,0,0,2.24-.38c.82-.18,1.68-.4,2.6-.66a19.1,19.1,0,0,0,2.6-1l-5.3-3.06-.69.24-.72.22c-1.33.44-2.56.78-3.67,1a16.48,16.48,0,0,1-3.12.42,10.67,10.67,0,0,1-2.75-.26,9.11,9.11,0,0,1-2.56-1,6.51,6.51,0,0,1-2.22-1.9,3.22,3.22,0,0,1-.6-2.05,3.93,3.93,0,0,1,.88-2.07,9.46,9.46,0,0,1,2.16-2l-3.14-1.81,1.84-1.07,3.11,1.8a23,23,0,0,1,4.57-1.68,33.92,33.92,0,0,1,4.58-.83Zm-9.05,5.58a3.9,3.9,0,0,0,2.31.5,15.39,15.39,0,0,0,3.17-.72l-5-2.87C438.88,366.35,438.72,367.38,440.21,368.25Zm17.49,1.45a4,4,0,0,0-2.49-.44,20.78,20.78,0,0,0-3.48.76l4.95,2.87Q459.86,370.94,457.7,369.7Z"/></g><g id="Coin-6" data-name="Coin"><ellipse class="cls-2" cx="453.69" cy="368.12" rx="46.31" ry="26.74"/><polygon class="cls-2" points="407.39 368.52 407.39 356.34 416.54 364.49 407.39 368.52"/><polygon class="cls-2" points="500 356.66 500 368.12 495.32 373.08 493.03 359.96 500 356.66"/><ellipse class="cls-3" cx="453.69" cy="356.66" rx="46.31" ry="26.74"/><path class="cls-4" d="M486.78,357.49c-.47,4.5-3.67,8.93-9.64,12.38-12.95,7.48-33.95,7.48-46.89,0-6-3.45-9.18-7.88-9.64-12.38-.56-5.27,2.66-10.66,9.64-14.68,12.94-7.49,33.94-7.49,46.89,0C484.11,346.83,487.33,352.22,486.78,357.49Z"/><path class="cls-5" d="M486.78,357.49c-.47,4.5-3.67,8.93-9.64,12.38-12.95,7.48-33.95,7.48-46.89,0-6-3.45-9.18-7.88-9.64-12.38.46-4.51,3.67-8.94,9.64-12.39,12.94-7.48,33.94-7.48,46.89,0C483.11,348.55,486.31,353,486.78,357.49Z"/><path class="cls-4" d="M453.2,351.22a7.16,7.16,0,0,0-1.21.1q-.83.12-1.83.33c-.68.14-1.38.32-2.11.54A15.16,15.16,0,0,0,446,353l5.32,3.08,1-.34c1.35-.45,2.63-.83,3.83-1.15a18.51,18.51,0,0,1,3.45-.57,12.29,12.29,0,0,1,3.17.22,9.81,9.81,0,0,1,3,1.18,6,6,0,0,1,2.3,2,2.68,2.68,0,0,1,.33,2.08,4.65,4.65,0,0,1-1.24,2.05,13.46,13.46,0,0,1-2.44,1.92l3.39,1.95-1.85,1.07-3.41-2a28.19,28.19,0,0,1-5.08,1.92,34.91,34.91,0,0,1-5.6,1l-1.79-3.2a13,13,0,0,0,1.49-.11c.67-.08,1.41-.2,2.24-.38s1.68-.4,2.6-.67a19.1,19.1,0,0,0,2.6-1l-5.3-3-.69.24-.72.22c-1.34.44-2.56.78-3.67,1a16.48,16.48,0,0,1-3.12.42,10.74,10.74,0,0,1-2.76-.26,9.48,9.48,0,0,1-2.55-1,6.52,6.52,0,0,1-2.22-1.9,3.25,3.25,0,0,1-.6-2.06,3.89,3.89,0,0,1,.88-2.07,9.44,9.44,0,0,1,2.16-1.95l-3.14-1.81,1.84-1.07,3.11,1.79a23,23,0,0,1,4.57-1.68,34,34,0,0,1,4.57-.82Zm-9.05,5.58a3.83,3.83,0,0,0,2.31.5,15.27,15.27,0,0,0,3.17-.71l-5-2.88C442.82,354.91,442.66,355.94,444.15,356.8Zm17.49,1.46a4,4,0,0,0-2.5-.44,19.93,19.93,0,0,0-3.47.76l4.95,2.86C462.74,360.15,463.07,359.09,461.64,358.26Z"/><path class="cls-4" d="M450.34,364.28c.05-.13,0-1.79,0-1.79l2,1.31-.88,1.36Z"/><polygon class="cls-4" points="468.07 365.42 468.07 363.63 463.67 363.96 466.2 365.69 468.07 365.42"/><polygon class="cls-4" points="468.44 358.83 468.44 357.02 465.15 358.21 468.44 358.83"/><path class="cls-4" d="M454.79,358.73l1.09-1.05,3.87,2.68-.24.79s-2.89-1.22-3-1.29Z"/><path class="cls-4" d="M444.66,353.08,449.8,356l1.05-.76s-.65-.74-.7-.82a6.43,6.43,0,0,0-1.6-1.33c-.38-.07-2.81-1.17-2.81-1.17Z"/><polygon class="cls-4" points="453.2 351.22 453.2 349.43 450.85 348.66 450.34 350.07 450.46 350.71 453.2 351.22"/><polygon class="cls-4" points="437.54 349.93 437.54 348.13 440.27 348.42 439.39 350.16 437.54 349.93"/><path class="cls-4" d="M437.64,356v-1.87h3.13l-.76,1.67-1.36,1.5Z"/><path class="cls-6" d="M453.2,349.43a8.07,8.07,0,0,0-1.21.09q-.83.12-1.83.33c-.68.15-1.38.33-2.11.54a15.19,15.19,0,0,0-2.08.8l5.32,3.07,1-.34c1.35-.45,2.63-.83,3.83-1.14a17,17,0,0,1,3.45-.57,11.87,11.87,0,0,1,3.17.21,10.07,10.07,0,0,1,3,1.18,6.1,6.1,0,0,1,2.3,2,2.69,2.69,0,0,1,.33,2.08,4.6,4.6,0,0,1-1.24,2.05,12.64,12.64,0,0,1-2.44,1.92l3.39,2-1.85,1.06-3.41-2a28.19,28.19,0,0,1-5.08,1.92,33.87,33.87,0,0,1-5.6,1.05l-1.79-3.2a13.6,13.6,0,0,0,1.49-.12,21,21,0,0,0,2.24-.38c.82-.18,1.68-.4,2.6-.66a19.1,19.1,0,0,0,2.6-1L454,357.3l-.69.24-.72.22c-1.34.44-2.56.78-3.67,1a16.48,16.48,0,0,1-3.12.42A10.74,10.74,0,0,1,443,359a9.17,9.17,0,0,1-2.55-1,6.41,6.41,0,0,1-2.22-1.9,3.24,3.24,0,0,1-.6-2,3.82,3.82,0,0,1,.88-2.07,9.46,9.46,0,0,1,2.16-2l-3.14-1.81,1.84-1.07,3.11,1.8a23,23,0,0,1,4.57-1.68,34.07,34.07,0,0,1,4.57-.83ZM444.15,355a3.82,3.82,0,0,0,2.31.49,14.65,14.65,0,0,0,3.17-.71l-5-2.88C442.82,353.11,442.66,354.14,444.15,355Zm17.49,1.45a4,4,0,0,0-2.5-.44,20.9,20.9,0,0,0-3.47.76l4.95,2.87C462.74,358.35,463.07,357.29,461.64,356.46Z"/></g><g id="Coin-7" data-name="Coin"><ellipse class="cls-2" cx="450.85" cy="354.39" rx="46.31" ry="26.74"/><polygon class="cls-2" points="404.55 354.8 404.55 342.61 413.7 350.76 404.55 354.8"/><polygon class="cls-2" points="497.16 342.93 497.16 354.39 492.48 359.36 490.19 346.24 497.16 342.93"/><ellipse class="cls-3" cx="450.85" cy="342.93" rx="46.31" ry="26.74"/><path class="cls-4" d="M483.94,343.76c-.47,4.5-3.67,8.94-9.64,12.39-12.95,7.47-33.95,7.47-46.9,0-6-3.45-9.17-7.89-9.63-12.39-.56-5.27,2.66-10.66,9.63-14.68,13-7.48,34-7.48,46.9,0C481.27,333.1,484.49,338.49,483.94,343.76Z"/><path class="cls-5" d="M483.94,343.76c-.47,4.5-3.67,8.94-9.64,12.39-12.95,7.47-33.95,7.47-46.9,0-6-3.45-9.17-7.89-9.63-12.39.46-4.5,3.66-8.94,9.63-12.39,13-7.48,34-7.48,46.9,0C480.27,334.82,483.47,339.26,483.94,343.76Z"/><path class="cls-4" d="M450.36,337.5a6.91,6.91,0,0,0-1.21.09q-.82.12-1.83.33c-.68.14-1.38.33-2.11.54a16.58,16.58,0,0,0-2.08.79l5.32,3.08,1-.34c1.35-.45,2.63-.83,3.83-1.14a17,17,0,0,1,3.45-.57,11.87,11.87,0,0,1,3.17.21,10.17,10.17,0,0,1,3,1.18,6.06,6.06,0,0,1,2.29,2,2.69,2.69,0,0,1,.34,2.08,4.6,4.6,0,0,1-1.24,2.05,12.64,12.64,0,0,1-2.44,1.92l3.39,1.95-1.85,1.07-3.41-2a28.19,28.19,0,0,1-5.08,1.92,33.87,33.87,0,0,1-5.6,1.05l-1.79-3.2a13.6,13.6,0,0,0,1.49-.12,20.45,20.45,0,0,0,2.23-.38c.83-.18,1.69-.4,2.61-.67a17.86,17.86,0,0,0,2.6-1l-5.3-3.05-.69.24-.72.22c-1.34.44-2.56.78-3.67,1a16.58,16.58,0,0,1-3.12.42,10.74,10.74,0,0,1-2.76-.26,9.17,9.17,0,0,1-2.55-1,6.52,6.52,0,0,1-2.22-1.9,3.24,3.24,0,0,1-.6-2,3.82,3.82,0,0,1,.88-2.07,9.4,9.4,0,0,1,2.15-2l-3.14-1.81,1.85-1.07,3.11,1.8a21.78,21.78,0,0,1,4.57-1.68,32.56,32.56,0,0,1,4.57-.83Zm-9.05,5.58a3.89,3.89,0,0,0,2.31.49,14.65,14.65,0,0,0,3.17-.71l-5-2.88C440,341.18,439.81,342.21,441.31,343.08Zm17.49,1.45a4,4,0,0,0-2.5-.44,20.9,20.9,0,0,0-3.47.76l4.95,2.86Q460.95,345.78,458.8,344.53Z"/><path class="cls-4" d="M447.5,350.56c.05-.13,0-1.8,0-1.8l2,1.31-.88,1.36Z"/><polygon class="cls-4" points="465.23 351.69 465.23 349.9 460.82 350.24 463.36 351.96 465.23 351.69"/><polygon class="cls-4" points="465.6 345.1 465.6 343.29 462.31 344.48 465.6 345.1"/><path class="cls-4" d="M451.94,345,453,344l3.87,2.67-.24.79s-2.89-1.22-3-1.29Z"/><path class="cls-4" d="M441.82,339.35l5.13,2.91,1.06-.76s-.65-.74-.7-.81a6.44,6.44,0,0,0-1.6-1.34c-.38-.07-2.81-1.16-2.81-1.16Z"/><polygon class="cls-4" points="450.36 337.5 450.36 335.7 448 334.93 447.5 336.34 447.62 336.99 450.36 337.5"/><polygon class="cls-4" points="434.69 336.2 434.69 334.4 437.43 334.69 436.55 336.44 434.69 336.2"/><path class="cls-4" d="M434.8,342.29v-1.87h3.13l-.76,1.68-1.36,1.49Z"/><path class="cls-6" d="M450.36,335.7a7.16,7.16,0,0,0-1.21.1q-.82.1-1.83.33c-.68.14-1.38.32-2.11.54a15.16,15.16,0,0,0-2.08.79l5.32,3.07,1-.33c1.35-.45,2.63-.84,3.83-1.15a18.51,18.51,0,0,1,3.45-.57,12.76,12.76,0,0,1,3.17.21,10.21,10.21,0,0,1,3,1.19,6,6,0,0,1,2.29,2,2.7,2.7,0,0,1,.34,2.08,4.55,4.55,0,0,1-1.24,2,12.64,12.64,0,0,1-2.44,1.92l3.39,2L463.38,351,460,349a28.19,28.19,0,0,1-5.08,1.92,33.87,33.87,0,0,1-5.6,1l-1.79-3.2c.33,0,.83,0,1.49-.11s1.41-.21,2.23-.39,1.69-.4,2.61-.66a19.1,19.1,0,0,0,2.6-1l-5.3-3.06a7,7,0,0,1-.69.24l-.72.22c-1.34.44-2.56.79-3.67,1a17.38,17.38,0,0,1-3.12.41,10.75,10.75,0,0,1-2.76-.25,9.52,9.52,0,0,1-2.55-1,6.41,6.41,0,0,1-2.22-1.9,3.22,3.22,0,0,1-.6-2.05,3.89,3.89,0,0,1,.88-2.07,9.15,9.15,0,0,1,2.15-1.95l-3.14-1.82,1.85-1.06,3.11,1.79a23,23,0,0,1,4.57-1.68,32.48,32.48,0,0,1,4.57-.82Zm-9.05,5.58a3.9,3.9,0,0,0,2.31.5,15.27,15.27,0,0,0,3.17-.71l-5-2.88C440,339.38,439.81,340.42,441.31,341.28Zm17.49,1.46a4,4,0,0,0-2.5-.45,20.07,20.07,0,0,0-3.47.77l4.95,2.86Q460.95,344,458.8,342.74Z"/></g><g id="Coin-8" data-name="Coin"><ellipse class="cls-1" cx="46.31" cy="380.77" rx="46.31" ry="26.74"/><ellipse class="cls-2" cx="50.95" cy="377.33" rx="46.31" ry="26.74"/><polygon class="cls-2" points="4.66 377.74 4.66 365.55 13.81 373.7 4.66 377.74"/><polygon class="cls-2" points="97.27 365.87 97.27 377.33 92.59 382.3 90.3 369.18 97.27 365.87"/><ellipse class="cls-3" cx="50.95" cy="365.87" rx="46.31" ry="26.74"/><path class="cls-4" d="M84.05,366.7c-.47,4.5-3.68,8.94-9.65,12.39-13,7.47-33.94,7.47-46.89,0-6-3.45-9.18-7.89-9.64-12.39-.56-5.27,2.66-10.66,9.64-14.68,13-7.48,33.94-7.48,46.89,0C81.38,356,84.6,361.43,84.05,366.7Z"/><path class="cls-5" d="M84.05,366.7c-.47,4.5-3.68,8.94-9.65,12.39-13,7.47-33.94,7.47-46.89,0-6-3.45-9.18-7.89-9.64-12.39.46-4.5,3.67-8.94,9.64-12.39,13-7.48,33.94-7.48,46.89,0C80.37,357.76,83.58,362.2,84.05,366.7Z"/><path class="cls-4" d="M50.47,360.44a7,7,0,0,0-1.22.09q-.81.12-1.83.33c-.67.14-1.38.33-2.11.54a14.57,14.57,0,0,0-2.07.8l5.32,3.07.95-.34q2-.68,3.84-1.14a17,17,0,0,1,3.44-.57,11.94,11.94,0,0,1,3.18.21,10.28,10.28,0,0,1,3,1.18,6.06,6.06,0,0,1,2.29,2,2.74,2.74,0,0,1,.34,2.08,4.63,4.63,0,0,1-1.25,2.05A12.87,12.87,0,0,1,62,372.68l3.39,2-1.85,1.06-3.42-2A27.91,27.91,0,0,1,55,375.65a33.49,33.49,0,0,1-5.6,1.05l-1.78-3.2a14,14,0,0,0,1.49-.12,20.45,20.45,0,0,0,2.23-.38c.82-.18,1.69-.4,2.6-.67a18.6,18.6,0,0,0,2.6-1l-5.29-3.06-.69.24-.73.22c-1.33.44-2.55.78-3.66,1a16.58,16.58,0,0,1-3.12.42,10.7,10.7,0,0,1-2.76-.26,9.17,9.17,0,0,1-2.55-1,6.52,6.52,0,0,1-2.22-1.9,3.24,3.24,0,0,1-.6-2,3.75,3.75,0,0,1,.88-2.07,9.4,9.4,0,0,1,2.15-2l-3.14-1.81,1.85-1.07,3.11,1.8a21.58,21.58,0,0,1,4.57-1.68,33.79,33.79,0,0,1,4.57-.83Zm-9,5.58a3.82,3.82,0,0,0,2.31.49,14.65,14.65,0,0,0,3.17-.71l-5-2.88C40.09,364.12,39.92,365.15,41.42,366Zm17.48,1.45a4,4,0,0,0-2.49-.44,21,21,0,0,0-3.48.76l5,2.86Q61.06,368.72,58.9,367.47Z"/><path class="cls-4" d="M47.61,373.5c0-.13,0-1.8,0-1.8l2,1.31-.88,1.36Z"/><polygon class="cls-4" points="65.34 374.63 65.34 372.84 60.93 373.18 63.46 374.9 65.34 374.63"/><polygon class="cls-4" points="65.71 368.04 65.71 366.23 62.41 367.42 65.71 368.04"/><path class="cls-4" d="M52.05,368l1.1-1.05L57,369.57l-.24.79s-2.89-1.22-3-1.29S52.05,368,52.05,368Z"/><path class="cls-4" d="M41.93,362.29l5.13,2.91,1-.76s-.64-.74-.69-.81a6.84,6.84,0,0,0-1.6-1.34c-.38-.07-2.82-1.16-2.82-1.16Z"/><polygon class="cls-4" points="50.47 360.44 50.47 358.64 48.11 357.87 47.61 359.28 47.73 359.93 50.47 360.44"/><polygon class="cls-4" points="34.8 359.14 34.8 357.34 37.54 357.63 36.65 359.38 34.8 359.14"/><path class="cls-4" d="M34.9,365.23v-1.87H38L37.27,365l-1.36,1.49Z"/><path class="cls-6" d="M50.47,358.64a7.26,7.26,0,0,0-1.22.1c-.54.08-1.15.18-1.83.33s-1.38.32-2.11.54a14.55,14.55,0,0,0-2.07.79l5.32,3.07.95-.33c1.36-.45,2.64-.84,3.84-1.15a18.55,18.55,0,0,1,3.44-.57,12.84,12.84,0,0,1,3.18.21,10.31,10.31,0,0,1,3,1.19,6,6,0,0,1,2.29,2,2.74,2.74,0,0,1,.34,2.08A4.66,4.66,0,0,1,64.38,369,13.26,13.26,0,0,1,62,370.88l3.39,2-1.85,1.07-3.42-2A27.91,27.91,0,0,1,55,373.85a33.49,33.49,0,0,1-5.6,1l-1.78-3.2c.32,0,.82,0,1.49-.11s1.41-.21,2.23-.39,1.69-.39,2.6-.66a18.62,18.62,0,0,0,2.6-1l-5.29-3.06q-.35.14-.69.24l-.73.23c-1.33.43-2.55.78-3.66,1a16.53,16.53,0,0,1-3.12.41,10.71,10.71,0,0,1-2.76-.25,9.82,9.82,0,0,1-2.55-1,6.53,6.53,0,0,1-2.22-1.91,3.22,3.22,0,0,1-.6-2.05,3.81,3.81,0,0,1,.88-2.07,9.15,9.15,0,0,1,2.15-1.95l-3.14-1.82,1.85-1.06,3.11,1.79a22.73,22.73,0,0,1,4.57-1.68,33.71,33.71,0,0,1,4.57-.82Zm-9,5.58a3.9,3.9,0,0,0,2.31.5A15.27,15.27,0,0,0,46.9,364l-5-2.88C40.09,362.33,39.92,363.36,41.42,364.22Zm17.48,1.46a4,4,0,0,0-2.49-.45,21.14,21.14,0,0,0-3.48.77l5,2.86Q61.06,366.92,58.9,365.68Z"/></g><path class="cls-7" d="M125.17,301.28l-1.46-1.74c-29.24-34.79-31.79-66.31-7.8-96.36,20.43-25.58,56.49-45.62,88.31-63.3,6.71-3.73,13-7.25,19.06-10.72l6.82-4,6.83,4c36.89,21.29,75.6,31.38,121.84,31.76l9.39.07.13,5.42c.65,26.7,18.13,49.06,55,70.35l6.83,3.94-6.83,3.94c-6,3.48-12.11,7.14-18.57,11-30.62,18.38-65.34,39.2-109.64,51-52.05,13.85-106.65,12.38-166.92-4.5Zm105-160.39c-4.06,2.29-8.24,4.61-12.57,7-63.33,35.2-135,75.05-78,145,121.2,33,190.24-8.45,251.2-45C395,245.41,399,243,403,240.66c-33.82-20.89-51.05-43-53.66-68.79C304.62,170.37,266.36,160.42,230.18,140.89Z"/><path class="cls-8" d="M136.35,294.57l-1.46-1.73c-29.24-34.8-31.79-66.32-7.8-96.37,20.43-25.58,56.5-45.62,88.31-63.3,6.71-3.73,13-7.25,19.06-10.72l6.83-3.94,6.82,3.94C285,143.74,323.71,153.83,370,154.21l9.39.07.13,5.42c.65,26.7,18.13,49.06,55,70.35l6.83,3.94-6.83,3.95c-6,3.47-12.11,7.13-18.56,11-30.63,18.37-65.34,39.19-109.65,51-52,13.86-106.65,12.38-166.92-4.5Zm105-160.39c-4.06,2.29-8.24,4.61-12.56,7-63.34,35.2-135,75.05-78,145,121.19,33,190.23-8.45,251.19-45,4.17-2.49,8.19-4.91,12.15-7.25-33.81-20.89-51.05-43-53.66-68.79C315.8,163.66,277.54,153.71,241.36,134.18Z"/><polygon class="cls-8" points="136.35 294.57 136.35 278.92 354.79 215.7 440.88 217.94 441.32 233.99 327.95 285.82 257.23 303.53 159.4 295.78 136.35 294.57"/><polygon class="cls-8" points="110.84 237.79 110.84 223.09 118.68 233.87 110.84 237.79"/><path class="cls-9" d="M427.66,218.34c-38.6-22.29-57.15-45.73-57.84-74.21-49.33-.4-89.93-11.11-128.53-33.39-63.33,36.56-167.16,81.37-97.71,164C286.72,314.85,364.33,254.9,427.66,218.34Z"/><path class="cls-10" d="M136.35,278.92l-1.46-1.74c-29.24-34.79-31.79-66.31-7.8-96.36,20.43-25.58,56.5-45.62,88.31-63.31,6.71-3.72,13-7.24,19.06-10.72l6.83-3.94,6.82,3.94c36.89,21.3,75.6,31.39,121.84,31.76l9.39.08.13,5.42c.65,26.7,18.13,49,55,70.35l6.83,3.94-6.83,3.94c-6,3.48-12.11,7.13-18.56,11-30.63,18.37-65.34,39.2-109.65,51-52,13.85-106.65,12.38-166.92-4.51Zm105-160.39c-4.06,2.29-8.24,4.61-12.56,7-63.34,35.19-135,75.05-78,145,121.19,32.95,190.23-8.45,251.19-45,4.17-2.5,8.19-4.91,12.15-7.25-33.81-20.89-51.05-43-53.66-68.79C315.8,148,277.54,138.05,241.36,118.53Z"/><ellipse class="cls-11" cx="264.9" cy="203.4" rx="40.58" ry="23.43"/><path class="cls-5" d="M294.2,144l-41.95-24.22c-3.11-1.8-5.63-6.61-5.63-10.75V80.53c0-4.14,2.52-6,5.63-4.25L294.2,100.5c3.11,1.8,5.63,6.61,5.63,10.75v28.5C299.83,143.89,297.31,145.79,294.2,144Z"/><polygon class="cls-5" points="279.37 155.36 298.11 144.15 286.75 118.38 269.11 127.1 279.37 155.36"/><polygon class="cls-5" points="230.49 86.83 248.98 75.8 253.61 110.14 230.49 86.83"/><path class="cls-3" d="M275.82,155l-42-24.22c-3.11-1.79-5.62-6.6-5.62-10.74V91.52c0-4.14,2.51-6,5.62-4.25l42,24.23c3.1,1.79,5.62,6.6,5.62,10.74v28.5C281.44,154.88,278.92,156.79,275.82,155Z"/><path class="cls-12" d="M251.12,86.44V64.79c0-8.79,6.17-12.35,13.78-8h0c7.61,4.39,13.78,15.08,13.78,23.86v21.65"/><ellipse class="cls-4" cx="250.93" cy="86.59" rx="6.11" ry="3.53"/><ellipse class="cls-4" cx="278.68" cy="101.33" rx="6.11" ry="3.53"/></g></g></svg>