<svg xmlns="http://www.w3.org/2000/svg" viewBox="0 0 478.23 500"><defs><style>.cls-1{fill:#d6d8e5;opacity:0.4;}.cls-2{fill:#252935;}.cls-3{fill:#2b303f;}.cls-4{fill:#3a4151;}.cls-5{fill:#e6e9ef;}.cls-6{fill:#f4f6f9;}.cls-7{fill:#e8a30a;}.cls-8{fill:#f9cb07;}.cls-9{fill:#ab210d;}.cls-10{fill:#ff582b;}.cls-11{fill:#a5ad00;}.cls-12{fill:#b9cc00;}.cls-13{opacity:0.1;}.cls-14{fill:#3a2c6d;}.cls-15{fill:#ffcea9;}.cls-16{fill:#f4f4f4;}.cls-17{fill:#38226d;}.cls-18{fill:#9c73ff;}.cls-19{fill:#8c50ff;}.cls-20{fill:#ededed;}.cls-21{fill:#bfbfbf;}.cls-22{fill:#e5e5e5;}</style></defs><title>Online_education_SVG</title><g id="Слой_2" data-name="Слой 2"><g id="Слой_1-2" data-name="Слой 1"><polygon class="cls-1" points="465.05 344.23 264.48 228.44 6.69 377.27 0 381.39 205.44 500 470.14 347.17 470.14 341.3 465.05 344.23"/><polygon class="cls-2" points="473.14 339.53 272.57 223.73 12.95 373.62 7.86 370.68 7.86 376.56 213.52 495.3 478.23 342.47 478.23 336.59 473.14 339.53"/><polygon class="cls-3" points="213.52 489.42 7.86 370.68 272.57 217.85 478.23 336.59 213.52 489.42"/><path class="cls-4" d="M13,373.62c.63-.14,6.06-3.5,6.06-3.5V331.27L13,327.77Z"/><polygon class="cls-5" points="213.64 482.96 18.46 370.55 18.46 315.72 21.59 313.15 213.64 423 213.64 482.96"/><polygon class="cls-6" points="467.3 336.44 213.64 482.96 213.64 423 461.77 279.68 467.3 283.1 467.3 336.44"/><polygon class="cls-2" points="473.14 287.8 272.57 172 12.95 321.89 7.86 318.95 7.86 324.83 213.52 443.57 478.23 290.74 478.23 284.87 473.14 287.8"/><polygon class="cls-3" points="213.52 437.69 7.86 318.95 272.57 166.13 478.23 284.87 213.52 437.69"/><polygon class="cls-2" points="7.86 370.68 7.86 318.95 12.95 321.89 12.95 379.29 7.86 370.68"/><polygon class="cls-7" points="456.91 278.14 266.84 168.4 20.81 310.44 15.98 307.66 15.98 313.23 210.88 425.75 461.74 280.92 461.74 275.35 456.91 278.14"/><polygon class="cls-8" points="210.88 420.18 15.98 307.66 266.84 162.83 461.74 275.35 210.88 420.18"/><path class="cls-8" d="M20.81,310.44c.59-.13,5.74-3.31,5.74-3.31V270.31L20.81,267Z"/><polygon class="cls-5" points="210.99 414.06 26.03 307.53 26.03 255.58 28.99 253.14 210.99 357.24 210.99 414.06"/><polygon class="cls-6" points="451.38 275.21 210.99 414.06 210.99 357.24 446.14 221.42 451.38 224.66 451.38 275.21"/><polygon class="cls-7" points="456.91 229.12 266.84 119.38 20.81 261.42 15.98 258.64 15.98 264.21 210.88 376.73 461.74 231.9 461.74 226.33 456.91 229.12"/><polygon class="cls-8" points="210.88 371.16 15.98 258.64 266.84 113.81 461.74 226.33 210.88 371.16"/><polygon class="cls-7" points="15.98 307.66 15.98 258.64 20.81 261.42 20.81 315.82 15.98 307.66"/><polygon class="cls-9" points="447.18 216.22 265.59 111.38 30.54 247.09 25.93 244.43 25.93 249.75 212.13 357.25 451.79 218.88 451.79 213.56 447.18 216.22"/><polygon class="cls-10" points="212.13 351.93 25.93 244.43 265.59 106.06 451.79 213.56 212.13 351.93"/><path class="cls-10" d="M30.54,247.09c.57-.14,5.49-3.17,5.49-3.17V208.74l-5.49-3.16Z"/><polygon class="cls-5" points="212.24 346.07 35.53 244.31 35.53 194.67 38.36 192.34 212.24 291.79 212.24 346.07"/><polygon class="cls-6" points="441.89 213.43 212.24 346.07 212.24 291.79 436.89 162.03 441.89 165.13 441.89 213.43"/><polygon class="cls-9" points="447.18 169.39 265.59 64.55 30.54 200.25 25.93 197.59 25.93 202.91 212.13 310.42 451.79 172.05 451.79 166.73 447.18 169.39"/><polygon class="cls-10" points="212.13 305.09 25.93 197.59 265.59 59.23 451.79 166.73 212.13 305.09"/><polygon class="cls-9" points="25.93 244.43 25.93 197.59 30.54 200.25 30.54 252.22 25.93 244.43"/><polygon class="cls-11" points="456.46 165.29 265.28 54.91 17.82 197.78 12.96 194.98 12.96 200.59 209 313.77 461.32 168.09 461.32 162.49 456.46 165.29"/><polygon class="cls-12" points="209 308.16 12.96 194.98 265.28 49.31 461.32 162.49 209 308.16"/><path class="cls-12" d="M17.82,197.78c.59-.13,5.77-3.33,5.77-3.33v-37l-5.77-3.34Z"/><polygon class="cls-5" points="209.11 302 23.07 194.86 23.07 142.59 26.05 140.14 209.11 244.85 209.11 302"/><polygon class="cls-6" points="450.9 162.35 209.11 302 209.11 244.85 445.63 108.24 450.9 111.5 450.9 162.35"/><polygon class="cls-11" points="456.46 115.98 265.28 5.6 17.82 148.48 12.96 145.68 12.96 151.28 209 264.46 461.32 118.78 461.32 113.18 456.46 115.98"/><polygon class="cls-12" points="209 258.86 12.96 145.68 265.28 0 461.32 113.18 209 258.86"/><polygon class="cls-11" points="12.96 194.98 12.96 145.68 17.82 148.48 17.82 203.19 12.96 194.98"/><polygon class="cls-13" points="353.46 149.65 195.44 58.42 211.73 49.02 369.75 140.25 353.46 149.65"/><polygon class="cls-13" points="301.92 149.33 196 88.18 204.15 83.48 310.07 144.63 301.92 149.33"/><polygon class="cls-13" points="284.12 161.03 178.2 99.87 186.34 95.17 292.26 156.32 284.12 161.03"/><polygon class="cls-13" points="247.59 160.07 176.45 119 184.6 114.3 255.73 155.37 247.59 160.07"/><g id="Girl_12"><path id="_Контур_" data-name="&lt;Контур&gt;" class="cls-14" d="M101.7,113c1-1.69,9.07-2.79,11.7,4,1,2.57.85,9.15,1.68,13.29s2.81,6.47,3.52,9.83-.45,9-8.53,10-14.3-1.84-16.21-4.42-2-8.06,0-11,3.49-5.33,3.44-9.16Z"/><path id="_Контур_2" data-name="&lt;Контур&gt;" class="cls-14" d="M107,111.81s-6-1.74-9.7,1.52a9,9,0,0,0-2.58,8.94c.49,1.91,1.47,4.51,3,4.65S107,111.81,107,111.81Z"/><path id="_Контур_3" data-name="&lt;Контур&gt;" class="cls-15" d="M109.3,128.26s-.39,6.73-.27,7.22,2.64,1,3.34,1.56-3.65,7.41-5.87,8.42-9.09-1.57-9.57-5c-.44-3.14,2-5.59,2.9-6.44a14.43,14.43,0,0,1,1.89-.05l.2-3.26C104.93,129.76,109.3,128.26,109.3,128.26Z"/><path id="_Контур_4" data-name="&lt;Контур&gt;" class="cls-15" d="M89.52,164.15a34.89,34.89,0,0,1-6.71,7c-.71.62-1.07,1.28-2.28,2.65a10.16,10.16,0,0,1-4.5,3c-1.52.39-2.16.29-2.42,0s-.13-.72.53-1a8.4,8.4,0,0,0,3-1.59s-1.41.66-2.3,1a9.27,9.27,0,0,1-2.5.5c-.83,0-1.71-1-1.05-1.26s1.27-.31,2.58-.79a8.64,8.64,0,0,0,2-1,16.5,16.5,0,0,1-2.78.56,4.2,4.2,0,0,1-2.31-.26c-.39-.17-.73-.88.15-1.11a13.47,13.47,0,0,0,3.34-.78c1-.46,1.67-.95,1.44-1s-.81.22-1.84.14-2-.73-2-1.28.22-.25,1.23-.33a22.16,22.16,0,0,1,3.25-.55,10.3,10.3,0,0,0,3.2-.38c1.1-.33,3.56-3.28,5.44-6a39.39,39.39,0,0,0,4.83-9.77c1.13-3.72,2.48-10.69,3.44-13.11s2.62-3.53,4.2-3.58c1.86-.06,2.65,2.38,2.16,4.49C98.67,143.32,94.55,157.54,89.52,164.15Z"/><path id="_Контур_5" data-name="&lt;Контур&gt;" class="cls-16" d="M110.22,136.14c1.89.29,4,1.3,4.35,2.33.35,1.21,1.09,6.9-.54,11.23s-3.49,12.13-4.43,14A22,22,0,0,1,95.52,161s-.39-7.53-.42-10c-6.08-5.31-.88-11.85,4.27-16.94a11.58,11.58,0,0,1,1.86,0s-4.6,5.44-1.41,8.53C106.67,140.44,108,137.36,110.22,136.14Z"/><path id="_Контур_6" data-name="&lt;Контур&gt;" class="cls-15" d="M96.74,119.93h0c.68-4.32,3.8-7.58,8.25-7.32a8.59,8.59,0,0,1,8.08,9.08,8.49,8.49,0,0,1-3.77,6.57,8.31,8.31,0,0,1-.69,1.89c-1.58,1.84-5.77,3-7.15,3-1.2,0-2.23-1.1-3.35-3C95.78,126.35,96.37,122.07,96.74,119.93Z"/><path class="cls-14" d="M106.37,112.69c3.13.61,5.7,1.49,6.55,4.56.58,2.11,1.34,6.14.61,7.84l-.44,1.22-3.79,1.95s-1.77-1.47-1.21-5.78a3.1,3.1,0,0,0-.54-1.64,4.91,4.91,0,0,1-.52-1.3,4.85,4.85,0,0,0-2.45-2.65c-2.82-1.59-7-.22-7.52.35A8.21,8.21,0,0,1,106.37,112.69Z"/><path class="cls-17" d="M89.16,216.11c-1.58,1.28-4,.39-4.15.51-1.61,1.61-4,3-5.8,4.43-1,.77-2.52,1.81-2.24,3.3.49,2.67,4.76,1.84,6.37,1s2.92-2.17,4.45-3.11c1.08-.68,2.15-1,2.32-2.4C90.21,219,89.45,216.07,89.16,216.11Z"/><path class="cls-18" d="M90.09,219.32c-.21,1.31-1.26,1.67-2.34,2.34-1.55,1-2.91,2.35-4.52,3.17s-5.2,1.5-6.24-.41c.57,2.57,4.76,1.77,6.35,1s2.92-2.17,4.45-3.11c1.08-.68,2.15-1,2.32-2.4A2.14,2.14,0,0,0,90.09,219.32Z"/><path class="cls-17" d="M81.46,211.78c-1.45,1.18-3.64.52-3.74.63a57.76,57.76,0,0,1-5.3,4c-.9.71-2.31,1.66-2.06,3,.46,2.44,4.37,1.69,5.84.94s2.68-2,4.07-2.85c1-.62,2-.94,2.13-2.19C82.5,214.61,81.71,211.75,81.46,211.78Z"/><path class="cls-18" d="M82.39,214.86c-.2,1.2-1.16,1.54-2.15,2.15-1.42.88-2.67,2.15-4.14,2.9s-4.76,1.37-5.72-.37c.52,2.35,4.36,1.61,5.82.87s2.68-2,4.07-2.85c1-.62,2-.94,2.13-2.19A2.24,2.24,0,0,0,82.39,214.86Z"/><path class="cls-15" d="M103.36,165.36a23.46,23.46,0,0,1-12.6-1.82c.07,1.33.14,2.52.14,2.52-5.13,3.63-15.42,9.73-16.09,13.94.67,13.31,2.69,32.31,3.27,32.58,1.61.77,2.73.65,3.49-.12,0,0,3.23-11.27,2.29-27.81,0,0,18-7.94,19.12-12.29a13.68,13.68,0,0,0,.49-5.41C103.46,166.42,103.42,165.89,103.36,165.36Z"/><path class="cls-15" d="M109.32,163.63c-3.56,1.66-6.82,1.87-10.84,1.45,0,1.78.26,5.13.26,5.13-5.13,3.62-15.42,9.73-16.1,13.94.68,13.3,1.92,32.57,2.51,32.81a4.29,4.29,0,0,0,4.25-.5s3.24-11.13,2.3-27.66c0-.31,15.38-7.88,17.33-9.89s2.33-5,2.27-7.81A19.2,19.2,0,0,0,109.32,163.63Z"/><path class="cls-19" d="M113.09,166.45s5.68,10.07-3.79,15.25c-10,5.47-16.1,6.75-16.1,6.75l-1.5.35a38.83,38.83,0,0,1,0,10.47s-7.13,2.49-16.23-5.52l-3-9.71-.35-2.58a5.38,5.38,0,0,1,1.51-4.89c2.19-2,9.11-7,13.41-9.95S94.73,161,94.73,161l.76-.7s5.1,4.06,14.43,2.7A15,15,0,0,1,113.09,166.45Z"/><path id="_Контур_7" data-name="&lt;Контур&gt;" class="cls-15" d="M107.45,181.4a26,26,0,0,1,2.75-2.17,11.36,11.36,0,0,0,2.77-2c.87-.87,2.16-4.53,2.83-8.1a35.19,35.19,0,0,0-.2-12,83.56,83.56,0,0,0-4.76-13.83c-1.27-2.67-.55-4.3.6-5.48,1.36-1.39,2.77-1.36,4.38,2.37a76.3,76.3,0,0,1,5,16.28,35.9,35.9,0,0,1-.16,12.25A45,45,0,0,1,117.39,179c-.41,1-.48,1.78-1.06,3.71a12.52,12.52,0,0,1-2.94,5.16c-1.23,1.15-1.86,1.37-2.2,1.22s-.4-.63.1-1.22a10.42,10.42,0,0,0,2.07-3s-1,1.34-1.72,2.08a10.45,10.45,0,0,1-2.08,1.74c-.75.45-1.94-.08-1.45-.69s1-.94,2-2.06a10.54,10.54,0,0,0,1.38-1.95,18,18,0,0,1-2.31,1.94,4.28,4.28,0,0,1-2.21.92c-.42,0-1-.49-.29-1.16a15.43,15.43,0,0,0,2.74-2.42c.76-1,1.15-1.77.91-1.75s-.65.61-1.63,1.06-2.1.3-2.3-.24S106.56,182,107.45,181.4Z"/><path class="cls-20" d="M118.31,145.22s-3.45,3.06-7.29,2.44l-1.49-6.42s-1-3.37,1.88-4.65S117.06,138.66,118.31,145.22Z"/><path class="cls-20" d="M99.37,134s-3.73-1.13-7.7,7.14l1.49.89S97.06,136.13,99.37,134Z"/><g id="_Группа_" data-name="&lt;Группа&gt;"><g id="_Группа_2" data-name="&lt;Группа&gt;"><path id="_Контур_8" data-name="&lt;Контур&gt;" class="cls-16" d="M74.13,170.51l12.53-7.23a.71.71,0,0,1,.72,0l22,12.69-12.89,7.45Z"/><path class="cls-14" d="M96.79,180.55l1,.56c.08,0,.07.12,0,.17l-.91.53a.34.34,0,0,1-.31,0l-1-.55c-.08-.05-.07-.12,0-.18l.92-.52A.32.32,0,0,1,96.79,180.55Z"/><path class="cls-14" d="M95.44,179.77l1,.55c.07.05.06.13,0,.18l-.91.53a.37.37,0,0,1-.31,0l-1-.55c-.08-.05-.07-.13,0-.18l.91-.53A.34.34,0,0,1,95.44,179.77Z"/><path class="cls-14" d="M94.06,179l1,.55c.08.05.07.12,0,.18l-.91.52a.34.34,0,0,1-.31,0l-1-.56c-.07,0-.07-.12,0-.17l.91-.53A.32.32,0,0,1,94.06,179Z"/><path class="cls-14" d="M92.72,178.2l1,.56c.08,0,.07.12,0,.17l-.91.53a.34.34,0,0,1-.31,0l-1-.55c-.08,0-.07-.12,0-.18l.92-.52A.32.32,0,0,1,92.72,178.2Z"/><path class="cls-14" d="M91.37,177.42l1,.55c.07.05.06.13,0,.18l-.91.53a.37.37,0,0,1-.31,0l-1-.55c-.08,0-.07-.13,0-.18l.91-.53A.34.34,0,0,1,91.37,177.42Z"/><path class="cls-14" d="M90,176.64l1,.55c.08,0,.07.12,0,.18l-.92.52a.32.32,0,0,1-.3,0l-1-.56c-.08,0-.07-.12,0-.17l.91-.53A.34.34,0,0,1,90,176.64Z"/><path class="cls-14" d="M88.65,175.85l1,.56c.08,0,.07.12,0,.17l-.91.53a.34.34,0,0,1-.31,0l-1-.55c-.08,0-.07-.12,0-.18l.92-.52A.32.32,0,0,1,88.65,175.85Z"/><path class="cls-14" d="M87.3,175.07l1,.55c.08,0,.07.13,0,.18l-.91.53a.37.37,0,0,1-.31,0l-1-.55c-.07,0-.06-.13,0-.18l.91-.53A.34.34,0,0,1,87.3,175.07Z"/><path class="cls-14" d="M85.94,174.29l1,.55c.08,0,.07.12,0,.18l-.92.52a.32.32,0,0,1-.3,0l-1-.56c-.08,0-.07-.12,0-.17l.91-.53A.34.34,0,0,1,85.94,174.29Z"/><path class="cls-14" d="M84.58,173.5l1,.56c.08,0,.07.12,0,.17l-.92.53a.32.32,0,0,1-.3,0l-1-.55c-.08-.05-.07-.12,0-.18l.92-.52A.32.32,0,0,1,84.58,173.5Z"/><path class="cls-14" d="M83.23,172.72l1,.55c.08,0,.07.13,0,.18l-.91.53a.37.37,0,0,1-.31,0l-1-.55c-.07-.05-.06-.13,0-.18l.91-.53A.34.34,0,0,1,83.23,172.72Z"/><path class="cls-14" d="M81.87,171.94l1,.55c.08,0,.07.12,0,.18l-.92.52a.32.32,0,0,1-.3,0l-1-.56c-.08,0-.07-.12,0-.17l.91-.53A.34.34,0,0,1,81.87,171.94Z"/><path class="cls-14" d="M80.51,171.15l1,.56c.08,0,.07.12,0,.17l-.92.53a.32.32,0,0,1-.3,0l-1-.55c-.08-.05-.07-.12,0-.18l.92-.52A.32.32,0,0,1,80.51,171.15Z"/><path class="cls-14" d="M78.5,170l1.61.93c.08.05.07.13,0,.18l-.91.53a.37.37,0,0,1-.31,0l-1.61-.93c-.08-.05-.07-.12,0-.18l.92-.53A.35.35,0,0,1,78.5,170Z"/><path class="cls-14" d="M96.1,178.63l1,.56c.08,0,.07.12,0,.17l-.91.53a.34.34,0,0,1-.31,0l-1-.55c-.07,0-.06-.13,0-.18l.91-.53A.37.37,0,0,1,96.1,178.63Z"/><path class="cls-14" d="M94.74,177.85l1,.55c.07,0,.06.12,0,.18l-.91.52a.34.34,0,0,1-.31,0l-1-.56c-.08,0-.07-.12,0-.17l.91-.53A.34.34,0,0,1,94.74,177.85Z"/><path class="cls-14" d="M93.38,177.06l1,.56c.07,0,.06.12,0,.17l-.91.53a.34.34,0,0,1-.31,0l-1-.55c-.08-.05-.07-.12,0-.18l.91-.53A.37.37,0,0,1,93.38,177.06Z"/><path class="cls-14" d="M92,176.28l1,.55c.08,0,.07.12,0,.18l-.92.53a.35.35,0,0,1-.3,0l-1-.56c-.08,0-.07-.12,0-.17l.91-.53A.34.34,0,0,1,92,176.28Z"/><path class="cls-14" d="M90.67,175.5l1,.55c.08,0,.07.13,0,.18l-.92.53a.35.35,0,0,1-.3,0l-1-.55c-.08-.05-.07-.13,0-.18l.92-.53A.32.32,0,0,1,90.67,175.5Z"/><path class="cls-14" d="M89.31,174.71l1,.56c.08,0,.07.12,0,.17l-.92.53a.32.32,0,0,1-.3,0l-1-.55c-.08,0-.07-.12,0-.17l.92-.53A.35.35,0,0,1,89.31,174.71Z"/><path class="cls-14" d="M88,173.93l1,.55c.08.05.07.13,0,.18l-.92.53a.32.32,0,0,1-.3,0l-1-.55c-.08-.05-.07-.13,0-.18l.92-.53A.32.32,0,0,1,88,173.93Z"/><path class="cls-14" d="M86.59,173.15l1,.55c.08,0,.07.12,0,.17l-.91.53a.38.38,0,0,1-.31,0l-1-.56c-.08,0-.07-.12,0-.17l.92-.53A.32.32,0,0,1,86.59,173.15Z"/><path class="cls-14" d="M85.23,172.36l1,.55c.08.05.07.13,0,.18l-.91.53a.34.34,0,0,1-.31,0l-1-.55c-.08-.05-.07-.13,0-.18l.92-.53A.35.35,0,0,1,85.23,172.36Z"/><path class="cls-14" d="M83.88,171.58l1,.55c.08,0,.07.12,0,.18l-.91.52a.34.34,0,0,1-.31,0l-1-.56c-.07,0-.06-.12,0-.17l.91-.53A.34.34,0,0,1,83.88,171.58Z"/><path class="cls-14" d="M82.52,170.79l1,.55c.08,0,.07.13,0,.18l-.91.53a.34.34,0,0,1-.31,0l-1-.55c-.07,0-.06-.13,0-.18l.91-.53A.37.37,0,0,1,82.52,170.79Z"/><path class="cls-14" d="M81.16,170l1,.55c.07,0,.06.12,0,.18l-.91.52a.34.34,0,0,1-.31,0l-1-.56c-.08,0-.07-.12,0-.17l.91-.53A.34.34,0,0,1,81.16,170Z"/><path class="cls-14" d="M97.46,179.42l1.61.93c.08,0,.07.12,0,.17l-.92.53a.32.32,0,0,1-.3,0l-1.62-.93c-.07,0-.06-.12,0-.17l.91-.53A.34.34,0,0,1,97.46,179.42Z"/><path class="cls-14" d="M78.57,169.94l1,.56a.31.31,0,0,0,.28,0l1-.55c.08-.05.08-.12,0-.17l-.08,0a.08.08,0,0,1,0-.15l1-.59c.08-.05.08-.12,0-.17l-.61-.35a.37.37,0,0,0-.29,0l-1,.55-.2.12-.14.08-.15.08-.82.48A.08.08,0,0,0,78.57,169.94Z"/><path class="cls-14" d="M102.05,177.51l1,.56c.08,0,.07.12,0,.17l-.92.53a.32.32,0,0,1-.3,0l-1-.55c-.08,0-.07-.12,0-.18l.91-.52A.34.34,0,0,1,102.05,177.51Z"/><path class="cls-14" d="M100.7,176.73l1,.55c.08.05.07.13,0,.18l-.91.53a.34.34,0,0,1-.31,0l-1-.55c-.07,0-.06-.13,0-.18l.91-.53A.37.37,0,0,1,100.7,176.73Z"/><path class="cls-14" d="M99.34,176l1,.55c.08.05.07.13,0,.18l-.92.53a.32.32,0,0,1-.3,0l-1-.55c-.08,0-.07-.13,0-.18L99,176A.35.35,0,0,1,99.34,176Z"/><path class="cls-14" d="M87.82,169.3l1,.55c.08.05.07.13,0,.18l-.92.53a.35.35,0,0,1-.3,0l-1-.55c-.08-.05-.07-.13,0-.18l.92-.53A.32.32,0,0,1,87.82,169.3Z"/><path class="cls-14" d="M86.47,168.52l1,.55c.07.05.07.12,0,.18l-.91.52a.32.32,0,0,1-.3,0l-1-.56c-.08,0-.07-.12,0-.17l.91-.53A.34.34,0,0,1,86.47,168.52Z"/><path class="cls-14" d="M85.12,167.74l.95.55c.08,0,.07.12,0,.18l-.91.52a.34.34,0,0,1-.31,0l-1-.56c-.07,0-.06-.12,0-.17l.91-.53A.34.34,0,0,1,85.12,167.74Z"/><path class="cls-14" d="M83.76,167l1,.55c.08,0,.07.12,0,.17l-.92.53a.35.35,0,0,1-.3,0l-1-.56c-.08,0-.07-.12,0-.17l.92-.53A.32.32,0,0,1,83.76,167Z"/><path class="cls-14" d="M97.64,175l1.31.75c.08.05.07.13,0,.18l-.92.53a.35.35,0,0,1-.3,0l-1.31-.75c-.08-.05-.07-.13,0-.18l.92-.53A.32.32,0,0,1,97.64,175Z"/><path class="cls-14" d="M89.17,170.08l1.31.75c.08,0,.07.13,0,.18l-.92.53a.32.32,0,0,1-.3,0l-1.31-.75c-.08-.05-.07-.13,0-.18l.92-.53A.32.32,0,0,1,89.17,170.08Z"/><path class="cls-14" d="M90.88,171.06l6.37,3.68c.08,0,.07.12,0,.18l-.91.52a.32.32,0,0,1-.3,0l-6.38-3.68c-.07-.05-.06-.13,0-.18l.91-.53A.37.37,0,0,1,90.88,171.06Z"/><path class="cls-14" d="M97,177.66l1,.55c.08,0,.07.13,0,.18l-.92.53a.35.35,0,0,1-.3,0l-1-.55c-.08,0-.07-.13,0-.18l.92-.53A.32.32,0,0,1,97,177.66Z"/><path class="cls-14" d="M95.69,176.88l1,.55c.07,0,.06.12,0,.18l-.91.52a.34.34,0,0,1-.31,0l-1-.56c-.08,0-.07-.12,0-.17l.91-.53A.34.34,0,0,1,95.69,176.88Z"/><path class="cls-14" d="M94.33,176.09l1,.56c.08,0,.07.12,0,.17l-.92.53a.32.32,0,0,1-.3,0l-1-.55c-.08,0-.07-.12,0-.17l.92-.53A.32.32,0,0,1,94.33,176.09Z"/><path class="cls-14" d="M93,175.31l1,.56c.08,0,.07.12,0,.17l-.91.53a.34.34,0,0,1-.31,0l-1-.55c-.07-.05-.06-.13,0-.18l.91-.53A.37.37,0,0,1,93,175.31Z"/><path class="cls-14" d="M91.62,174.53l1,.55c.08,0,.07.13,0,.18l-.92.53a.35.35,0,0,1-.3,0l-1-.55c-.08-.05-.07-.13,0-.18l.92-.53A.32.32,0,0,1,91.62,174.53Z"/><path class="cls-14" d="M90.27,173.75l1,.55c.08,0,.07.12,0,.18l-.91.52a.34.34,0,0,1-.31,0l-1-.56c-.07,0-.06-.12,0-.17l.91-.53A.34.34,0,0,1,90.27,173.75Z"/><path class="cls-14" d="M88.91,173l1,.56c.08,0,.07.12,0,.17l-.92.53a.32.32,0,0,1-.3,0l-1-.55c-.08,0-.07-.12,0-.17l.92-.53A.35.35,0,0,1,88.91,173Z"/><path class="cls-14" d="M87.56,172.18l1,.56c.08,0,.07.12,0,.17l-.91.53a.34.34,0,0,1-.31,0l-1-.55c-.07-.05-.06-.13,0-.18l.91-.53A.37.37,0,0,1,87.56,172.18Z"/><path class="cls-14" d="M86.2,171.4l1,.55c.08.05.07.13,0,.18l-.92.53a.35.35,0,0,1-.3,0l-1-.55c-.08-.05-.07-.13,0-.18l.92-.53A.32.32,0,0,1,86.2,171.4Z"/><path class="cls-14" d="M84.84,170.62l1,.55c.08.05.07.12,0,.18l-.91.52a.34.34,0,0,1-.31,0l-1-.56c-.07,0-.07-.12,0-.17l.91-.53A.32.32,0,0,1,84.84,170.62Z"/><path class="cls-14" d="M83.49,169.83l1,.56c.08,0,.07.12,0,.17l-.92.53a.32.32,0,0,1-.3,0l-1-.55c-.08,0-.07-.12,0-.17l.91-.53A.38.38,0,0,1,83.49,169.83Z"/><path class="cls-14" d="M82.13,169.05l1,.56c.08,0,.07.12,0,.17l-.91.53a.34.34,0,0,1-.31,0l-1-.55c-.08-.05-.07-.12,0-.18l.92-.53A.35.35,0,0,1,82.13,169.05Z"/><path class="cls-14" d="M98.4,178.44l2,1.15c.08,0,.07.12,0,.17l-.92.53a.32.32,0,0,1-.3,0l-2-1.14c-.08,0-.07-.13,0-.18l.91-.53A.37.37,0,0,1,98.4,178.44Z"/><path class="cls-14" d="M99,177.29l1,.55c.08,0,.07.13,0,.18l-.92.53a.35.35,0,0,1-.3,0l-1-.55c-.08,0-.07-.13,0-.18l.91-.53A.34.34,0,0,1,99,177.29Z"/><path class="cls-14" d="M97.67,176.51l1,.55c.08,0,.07.12,0,.18l-.91.52a.34.34,0,0,1-.31,0l-1-.56c-.07,0-.06-.12,0-.17l.91-.53A.32.32,0,0,1,97.67,176.51Z"/><path class="cls-14" d="M96.32,175.72l1,.56c.08,0,.07.12,0,.17l-.92.53a.32.32,0,0,1-.3,0l-1-.55c-.08,0-.07-.12,0-.18l.91-.52A.34.34,0,0,1,96.32,175.72Z"/><path class="cls-14" d="M95,174.94l1,.55c.08,0,.07.13,0,.18l-.91.53a.34.34,0,0,1-.31,0l-1-.55c-.07,0-.07-.13,0-.18l.91-.53A.35.35,0,0,1,95,174.94Z"/><path class="cls-14" d="M93.61,174.16l1,.55c.08,0,.07.13,0,.18l-.92.53a.35.35,0,0,1-.3,0l-1-.55c-.08,0-.07-.13,0-.18l.91-.53A.34.34,0,0,1,93.61,174.16Z"/><path class="cls-14" d="M92.25,173.38l1,.55c.08,0,.07.12,0,.18l-.91.52a.34.34,0,0,1-.31,0l-1-.56c-.07,0-.07-.12,0-.17l.91-.53A.32.32,0,0,1,92.25,173.38Z"/><path class="cls-14" d="M90.9,172.59l1,.56c.08,0,.07.12,0,.17l-.92.53a.32.32,0,0,1-.3,0l-1-.55c-.08,0-.07-.12,0-.17l.91-.53A.38.38,0,0,1,90.9,172.59Z"/><path class="cls-14" d="M89.54,171.81l1,.56c.08,0,.07.12,0,.17l-.91.53a.34.34,0,0,1-.31,0l-1-.55c-.07-.05-.07-.13,0-.18l.91-.53A.35.35,0,0,1,89.54,171.81Z"/><path class="cls-14" d="M88.19,171l1,.55c.08,0,.07.13,0,.18l-.92.53a.32.32,0,0,1-.3,0l-1-.55c-.08-.05-.07-.13,0-.18l.91-.53A.34.34,0,0,1,88.19,171Z"/><path class="cls-14" d="M86.83,170.25l1,.55c.08,0,.07.12,0,.18l-.91.53a.37.37,0,0,1-.31,0l-1-.56c-.07,0-.07-.12,0-.17l.91-.53A.32.32,0,0,1,86.83,170.25Z"/><path class="cls-14" d="M85.48,169.47l1,.55c.08,0,.07.12,0,.17l-.92.53a.36.36,0,0,1-.3,0l-1-.56c-.08,0-.07-.12,0-.17l.91-.53A.34.34,0,0,1,85.48,169.47Z"/><path class="cls-14" d="M82.45,167.71l2.63,1.53c.08,0,.07.12,0,.17l-.91.53a.34.34,0,0,1-.31,0l-2.63-1.52c-.08,0-.07-.12,0-.17l.91-.53A.38.38,0,0,1,82.45,167.71Z"/><path class="cls-14" d="M100.39,178.07l1.3.76c.08,0,.07.12,0,.17l-.91.53a.34.34,0,0,1-.31,0l-1.31-.75c-.07,0-.06-.13,0-.18l.91-.53A.37.37,0,0,1,100.39,178.07Z"/><path class="cls-14" d="M77.14,170.78l19.25,11.11c.07,0,.06.12,0,.18l-.45.26a.34.34,0,0,1-.31,0L76.36,171.23c-.08,0-.07-.12,0-.18l.46-.26A.32.32,0,0,1,77.14,170.78Z"/><polygon id="_Контур_9" data-name="&lt;Контур&gt;" class="cls-21" points="99.91 171.51 99.78 171.58 96.47 173.49 90.58 170.09 90.45 170.02 93.89 168.04 99.91 171.51"/><polygon id="_Контур_10" data-name="&lt;Контур&gt;" class="cls-22" points="99.78 171.58 96.47 173.49 90.58 170.09 93.89 168.18 99.78 171.58"/><path id="_Контур_11" data-name="&lt;Контур&gt;" class="cls-22" d="M109.36,176v.3a1.2,1.2,0,0,1-.6,1l-11.69,6.75a1.2,1.2,0,0,1-1.2,0l-21.14-12.2a1.23,1.23,0,0,1-.6-1.05v-.3l22.34,12.9Z"/><path id="_Контур_12" data-name="&lt;Контур&gt;" class="cls-22" d="M96.47,183.41v.81a1.15,1.15,0,0,1-.6-.16l-21.14-12.2a1.23,1.23,0,0,1-.6-1.05v-.3Z"/><path id="_Контур_13" data-name="&lt;Контур&gt;" class="cls-16" d="M96.13,183.59a1.43,1.43,0,0,1-1.24-.09l-21-12.15a1.41,1.41,0,0,1-.69-1l-2.31-13.74a1.79,1.79,0,0,1,0-.23,1.44,1.44,0,0,1,.43-1L93.12,168a1,1,0,0,1,.52.74Z"/><path id="_Контур_14" data-name="&lt;Контур&gt;" class="cls-22" d="M96.47,183.42l-.15.08a1.11,1.11,0,0,1-.19.09l-2.49-14.86a1,1,0,0,0-.52-.74L71.26,155.36a1.06,1.06,0,0,1,.29-.22l21.91,12.65a1.06,1.06,0,0,1,.51.74Z"/></g></g></g><g id="Men_11"><path id="_Контур_15" data-name="&lt;Контур&gt;" class="cls-15" d="M385.5,127.28a43.84,43.84,0,0,0,6.26,8.53c.68.78,5.89-1.21,4.8-1.77s-4.5-5.31-6.21-8.48A107.21,107.21,0,0,1,386.71,114c-1.08-3.88-2-9.57-2.78-12.25a5.23,5.23,0,0,0-4-4.06c-1.87-.43-3.08.08-2.74,2.35C377.8,104,380.91,119.47,385.5,127.28Z"/><path class="cls-17" d="M382.52,187.84c1.61,1.31,4,.11,4.11.23a72.18,72.18,0,0,0,6,5c1,.79,2.58,1.85,2.29,3.37-.51,2.73-4.86,1.89-6.5,1.06s-3-2.21-4.54-3.18c-1.11-.69-2.2-1.05-2.38-2.45C381.36,191,382.23,187.81,382.52,187.84Z"/><path class="cls-18" d="M381.49,191.27c.21,1.34,1.29,1.71,2.39,2.39,1.58,1,3,2.4,4.61,3.23s5.3,1.53,6.37-.41c-.58,2.62-4.86,1.8-6.48,1s-3-2.21-4.54-3.18c-1.11-.69-2.2-1.05-2.38-2.45A3,3,0,0,1,381.49,191.27Z"/><path class="cls-17" d="M398.89,178.41c1.61,1.31,4.44-.12,4.56,0a62,62,0,0,0,5.32,4.8c1,.79,2.58,1.85,2.29,3.37-.5,2.73-4.86,1.89-6.5,1.06s-3-2.21-4.54-3.18c-1.11-.69-2.2-1.05-2.38-2.45C397.54,181.17,398.6,178.38,398.89,178.41Z"/><path class="cls-18" d="M397.69,181.64c.22,1.34,1.29,1.71,2.39,2.39,1.58,1,3,2.4,4.62,3.23s5.3,1.54,6.37-.41c-.58,2.63-4.86,1.8-6.49,1s-3-2.21-4.53-3.18c-1.11-.69-2.2-1-2.38-2.44A4,4,0,0,1,397.69,181.64Z"/><path id="_Контур_16" data-name="&lt;Контур&gt;" class="cls-19" d="M360.93,136.1c-1.78,11.17,3.18,15.35,9.64,17.72,4.63,1.71,11.27,4.34,11.27,4.34s-.09,2.45-.15,8c0,4.85.6,22.54.6,22.54s2.67,1.39,4.94,0c0,0,2.6-13.56,3.15-19.67.75-8.3,2-13.72,1.6-15.51-.37-1.57-9.43-6-12.31-8.41l19,6.36a33.47,33.47,0,0,0-.55,6.24c.17,6.58.54,20.83.54,20.83s2.6,1.88,4.82,0c0,0,4.78-28.19,4.2-31.93-.55-3.54-17.28-10.78-20.23-13.27a4.71,4.71,0,0,0-3.72-1Z"/><g id="_Группа_3" data-name="&lt;Группа&gt;"><g id="_Группа_4" data-name="&lt;Группа&gt;"><path id="_Контур_17" data-name="&lt;Контур&gt;" class="cls-16" d="M406.47,140.75l-12.76-7.36a.73.73,0,0,0-.73,0l-22.39,12.92,13.13,7.58Z"/><path class="cls-14" d="M383.13,151.18l-1,.56c-.08,0-.07.13,0,.18l.92.54a.34.34,0,0,0,.31,0l1-.56c.07,0,.06-.13,0-.18l-.93-.54A.32.32,0,0,0,383.13,151.18Z"/><path class="cls-14" d="M384.5,150.39l-1,.56c-.08,0-.07.12,0,.18l.93.53a.34.34,0,0,0,.31,0l1-.56c.08,0,.07-.12,0-.18l-.93-.53A.34.34,0,0,0,384.5,150.39Z"/><path class="cls-14" d="M385.89,149.58l-1,.56c-.08.05-.07.13,0,.18l.93.54a.34.34,0,0,0,.31,0l1-.56c.08-.05.07-.13,0-.18l-.93-.54A.37.37,0,0,0,385.89,149.58Z"/><path class="cls-14" d="M387.26,148.8l-1,.56c-.08,0-.07.12,0,.18l.92.53a.34.34,0,0,0,.31,0l1-.56c.08,0,.07-.12,0-.18l-.92-.53A.34.34,0,0,0,387.26,148.8Z"/><path class="cls-14" d="M388.63,148l-1,.56c-.08.05-.07.13,0,.18l.93.54a.34.34,0,0,0,.31,0l1-.56c.08,0,.07-.13,0-.18l-.93-.54A.34.34,0,0,0,388.63,148Z"/><path class="cls-14" d="M390,147.21l-1,.56c-.08,0-.07.12,0,.18l.93.53a.34.34,0,0,0,.31,0l1-.56c.08,0,.07-.12,0-.18l-.93-.53A.34.34,0,0,0,390,147.21Z"/><path class="cls-14" d="M391.39,146.41l-1,.56c-.08.05-.07.13,0,.18l.92.54a.34.34,0,0,0,.31,0l1-.56c.08,0,.07-.13,0-.18l-.92-.54A.37.37,0,0,0,391.39,146.41Z"/><path class="cls-14" d="M392.76,145.62l-1,.56c-.08,0-.07.12,0,.18l.93.53a.34.34,0,0,0,.31,0l1-.56c.08,0,.07-.12,0-.18l-.93-.53A.34.34,0,0,0,392.76,145.62Z"/><path class="cls-14" d="M394.14,144.82l-1,.56c-.08.05-.07.13,0,.18l.93.54a.34.34,0,0,0,.31,0l1-.56c.08-.05.07-.13,0-.18l-.93-.54A.37.37,0,0,0,394.14,144.82Z"/><path class="cls-14" d="M395.52,144l-1,.56c-.08,0-.07.12,0,.18l.92.53a.34.34,0,0,0,.31,0l1-.57c.08,0,.07-.12,0-.18l-.92-.53A.34.34,0,0,0,395.52,144Z"/><path class="cls-14" d="M396.89,143.23l-1,.56c-.08.05-.07.13,0,.18l.93.54a.34.34,0,0,0,.31,0l1-.56c.08-.05.07-.13,0-.18l-.93-.54A.37.37,0,0,0,396.89,143.23Z"/><path class="cls-14" d="M398.27,142.44l-1,.56c-.08,0-.07.12,0,.18l.93.53a.34.34,0,0,0,.31,0l1-.57c.08,0,.07-.12,0-.17l-.93-.54A.34.34,0,0,0,398.27,142.44Z"/><path class="cls-14" d="M399.65,141.64l-1,.56c-.07.05-.06.13,0,.18l.93.54a.32.32,0,0,0,.3,0l1-.56c.08-.05.07-.13,0-.18l-.93-.54A.37.37,0,0,0,399.65,141.64Z"/><path class="cls-14" d="M401.69,140.46l-1.64.95c-.08,0-.07.12,0,.18l.93.53a.34.34,0,0,0,.31,0l1.64-.95c.08,0,.07-.12,0-.18l-.92-.53A.34.34,0,0,0,401.69,140.46Z"/><path class="cls-14" d="M383.83,149.23l-1,.56c-.08.05-.07.13,0,.18l.93.54a.34.34,0,0,0,.31,0l1-.56c.08-.05.07-.13,0-.18l-.93-.54A.34.34,0,0,0,383.83,149.23Z"/><path class="cls-14" d="M385.21,148.43l-1,.57c-.08,0-.07.12,0,.17l.93.54a.34.34,0,0,0,.31,0l1-.56c.08,0,.07-.12,0-.18l-.93-.53A.34.34,0,0,0,385.21,148.43Z"/><path class="cls-14" d="M386.59,147.64l-1,.56c-.08.05-.07.13,0,.18l.93.53a.34.34,0,0,0,.31,0l1-.56c.08-.05.07-.13,0-.18l-.93-.54A.34.34,0,0,0,386.59,147.64Z"/><path class="cls-14" d="M388,146.84l-1,.56c-.08,0-.07.13,0,.18l.93.54a.34.34,0,0,0,.31,0l1-.56c.08,0,.07-.13,0-.18l-.93-.54A.37.37,0,0,0,388,146.84Z"/><path class="cls-14" d="M389.34,146.05l-1,.56c-.08,0-.07.13,0,.18l.93.54a.34.34,0,0,0,.31,0l1-.56c.08-.05.07-.13,0-.18l-.93-.54A.37.37,0,0,0,389.34,146.05Z"/><path class="cls-14" d="M390.72,145.26l-1,.56c-.08,0-.07.12,0,.18l.93.53a.34.34,0,0,0,.31,0l1-.56c.08,0,.07-.12,0-.18l-.93-.53A.34.34,0,0,0,390.72,145.26Z"/><path class="cls-14" d="M392.1,144.46l-1,.56c-.07,0-.06.13,0,.18l.93.54a.35.35,0,0,0,.3,0l1-.56c.08-.05.07-.13,0-.18l-.93-.54A.34.34,0,0,0,392.1,144.46Z"/><path class="cls-14" d="M393.48,143.66l-1,.56c-.08.05-.07.13,0,.18l.92.54a.34.34,0,0,0,.31,0l1-.56c.08,0,.07-.13,0-.18l-.92-.53A.34.34,0,0,0,393.48,143.66Z"/><path class="cls-14" d="M394.86,142.87l-1,.56c-.08,0-.07.12,0,.18l.92.53a.34.34,0,0,0,.31,0l1-.57c.08,0,.07-.12,0-.17l-.92-.54A.34.34,0,0,0,394.86,142.87Z"/><path class="cls-14" d="M396.23,142.07l-1,.56c-.08.05-.07.13,0,.18l.93.54a.34.34,0,0,0,.31,0l1-.56c.08-.05.07-.13,0-.18l-.93-.54A.34.34,0,0,0,396.23,142.07Z"/><path class="cls-14" d="M397.61,141.27l-1,.57c-.08,0-.07.12,0,.17l.93.54a.34.34,0,0,0,.31,0l1-.56c.08,0,.07-.12,0-.18l-.93-.53A.34.34,0,0,0,397.61,141.27Z"/><path class="cls-14" d="M399,140.48l-1,.56c-.08.05-.07.13,0,.18l.93.53a.34.34,0,0,0,.31,0l1-.56c.08-.05.07-.13,0-.18l-.93-.54A.34.34,0,0,0,399,140.48Z"/><path class="cls-14" d="M382.45,150l-1.63.94c-.08.05-.07.13,0,.18l.93.54a.37.37,0,0,0,.31,0l1.63-.95c.08,0,.07-.12,0-.17l-.93-.54A.34.34,0,0,0,382.45,150Z"/><path class="cls-14" d="M401.62,140.41l-1,.56a.3.3,0,0,1-.29,0l-1-.56c-.08,0-.08-.12,0-.17l.08,0c.07,0,.07-.12,0-.16l-1-.6a.08.08,0,0,1,0-.16l.61-.36a.3.3,0,0,1,.29,0l1,.56.2.12.15.08.14.08.84.49A.08.08,0,0,1,401.62,140.41Z"/><path class="cls-14" d="M377.79,148.1l-1,.56c-.08,0-.07.12,0,.18l.93.53a.34.34,0,0,0,.31,0l1-.56c.08,0,.07-.12,0-.18l-.93-.53A.34.34,0,0,0,377.79,148.1Z"/><path class="cls-14" d="M379.17,147.3l-1,.56c-.08,0-.07.13,0,.18l.92.54a.34.34,0,0,0,.31,0l1-.56c.08-.05.07-.13,0-.18l-.92-.53A.34.34,0,0,0,379.17,147.3Z"/><path class="cls-14" d="M380.54,146.51l-1,.56c-.08.05-.07.13,0,.18l.93.54a.37.37,0,0,0,.31,0l1-.56c.08-.05.07-.13,0-.18l-.93-.54A.34.34,0,0,0,380.54,146.51Z"/><path class="cls-14" d="M392.23,139.76l-1,.56c-.08.05-.07.13,0,.18l.93.54a.37.37,0,0,0,.31,0l1-.56c.08-.05.07-.13,0-.18l-.93-.54A.34.34,0,0,0,392.23,139.76Z"/><path class="cls-14" d="M393.6,139l-1,.56c-.08,0-.07.12,0,.18l.93.53a.34.34,0,0,0,.31,0l1-.57c.08,0,.07-.12,0-.17l-.93-.54A.34.34,0,0,0,393.6,139Z"/><path class="cls-14" d="M395,138.17l-1,.57c-.08,0-.07.12,0,.17l.92.54a.34.34,0,0,0,.31,0l1-.56c.08,0,.07-.12,0-.18l-.92-.53A.34.34,0,0,0,395,138.17Z"/><path class="cls-14" d="M396.35,137.38l-1,.56c-.08.05-.07.13,0,.18l.93.54a.34.34,0,0,0,.31,0l1-.56c.08-.05.07-.13,0-.18l-.93-.54A.37.37,0,0,0,396.35,137.38Z"/><path class="cls-14" d="M382.27,145.51l-1.33.77c-.08,0-.07.12,0,.18l.93.53a.34.34,0,0,0,.31,0l1.33-.77c.07-.05.06-.13,0-.18l-.93-.53A.32.32,0,0,0,382.27,145.51Z"/><path class="cls-14" d="M390.86,140.55l-1.33.77c-.08,0-.07.12,0,.18l.93.53a.34.34,0,0,0,.31,0l1.33-.77c.08-.05.07-.13,0-.18l-.93-.53A.34.34,0,0,0,390.86,140.55Z"/><path class="cls-14" d="M389.13,141.55l-6.46,3.73c-.08.05-.07.13,0,.18l.93.54a.34.34,0,0,0,.31,0l6.46-3.73c.08-.05.07-.13,0-.18l-.93-.54A.34.34,0,0,0,389.13,141.55Z"/><path class="cls-14" d="M382.87,148.24l-1,.57c-.08,0-.07.12,0,.17l.93.54a.34.34,0,0,0,.31,0l1-.56c.08,0,.07-.12,0-.18l-.93-.53A.34.34,0,0,0,382.87,148.24Z"/><path class="cls-14" d="M384.25,147.45l-1,.56c-.08.05-.07.13,0,.18l.93.54a.37.37,0,0,0,.31,0l1-.56c.08-.05.07-.13,0-.18l-.93-.54A.34.34,0,0,0,384.25,147.45Z"/><path class="cls-14" d="M385.62,146.66l-1,.56c-.08,0-.07.12,0,.18l.93.53a.34.34,0,0,0,.31,0l1-.56c.08,0,.07-.12,0-.18l-.93-.53A.34.34,0,0,0,385.62,146.66Z"/><path class="cls-14" d="M387,145.86l-1,.56c-.08.05-.07.13,0,.18l.93.54a.34.34,0,0,0,.31,0l1-.56c.08-.05.07-.13,0-.18l-.93-.54A.37.37,0,0,0,387,145.86Z"/><path class="cls-14" d="M388.37,145.07l-1,.56c-.08.05-.07.13,0,.18l.93.53a.34.34,0,0,0,.31,0l1-.56c.08-.05.07-.13,0-.18l-.93-.54A.34.34,0,0,0,388.37,145.07Z"/><path class="cls-14" d="M389.75,144.27l-1,.57c-.08,0-.07.12,0,.17l.93.54a.34.34,0,0,0,.31,0l1-.56c.08,0,.07-.12,0-.18l-.93-.53A.34.34,0,0,0,389.75,144.27Z"/><path class="cls-14" d="M391.13,143.48l-1,.56c-.08.05-.07.13,0,.18l.93.54a.37.37,0,0,0,.31,0l1-.56c.08-.05.07-.13,0-.18l-.93-.54A.32.32,0,0,0,391.13,143.48Z"/><path class="cls-14" d="M392.5,142.69l-1,.56c-.08,0-.07.12,0,.18l.93.53a.34.34,0,0,0,.31,0l1-.56c.08,0,.07-.12,0-.18l-.93-.53A.34.34,0,0,0,392.5,142.69Z"/><path class="cls-14" d="M393.88,141.89l-1,.56c-.08.05-.07.13,0,.18l.92.54a.34.34,0,0,0,.31,0l1-.56c.07-.05.06-.13,0-.18l-.92-.54A.37.37,0,0,0,393.88,141.89Z"/><path class="cls-14" d="M395.25,141.1l-1,.56c-.08.05-.07.13,0,.18l.93.53a.34.34,0,0,0,.31,0l1-.56c.08-.05.07-.13,0-.18l-.93-.54A.34.34,0,0,0,395.25,141.1Z"/><path class="cls-14" d="M396.63,140.3l-1,.57c-.08,0-.07.12,0,.17l.92.54a.34.34,0,0,0,.31,0l1-.56c.08,0,.07-.12,0-.18l-.92-.53A.34.34,0,0,0,396.63,140.3Z"/><path class="cls-14" d="M398,139.51l-1,.56c-.08.05-.07.13,0,.18l.93.54a.37.37,0,0,0,.31,0l1-.56c.08-.05.07-.13,0-.18l-.93-.54A.34.34,0,0,0,398,139.51Z"/><path class="cls-14" d="M381.5,149l-2,1.16c-.08.05-.07.13,0,.18l.93.53a.34.34,0,0,0,.31,0l2-1.16c.08-.05.07-.13,0-.18l-.93-.54A.34.34,0,0,0,381.5,149Z"/><path class="cls-14" d="M380.86,147.87l-1,.56c-.08,0-.07.13,0,.18l.92.53a.34.34,0,0,0,.31,0l1-.56c.08,0,.07-.13,0-.18l-.92-.54A.34.34,0,0,0,380.86,147.87Z"/><path class="cls-14" d="M382.23,147.07l-1,.57c-.08,0-.07.12,0,.17l.93.54a.34.34,0,0,0,.31,0l1-.56c.08,0,.07-.12,0-.18l-.93-.53A.34.34,0,0,0,382.23,147.07Z"/><path class="cls-14" d="M383.61,146.28l-1,.56c-.08,0-.07.13,0,.18l.92.54a.37.37,0,0,0,.31,0l1-.56c.08,0,.07-.13,0-.18l-.92-.54A.34.34,0,0,0,383.61,146.28Z"/><path class="cls-14" d="M385,145.49l-1,.56c-.08,0-.07.12,0,.18l.93.53a.31.31,0,0,0,.31,0l1-.56c.08,0,.07-.12,0-.18l-.93-.53A.34.34,0,0,0,385,145.49Z"/><path class="cls-14" d="M386.36,144.69l-1,.56c-.08.05-.07.13,0,.18l.92.54a.34.34,0,0,0,.31,0l1-.56c.08,0,.07-.13,0-.18l-.92-.54A.37.37,0,0,0,386.36,144.69Z"/><path class="cls-14" d="M387.73,143.9l-1,.56c-.08,0-.07.13,0,.18l.93.53a.34.34,0,0,0,.31,0l1-.56c.08,0,.07-.13,0-.18l-.93-.54A.34.34,0,0,0,387.73,143.9Z"/><path class="cls-14" d="M389.11,143.1l-1,.57c-.08,0-.07.12,0,.17l.92.54a.34.34,0,0,0,.31,0l1-.56c.08,0,.07-.12,0-.18l-.92-.53A.34.34,0,0,0,389.11,143.1Z"/><path class="cls-14" d="M390.48,142.31l-1,.56c-.08,0-.07.13,0,.18l.93.54a.34.34,0,0,0,.31,0l1-.56c.08,0,.07-.13,0-.18l-.93-.54A.34.34,0,0,0,390.48,142.31Z"/><path class="cls-14" d="M391.86,141.52l-1,.56c-.08,0-.07.12,0,.18l.92.53a.34.34,0,0,0,.31,0l1-.57c.08,0,.07-.12,0-.17l-.92-.54A.34.34,0,0,0,391.86,141.52Z"/><path class="cls-14" d="M393.23,140.72l-1,.56c-.08.05-.07.13,0,.18l.93.54a.34.34,0,0,0,.31,0l1-.56c.08,0,.07-.13,0-.18l-.93-.53A.34.34,0,0,0,393.23,140.72Z"/><path class="cls-14" d="M394.61,139.93l-1,.56c-.08,0-.07.13,0,.18l.92.53a.34.34,0,0,0,.31,0l1-.56c.08,0,.07-.13,0-.18l-.92-.54A.34.34,0,0,0,394.61,139.93Z"/><path class="cls-14" d="M397.68,138.15,395,139.7c-.08,0-.07.12,0,.18l.93.53a.34.34,0,0,0,.31,0l2.67-1.54c.08,0,.07-.13,0-.18l-.93-.53A.34.34,0,0,0,397.68,138.15Z"/><path class="cls-14" d="M379.48,148.66l-1.33.77c-.07,0-.06.12,0,.18l.93.53a.32.32,0,0,0,.3,0l1.33-.76c.08,0,.07-.13,0-.18l-.93-.54A.37.37,0,0,0,379.48,148.66Z"/><path class="cls-14" d="M403.07,141.26l-19.53,11.28c-.08,0-.07.12,0,.18l.47.26a.34.34,0,0,0,.31,0l19.52-11.28c.08-.05.07-.13,0-.18l-.46-.27A.37.37,0,0,0,403.07,141.26Z"/><polygon id="_Контур_18" data-name="&lt;Контур&gt;" class="cls-21" points="380.22 141.76 380.35 141.84 383.72 143.79 389.72 140.32 389.84 140.25 386.34 138.23 380.22 141.76"/><polygon id="_Контур_19" data-name="&lt;Контур&gt;" class="cls-22" points="380.35 141.84 383.72 143.79 389.72 140.32 386.34 138.37 380.35 141.84"/><path id="_Контур_20" data-name="&lt;Контур&gt;" class="cls-22" d="M370.59,146.31v.3a1.24,1.24,0,0,0,.62,1.07l11.89,6.86a1.16,1.16,0,0,0,.62.17,1.13,1.13,0,0,0,.61-.17l21.52-12.42a1.22,1.22,0,0,0,.62-1.07v-.3l-22.75,13.14Z"/><path id="_Контур_21" data-name="&lt;Контур&gt;" class="cls-16" d="M384.07,154.07a1.42,1.42,0,0,0,1.25-.1l21.43-12.37a1.45,1.45,0,0,0,.71-1l2.34-14a1,1,0,0,0,0-.24,1.44,1.44,0,0,0-.43-1l-22.27,12.86a1.12,1.12,0,0,0-.52.75Z"/><path id="_Контур_22" data-name="&lt;Контур&gt;" class="cls-22" d="M383.72,153.89l.15.08.2.1,2.53-15.14a1.12,1.12,0,0,1,.52-.75l22.27-12.86a1.4,1.4,0,0,0-.3-.23L386.78,138a1,1,0,0,0-.52.75Z"/></g></g><path id="_Контур_23" data-name="&lt;Контур&gt;" class="cls-15" d="M367.55,94s.27,5.33.15,5.8-2.44,2-3.12,2.59,3.68,4.86,5.8,5.83,8.83-1.59,8.95-4.89-1.15-6.06-2.18-6.21S367.55,94,367.55,94Z"/><path id="_Контур_24" data-name="&lt;Контур&gt;" class="cls-16" d="M367,100.74s3.86,5.75,9.25,6.3c1.7-1.68,1.86-7.64-.5-9.54,0,0,2.16-1.75,3.64-1.41a7.61,7.61,0,0,1,3.33,4.25,34.62,34.62,0,0,1,1.9,12.32c-.09,5.64,0,19.92,0,19.92a12.15,12.15,0,0,1-5.68,8.17,17.53,17.53,0,0,1-12.79,1.77c-2.73-.64-3.75-2.17-4.69-4.15.25-4,1.81-12.1,1.16-17.08s-1.72-8.69-2-12.72.53-3.94,2.55-5.37A31.65,31.65,0,0,1,367,100.74Z"/><path id="_Контур_25" data-name="&lt;Контур&gt;" class="cls-15" d="M373.14,146.61a26,26,0,0,0-3-1.73,6.4,6.4,0,0,1-2.59-1.57c-.95-.93-2.5-4.44-3.61-7.86a35.34,35.34,0,0,1-1.3-11.88c.47-4.8,2.2-11.52,2.64-14.28s-.46-3.86-1.74-4.87c-1.51-1.2-3.59-.67-4.7,3.2A74.91,74.91,0,0,0,356.34,124a37.06,37.06,0,0,0,1.88,12.11,43.51,43.51,0,0,0,4.61,9.51c.53.9.7,1.69,1.51,3.51a12.29,12.29,0,0,0,3.54,4.7c1.35,1,2,1.11,2.31.93s.32-.67-.25-1.19a10,10,0,0,1-2.41-2.7s1.18,1.19,2,1.84a10.85,10.85,0,0,0,2.26,1.44c.8.34,1.89-.33,1.34-.86s-1.14-.79-2.27-1.77a9.8,9.8,0,0,1-1.6-1.74,19.06,19.06,0,0,0,2.51,1.62A4.17,4.17,0,0,0,374,152c.42,0,.93-.6.15-1.17a15.1,15.1,0,0,1-3-2c-.86-.86-1.35-1.59-1.11-1.6s.71.52,1.73.84,2.1,0,2.23-.53S374.09,147.08,373.14,146.61Z"/><path id="_Контур_26" data-name="&lt;Контур&gt;" class="cls-15" d="M379.59,86.09h0c-.63-4.13-3.61-7.26-7.87-7A8.23,8.23,0,0,0,364,87.73,8.12,8.12,0,0,0,367.54,94a8.79,8.79,0,0,0,.66,1.81c1.51,1.76,6.07,2.85,7.38,2.66A3.9,3.9,0,0,0,379,95.72C380.38,92.47,379.94,88.13,379.59,86.09Z"/><path class="cls-14" d="M367.54,94h0l.4-3.6s-2.95-7.63,4-6.16c4.59,1,5.75,1.38,7.14-1.7s-3.53-5.85-9.38-5.08a8.08,8.08,0,0,0-7.24,8.21C362.62,88,363.22,92.54,367.54,94Z"/><path class="cls-20" d="M355.63,114.72s3.8,3.77,8.29,2.69c.65-.44,2.19-9.27,2.19-9.27s0-4.89-3.75-4.76S355.63,114.72,355.63,114.72Z"/><path class="cls-20" d="M384.31,107.39a4.17,4.17,0,0,0,2.81-1.25c-.15-2-2.68-9.49-7.78-10a9.38,9.38,0,0,1,3.19,3.84A50.07,50.07,0,0,1,384.31,107.39Z"/></g></g></g></svg>