<svg xmlns="http://www.w3.org/2000/svg" viewBox="0 0 418.66 500"><defs><style>.cls-1{fill:#d6d8e5;opacity:0.3;}.cls-2{fill:#b1b4c4;}.cls-3{fill:#616e84;}.cls-4{fill:#20232d;}.cls-5{fill:#2b303f;}.cls-6{fill:#353c4c;}.cls-7{fill:#fff;opacity:0.1;}.cls-8{fill:#757b89;}.cls-9{fill:#dd990e;}.cls-10{fill:#f9cb07;}.cls-11{fill:#cc8b09;}.cls-12{fill:#e8a30a;}.cls-13{fill:#f9ca06;}.cls-14{opacity:0.15;}.cls-15,.cls-17{fill:#dadce5;}.cls-16{fill:#f8f9ff;}.cls-17{opacity:0.5;}</style></defs><title>Online_banking_SVG</title><g id="Слой_2" data-name="Слой 2"><g id="Слой_1-2" data-name="Слой 1"><polygon class="cls-1" points="359.65 437.83 209.38 348.52 231.2 335.91 381.47 425.23 359.65 437.83"/><path class="cls-2" d="M359.37,415.71,249.8,352.45c-9.28-5.36-16.81-19.73-16.81-32.11V14.72C233,2.35,240.52-3.34,249.8,2L359.37,65.28c9.28,5.35,16.8,19.73,16.8,32.1V403C376.17,415.38,368.65,421.07,359.37,415.71Z"/><polygon class="cls-2" points="361.24 421.22 369.93 416.83 361.6 402.56 361.24 421.22"/><polygon class="cls-2" points="231.29 5.07 239.28 0.88 237.67 12.65 231.29 5.07"/><path class="cls-3" d="M352.38,419.2,242.81,356c-9.28-5.36-16.8-19.74-16.8-32.11V18.21c0-12.37,7.52-18.06,16.8-12.7L352.38,68.77c9.28,5.36,16.8,19.73,16.8,32.11V406.5C369.18,418.88,361.66,424.56,352.38,419.2Z"/><path class="cls-4" d="M368,101.66V407.27c0,12.39-7.52,18.06-16.8,12.71l-43-24.8-13.35-7.72-53.24-30.73c-9.28-5.37-16.8-19.74-16.8-32.12V19c0-12.39,7.52-18.07,16.8-12.72L351.22,69.54C360.5,74.91,368,89.27,368,101.66Z"/><path class="cls-5" d="M360.11,98.56V396.21c0,7.5-5.25,10.55-11.75,6.79L314.1,383.22l-3-1.74-1-.59-7.4-4.27-21.43-12.36h0l-8.88-5.13-3.58-2.07L244.5,343c-6.49-3.75-11.76-12.87-11.76-20.37V25c0-7.5,5.27-10.53,11.76-6.79l42.77,24.7V43c0,5.83,4.11,12.93,9.16,15.85s9.16.56,9.16-5.28c0,0,0-.1,0-.14l42.78,24.71C354.86,81.92,360.11,91.05,360.11,98.56Z"/><path class="cls-6" d="M342.16,168.54,251.11,116a8.19,8.19,0,0,1-3.41-6.52V46.17c0-2.52,1.53-3.67,3.41-2.58l91.05,52.56a8.19,8.19,0,0,1,3.41,6.52V166C345.57,168.47,344,169.63,342.16,168.54Z"/><path class="cls-6" d="M344.2,197.52l-95.14-54.93A3.26,3.26,0,0,1,247.7,140v-8.75c0-1,.61-1.47,1.36-1l95.14,54.93a3.25,3.25,0,0,1,1.37,2.61v8.75C345.57,197.5,345,198,344.2,197.52Z"/><path class="cls-6" d="M329.75,209.75l-80.69-46.58a3.29,3.29,0,0,1-1.36-2.61V151.8c0-1,.61-1.46,1.36-1l80.69,46.59a3.25,3.25,0,0,1,1.37,2.61v8.75C331.12,209.72,330.51,210.19,329.75,209.75Z"/><path class="cls-6" d="M317,222.93l-67.89-39.19a3.26,3.26,0,0,1-1.36-2.61v-8.75c0-1,.61-1.47,1.36-1L317,210.54a3.26,3.26,0,0,1,1.36,2.61v8.75C318.31,222.91,317.7,223.37,317,222.93Z"/><path class="cls-6" d="M342.61,341l-95.14-54.93a3.26,3.26,0,0,1-1.37-2.61v-8.75c0-1,.61-1.47,1.37-1l95.14,54.93a3.27,3.27,0,0,1,1.37,2.61V340C344,341,343.37,341.44,342.61,341Z"/><path class="cls-6" d="M328.16,353.23l-80.69-46.59a3.24,3.24,0,0,1-1.37-2.6v-8.76c0-1,.61-1.47,1.37-1l80.69,46.58a3.29,3.29,0,0,1,1.36,2.61v8.76C329.52,353.2,328.91,353.67,328.16,353.23Z"/><path class="cls-6" d="M315.35,366.41l-67.88-39.19a3.26,3.26,0,0,1-1.37-2.61v-8.75c0-1,.61-1.47,1.37-1L315.35,354a3.25,3.25,0,0,1,1.37,2.61v8.75C316.72,366.39,316.11,366.85,315.35,366.41Z"/><path class="cls-6" d="M360.11,106.06v72.58l-3.49-1.93a8.24,8.24,0,0,1-3.42-6.54V106.9c0-2.52,1.54-3.68,3.42-2.58Z"/><path class="cls-6" d="M255.21,261.58l-6.83-3.94A3.3,3.3,0,0,1,247,255V222.27c0-1,.62-1.47,1.37-1l6.83,4a3.26,3.26,0,0,1,1.36,2.6v32.77C256.57,261.55,256,262,255.21,261.58Z"/><path class="cls-6" d="M270,270.14l-6.83-3.94a3.26,3.26,0,0,1-1.36-2.61V223c0-1,.61-1.47,1.36-1l6.83,3.94a3.29,3.29,0,0,1,1.37,2.61v40.58C271.41,270.12,270.79,270.58,270,270.14Z"/><path class="cls-6" d="M284.87,278.71,278,274.76a3.26,3.26,0,0,1-1.36-2.6V243.4c0-1,.61-1.47,1.36-1l6.83,3.94a3.26,3.26,0,0,1,1.37,2.61v28.75C286.24,278.68,285.63,279.14,284.87,278.71Z"/><path class="cls-6" d="M299.71,287.27l-6.83-3.94a3.27,3.27,0,0,1-1.37-2.61V232.65c0-1,.61-1.47,1.37-1l6.83,3.95a3.26,3.26,0,0,1,1.36,2.61v48.07C301.07,287.24,300.46,287.71,299.71,287.27Z"/><path class="cls-6" d="M314.54,295.83l-6.83-3.94a3.27,3.27,0,0,1-1.37-2.61V248.7c0-1,.62-1.47,1.37-1l6.83,3.94a3.28,3.28,0,0,1,1.36,2.61V294.8C315.9,295.81,315.29,296.27,314.54,295.83Z"/><path class="cls-6" d="M344.2,313,337.38,309a3.26,3.26,0,0,1-1.37-2.61V265.83c0-1,.61-1.47,1.37-1l6.82,3.94a3.25,3.25,0,0,1,1.37,2.61v40.58C345.57,312.94,345,313.4,344.2,313Z"/><path class="cls-6" d="M329.37,304.4l-6.83-3.94a3.29,3.29,0,0,1-1.36-2.61V242.28c0-1,.61-1.46,1.36-1l6.83,3.94a3.27,3.27,0,0,1,1.37,2.61v55.57C330.74,304.37,330.13,304.83,329.37,304.4Z"/><ellipse class="cls-5" cx="296.43" cy="51.56" rx="2.84" ry="4.91" transform="translate(13.94 155.13) rotate(-30)"/><path class="cls-7" d="M296.43,53.24A3.22,3.22,0,0,1,295,50.72c0-.93.66-1.3,1.46-.84a3.24,3.24,0,0,1,1.46,2.52C297.89,53.33,297.23,53.71,296.43,53.24Z"/><path class="cls-8" d="M372.46,141.87h0c-.89.52-1.62,0-1.62-1.22v-13a3.89,3.89,0,0,1,1.62-3.09h0c.89-.51,1.62,0,1.62,1.23v13A3.89,3.89,0,0,1,372.46,141.87Z"/><path class="cls-8" d="M372.46,163.22h0c-.89.52-1.62,0-1.62-1.22V149a3.89,3.89,0,0,1,1.62-3.09h0c.89-.51,1.62,0,1.62,1.23v13A3.89,3.89,0,0,1,372.46,163.22Z"/><ellipse class="cls-1" cx="146.98" cy="285.38" rx="48.83" ry="28.19"/><g id="Coin"><ellipse class="cls-9" cx="151.86" cy="278.03" rx="48.83" ry="28.19"/><polygon class="cls-9" points="103.04 278.46 103.04 265.62 112.69 274.21 103.04 278.46"/><polygon class="cls-9" points="200.69 265.95 200.69 278.03 195.76 283.27 193.34 269.44 200.69 265.95"/><ellipse class="cls-10" cx="151.86" cy="265.95" rx="48.83" ry="28.19"/><path class="cls-11" d="M186.76,266.83c-.5,4.74-3.88,9.42-10.18,13.06-13.65,7.88-35.79,7.88-49.44,0-6.29-3.64-9.68-8.32-10.16-13.06-.59-5.56,2.8-11.24,10.16-15.48,13.65-7.89,35.79-7.89,49.44,0C183.94,255.59,187.34,261.27,186.76,266.83Z"/><path class="cls-12" d="M186.76,266.83c-.5,4.74-3.88,9.42-10.18,13.06-13.65,7.88-35.79,7.88-49.44,0-6.29-3.64-9.68-8.32-10.16-13.06.48-4.75,3.87-9.43,10.16-13.07,13.65-7.89,35.79-7.89,49.44,0C182.88,257.4,186.26,262.08,186.76,266.83Z"/><path class="cls-11" d="M151.35,260.22a8,8,0,0,0-1.28.1c-.58.09-1.22.2-1.93.35s-1.46.34-2.23.57a15.05,15.05,0,0,0-2.19.84l5.62,3.24,1-.36c1.43-.47,2.78-.88,4-1.21a19,19,0,0,1,3.64-.6,12.7,12.7,0,0,1,3.34.23,10.75,10.75,0,0,1,3.2,1.24,6.43,6.43,0,0,1,2.42,2.13,2.83,2.83,0,0,1,.35,2.19,4.85,4.85,0,0,1-1.31,2.17,13.77,13.77,0,0,1-2.57,2l3.57,2.06-1.94,1.13-3.6-2.08a30,30,0,0,1-5.36,2,35.35,35.35,0,0,1-5.91,1.11L148.33,274a15.13,15.13,0,0,0,1.57-.12,23.32,23.32,0,0,0,2.36-.4c.86-.19,1.78-.42,2.74-.7a19.36,19.36,0,0,0,2.74-1l-5.58-3.23-.73.26-.76.23c-1.41.46-2.7.82-3.87,1.09a17.44,17.44,0,0,1-3.29.44,11.3,11.3,0,0,1-2.9-.27,10.27,10.27,0,0,1-2.7-1.09,6.93,6.93,0,0,1-2.34-2,3.43,3.43,0,0,1-.63-2.16,4,4,0,0,1,.93-2.18,9.8,9.8,0,0,1,2.27-2.07l-3.31-1.91,1.95-1.12,3.27,1.89a24.21,24.21,0,0,1,4.82-1.77,34.9,34.9,0,0,1,4.82-.87Zm-9.54,5.89a4.11,4.11,0,0,0,2.43.52,16.59,16.59,0,0,0,3.34-.75l-5.25-3C140.4,264.11,140.23,265.19,141.81,266.11Zm18.43,1.53a4.25,4.25,0,0,0-2.63-.47A21.73,21.73,0,0,0,154,268l5.22,3C161.4,269.63,161.76,268.52,160.24,267.64Z"/><path class="cls-11" d="M148.33,274c0-.13,0-1.89,0-1.89l2.14,1.38-.93,1.43Z"/><polygon class="cls-11" points="167.03 275.19 167.03 273.3 162.38 273.65 165.05 275.47 167.03 275.19"/><polygon class="cls-11" points="167.42 268.24 167.42 266.33 163.94 267.59 167.42 268.24"/><path class="cls-11" d="M153,268.14l1.15-1.11,4.08,2.82-.25.83s-3.05-1.28-3.15-1.35S153,268.14,153,268.14Z"/><path class="cls-11" d="M142.34,262.18l5.42,3.06,1.1-.8s-.68-.78-.73-.85a6.88,6.88,0,0,0-1.68-1.41c-.41-.08-3-1.23-3-1.23Z"/><polygon class="cls-11" points="151.35 260.22 151.35 258.33 148.86 257.52 148.33 259 148.46 259.68 151.35 260.22"/><polygon class="cls-11" points="134.83 258.85 134.83 256.96 137.71 257.27 136.78 259.11 134.83 258.85"/><path class="cls-11" d="M134.93,265.28s0-2,0-2h3.3l-.81,1.76L136,266.65Z"/><path class="cls-13" d="M151.35,258.33a8,8,0,0,0-1.28.1c-.58.08-1.22.2-1.93.35s-1.46.34-2.23.57a16.27,16.27,0,0,0-2.19.83l5.62,3.24,1-.35c1.43-.48,2.78-.88,4-1.21a19,19,0,0,1,3.64-.6,13.14,13.14,0,0,1,3.34.22,10.78,10.78,0,0,1,3.2,1.25,6.43,6.43,0,0,1,2.42,2.13,2.83,2.83,0,0,1,.35,2.19,4.82,4.82,0,0,1-1.31,2.16,13.39,13.39,0,0,1-2.57,2L167,273.3l-1.94,1.12-3.6-2.08a29.24,29.24,0,0,1-5.36,2,35.33,35.33,0,0,1-5.91,1.1l-1.88-3.37a15.13,15.13,0,0,0,1.57-.12c.71-.08,1.49-.22,2.36-.4s1.78-.43,2.74-.71a19.36,19.36,0,0,0,2.74-1l-5.58-3.22-.73.25-.76.24q-2.11.69-3.87,1.08a16.66,16.66,0,0,1-3.29.44,11.3,11.3,0,0,1-2.9-.27,9.63,9.63,0,0,1-2.7-1.09,6.92,6.92,0,0,1-2.34-2,3.43,3.43,0,0,1-.63-2.16,4.06,4.06,0,0,1,.93-2.19,10,10,0,0,1,2.27-2.06L134.83,257l1.95-1.13,3.27,1.9a24.21,24.21,0,0,1,4.82-1.77,34.9,34.9,0,0,1,4.82-.87Zm-9.54,5.88a4,4,0,0,0,2.43.53,16.59,16.59,0,0,0,3.34-.75l-5.25-3Q139.44,262.84,141.81,264.21Zm18.43,1.54a4.18,4.18,0,0,0-2.63-.47,20.78,20.78,0,0,0-3.66.81l5.22,3Q162.52,267.06,160.24,265.75Z"/></g><g id="Coin-2" data-name="Coin"><ellipse class="cls-9" cx="151.86" cy="262.22" rx="48.83" ry="28.19"/><polygon class="cls-9" points="103.04 262.64 103.04 249.8 112.69 258.39 103.04 262.64"/><polygon class="cls-9" points="200.69 250.14 200.69 262.22 195.76 267.45 193.34 253.62 200.69 250.14"/><ellipse class="cls-10" cx="151.86" cy="250.14" rx="48.83" ry="28.19"/><path class="cls-11" d="M186.76,251c-.5,4.75-3.88,9.42-10.18,13.06-13.65,7.88-35.79,7.88-49.44,0-6.29-3.64-9.68-8.31-10.16-13.06-.59-5.56,2.8-11.24,10.16-15.48,13.65-7.89,35.79-7.89,49.44,0C183.94,239.77,187.34,245.45,186.76,251Z"/><path class="cls-12" d="M186.76,251c-.5,4.75-3.88,9.42-10.18,13.06-13.65,7.88-35.79,7.88-49.44,0-6.29-3.64-9.68-8.31-10.16-13.06.48-4.75,3.87-9.42,10.16-13.06,13.65-7.89,35.79-7.89,49.44,0C182.88,241.59,186.26,246.26,186.76,251Z"/><path class="cls-11" d="M151.35,244.4a8.24,8.24,0,0,0-1.28.11c-.58.08-1.22.19-1.93.34s-1.46.35-2.23.58a15,15,0,0,0-2.19.83l5.62,3.24,1-.35c1.43-.48,2.78-.88,4-1.21a19,19,0,0,1,3.64-.6,12.7,12.7,0,0,1,3.34.22,10.78,10.78,0,0,1,3.2,1.25,6.42,6.42,0,0,1,2.42,2.12,2.86,2.86,0,0,1,.35,2.2,4.82,4.82,0,0,1-1.31,2.16,13.79,13.79,0,0,1-2.57,2l3.57,2.06-1.94,1.12-3.6-2.08a30,30,0,0,1-5.36,2,36.37,36.37,0,0,1-5.91,1.1l-1.88-3.37a15.13,15.13,0,0,0,1.57-.12c.71-.09,1.49-.22,2.36-.41s1.78-.42,2.74-.7a19.36,19.36,0,0,0,2.74-1l-5.58-3.22-.73.25-.76.23a39.22,39.22,0,0,1-3.87,1.09,17.44,17.44,0,0,1-3.29.44,11.3,11.3,0,0,1-2.9-.27,9.94,9.94,0,0,1-2.7-1.09,6.92,6.92,0,0,1-2.34-2,3.48,3.48,0,0,1-.63-2.17,4,4,0,0,1,.93-2.18,9.78,9.78,0,0,1,2.27-2.06L134.83,243l1.95-1.13,3.27,1.89a24.21,24.21,0,0,1,4.82-1.77,36.46,36.46,0,0,1,4.82-.87Zm-9.54,5.89a4,4,0,0,0,2.43.52,15.31,15.31,0,0,0,3.34-.75l-5.25-3Q139.44,248.92,141.81,250.29Zm18.43,1.54a4.12,4.12,0,0,0-2.63-.47,21.58,21.58,0,0,0-3.66.8l5.22,3Q162.52,253.14,160.24,251.83Z"/><path class="cls-11" d="M148.33,258.18c0-.14,0-1.9,0-1.9l2.14,1.38-.93,1.44Z"/><polygon class="cls-11" points="167.03 259.38 167.03 257.48 162.38 257.84 165.05 259.66 167.03 259.38"/><polygon class="cls-11" points="167.42 252.43 167.42 250.51 163.94 251.77 167.42 252.43"/><path class="cls-11" d="M153,252.33l1.15-1.11,4.08,2.82-.25.83s-3.05-1.29-3.15-1.36S153,252.33,153,252.33Z"/><path class="cls-11" d="M142.34,246.36l5.42,3.07,1.1-.8s-.68-.78-.73-.86a7.11,7.11,0,0,0-1.68-1.41c-.41-.08-3-1.23-3-1.23Z"/><polygon class="cls-11" points="151.35 244.41 151.35 242.51 148.86 241.7 148.33 243.19 148.46 243.87 151.35 244.41"/><polygon class="cls-11" points="134.83 243.04 134.83 241.14 137.71 241.45 136.78 243.29 134.83 243.04"/><path class="cls-11" d="M134.93,249.46s0-2,0-2h3.3l-.81,1.76L136,250.83Z"/><path class="cls-13" d="M151.35,242.51a8,8,0,0,0-1.28.1c-.58.09-1.22.2-1.93.35s-1.46.34-2.23.57a15.05,15.05,0,0,0-2.19.84l5.62,3.24,1-.36c1.43-.47,2.78-.88,4-1.21a19,19,0,0,1,3.64-.6,12.7,12.7,0,0,1,3.34.23,10.75,10.75,0,0,1,3.2,1.24A6.43,6.43,0,0,1,167,249a2.83,2.83,0,0,1,.35,2.19A4.85,4.85,0,0,1,166,253.4a13.37,13.37,0,0,1-2.57,2l3.57,2.06-1.94,1.13-3.6-2.08a30,30,0,0,1-5.36,2,35.35,35.35,0,0,1-5.91,1.11l-1.88-3.38a15.13,15.13,0,0,0,1.57-.12,23.32,23.32,0,0,0,2.36-.4c.86-.19,1.78-.42,2.74-.7a19.36,19.36,0,0,0,2.74-1l-5.58-3.23-.73.26-.76.23c-1.41.46-2.7.82-3.87,1.09a17.44,17.44,0,0,1-3.29.44,11.3,11.3,0,0,1-2.9-.27,10.27,10.27,0,0,1-2.7-1.09,6.93,6.93,0,0,1-2.34-2,3.43,3.43,0,0,1-.63-2.16,4,4,0,0,1,.93-2.18,9.8,9.8,0,0,1,2.27-2.07l-3.31-1.91,1.95-1.12,3.27,1.89a24.21,24.21,0,0,1,4.82-1.77,34.9,34.9,0,0,1,4.82-.87Zm-9.54,5.89a4.11,4.11,0,0,0,2.43.52,15.92,15.92,0,0,0,3.34-.75l-5.25-3C140.4,246.4,140.23,247.48,141.81,248.4Zm18.43,1.53a4.25,4.25,0,0,0-2.63-.47,21.73,21.73,0,0,0-3.66.81l5.22,3C161.4,251.92,161.76,250.81,160.24,249.93Z"/></g><g id="Coin-3" data-name="Coin"><ellipse class="cls-9" cx="155.02" cy="244.29" rx="48.83" ry="28.19"/><polygon class="cls-9" points="106.21 244.72 106.21 231.87 115.85 240.47 106.21 244.72"/><polygon class="cls-9" points="203.85 232.21 203.85 244.29 198.92 249.53 196.5 235.7 203.85 232.21"/><ellipse class="cls-10" cx="155.02" cy="232.21" rx="48.83" ry="28.19"/><path class="cls-11" d="M189.92,233.08c-.5,4.75-3.88,9.43-10.17,13.07-13.66,7.87-35.79,7.87-49.45,0-6.29-3.64-9.67-8.32-10.16-13.07-.59-5.55,2.81-11.23,10.16-15.47,13.66-7.89,35.79-7.89,49.45,0C187.1,221.85,190.5,227.53,189.92,233.08Z"/><path class="cls-12" d="M189.92,233.08c-.5,4.75-3.88,9.43-10.17,13.07-13.66,7.87-35.79,7.87-49.45,0-6.29-3.64-9.67-8.32-10.16-13.07.49-4.74,3.87-9.42,10.16-13.06,13.66-7.89,35.79-7.89,49.45,0C186,223.66,189.42,228.34,189.92,233.08Z"/><path class="cls-11" d="M154.51,226.48a8,8,0,0,0-1.28.1c-.57.08-1.22.2-1.93.35s-1.46.34-2.22.57a16.94,16.94,0,0,0-2.2.83l5.62,3.25,1-.36c1.42-.47,2.77-.88,4-1.21a18.81,18.81,0,0,1,3.63-.6,12.8,12.8,0,0,1,3.35.23,10.7,10.7,0,0,1,3.19,1.24,6.43,6.43,0,0,1,2.42,2.13,2.88,2.88,0,0,1,.36,2.19,5,5,0,0,1-1.32,2.17,14,14,0,0,1-2.56,2l3.57,2.06-1.95,1.13-3.6-2.08a30,30,0,0,1-5.36,2,35.05,35.05,0,0,1-5.9,1.11l-1.89-3.38a15.47,15.47,0,0,0,1.58-.12,23.64,23.64,0,0,0,2.35-.4c.87-.19,1.78-.42,2.74-.7a20.84,20.84,0,0,0,2.75-1l-5.59-3.22-.73.25-.76.24c-1.41.46-2.69.82-3.86,1.08a17.71,17.71,0,0,1-3.3.45,11,11,0,0,1-2.9-.28,9.9,9.9,0,0,1-2.7-1.08,6.9,6.9,0,0,1-2.33-2,3.31,3.31,0,0,1-.63-2.16,4.07,4.07,0,0,1,.92-2.19A10,10,0,0,1,141.3,227L138,225.11l1.95-1.12,3.28,1.89a23.77,23.77,0,0,1,4.82-1.77,34.37,34.37,0,0,1,4.82-.87ZM145,232.36a4.06,4.06,0,0,0,2.43.53,16.66,16.66,0,0,0,3.35-.75l-5.26-3Q142.6,231,145,232.36Zm18.44,1.54a4.28,4.28,0,0,0-2.63-.47,20.87,20.87,0,0,0-3.67.81l5.22,3Q165.68,235.21,163.41,233.9Z"/><path class="cls-11" d="M151.49,240.25c.06-.14,0-1.89,0-1.89l2.15,1.38-.93,1.43Z"/><polygon class="cls-11" points="170.19 241.45 170.19 239.56 165.54 239.91 168.21 241.73 170.19 241.45"/><polygon class="cls-11" points="170.58 234.5 170.58 232.59 167.1 233.85 170.58 234.5"/><path class="cls-11" d="M156.18,234.4l1.16-1.11,4.08,2.82-.26.83s-3-1.28-3.14-1.36Z"/><path class="cls-11" d="M145.51,228.43l5.41,3.07,1.11-.8s-.68-.78-.73-.86a7.43,7.43,0,0,0-1.69-1.41c-.4-.07-3-1.22-3-1.22Z"/><polygon class="cls-11" points="154.51 226.48 154.51 224.59 152.03 223.78 151.49 225.26 151.62 225.94 154.51 226.48"/><polygon class="cls-11" points="137.99 225.11 137.99 223.22 140.88 223.53 139.94 225.36 137.99 225.11"/><path class="cls-11" d="M138.1,231.54v-2h3.3l-.8,1.76-1.44,1.58Z"/><path class="cls-13" d="M154.51,224.59a6.93,6.93,0,0,0-1.28.1c-.57.08-1.22.2-1.93.35s-1.46.34-2.22.57a16.94,16.94,0,0,0-2.2.83l5.62,3.24,1-.35c1.42-.48,2.77-.88,4-1.21a18.81,18.81,0,0,1,3.63-.6,12.8,12.8,0,0,1,3.35.22,10.73,10.73,0,0,1,3.19,1.25,6.43,6.43,0,0,1,2.42,2.13,2.88,2.88,0,0,1,.36,2.19,4.94,4.94,0,0,1-1.32,2.16,13.63,13.63,0,0,1-2.56,2l3.57,2.06-1.95,1.12-3.6-2.08a30,30,0,0,1-5.36,2,36.06,36.06,0,0,1-5.9,1.1l-1.89-3.37a15.47,15.47,0,0,0,1.58-.12c.7-.08,1.48-.22,2.35-.41s1.78-.42,2.74-.7a19.49,19.49,0,0,0,2.75-1l-5.59-3.22-.73.25-.76.23a39.09,39.09,0,0,1-3.86,1.09,17.65,17.65,0,0,1-3.3.44,11.39,11.39,0,0,1-2.9-.27,9.63,9.63,0,0,1-2.7-1.09,6.77,6.77,0,0,1-2.33-2,3.32,3.32,0,0,1-.63-2.17,4,4,0,0,1,.92-2.18,10,10,0,0,1,2.27-2.06L138,223.22l1.95-1.13,3.28,1.9a22.63,22.63,0,0,1,4.82-1.77,36,36,0,0,1,4.82-.88ZM145,230.47a4,4,0,0,0,2.43.52,15.38,15.38,0,0,0,3.35-.75l-5.26-3Q142.6,229.1,145,230.47ZM163.41,232a4.21,4.21,0,0,0-2.63-.47,21.67,21.67,0,0,0-3.67.8l5.22,3Q165.68,233.32,163.41,232Z"/></g><g id="Coin-4" data-name="Coin"><ellipse class="cls-9" cx="153.97" cy="226.37" rx="48.83" ry="28.19"/><polygon class="cls-9" points="105.15 226.79 105.15 213.95 114.8 222.54 105.15 226.79"/><polygon class="cls-9" points="202.8 214.29 202.8 226.37 197.87 231.6 195.45 217.77 202.8 214.29"/><ellipse class="cls-10" cx="153.97" cy="214.29" rx="48.83" ry="28.19"/><path class="cls-11" d="M188.87,215.16c-.5,4.75-3.88,9.42-10.18,13.06-13.65,7.88-35.79,7.88-49.44,0-6.3-3.64-9.68-8.31-10.16-13.06-.59-5.56,2.8-11.24,10.16-15.48,13.65-7.89,35.79-7.89,49.44,0C186.05,203.92,189.45,209.6,188.87,215.16Z"/><path class="cls-12" d="M188.87,215.16c-.5,4.75-3.88,9.42-10.18,13.06-13.65,7.88-35.79,7.88-49.44,0-6.3-3.64-9.68-8.31-10.16-13.06.48-4.75,3.86-9.43,10.16-13.06,13.65-7.89,35.79-7.89,49.44,0C185,205.73,188.37,210.41,188.87,215.16Z"/><path class="cls-11" d="M153.46,208.55a8.24,8.24,0,0,0-1.28.11c-.58.08-1.22.19-1.94.34s-1.45.34-2.22.57a16.29,16.29,0,0,0-2.19.84l5.61,3.24,1-.35c1.43-.48,2.78-.88,4-1.21a19,19,0,0,1,3.64-.6,12.73,12.73,0,0,1,3.34.22,10.78,10.78,0,0,1,3.2,1.25,6.41,6.41,0,0,1,2.42,2.12,2.86,2.86,0,0,1,.35,2.2,4.82,4.82,0,0,1-1.31,2.16,13.68,13.68,0,0,1-2.57,2l3.57,2.07-1.94,1.12-3.61-2.08a28.85,28.85,0,0,1-5.35,2,35.35,35.35,0,0,1-5.91,1.11l-1.88-3.37a15.13,15.13,0,0,0,1.57-.12c.71-.09,1.49-.22,2.36-.41s1.78-.42,2.74-.7a19.36,19.36,0,0,0,2.74-1l-5.58-3.22-.73.25-.76.23c-1.41.46-2.7.83-3.87,1.09a17.55,17.55,0,0,1-3.29.44,11.43,11.43,0,0,1-2.91-.27,9.88,9.88,0,0,1-2.69-1.09,6.92,6.92,0,0,1-2.34-2,3.48,3.48,0,0,1-.63-2.17,4,4,0,0,1,.92-2.18,10,10,0,0,1,2.28-2.06l-3.31-1.91,1.94-1.13,3.28,1.89a24.21,24.21,0,0,1,4.82-1.77,36.46,36.46,0,0,1,4.82-.87Zm-9.55,5.89a4.08,4.08,0,0,0,2.44.52,15.31,15.31,0,0,0,3.34-.75l-5.26-3C142.51,212.44,142.33,213.53,143.91,214.44ZM162.35,216a4.18,4.18,0,0,0-2.63-.46,21.67,21.67,0,0,0-3.67.8l5.23,3Q164.63,217.29,162.35,216Z"/><path class="cls-11" d="M150.44,222.33c.05-.14,0-1.9,0-1.9l2.14,1.38-.93,1.44Z"/><polygon class="cls-11" points="169.13 223.53 169.13 221.63 164.49 221.99 167.16 223.81 169.13 223.53"/><polygon class="cls-11" points="169.53 216.58 169.53 214.66 166.05 215.92 169.53 216.58"/><path class="cls-11" d="M155.12,216.48l1.16-1.11,4.08,2.82-.25.83s-3.05-1.29-3.15-1.36S155.12,216.48,155.12,216.48Z"/><path class="cls-11" d="M144.45,210.51l5.41,3.07,1.11-.8s-.68-.79-.73-.86a7,7,0,0,0-1.69-1.41c-.4-.08-3-1.23-3-1.23Z"/><polygon class="cls-11" points="153.46 208.55 153.46 206.66 150.97 205.85 150.44 207.34 150.57 208.02 153.46 208.55"/><polygon class="cls-11" points="136.94 207.19 136.94 205.29 139.82 205.6 138.89 207.44 136.94 207.19"/><path class="cls-11" d="M137,213.61v-2h3.31l-.81,1.76L138.11,215Z"/><path class="cls-13" d="M153.46,206.66a8,8,0,0,0-1.28.1c-.58.09-1.22.2-1.94.35s-1.45.34-2.22.57a15.05,15.05,0,0,0-2.19.84l5.61,3.24,1-.36c1.43-.47,2.78-.88,4-1.21a19,19,0,0,1,3.64-.6,12.73,12.73,0,0,1,3.34.23,10.75,10.75,0,0,1,3.2,1.24,6.51,6.51,0,0,1,2.42,2.13,2.83,2.83,0,0,1,.35,2.19,4.85,4.85,0,0,1-1.31,2.17,14.11,14.11,0,0,1-2.57,2l3.57,2.06-1.94,1.13-3.61-2.08a29.58,29.58,0,0,1-5.35,2,35.35,35.35,0,0,1-5.91,1.11l-1.88-3.38a15.13,15.13,0,0,0,1.57-.12,23.32,23.32,0,0,0,2.36-.4c.86-.19,1.78-.42,2.74-.7a19.36,19.36,0,0,0,2.74-1L154.27,215l-.73.26-.76.23c-1.41.46-2.7.82-3.87,1.09a17.55,17.55,0,0,1-3.29.44,11.43,11.43,0,0,1-2.91-.27,10.21,10.21,0,0,1-2.69-1.09,6.93,6.93,0,0,1-2.34-2,3.43,3.43,0,0,1-.63-2.16,4,4,0,0,1,.92-2.18,10.07,10.07,0,0,1,2.28-2.07l-3.31-1.91,1.94-1.12,3.28,1.89a24.21,24.21,0,0,1,4.82-1.77,34.9,34.9,0,0,1,4.82-.87Zm-9.55,5.89a4.16,4.16,0,0,0,2.44.52,16.59,16.59,0,0,0,3.34-.75l-5.26-3C142.51,210.55,142.33,211.63,143.91,212.55Zm18.44,1.53a4.25,4.25,0,0,0-2.63-.47,21.82,21.82,0,0,0-3.67.81l5.23,3C163.51,216.07,163.87,215,162.35,214.08Z"/></g><ellipse class="cls-1" cx="364.04" cy="461.2" rx="48.83" ry="28.19"/><g id="Coin-5" data-name="Coin"><ellipse class="cls-9" cx="369.82" cy="455.64" rx="48.83" ry="28.19"/><polygon class="cls-9" points="321.01 456.07 321.01 443.22 330.65 451.82 321.01 456.07"/><polygon class="cls-9" points="418.65 443.56 418.65 455.64 413.72 460.88 411.31 447.05 418.65 443.56"/><ellipse class="cls-10" cx="369.82" cy="443.56" rx="48.83" ry="28.19"/><path class="cls-11" d="M404.72,444.43c-.49,4.75-3.88,9.43-10.17,13.07-13.66,7.87-35.79,7.87-49.45,0-6.29-3.64-9.67-8.32-10.16-13.07-.59-5.55,2.81-11.23,10.16-15.47,13.66-7.89,35.79-7.89,49.45,0C401.91,433.2,405.3,438.88,404.72,444.43Z"/><path class="cls-12" d="M404.72,444.43c-.49,4.75-3.88,9.43-10.17,13.07-13.66,7.87-35.79,7.87-49.45,0-6.29-3.64-9.67-8.32-10.16-13.07.49-4.74,3.87-9.42,10.16-13.06,13.66-7.89,35.79-7.89,49.45,0C400.84,435,404.23,439.69,404.72,444.43Z"/><path class="cls-11" d="M369.31,437.83a8,8,0,0,0-1.28.1c-.57.08-1.22.2-1.93.35s-1.46.34-2.22.57a16.94,16.94,0,0,0-2.2.83l5.62,3.25,1-.36c1.42-.47,2.77-.88,4-1.21a18.81,18.81,0,0,1,3.63-.6,12.8,12.8,0,0,1,3.35.23,10.43,10.43,0,0,1,3.19,1.24,6.43,6.43,0,0,1,2.42,2.13,2.88,2.88,0,0,1,.36,2.19,4.93,4.93,0,0,1-1.32,2.17,13.68,13.68,0,0,1-2.56,2L385,452.8,383,453.93l-3.6-2.08a29.68,29.68,0,0,1-5.36,2,34.06,34.06,0,0,1-5.9,1.1l-1.89-3.37a15.47,15.47,0,0,0,1.58-.12,23.16,23.16,0,0,0,2.35-.4c.87-.19,1.78-.42,2.74-.71a19.49,19.49,0,0,0,2.75-1l-5.59-3.22-.73.25-.76.24c-1.41.46-2.69.82-3.86,1.08a16.86,16.86,0,0,1-3.3.44,10.55,10.55,0,0,1-2.9-.27,9.72,9.72,0,0,1-2.69-1.08,6.84,6.84,0,0,1-2.34-2,3.31,3.31,0,0,1-.63-2.16,4.07,4.07,0,0,1,.92-2.19,10,10,0,0,1,2.27-2.06l-3.31-1.91,1.95-1.12,3.28,1.89a23.77,23.77,0,0,1,4.82-1.77,34.37,34.37,0,0,1,4.82-.87Zm-9.54,5.88a4.07,4.07,0,0,0,2.43.53,16.66,16.66,0,0,0,3.35-.75l-5.26-3Q357.4,442.34,359.77,443.71Zm18.44,1.54a4.21,4.21,0,0,0-2.63-.47,20.87,20.87,0,0,0-3.67.81l5.22,3Q380.48,446.56,378.21,445.25Z"/><path class="cls-11" d="M366.29,451.6c.06-.14,0-1.89,0-1.89l2.15,1.38-.93,1.43Z"/><polygon class="cls-11" points="384.99 452.8 384.99 450.91 380.34 451.26 383.01 453.08 384.99 452.8"/><polygon class="cls-11" points="385.38 445.85 385.38 443.94 381.9 445.2 385.38 445.85"/><path class="cls-11" d="M371,445.75l1.16-1.11,4.08,2.82-.26.83s-3-1.28-3.14-1.36Z"/><path class="cls-11" d="M360.31,439.78l5.41,3.07,1.11-.8s-.68-.78-.73-.86a7.43,7.43,0,0,0-1.69-1.41c-.4-.07-3-1.22-3-1.22Z"/><polygon class="cls-11" points="369.31 437.83 369.31 435.94 366.83 435.13 366.29 436.61 366.42 437.29 369.31 437.83"/><polygon class="cls-11" points="352.79 436.46 352.79 434.57 355.68 434.88 354.74 436.71 352.79 436.46"/><path class="cls-11" d="M352.9,442.89v-2h3.3l-.8,1.76L354,444.25Z"/><path class="cls-13" d="M369.31,435.94a6.93,6.93,0,0,0-1.28.1c-.57.08-1.22.19-1.93.34s-1.46.35-2.22.58a16.94,16.94,0,0,0-2.2.83L367.3,441l1-.35c1.42-.48,2.77-.88,4-1.21a18.81,18.81,0,0,1,3.63-.6,12.8,12.8,0,0,1,3.35.22,10.73,10.73,0,0,1,3.19,1.25,6.35,6.35,0,0,1,2.42,2.13,2.88,2.88,0,0,1,.36,2.19,4.85,4.85,0,0,1-1.32,2.16,13.71,13.71,0,0,1-2.56,2l3.57,2.06L383,452l-3.6-2.08a29.69,29.69,0,0,1-5.36,2,36.06,36.06,0,0,1-5.9,1.1l-1.89-3.37a15.47,15.47,0,0,0,1.58-.12,23.4,23.4,0,0,0,2.35-.41c.87-.18,1.78-.42,2.74-.7a19.49,19.49,0,0,0,2.75-1l-5.59-3.22-.73.25-.76.23a39.09,39.09,0,0,1-3.86,1.09,17.65,17.65,0,0,1-3.3.44,11.39,11.39,0,0,1-2.9-.27,9.76,9.76,0,0,1-2.69-1.09,6.72,6.72,0,0,1-2.34-2,3.34,3.34,0,0,1-.63-2.17,4,4,0,0,1,.92-2.18,10,10,0,0,1,2.27-2.06l-3.31-1.91,1.95-1.13,3.28,1.9a23.21,23.21,0,0,1,4.82-1.78,37.54,37.54,0,0,1,4.82-.87Zm-9.54,5.88a4.07,4.07,0,0,0,2.43.52,15.38,15.38,0,0,0,3.35-.75l-5.26-3Q357.4,440.45,359.77,441.82Zm18.44,1.54a4.21,4.21,0,0,0-2.63-.47,21.67,21.67,0,0,0-3.67.8l5.22,3Q380.48,444.67,378.21,443.36Z"/></g><g id="Coin-6" data-name="Coin"><ellipse class="cls-9" cx="369.82" cy="439.83" rx="48.83" ry="28.19"/><polygon class="cls-9" points="321.01 440.25 321.01 427.41 330.65 436 321.01 440.25"/><polygon class="cls-9" points="418.65 427.74 418.65 439.83 413.72 445.06 411.31 431.23 418.65 427.74"/><ellipse class="cls-10" cx="369.82" cy="427.74" rx="48.83" ry="28.19"/><path class="cls-11" d="M404.72,428.62c-.49,4.75-3.88,9.42-10.17,13.06-13.66,7.88-35.79,7.88-49.45,0-6.29-3.64-9.67-8.31-10.16-13.06-.59-5.56,2.81-11.24,10.16-15.48,13.66-7.89,35.79-7.89,49.45,0C401.91,417.38,405.3,423.06,404.72,428.62Z"/><path class="cls-12" d="M404.72,428.62c-.49,4.75-3.88,9.42-10.17,13.06-13.66,7.88-35.79,7.88-49.45,0-6.29-3.64-9.67-8.31-10.16-13.06.49-4.75,3.87-9.43,10.16-13.06,13.66-7.89,35.79-7.89,49.45,0C400.84,419.19,404.23,423.87,404.72,428.62Z"/><path class="cls-11" d="M369.31,422a8,8,0,0,0-1.28.1c-.57.09-1.22.2-1.93.35s-1.46.34-2.22.57a15.63,15.63,0,0,0-2.2.84l5.62,3.24,1-.36c1.42-.47,2.77-.87,4-1.21a18.81,18.81,0,0,1,3.63-.6,13.25,13.25,0,0,1,3.35.23,10.47,10.47,0,0,1,3.19,1.25,6.33,6.33,0,0,1,2.42,2.12,2.91,2.91,0,0,1,.36,2.2A4.85,4.85,0,0,1,384,432.9a13.28,13.28,0,0,1-2.56,2L385,437,383,438.11l-3.6-2.08a29,29,0,0,1-5.36,2,35.05,35.05,0,0,1-5.9,1.11l-1.89-3.37a13.52,13.52,0,0,0,1.58-.13,23.16,23.16,0,0,0,2.35-.4c.87-.19,1.78-.42,2.74-.7a19.49,19.49,0,0,0,2.75-1l-5.59-3.23-.73.26-.76.23c-1.41.46-2.69.83-3.86,1.09a17.65,17.65,0,0,1-3.3.44,11.39,11.39,0,0,1-2.9-.27,10.08,10.08,0,0,1-2.69-1.09,6.64,6.64,0,0,1-2.34-2,3.31,3.31,0,0,1-.63-2.16,4,4,0,0,1,.92-2.18,9.78,9.78,0,0,1,2.27-2.06l-3.31-1.92,1.95-1.12,3.28,1.89a23.77,23.77,0,0,1,4.82-1.77,34.37,34.37,0,0,1,4.82-.87Zm-9.54,5.89a4.07,4.07,0,0,0,2.43.52,15.38,15.38,0,0,0,3.35-.75l-5.26-3C358.36,425.9,358.19,427,359.77,427.9Zm18.44,1.53a4.28,4.28,0,0,0-2.63-.47,22.85,22.85,0,0,0-3.67.81l5.22,3Q380.48,430.75,378.21,429.43Z"/><path class="cls-11" d="M366.29,435.79c.06-.14,0-1.9,0-1.9l2.15,1.38-.93,1.43Z"/><polygon class="cls-11" points="384.99 436.98 384.99 435.09 380.34 435.45 383.01 437.26 384.99 436.98"/><polygon class="cls-11" points="385.38 430.03 385.38 428.12 381.9 429.38 385.38 430.03"/><path class="cls-11" d="M371,429.93l1.16-1.1,4.08,2.82-.26.83s-3-1.29-3.14-1.36S371,429.93,371,429.93Z"/><path class="cls-11" d="M360.31,424l5.41,3.07,1.11-.81s-.68-.78-.73-.85a7,7,0,0,0-1.69-1.41c-.4-.08-3-1.23-3-1.23Z"/><polygon class="cls-11" points="369.31 422.01 369.31 420.12 366.83 419.31 366.29 420.8 366.42 421.48 369.31 422.01"/><polygon class="cls-11" points="352.79 420.64 352.79 418.75 355.68 419.06 354.74 420.9 352.79 420.64"/><path class="cls-11" d="M352.9,427.07v-2h3.3l-.8,1.76L354,428.44Z"/><path class="cls-13" d="M369.31,420.12a8,8,0,0,0-1.28.1c-.57.08-1.22.2-1.93.35s-1.46.34-2.22.57a16.94,16.94,0,0,0-2.2.83l5.62,3.25,1-.36c1.42-.47,2.77-.88,4-1.21a18.81,18.81,0,0,1,3.63-.6,12.8,12.8,0,0,1,3.35.23,10.7,10.7,0,0,1,3.19,1.24,6.43,6.43,0,0,1,2.42,2.13,2.88,2.88,0,0,1,.36,2.19A4.93,4.93,0,0,1,384,431a13.68,13.68,0,0,1-2.56,2l3.57,2.06L383,436.22l-3.6-2.08a29.68,29.68,0,0,1-5.36,2,35.05,35.05,0,0,1-5.9,1.11l-1.89-3.38a15.47,15.47,0,0,0,1.58-.12,23.16,23.16,0,0,0,2.35-.4c.87-.19,1.78-.42,2.74-.7a20.84,20.84,0,0,0,2.75-1l-5.59-3.22-.73.25-.76.24c-1.41.46-2.69.82-3.86,1.08a17.71,17.71,0,0,1-3.3.45,11,11,0,0,1-2.9-.28,9.72,9.72,0,0,1-2.69-1.08,6.84,6.84,0,0,1-2.34-2,3.31,3.31,0,0,1-.63-2.16,4.07,4.07,0,0,1,.92-2.19,10,10,0,0,1,2.27-2.06l-3.31-1.91,1.95-1.12,3.28,1.89a23.77,23.77,0,0,1,4.82-1.77,34.37,34.37,0,0,1,4.82-.87ZM359.77,426a4.07,4.07,0,0,0,2.43.53,16.66,16.66,0,0,0,3.35-.75l-5.26-3Q357.4,424.63,359.77,426Zm18.44,1.54a4.21,4.21,0,0,0-2.63-.47,20.87,20.87,0,0,0-3.67.81l5.22,3Q380.48,428.85,378.21,427.54Z"/></g><polygon class="cls-14" points="300.81 269.58 282.97 258.99 283.09 153.55 300.93 164.14 300.81 269.58"/><path class="cls-9" d="M287.08,160.61c-21.53,13.39-38.73,43.77-38.73,68.86s17.2,35.62,38.73,24.16Z"/><polygon class="cls-9" points="287.07 160.6 297.65 166.64 289.08 184.84 279.55 176.61 287.07 160.6"/><path class="cls-9" d="M272.52,262.51c-.22-.1-14-8-14-8l7.37-5.88Z"/><path class="cls-10" d="M297.65,166.64c-21.52,13.4-38.72,43.78-38.72,68.87s17.2,35.61,38.72,24.16Z"/><path class="cls-12" d="M297.65,183c-15.2,9.73-27.26,31.23-27.26,49s12.06,25.35,27.26,17.53Z"/><path class="cls-13" d="M291.32,217.87a4.78,4.78,0,0,0,2.36.34,19.69,19.69,0,0,0,3.36-.6l.61-.14v-6.23a4.63,4.63,0,0,1-2,0c-.59-.16-.89-.74-.89-1.74a6.24,6.24,0,0,1,2.85-5v-5.28a22.3,22.3,0,0,0-3,2.54,19.6,19.6,0,0,0-2.75,3.51,18.5,18.5,0,0,0-1.82,4,14.39,14.39,0,0,0-.66,4.3,6.75,6.75,0,0,0,.48,2.82A2.87,2.87,0,0,0,291.32,217.87Z"/><path class="cls-13" d="M297.65,225.08a12.13,12.13,0,0,1-1.88.57,16.8,16.8,0,0,1-2.31.31,8.08,8.08,0,0,1-1.78-.09,3.76,3.76,0,0,1-1.05-.32l-2.31,6.54a11.43,11.43,0,0,0,4.57.06,18.47,18.47,0,0,0,4.76-1.55Z"/><path class="cls-1" d="M183.14,499,1.7,394.26c-2.52-1.45-2.2-4,.7-5.65l101.39-58.54c2.9-1.68,7.29-1.86,9.8-.41L295,434.42c2.51,1.45,2.2,4-.7,5.66L192.94,498.61C190,500.29,185.65,500.47,183.14,499Z"/><path class="cls-15" d="M300.93,430.51l-1.9.69L117.79,326.56c-2.51-1.45-6.9-1.27-9.8.4L6.6,385.5a6.66,6.66,0,0,0-1.16.84l-1.23-1v3.32h0a2.89,2.89,0,0,0,1.69,2.47L187.34,495.92c2.51,1.45,6.9,1.26,9.8-.41L298.53,437c1.64-1,2.45-2.17,2.4-3.31h0Z"/><path class="cls-16" d="M187.34,492.72,5.9,388c-2.52-1.45-2.2-4,.7-5.65L108,323.77c2.9-1.68,7.29-1.86,9.8-.41L299.23,428.12c2.52,1.45,2.2,4-.7,5.66L197.14,492.31C194.24,494,189.85,494.17,187.34,492.72Z"/><polygon class="cls-15" points="66.3 405.07 31.48 384.98 39.54 380.33 74.35 400.42 66.3 405.07"/><polygon class="cls-15" points="135.7 364.18 100.89 344.08 108.94 339.43 143.75 359.53 135.7 364.18"/><polygon class="cls-15" points="108.47 429.43 73.67 409.33 81.72 404.68 116.53 424.78 108.47 429.43"/><polygon class="cls-15" points="150.66 453.78 115.84 433.68 123.9 429.03 158.71 449.13 150.66 453.78"/><polygon class="cls-15" points="192.84 478.13 158.03 458.03 166.08 453.38 200.89 473.48 192.84 478.13"/><ellipse class="cls-17" cx="257.14" cy="429.02" rx="14.69" ry="8.48"/><ellipse class="cls-17" cx="245.76" cy="422.44" rx="14.69" ry="8.48"/></g></g></svg>