<svg xmlns="http://www.w3.org/2000/svg" viewBox="0 0 500 469.8"><defs><style>.cls-1{fill:#d6d8e5;opacity:0.4;}.cls-2{fill:#41538c;}.cls-3{fill:#263351;}.cls-4{fill:#314366;}.cls-5{fill:#8dbbff;}.cls-6{fill:#7faedd;}.cls-7{fill:#6f98c9;}.cls-8{fill:#fff;opacity:0.2;}.cls-9{fill:#acbad1;}.cls-10{fill:#99a9bf;}.cls-11{fill:#bcc0ce;}.cls-12{fill:#8c50ff;}.cls-13{fill:#ef990f;}.cls-14{fill:#dd8910;}.cls-15{fill:#fca70d;}.cls-16{fill:#ece8f9;}.cls-17{fill:#e1eaff;}.cls-18{fill:#d6dff2;}.cls-19{fill:#ffcea9;}.cls-20{fill:#ededed;}.cls-21{fill:#38226d;}.cls-22{fill:#9c73ff;}.cls-23{fill:#f4f4f4;}.cls-24{fill:#3a2c6d;}</style></defs><title>Science_SVG</title><g id="Слой_2" data-name="Слой 2"><g id="Слой_1-2" data-name="Слой 1"><polygon class="cls-1" points="364.56 276.51 152.46 398.97 0 310.95 212.42 188.68 364.56 276.51"/><polygon class="cls-2" points="373.72 257.63 161.62 380.1 9.16 292.08 221.58 169.8 373.72 257.63"/><polygon class="cls-3" points="373.72 271.17 161.62 393.63 161.62 380.1 373.72 257.64 373.72 271.17"/><polygon class="cls-4" points="161.62 393.63 9.16 305.62 9.16 292.09 161.62 380.1 161.62 393.63"/><polygon class="cls-2" points="153.21 336.47 59.25 282.22 118.64 247.93 212.59 302.18 153.21 336.47"/><polygon class="cls-3" points="212.6 312.45 153.21 346.74 153.21 336.5 212.6 302.21 212.6 312.45"/><polygon class="cls-4" points="153.21 346.74 59.25 292.49 59.25 282.26 153.21 336.5 153.21 346.74"/><polygon class="cls-5" points="147.81 313.83 90.75 280.89 124.03 261.68 181.09 294.62 147.81 313.83"/><polygon class="cls-6" points="147.81 317.88 90.75 284.94 90.75 280.82 147.81 313.76 147.81 317.88"/><polygon class="cls-7" points="181.09 298.67 147.81 317.88 147.81 313.76 181.09 294.55 181.09 298.67"/><ellipse class="cls-8" cx="136.12" cy="287.75" rx="14.19" ry="8.2"/><path class="cls-4" d="M199.71,203.63s18-32.65,3.64-70.6,16.13-34.22,16.13-34.22l32.44,30.24,5,86.17-24.37,25.29L199.3,228.07Z"/><path class="cls-2" d="M189,50.91s41.57,11.57,58,29.89-48.31,1.07-48.31,1.07Z"/><polygon class="cls-2" points="219.33 67.13 152.96 105.45 122.58 89.23 188.95 50.91 219.33 67.13"/><path class="cls-3" d="M251.28,257.64s25.92-64.58,17.17-128.28c-6.84-49.21-37.73-60.15-37.73-60.15s-8.75-3.83-15.58-4.1L168.92,91.24v64l46.22-26.67s27.06,12.57,15.58,59.6A643.52,643.52,0,0,1,214,252.39Z"/><path class="cls-4" d="M219.76,242.59l20.36-15.45-30.58-17.83-18.28-10.55c-4.1-2.37-11.12,5-11.12,11.74v49.73l35.51,20.68,29.4-31Z"/><path class="cls-3" d="M274.45,247l-58.8,34V231.17c0-6.7,7-14.11,11.12-11.74L245.05,230Z"/><ellipse class="cls-9" cx="232.52" cy="249.94" rx="15.25" ry="8.8" transform="translate(-100.2 326.33) rotate(-60)"/><ellipse class="cls-10" cx="232.52" cy="249.94" rx="7.62" ry="4.4" transform="translate(-100.2 326.33) rotate(-60)"/><ellipse class="cls-9" cx="185.91" cy="115.4" rx="15.25" ry="8.8" transform="translate(-6.99 218.7) rotate(-60)"/><ellipse class="cls-10" cx="185.91" cy="115.4" rx="7.62" ry="4.4" transform="translate(-6.99 218.7) rotate(-60)"/><path class="cls-4" d="M145.93,222.29V198H126.29v24.61h0c.07,1.39,1,2.77,2.86,3.84a15.4,15.4,0,0,0,13.9,0C145,225.27,146,223.78,145.93,222.29Z"/><ellipse class="cls-11" cx="136.11" cy="197.75" rx="9.83" ry="5.68"/><path class="cls-3" d="M155.76,201.38V152.73h0c.2-3-1.7-6.13-5.72-8.45-7.68-4.44-20.13-4.44-27.8,0-4,2.32-5.92,5.4-5.73,8.45h0v48.69a2,2,0,0,0,0,.35v.17h0c.15,2.79,2,5.55,5.73,7.68,7.68,4.43,20.12,4.43,27.8,0C154,207.35,155.86,204.36,155.76,201.38Z"/><path class="cls-4" d="M168.92,171.05l0-114-65.59-.58v114.6h0c0,4.85,3.2,9.7,9.61,13.4,12.81,7.39,33.58,7.39,46.4,0C165.72,180.75,168.92,175.9,168.92,171.05Z"/><ellipse class="cls-2" cx="136.12" cy="56.45" rx="32.81" ry="18.94"/><path class="cls-3" d="M152.09,55.72V16.19H120.17v40h0c.11,2.26,1.65,4.51,4.65,6.24,6.24,3.6,16.35,3.6,22.58,0C150.62,60.56,152.17,58.13,152.09,55.72Z"/><ellipse class="cls-5" cx="136.13" cy="15.85" rx="15.97" ry="9.22"/><path class="cls-4" d="M157.77,12.5v0l-1.38.82a13,13,0,0,0-3.32-3.41,15.43,15.43,0,0,0-1.64-1.06,21.76,21.76,0,0,0-2.87-1.39,35.19,35.19,0,0,0-24.88,0,23.65,23.65,0,0,0-2.86,1.39c-.44.26-.86.51-1.25.78a12.78,12.78,0,0,0-3.87,3.95l-1.23-1.1v5.2a8.17,8.17,0,0,0,1.58,4.71,14.75,14.75,0,0,0,4.77,4.13c8.45,4.89,22.16,4.89,30.61,0,4.23-2.44,6.35-5.64,6.35-8.84V12.5Zm-32.38-1c5.93-3.42,15.54-3.42,21.46,0a9.51,9.51,0,0,1,3.77,3.59l0,.1a5.23,5.23,0,0,1,.36,4.14l-13.21,3.14s-8.51-.62-9.69-.77a70.21,70.21,0,0,1-6.84-2.16,5.32,5.32,0,0,1,.34-4.45v0A9.54,9.54,0,0,1,125.39,11.51Z"/><path class="cls-3" d="M153.35,7.29l-.28,2.64-.55,5.17-1.85.1h-.12a.52.52,0,0,0,.07-.11,9.51,9.51,0,0,0-3.77-3.59c-5.92-3.42-15.53-3.42-21.46,0a9.54,9.54,0,0,0-3.75,3.57h0l-2.34-1,.29-4.4.13-2,4.39-3s6.48-2.72,6.83-2.78,13.1,1,13.1,1Z"/><path class="cls-2" d="M151.43,3.66c-8.45-4.88-22.16-4.88-30.61,0-4.24,2.44-6.35,5.64-6.35,8.84s2.11,6.39,6.35,8.83c8.45,4.89,22.16,4.89,30.61,0,4.23-2.44,6.34-5.61,6.34-8.81v0C157.77,9.3,155.66,6.1,151.43,3.66ZM121.63,15.1v0c-1.35-2.53-.66-5.34,2.06-7.59a11.14,11.14,0,0,1,1.71-1.17c5.93-3.43,15.54-3.43,21.46,0a11.66,11.66,0,0,1,1.71,1.17c2.74,2.25,3.42,5.08,2.06,7.62a.52.52,0,0,1-.07.11,9.64,9.64,0,0,1-3.7,3.48c-5.92,3.43-15.53,3.43-21.46,0A9.48,9.48,0,0,1,121.63,15.1Z"/><ellipse class="cls-8" cx="131.46" cy="13.92" rx="5.07" ry="2.93"/><ellipse class="cls-8" cx="142.6" cy="16.19" rx="3.05" ry="1.76"/><ellipse class="cls-1" cx="63.86" cy="444.48" rx="43.86" ry="25.32"/><path class="cls-12" d="M113.28,351.23H25.57s.3,74.37.07,88.48a15.23,15.23,0,0,0-.05,1.91,2.11,2.11,0,0,1,0,.3h0c.35,6.2,4.62,12.34,12.82,17.08,17.12,9.89,44.89,9.89,62,0,8.2-4.74,12.46-10.88,12.81-17.08h0Z"/><ellipse class="cls-12" cx="69.43" cy="350.4" rx="43.86" ry="25.32"/><path class="cls-13" d="M115.43,353.79a18.69,18.69,0,0,1-1.74,3.46,26.08,26.08,0,0,1-5,5.73c-.58.51-1.2,1-1.85,1.49a37.83,37.83,0,0,1-4.05,2.66c-.3.18-.6.35-.91.51-.62.35-1.27.68-1.92,1-1.58.77-3.23,1.48-4.93,2.11-.63.24-1.26.47-1.91.68-1.63.55-3.31,1-5,1.46-.57.15-1.16.28-1.74.41-1.68.37-3.38.69-5.1.94-.58.09-1.17.17-1.75.24-1.69.21-3.39.37-5.1.47-.58,0-1.16.07-1.75.08-1.69.08-3.39.09-5.09.05L65.77,375q-2.56-.12-5.1-.39c-.59-.07-1.17-.13-1.75-.22-1.72-.22-3.42-.5-5.09-.84l-1.75-.37q-2.61-.6-5.1-1.38l-1.75-.57c-1.75-.61-3.46-1.29-5.1-2.05q-.89-.4-1.74-.84-1.17-.58-2.28-1.23c-1-.58-1.93-1.17-2.82-1.78-.61-.41-1.19-.84-1.75-1.28a29,29,0,0,1-5.1-5,22.46,22.46,0,0,1-1.74-2.58c-5.42-9.46-1.62-20.29,11.41-27.81,18.4-10.62,48.23-10.62,66.63,0,5.18,3,8.89,6.49,11.16,10.23a19,19,0,0,1,1.53,3.11A16.21,16.21,0,0,1,115.43,353.79Z"/><path class="cls-13" d="M22.31,347.9c0-.25,0-13.55,0-13.55L38,341.12Z"/><polygon class="cls-13" points="116.55 333.63 116.53 347.25 108 354.52 102.78 342.03 116.55 333.63"/><path class="cls-14" d="M26.44,341.61v17.44a22.46,22.46,0,0,1-1.74-2.58V341.61Z"/><path class="cls-14" d="M33.29,347v18.34c-.61-.41-1.19-.84-1.75-1.28V347Z"/><path class="cls-14" d="M40.13,351.76V369.2q-.89-.4-1.74-.84v-16.6Z"/><path class="cls-14" d="M47,353.87v17.95l-1.75-.57V353.87Z"/><path class="cls-14" d="M53.83,356.22v17.35l-1.75-.37v-17Z"/><path class="cls-14" d="M60.67,358v16.67c-.59-.07-1.17-.13-1.75-.22V358Z"/><path class="cls-14" d="M67.52,358v17.12L65.77,375V358Z"/><path class="cls-14" d="M74.36,358v17c-.58,0-1.16.07-1.75.08V358Z"/><path class="cls-14" d="M81.21,357.32v16.92c-.58.09-1.17.17-1.75.24V357.32Z"/><path class="cls-14" d="M88.05,355.49v17.4c-.57.15-1.16.28-1.74.41V355.49Z"/><path class="cls-14" d="M95,353v17.73c-.63.24-1.26.47-1.91.68V353Z"/><path class="cls-14" d="M101.83,349.18v18.46c-.62.35-1.27.68-1.92,1V349.18Z"/><path class="cls-14" d="M108.64,345v18c-.58.51-1.2,1-1.85,1.49V345Z"/><path class="cls-14" d="M115.43,338.89v14.9a18.69,18.69,0,0,1-1.74,3.46V338.89Z"/><ellipse class="cls-15" cx="69.43" cy="333.63" rx="47.12" ry="27.2"/><path class="cls-16" d="M100.44,383.26c-17.13,9.89-44.9,9.89-62,0l-.8-.48-.17.1v34.66l1,.57c17.12,9.89,44.89,9.89,62,0l1-.58V382.89l-.17-.1Z"/><path class="cls-12" d="M96.38,392.84c-15.8,7.13-38.1,7.13-53.9,0v4.39c15.8,7.13,38.1,7.13,53.9,0Z"/><path class="cls-12" d="M76.9,414.4c-11.89,1.18-24.45-.48-34.42-5v4.38c10,4.5,22.53,6.16,34.42,5Z"/><path class="cls-12" d="M87.88,404.14c-14.65,3.92-32.26,2.94-45.4-3v4.39c13.14,5.92,30.75,6.9,45.4,3Z"/><ellipse class="cls-1" cx="410.55" cy="330.66" rx="86.89" ry="50.17"/><path class="cls-17" d="M499.35,319.24h0l-.05-.14a32.14,32.14,0,0,0-2.84-7.85L444.86,168.79h.2V99.35H385v69.44L333.64,311.36a31.85,31.85,0,0,0-2.78,7.74l-.05.14h0c-3.1,14.48,4.95,29.61,24.21,40.73,33.16,19.15,86.94,19.15,120.11,0C494.4,348.85,502.46,333.72,499.35,319.24Z"/><ellipse class="cls-15" cx="415.09" cy="318.47" rx="67" ry="38.68"/><polygon class="cls-15" points="348.4 314.74 372.28 244.45 457.52 244.45 481.78 314.74 348.4 314.74"/><ellipse class="cls-13" cx="414.9" cy="246.81" rx="42.81" ry="24.72"/><path class="cls-8" d="M414.75,168.38V330.66c-18.38,0-36.75-4.07-50.78-12.17-16.61-9.59-23.39-22.71-20.35-35.18l2-5.48,10.2-28.12s0,0,0,0l.45-1.27L385,168.79V102l29.69,13.16Z"/><ellipse class="cls-18" cx="415.09" cy="97.03" rx="31.33" ry="18.09"/><ellipse class="cls-9" cx="415.09" cy="97.03" rx="20.64" ry="8.53"/><circle class="cls-15" cx="409.63" cy="74.6" r="8.38"/><circle class="cls-8" cx="408.07" cy="72.68" r="4.08"/><circle class="cls-8" cx="412.47" cy="78.52" r="1.62"/><circle class="cls-15" cx="439.05" cy="47.47" r="12.58"/><circle class="cls-8" cx="436.71" cy="44.59" r="6.12"/><circle class="cls-8" cx="443.32" cy="53.36" r="2.43"/><circle class="cls-15" cx="402.83" cy="16.37" r="16.2"/><circle class="cls-8" cx="399.81" cy="12.67" r="7.88"/><circle class="cls-8" cx="408.32" cy="23.95" r="3.12"/><ellipse class="cls-1" cx="434.78" cy="445.87" rx="36.42" ry="21.03"/><g id="Men_1"><path id="_Контур_" data-name="&lt;Контур&gt;" class="cls-19" d="M464.89,285.7c.42,3.63,4.76,19.33,3.83,24.71S453,324.78,453,324.78l-2-9.21,8.21-8-2.22-15.25Z"/><path id="_Контур_2" data-name="&lt;Контур&gt;" class="cls-20" d="M453.42,270.23a6.49,6.49,0,0,1,8.26,2.49c2.18,3.62,4.45,16,4.65,18.13,0,0-3.06,4.23-7.65,3.52Z"/><path class="cls-21" d="M436.49,445.23a12.74,12.74,0,0,1-9.6-1.16c-2.31.07-14.86-5.3-16.57-.79-1.49,4,3.94,7.61,6.85,8.31,6.34,1.54,11,4.7,13.57,5.23,1.9.4,4.35.67,5.87-.82C438.42,454.21,438.26,447.59,436.49,445.23Z"/><path class="cls-22" d="M430.74,455.73c-2.54-.54-7.23-3.7-13.57-5.23-2.43-.59-6.63-3.26-7.05-6.43-.56,3.64,4.34,6.87,7.05,7.52,6.34,1.54,11,4.7,13.57,5.23,1.9.4,4.35.67,5.87-.82a3.84,3.84,0,0,0,.83-1.52A7.61,7.61,0,0,1,430.74,455.73Z"/><path class="cls-21" d="M456.84,436.09a12.69,12.69,0,0,1-9.6-1.16c-2.31.07-14.86-5.3-16.56-.79-1.5,3.95,3.94,7.61,6.84,8.31,6.34,1.54,11,4.7,13.57,5.24,1.9.4,4.36.66,5.87-.83C458.77,445.07,458.61,438.45,456.84,436.09Z"/><path class="cls-22" d="M451.09,446.59c-2.54-.54-7.23-3.7-13.57-5.23-2.43-.59-6.63-3.25-7-6.43-.56,3.64,4.34,6.87,7,7.52,6.34,1.54,11,4.7,13.57,5.24,1.9.4,4.36.66,5.87-.83a3.84,3.84,0,0,0,.83-1.52A7.61,7.61,0,0,1,451.09,446.59Z"/><path id="_Контур_3" data-name="&lt;Контур&gt;" class="cls-12" d="M457.09,402a75.68,75.68,0,0,0-2.9-13.74s.87-11.86,1.3-23.11c.49-12.76,4.92-24,1.42-34.17l-39.37,8.75s2.38,50.88,2.91,57a113.86,113.86,0,0,0,1.77,14.28c1.79,9.88,4.71,33.37,4.71,33.37,4.17,2.42,9.63,1.08,9.63,1.08s-.3-29.71-.57-36.83c-.32-8.69-.59-8-.59-8L436.7,379l.85-10.76s1.09,7.9,1.8,15c.62,6.15,2.11,11.72,3.77,23.17,1.44,9.94,3.77,29.91,3.77,29.91,4.17,2.42,9.82.41,9.82.41S458.21,410.62,457.09,402Z"/><path id="_Контур_4" data-name="&lt;Контур&gt;" class="cls-19" d="M451.34,270.44c-3,.15-5.23.92-5.61,0a39.33,39.33,0,0,1-.68-4.69c.34-.87.64-1.8.64-1.8,3.77-2.32,5-6.39,5.45-11.13.85-8.1-3.53-15.19-11.63-16-7.62-.79-13.22,4.56-14.71,11.91-.81,3.63-2.41,10.48-.24,16.45,1.21,3.34,2.77,6,4.33,6.5a36.79,36.79,0,0,0,4.51-.39h0s.41,2.25.68,3.69.17,2.21-2.7,4,4.34,5.41,9.06,5.06,10-3.21,11.49-6.26C453.54,274.35,453.4,270.34,451.34,270.44Z"/><path id="_Контур_5" data-name="&lt;Контур&gt;" class="cls-23" d="M447,270.89c.83,2.07-1.28,4.6-6.91,6.37s-6.14-.5-6.14-.5-8.26,3.76-10.95,5.63c-3.38,2.37-4.87,9.2-5.33,20.75-.53,13.36-.57,33.17-.13,36.59,0,0,6.32,6.3,14.4,5.63s21.68-7.81,25-13.34c-.1-11.71-1.46-13.62.43-20.36,4.34-15.45,6.63-21.77,4.52-32-1.74-8.46-4.18-9.51-7.52-9.43A67.94,67.94,0,0,0,447,270.89Z"/><path id="_Контур_6" data-name="&lt;Контур&gt;" class="cls-19" d="M405,316.42c6.64,1.67,8.19-2.51,9.07-6,2.11-8.38,3.24-16,4.82-20.71,1.85-5.62,3.79-6.51,6.52-7.61,3.2-1.28,6,1.43,4.89,8.57-1.26,8.45-2.92,14.39-6.08,24.39-.82,2.61-2.67,7.25-5.45,9.49-3.42,2.77-8.57,2.65-16.37.71-3.33-.83-7-2.81-13.27-5.75-1.69-.79-3-1.31-6.24-2.82a22.16,22.16,0,0,1-8.32-6.49c-1.7-2.46-1.92-3.62-1.58-4.18s1.21-.55,2.11.49a18.31,18.31,0,0,0,4.78,4.41s-2.1-2.16-3.23-3.57a17.56,17.56,0,0,1-2.51-4.1c-.6-1.43.63-3.38,1.57-2.36s1.39,2.07,3.11,4.12a17.72,17.72,0,0,0,3.07,2.94,33.92,33.92,0,0,1-2.83-4.56,7.61,7.61,0,0,1-1-4.12c0-.75,1.11-1.64,2.1-.22s1.48,3.28,3.57,5.44c1.51,1.58,2.8,2.48,2.84,2.05s-.92-1.3-1.46-3.13,0-3.77,1-4,.82-.16,1.63,1.56,2.06,3,3,5.48a11.22,11.22,0,0,0,2.72,4.69C395.05,312.91,398.65,314.83,405,316.42Z"/><path id="_Контур_7" data-name="&lt;Контур&gt;" class="cls-20" d="M427.83,281c-4.43-.66-7.56,1.34-9.52,8S415,301.25,415,301.25a12.08,12.08,0,0,0,7.43,4.93c5.3,1.28,7.2-1.25,7.2-1.25s1.47-7,2.39-11.82S433.31,281.79,427.83,281Z"/><path class="cls-24" d="M425.05,247.66s-7-10.64,8.17-12.81c10.94-1.56,18,5.46,18.78,13.09.78,7.28-3.71,14.85-6.95,17.85-1.58.57-5,.89-9.45-1.14a52.2,52.2,0,0,1-.21-6S440.72,247.47,425.05,247.66Z"/></g><path class="cls-23" d="M460.9,294.81l-43.36,40.4L415,412.9s12.16,5.93,26,2.72l2.5-29.88,3.85,27.12-.46.83a39.12,39.12,0,0,0,16.24-13.52Z"/><path class="cls-20" d="M415,301.25l-2.13,9.37s-1.81,6.57-6.43,4.9a122.09,122.09,0,0,1-12.84-6.3L388,320.71l11.59,5.43s16.08,5.73,20.55,0,9.49-21.21,9.49-21.21Z"/><path class="cls-20" d="M466.33,290.85l1.88,8.94s.91,6.73,1,8,.63,3.55-3.08,7.24-4.7,4.81-4.7,4.81l-.51-21,1.07-4.84,3.11-3.92Z"/></g></g></svg>